<svg width="32" height="32" viewBox="0 0 32 32" fill="none" xmlns="http://www.w3.org/2000/svg">
<path d="M4 5.76028C4 4.81514 4.79444 4.04797 5.77375 4.04797H26.2262C27.2059 4.04797 28 4.81514 28 5.76028V26.2399C28 27.1854 27.2059 27.952 26.2262 27.952H5.77375C4.79453 27.952 4 27.1855 4 26.2402V5.76V5.76028Z" fill="#006699"/>
<path d="M11.2933 24.0525V13.2908H7.70192V24.0525H11.2937H11.2933ZM9.49836 11.8217C10.7505 11.8217 11.53 10.9954 11.53 9.96265C11.5066 8.90639 10.7505 8.10309 9.52218 8.10309C8.29302 8.10309 7.49023 8.90639 7.49023 9.96256C7.49023 10.9953 8.26949 11.8217 9.47483 11.8217H9.49808L9.49836 11.8217ZM13.2812 24.0525H16.8723V18.0433C16.8723 17.7221 16.8957 17.4001 16.9906 17.1706C17.2501 16.5278 17.841 15.8623 18.8334 15.8623C20.1325 15.8623 20.6526 16.8491 20.6526 18.2959V24.0525H24.2436V17.8821C24.2436 14.5767 22.4721 13.0385 20.1093 13.0385C18.1721 13.0385 17.3213 14.1169 16.8487 14.8514H16.8726V13.2912H13.2814C13.3282 14.3008 13.2811 24.0528 13.2811 24.0528L13.2812 24.0525Z" fill="white"/>
</svg>
