<svg width="32" height="32" viewBox="0 0 32 32" fill="none" xmlns="http://www.w3.org/2000/svg">
<path d="M30.6673 3.99998C29.3905 4.90062 27.9768 5.58946 26.4807 6.03998C25.6776 5.11666 24.6104 4.46224 23.4234 4.16521C22.2363 3.86819 20.9866 3.94291 19.8434 4.37925C18.7002 4.81559 17.7186 5.59251 17.0313 6.60494C16.344 7.61736 15.9842 8.81643 16.0007 10.04V11.3733C13.6575 11.4341 11.3357 10.9144 9.242 9.86057C7.14831 8.80675 5.34774 7.25149 4.00065 5.33331C4.00065 5.33331 -1.33268 17.3333 10.6673 22.6666C7.92135 24.5306 4.65019 25.4652 1.33398 25.3333C13.334 32 28.0006 25.3333 28.0006 9.99998C27.9994 9.62858 27.9637 9.25811 27.894 8.89331C29.2548 7.5513 30.2151 5.85693 30.6673 3.99998V3.99998Z" stroke="#1FC9FF" stroke-width="2" stroke-linecap="round" stroke-linejoin="round"/>
</svg>
