<svg width="320" height="200" viewBox="0 0 320 200" fill="none" xmlns="http://www.w3.org/2000/svg">
<g clip-path="url(#clip0_2431_8684)">
<path d="M17.9395 199.416C13.0029 199.018 8.64444 195.51 6.16583 191.298C5.33462 189.885 4.7651 188.032 5.70638 186.688C5.97581 186.303 6.34815 185.999 6.78239 185.809C7.21662 185.619 7.69589 185.55 8.16739 185.61C8.63888 185.67 9.0843 185.857 9.45457 186.15C9.82484 186.443 10.1056 186.831 10.2659 187.27C9.9627 185.62 9.83242 183.944 9.87709 182.268C9.91503 180.848 10.1881 179.244 11.3896 178.454C12.7836 177.539 14.7928 178.266 15.8068 179.578C16.8207 180.89 17.0958 182.596 17.3391 184.226C17.1405 183.536 17.1211 182.808 17.2828 182.109C17.4445 181.41 17.7821 180.762 18.2647 180.225C18.7473 179.687 19.3595 179.276 20.0453 179.031C20.7311 178.786 21.4686 178.714 22.1902 178.821C24.2319 179.123 25.8313 180.86 26.4554 182.793C27.0795 184.726 26.8847 186.822 26.483 188.811C26.012 191.144 25.2476 193.458 23.8714 195.414C22.4952 197.371 20.4511 198.948 18.0794 199.427L17.9395 199.416Z" fill="#1D8651"/>
<path d="M288.569 27.3076H92.3266C91.5787 27.3084 90.8618 27.6006 90.3329 28.1199C89.8041 28.6393 89.5067 29.3435 89.5059 30.078V160.682C89.5067 161.416 89.8041 162.12 90.3329 162.64C90.8618 163.159 91.5787 163.451 92.3266 163.452H288.569C289.316 163.451 290.033 163.159 290.562 162.64C291.091 162.12 291.388 161.416 291.389 160.682V30.078C291.388 29.3435 291.091 28.6393 290.562 28.1199C290.033 27.6006 289.316 27.3084 288.569 27.3076ZM290.583 160.682C290.583 161.207 290.371 161.71 289.993 162.081C289.615 162.452 289.103 162.66 288.569 162.661H92.3266C91.7923 162.66 91.2799 162.452 90.9021 162.081C90.5243 161.71 90.312 161.207 90.3118 160.682V30.078C90.312 29.5532 90.5243 29.05 90.9021 28.679C91.2799 28.3079 91.7923 28.0994 92.3266 28.0992H288.569C289.103 28.0994 289.615 28.3079 289.993 28.679C290.371 29.05 290.583 29.5532 290.583 30.078V160.682Z" fill="#5A5766"/>
<path d="M290.988 38.4053H89.9102V39.1961H290.988V38.4053Z" fill="#5A5766"/>
<path d="M96.7596 35.6193C98.0949 35.6193 99.1773 34.5562 99.1773 33.2447C99.1773 31.9333 98.0949 30.8701 96.7596 30.8701C95.4243 30.8701 94.3418 31.9333 94.3418 33.2447C94.3418 34.5562 95.4243 35.6193 96.7596 35.6193Z" fill="#5A5766"/>
<path d="M103.711 35.6193C105.046 35.6193 106.128 34.5562 106.128 33.2447C106.128 31.9333 105.046 30.8701 103.711 30.8701C102.375 30.8701 101.293 31.9333 101.293 33.2447C101.293 34.5562 102.375 35.6193 103.711 35.6193Z" fill="#5A5766"/>
<path d="M110.662 35.6193C111.997 35.6193 113.08 34.5562 113.08 33.2447C113.08 31.9333 111.997 30.8701 110.662 30.8701C109.327 30.8701 108.244 31.9333 108.244 33.2447C108.244 34.5562 109.327 35.6193 110.662 35.6193Z" fill="#5A5766"/>
<path d="M144.713 54.6162H109.252C108.505 54.617 107.788 54.9092 107.259 55.4285C106.73 55.9479 106.432 56.6521 106.432 57.3866V92.2143C106.432 92.9488 106.73 93.653 107.259 94.1723C107.788 94.6917 108.505 94.9838 109.252 94.9847H144.713C145.461 94.9838 146.178 94.6917 146.707 94.1723C147.235 93.653 147.533 92.9488 147.534 92.2143V57.3866C147.533 56.6521 147.235 55.9479 146.707 55.4285C146.178 54.9092 145.461 54.617 144.713 54.6162ZM146.728 92.2143C146.728 92.739 146.515 93.2422 146.137 93.6133C145.76 93.9844 145.247 94.1929 144.713 94.1931H109.252C108.718 94.1929 108.206 93.9844 107.828 93.6133C107.45 93.2422 107.238 92.739 107.238 92.2143V57.3866C107.238 56.8618 107.45 56.3586 107.828 55.9876C108.206 55.6165 108.718 55.408 109.252 55.4077H144.713C145.247 55.408 145.76 55.6165 146.137 55.9876C146.515 56.3586 146.728 56.8618 146.728 57.3866V92.2143Z" fill="#5A5766"/>
<path d="M208.381 54.8145H172.92C172.226 54.8158 171.56 55.0872 171.069 55.5694C170.579 56.0515 170.302 56.7051 170.301 57.387V92.2146C170.302 92.8965 170.579 93.5501 171.069 94.0322C171.56 94.5144 172.226 94.7858 172.92 94.7871H208.381C209.075 94.7858 209.74 94.5144 210.231 94.0322C210.722 93.5501 210.998 92.8965 211 92.2146V57.387C210.998 56.7051 210.722 56.0515 210.231 55.5694C209.74 55.0872 209.075 54.8158 208.381 54.8145Z" fill="#7E64F3"/>
<path d="M272.049 54.8145H236.588C235.894 54.8158 235.228 55.0872 234.737 55.5694C234.246 56.0515 233.97 56.7051 233.969 57.387V92.2146C233.97 92.8965 234.246 93.5501 234.737 94.0322C235.228 94.5144 235.894 94.7858 236.588 94.7871H272.049C272.743 94.7858 273.408 94.5144 273.899 94.0322C274.39 93.5501 274.666 92.8965 274.668 92.2146V57.387C274.666 56.7051 274.39 56.0515 273.899 55.5694C273.408 55.0872 272.743 54.8158 272.049 54.8145Z" fill="#FDFAFF"/>
<path d="M144.713 107.056H109.252C108.558 107.057 107.892 107.328 107.401 107.811C106.911 108.293 106.634 108.946 106.633 109.628V144.456C106.634 145.138 106.911 145.791 107.401 146.273C107.892 146.756 108.558 147.027 109.252 147.028H144.713C145.407 147.027 146.072 146.756 146.563 146.273C147.054 145.791 147.331 145.138 147.332 144.456V109.628C147.331 108.946 147.054 108.293 146.563 107.811C146.072 107.328 145.407 107.057 144.713 107.056Z" fill="#FDFAFF"/>
<path d="M208.381 107.056H172.92C172.226 107.057 171.56 107.328 171.069 107.811C170.579 108.293 170.302 108.946 170.301 109.628V144.456C170.302 145.138 170.579 145.791 171.069 146.273C171.56 146.756 172.226 147.027 172.92 147.028H208.381C209.075 147.027 209.74 146.756 210.231 146.273C210.722 145.791 210.998 145.138 211 144.456V109.628C210.998 108.946 210.722 108.293 210.231 107.811C209.74 107.328 209.075 107.057 208.381 107.056Z" fill="#7E64F3"/>
<path d="M272.049 107.056H236.588C235.894 107.057 235.228 107.328 234.737 107.811C234.246 108.293 233.97 108.946 233.969 109.628V144.456C233.97 145.138 234.246 145.791 234.737 146.273C235.228 146.756 235.894 147.027 236.588 147.028H272.049C272.743 147.027 273.408 146.756 273.899 146.273C274.39 145.791 274.666 145.138 274.668 144.456V109.628C274.666 108.946 274.39 108.293 273.899 107.811C273.408 107.328 272.743 107.057 272.049 107.056Z" fill="#FDFAFF"/>
<path d="M136.049 112.794H100.588C99.8936 112.793 99.2278 112.522 98.7368 112.04C98.2458 111.557 97.9695 110.903 97.9688 110.221V75.3938C97.9695 74.7118 98.2458 74.0579 98.7368 73.5756C99.2278 73.0933 99.8936 72.8221 100.588 72.8213H136.049C136.743 72.8221 137.409 73.0934 137.9 73.5756C138.391 74.0579 138.667 74.7118 138.668 75.3938V110.221C138.667 110.903 138.391 111.557 137.9 112.04C137.409 112.522 136.743 112.793 136.049 112.794Z" fill="#9986F0"/>
<path d="M81.6981 194.753L86.4208 193.329L83.0778 174.761L76.1074 176.861L81.6981 194.753Z" fill="#FFBE9D"/>
<path d="M96.875 194.892L82.0319 199.366L80.2719 193.733L89.3802 190.988C90.1333 190.761 90.9246 190.682 91.7088 190.755C92.493 190.828 93.2549 191.053 93.9508 191.415C94.6468 191.778 95.2632 192.271 95.7649 192.868C96.2667 193.464 96.6439 194.152 96.875 194.892Z" fill="#2C2937"/>
<path d="M41.4031 194.86L46.3434 194.86L48.6935 176.145L41.4023 176.145L41.4031 194.86Z" fill="#FFBE9D"/>
<path d="M55.8711 199.365L40.3447 199.366L40.3444 193.474L49.872 193.474C50.6598 193.474 51.4398 193.626 52.1677 193.922C52.8955 194.218 53.5568 194.652 54.1139 195.199C54.671 195.746 55.1128 196.396 55.4143 197.111C55.7159 197.825 55.8711 198.591 55.8711 199.365L55.8711 199.365Z" fill="#2C2937"/>
<path d="M41.0492 140.609C40.6434 140.26 40.3204 139.827 40.1032 139.342C39.886 138.856 39.7797 138.33 39.792 137.8C39.8042 137.27 39.9346 136.749 40.1739 136.274C40.4133 135.799 40.7558 135.381 41.1774 135.05L45.0077 87.6787L52.7972 89.5902L46.5604 135.8C47.0797 136.532 47.3074 137.426 47.2004 138.312C47.0934 139.199 46.6591 140.016 45.9798 140.608C45.3005 141.201 44.4233 141.529 43.5146 141.529C42.6059 141.529 41.7287 141.202 41.0492 140.609Z" fill="#FFBE9D"/>
<path d="M56.6471 69.3053C62.1132 69.3053 66.5443 64.9532 66.5443 59.5848C66.5443 54.2163 62.1132 49.8643 56.6471 49.8643C51.1811 49.8643 46.75 54.2163 46.75 59.5848C46.75 64.9532 51.1811 69.3053 56.6471 69.3053Z" fill="#FFBE9D"/>
<path d="M48.0413 86.2218C45.8081 83.2107 45.7393 79.0636 48.1449 76.1834C49.7148 74.3039 52.3407 72.7998 56.7249 72.7998C68.4108 72.7998 72.8433 81.9025 72.8433 81.9025C72.8433 81.9025 77.6789 90.6094 74.8581 98.5248C72.0374 106.44 72.0374 107.232 72.0374 107.232L53.5012 105.649C53.5012 105.649 56.6283 97.7999 48.0413 86.2218Z" fill="#FDFAFF"/>
<path d="M42.3262 94.1013L46.3194 81.2701C46.5868 80.411 47.0431 79.62 47.6561 78.953C48.269 78.2861 49.0236 77.7595 49.8665 77.4105C50.7094 77.0615 51.6201 76.8986 52.5342 76.9333C53.4482 76.968 54.3434 77.1994 55.1564 77.6112C56.5669 78.3287 57.6468 79.5461 58.1772 81.0167C58.7076 82.4873 58.6487 84.1009 58.0125 85.5304L52.9359 96.8856L42.3262 94.1013Z" fill="#FDFAFF"/>
<path d="M71.6346 105.253L87.35 185.198L78.8879 187.573L58.3369 134.936L49.0688 188.76L40.2036 189.948C40.2036 189.948 36.3149 118.731 53.5013 105.649L71.6346 105.253Z" fill="#FF684D"/>
<path d="M94.2546 101.506C94.1112 101.674 93.9815 101.852 93.8667 102.04L73.906 102.99L70.0625 91.4658L63.3887 94.5811L69.6699 111.746L94.3561 107.004C94.9362 107.626 95.6954 108.06 96.5326 108.248C97.3699 108.436 98.2455 108.369 99.0431 108.057C99.8407 107.744 100.522 107.2 100.998 106.497C101.473 105.795 101.719 104.967 101.704 104.123C101.688 103.28 101.411 102.461 100.911 101.776C100.41 101.091 99.7083 100.572 98.8997 100.288C98.0911 100.003 97.2135 99.9678 96.3838 100.185C95.554 100.403 94.8114 100.864 94.2546 101.506Z" fill="#FFBE9D"/>
<path d="M60.5955 83.0519C60.4886 82.1596 60.5826 81.2552 60.8707 80.4025C61.1589 79.5498 61.6342 78.7696 62.2632 78.1172C62.8921 77.4648 63.6592 76.956 64.5104 76.6268C65.3615 76.2976 66.2759 76.1561 67.1889 76.2122C68.7741 76.3121 70.2613 77.0004 71.3489 78.1375C72.4365 79.2745 73.0432 80.7753 73.0458 82.3354V94.7368L62.1917 96.3771L60.5955 83.0519Z" fill="#FDFAFF"/>
<path d="M58.8245 69.3934C57.3391 69.387 56.1931 67.851 56.2597 66.3935C56.3263 64.936 57.323 63.6537 58.5238 62.7948C59.7246 61.936 61.1329 61.4128 62.472 60.7814C63.8111 60.1499 65.1386 59.3623 65.9654 58.1502C66.4649 57.3569 66.763 56.4573 66.8348 55.5273C66.9065 54.5972 66.7498 53.6638 66.3777 52.8056C65.6083 51.0892 64.2872 49.6678 62.6168 48.7592C60.1355 47.3326 57.1981 46.8765 54.3897 47.4816C51.5813 48.0867 49.1081 49.7087 47.4627 52.0244L45.767 56.5591C44.0391 58.5997 43.7651 61.6302 44.8272 64.0707C45.8893 66.5111 48.1509 68.3473 50.7028 69.2202C53.292 70.0374 56.0636 70.119 58.698 69.4556" fill="#2C2937"/>
<path d="M49.7792 54.2914C49.0502 53.1439 47.7868 52.4142 46.4806 51.9859C44.9674 51.4897 43.358 51.3433 41.7777 51.5579C40.1975 51.7726 38.689 52.3426 37.3697 53.2236C36.0505 54.1045 34.956 55.2727 34.1717 56.637C33.3873 58.0014 32.9341 59.5252 32.8474 61.0897C32.709 63.5887 33.5057 66.0325 33.9739 68.4926C34.4421 70.9527 34.5352 73.6699 33.1541 75.7732C32.1022 77.3752 30.3479 78.3838 28.6164 79.2451C27.1733 79.9629 25.6123 80.6365 24.0013 80.4935C22.3902 80.3505 20.771 79.0972 20.8137 77.509C20.2744 78.6477 19.9102 79.8588 19.7331 81.1027C19.6198 82.3517 19.9332 83.6994 20.8517 84.5704C22.1868 85.8363 24.3021 85.7437 26.1369 85.4705C30.1088 84.8792 34.1309 83.7705 37.2689 81.3069C40.4069 78.8433 42.4891 74.7866 41.6627 70.9254C41.3175 69.3124 40.5062 67.84 39.8507 66.3227C39.1951 64.8054 38.6833 63.1459 38.9845 61.5244C39.1627 60.689 39.5255 59.9023 40.0472 59.2197C40.5689 58.5371 41.2368 57.9753 42.0037 57.5739C43.5547 56.7819 45.3294 56.5175 47.0498 56.8224C48.1777 57.0041 49.5861 57.2864 50.255 56.3762C50.4323 56.0878 50.5229 55.7561 50.5162 55.4193C50.5095 55.0825 50.4059 54.7544 50.2173 54.4731C49.8313 53.9165 49.3398 53.4382 48.7696 53.0643" fill="#2C2937"/>
<path d="M124.307 200H0.479244C0.416119 200 0.353574 199.988 0.295201 199.965C0.236828 199.941 0.183774 199.906 0.139073 199.863C0.0943723 199.819 0.0589047 199.767 0.0347054 199.709C0.0105061 199.652 -0.00195312 199.591 -0.00195312 199.529C-0.00195312 199.467 0.0105061 199.405 0.0347054 199.348C0.0589047 199.291 0.0943723 199.239 0.139073 199.195C0.183774 199.151 0.236828 199.117 0.295201 199.093C0.353574 199.07 0.416119 199.057 0.479244 199.058H124.307C124.37 199.057 124.432 199.07 124.491 199.093C124.549 199.117 124.602 199.151 124.647 199.195C124.692 199.239 124.727 199.291 124.751 199.348C124.775 199.405 124.788 199.467 124.788 199.529C124.788 199.591 124.775 199.652 124.751 199.709C124.727 199.767 124.692 199.819 124.647 199.863C124.602 199.906 124.549 199.941 124.491 199.965C124.432 199.988 124.37 200 124.307 200Z" fill="#5A5766"/>
</g>
<defs>
<clipPath id="clip0_2431_8684">
<rect width="320" height="200" fill="white"/>
</clipPath>
</defs>
</svg>
