<svg width="303" height="200" viewBox="0 0 303 200" fill="none" xmlns="http://www.w3.org/2000/svg">
<path d="M44.0261 44.4727H263.605C265.417 44.4727 266.888 45.9758 266.888 47.8273V190.355C266.888 194.357 263.707 197.607 259.791 197.607H47.3434C43.427 197.607 40.2461 194.357 40.2461 190.355V48.33C40.2461 46.1998 41.9364 44.4727 44.0213 44.4727H44.0261Z" fill="#5A5766"/>
<path d="M30.7695 186.283H276.312V192.853C276.312 196.621 273.316 199.682 269.629 199.682H37.4528C33.7653 199.682 30.7695 196.621 30.7695 192.853V186.283Z" fill="#5A5766"/>
<path d="M260.164 50.5547H46.3281V179.873H260.164V50.5547Z" fill="#F3F2F7"/>
<path d="M131.225 186.283L134.274 191.231H177.145L179.976 186.283H131.225Z" fill="#5A5766"/>
<path d="M266.919 186.234H40.2812V186.971H266.919V186.234Z" fill="#5A5766"/>
<path d="M237.473 32.4414H247.575V144.643C247.575 152.059 242.806 158.072 236.922 158.072H225.533V32.4414H237.468H237.473Z" fill="#D4D2D9"/>
<path d="M237.472 32.4412C237.472 32.4412 237.209 32.4511 236.698 32.4561C236.181 32.4561 235.417 32.4611 234.413 32.471C232.396 32.476 229.41 32.486 225.533 32.4959L225.582 32.4462C225.596 53.6342 225.625 101.545 225.66 158.071L225.533 157.942C227.93 157.942 230.506 157.942 233.098 157.942C234.038 157.942 234.978 157.942 235.918 157.942C236.386 157.937 236.858 157.962 237.316 157.917L238.008 157.872L238.685 157.743C240.502 157.39 242.124 156.359 243.439 155.075C244.764 153.781 245.719 152.144 246.386 150.431C247.049 148.709 247.39 146.873 247.429 145.041C247.434 137.665 247.444 130.468 247.448 123.505C247.453 109.573 247.458 96.5578 247.463 84.8116C247.487 61.329 247.512 42.9232 247.521 32.4412L247.57 32.491C244.263 32.481 241.734 32.4711 240.034 32.4661C239.187 32.4611 238.549 32.4561 238.115 32.4561C237.687 32.4561 237.467 32.4462 237.467 32.4462C237.467 32.4462 237.687 32.4362 238.115 32.4362C238.549 32.4362 239.192 32.4312 240.034 32.4263C241.734 32.4213 244.263 32.4113 247.57 32.4014H247.619V32.4511C247.629 42.9332 247.653 61.334 247.677 84.8215C247.682 96.5678 247.687 109.583 247.692 123.515C247.692 130.483 247.682 137.675 247.682 145.056C247.638 146.912 247.293 148.779 246.62 150.531C245.943 152.273 244.969 153.94 243.615 155.264C242.275 156.578 240.609 157.638 238.739 158.002L238.042 158.136L237.331 158.186C236.854 158.231 236.391 158.206 235.918 158.211H233.098C230.506 158.211 227.93 158.211 225.533 158.211H225.406V158.081C225.44 101.555 225.47 53.6442 225.484 32.4561V32.4063H225.533C229.41 32.4163 232.392 32.4263 234.413 32.4312C235.417 32.4362 236.181 32.4412 236.698 32.4462C237.209 32.4462 237.472 32.4611 237.472 32.4611V32.4412Z" fill="#5A5766"/>
<path d="M237.474 158.067H64.1862C58.9107 158.067 54.6289 153.697 54.6289 148.302V0.144531H237.479V158.067H237.474Z" fill="white"/>
<path d="M237.474 158.067C237.474 157.151 237.43 95.2592 237.367 0.14434L237.474 0.253839C185.586 0.258816 123.415 0.268771 56.694 0.273748H54.6238L54.7504 0.14434C54.7504 47.2289 54.7455 92.0539 54.7407 132.812C54.7407 137.909 54.7407 142.936 54.7407 147.903C54.7309 149.138 54.8771 150.362 55.2862 151.512C55.6808 152.662 56.2897 153.727 57.0691 154.638C58.6181 156.469 60.8443 157.659 63.1727 157.903C64.3321 158.002 65.5206 157.947 66.6848 157.962C67.8539 157.962 69.023 157.962 70.1872 157.962C72.5108 157.962 74.8197 157.962 77.1092 157.962C81.6881 157.962 86.194 157.962 90.6268 157.962C108.348 157.967 124.857 157.977 139.918 157.982C200.2 158.037 236.777 158.067 237.479 158.067C236.782 158.067 200.224 158.102 139.982 158.152C124.905 158.157 108.387 158.166 90.6511 158.171C86.2184 158.171 81.7076 158.171 77.1238 158.171C74.8344 158.171 72.5205 158.171 70.197 158.171C69.0328 158.171 67.8637 158.171 66.6946 158.171C65.5206 158.156 64.3515 158.216 63.1532 158.112C60.7712 157.863 58.4915 156.643 56.9035 154.772C56.1095 153.841 55.4811 152.746 55.0768 151.572C54.6627 150.397 54.5117 149.133 54.5215 147.888C54.5215 142.926 54.5215 137.894 54.5215 132.798C54.5215 92.0439 54.5166 47.214 54.5117 0.129408V0H56.7086C123.429 0.00995446 185.601 0.0149322 237.489 0.0199094H237.596V0.129408C237.532 95.2493 237.489 157.141 237.489 158.052L237.474 158.067Z" fill="#5A5766"/>
<path d="M237.474 14.4281C237.474 14.4977 196.537 14.5573 146.056 14.5573C95.5762 14.5573 54.6289 14.4977 54.6289 14.4281C54.6289 14.3585 95.5567 14.2988 146.056 14.2988C196.556 14.2988 237.474 14.3585 237.474 14.4281Z" fill="#5A5766"/>
<path d="M179.837 7.37631C179.837 7.44589 165.32 7.50554 147.419 7.50554C129.517 7.50554 114.996 7.44589 114.996 7.37631C114.996 7.30672 129.507 7.24707 147.419 7.24707C165.33 7.24707 179.837 7.30672 179.837 7.37631Z" fill="#FC5C5C"/>
<path d="M60.7654 8.95432C61.7285 8.95432 62.5093 8.15656 62.5093 7.17247C62.5093 6.18838 61.7285 5.39062 60.7654 5.39062C59.8023 5.39062 59.0215 6.18838 59.0215 7.17247C59.0215 8.15656 59.8023 8.95432 60.7654 8.95432Z" fill="#D4D2D9"/>
<path d="M66.6794 8.95432C67.6426 8.95432 68.4233 8.15656 68.4233 7.17247C68.4233 6.18838 67.6426 5.39062 66.6794 5.39062C65.7163 5.39062 64.9355 6.18838 64.9355 7.17247C64.9355 8.15656 65.7163 8.95432 66.6794 8.95432Z" fill="#D4D2D9"/>
<path d="M72.5935 8.95432C73.5566 8.95432 74.3374 8.15656 74.3374 7.17247C74.3374 6.18838 73.5566 5.39062 72.5935 5.39062C71.6304 5.39062 70.8496 6.18838 70.8496 7.17247C70.8496 8.15656 71.6304 8.95432 72.5935 8.95432Z" fill="#D4D2D9"/>
<path d="M141.5 54.3509C141.5 54.4205 137.876 54.4802 133.405 54.4802C128.933 54.4802 125.309 54.4205 125.309 54.3509C125.309 54.2813 128.933 54.2217 133.405 54.2217C137.876 54.2217 141.5 54.2813 141.5 54.3509Z" fill="#5A5766"/>
<path d="M163.854 54.3509C163.854 54.4205 159.884 54.4802 154.989 54.4802C150.093 54.4802 146.123 54.4205 146.123 54.3509C146.123 54.2813 150.093 54.2217 154.989 54.2217C159.884 54.2217 163.854 54.2813 163.854 54.3509Z" fill="#5A5766"/>
<path d="M163.085 62.6976C163.085 62.7672 154.663 62.8268 144.277 62.8268C133.892 62.8268 125.465 62.7672 125.465 62.6976C125.465 62.628 133.887 62.5684 144.277 62.5684C154.668 62.5684 163.085 62.628 163.085 62.6976Z" fill="#5A5766"/>
<path d="M163.855 70.1038C163.855 70.1734 155.33 70.2331 144.813 70.2331C134.296 70.2331 125.771 70.1734 125.771 70.1038C125.771 70.0343 134.296 69.9746 144.813 69.9746C155.33 69.9746 163.855 70.0343 163.855 70.1038Z" fill="#5A5766"/>
<path d="M141.345 78.137C141.345 78.2066 137.891 78.2663 133.639 78.2663C129.386 78.2663 125.928 78.2066 125.928 78.137C125.928 78.0675 129.377 78.0078 133.639 78.0078C137.901 78.0078 141.345 78.0675 141.345 78.137Z" fill="#5A5766"/>
<path d="M161.545 77.9827C161.545 78.0523 157.751 78.112 153.065 78.112C148.379 78.112 144.584 78.0523 144.584 77.9827C144.584 77.9132 148.379 77.8535 153.065 77.8535C157.751 77.8535 161.545 77.9132 161.545 77.9827Z" fill="#5A5766"/>
<path d="M161.547 86.1703C161.547 86.2398 153.538 86.2995 143.664 86.2995C133.79 86.2995 125.777 86.2398 125.777 86.1703C125.777 86.1007 133.786 86.041 143.664 86.041C153.543 86.041 161.547 86.1007 161.547 86.1703Z" fill="#5A5766"/>
<path d="M93.7046 101.455C93.7046 101.525 90.3581 101.585 86.2273 101.585C82.0965 101.585 78.75 101.525 78.75 101.455C78.75 101.386 82.0965 101.326 86.2273 101.326C90.3581 101.326 93.7046 101.386 93.7046 101.455Z" fill="#5A5766"/>
<path d="M116.214 101.928C116.214 101.998 112.346 102.057 107.582 102.057C102.818 102.057 98.9453 101.998 98.9453 101.928C98.9453 101.858 102.808 101.799 107.582 101.799C112.356 101.799 116.214 101.858 116.214 101.928Z" fill="#5A5766"/>
<path d="M116.677 109.489C116.677 109.558 108.289 109.618 97.9475 109.618C87.606 109.618 79.2129 109.558 79.2129 109.489C79.2129 109.419 87.5962 109.359 97.9475 109.359C108.299 109.359 116.677 109.419 116.677 109.489Z" fill="#5A5766"/>
<path d="M118.99 117.209C118.99 117.279 109.949 117.339 98.7937 117.339C87.6386 117.339 78.5977 117.279 78.5977 117.209C78.5977 117.14 87.6386 117.08 98.7937 117.08C109.949 117.08 118.99 117.14 118.99 117.209Z" fill="#5A5766"/>
<path d="M151.214 93.263C151.214 93.3326 145.486 93.3923 138.418 93.3923C131.35 93.3923 125.621 93.3326 125.621 93.263C125.621 93.1934 131.35 93.1338 138.418 93.1338C145.486 93.1338 151.214 93.1934 151.214 93.263Z" fill="#5A5766"/>
<path d="M163.855 93.263C163.855 93.3326 161.989 93.3923 159.69 93.3923C157.391 93.3923 155.525 93.3326 155.525 93.263C155.525 93.1934 157.391 93.1338 159.69 93.1338C161.989 93.1338 163.855 93.1934 163.855 93.263Z" fill="#5A5766"/>
<path d="M162.008 101.769C162.008 101.838 154.136 101.898 144.433 101.898C134.729 101.898 126.857 101.838 126.857 101.769C126.857 101.699 134.724 101.64 144.433 101.64C154.141 101.64 162.008 101.699 162.008 101.769Z" fill="#5A5766"/>
<path d="M142.889 109.643C142.889 109.712 139.022 109.772 134.258 109.772C129.494 109.772 125.621 109.712 125.621 109.643C125.621 109.573 129.484 109.514 134.258 109.514C139.032 109.514 142.889 109.573 142.889 109.643Z" fill="#5A5766"/>
<path d="M164.164 117.682C164.164 117.752 155.707 117.811 145.278 117.811C134.849 117.811 126.393 117.752 126.393 117.682C126.393 117.612 134.849 117.553 145.278 117.553C155.707 117.553 164.164 117.612 164.164 117.682Z" fill="#5A5766"/>
<path d="M165.704 109.803C165.704 109.873 161.563 109.932 156.454 109.932C151.344 109.932 147.203 109.873 147.203 109.803C147.203 109.733 151.344 109.674 156.454 109.674C161.563 109.674 165.704 109.733 165.704 109.803Z" fill="#5A5766"/>
<path d="M211.032 54.5101C211.032 54.5797 202.23 54.6393 191.377 54.6393C180.524 54.6393 171.717 54.5797 171.717 54.5101C171.717 54.4405 180.514 54.3809 191.377 54.3809C202.24 54.3809 211.032 54.4405 211.032 54.5101Z" fill="#5A5766"/>
<path d="M179.889 62.0706C179.889 62.1402 178.131 62.1999 175.958 62.1999C173.786 62.1999 172.027 62.1402 172.027 62.0706C172.027 62.001 173.786 61.9414 175.958 61.9414C178.131 61.9414 179.889 62.001 179.889 62.0706Z" fill="#5A5766"/>
<path d="M211.032 62.2298C211.032 62.2994 204.855 62.3591 197.232 62.3591C189.608 62.3591 183.432 62.2994 183.432 62.2298C183.432 62.1602 189.608 62.1006 197.232 62.1006C204.855 62.1006 211.032 62.1602 211.032 62.2298Z" fill="#5A5766"/>
<path d="M209.03 69.7904C209.03 69.86 200.987 69.9196 191.069 69.9196C181.152 69.9196 173.109 69.86 173.109 69.7904C173.109 69.7208 181.152 69.6611 191.069 69.6611C200.987 69.6611 209.03 69.7208 209.03 69.7904Z" fill="#5A5766"/>
<path d="M210.261 77.3509C210.261 77.4205 201.975 77.4802 191.761 77.4802C181.546 77.4802 173.26 77.4205 173.26 77.3509C173.26 77.2813 181.541 77.2217 191.761 77.2217C201.98 77.2217 210.261 77.2813 210.261 77.3509Z" fill="#5A5766"/>
<path d="M190.374 85.3841C190.374 85.4537 186.506 85.5134 181.742 85.5134C176.978 85.5134 173.105 85.4537 173.105 85.3841C173.105 85.3145 176.968 85.2549 181.742 85.2549C186.516 85.2549 190.374 85.3145 190.374 85.3841Z" fill="#5A5766"/>
<path d="M210.263 85.5433C210.263 85.6129 206.809 85.6725 202.557 85.6725C198.304 85.6725 194.846 85.6129 194.846 85.5433C194.846 85.4737 198.295 85.4141 202.557 85.4141C206.819 85.4141 210.263 85.4737 210.263 85.5433Z" fill="#5A5766"/>
<path d="M116.676 33.5413C116.676 33.6109 108.327 33.6706 98.0337 33.6706C87.7408 33.6706 79.3867 33.6109 79.3867 33.5413C79.3867 33.4718 87.7311 33.4121 98.0337 33.4121C108.336 33.4121 116.676 33.4718 116.676 33.5413Z" fill="#5A5766"/>
<path d="M215.826 33.5413C215.826 33.6109 207.062 33.6706 196.253 33.6706C185.444 33.6706 176.676 33.6109 176.676 33.5413C176.676 33.4718 185.439 33.4121 196.253 33.4121C207.067 33.4121 215.826 33.4718 215.826 33.5413Z" fill="#5A5766"/>
<path d="M214.789 94.6128C214.77 94.6526 214.185 94.3042 213.036 93.9309C211.896 93.5675 210.132 93.2191 208.004 93.5476C206.946 93.7218 205.802 94.0454 204.681 94.6377C203.556 95.215 202.484 96.0711 201.418 97.0367C200.346 98.0023 199.284 99.0973 198.057 100.113C196.829 101.108 195.426 102.054 193.77 102.482C192.947 102.696 192.089 102.756 191.266 102.636C190.443 102.522 189.663 102.248 188.947 101.904C187.51 101.213 186.278 100.302 185.06 99.5452C183.852 98.7737 182.634 98.1566 181.407 97.8729C180.184 97.5692 179 97.5095 177.929 97.5991C175.781 97.7932 174.154 98.5697 173.131 99.1968C172.103 99.8389 171.616 100.322 171.586 100.292C171.577 100.282 171.699 100.162 171.937 99.9434C172.171 99.7194 172.541 99.4158 173.053 99.0773C174.066 98.4054 175.708 97.5692 177.904 97.3403C178.996 97.2258 180.213 97.2756 181.475 97.5742C182.746 97.8529 184.013 98.4851 185.236 99.2565C186.468 100.013 187.7 100.914 189.094 101.576C190.477 102.258 192.099 102.556 193.672 102.123C195.246 101.715 196.615 100.804 197.823 99.8289C199.031 98.8384 200.098 97.7484 201.184 96.7828C202.265 95.8123 203.371 94.9462 204.535 94.3639C205.695 93.7666 206.873 93.4481 207.955 93.2888C210.142 92.9852 211.93 93.3884 213.07 93.7965C213.649 94.0006 214.078 94.2096 214.36 94.3639C214.643 94.5182 214.789 94.6078 214.779 94.6177L214.789 94.6128Z" fill="#9986F0"/>
<path d="M184.558 103.164H179.916V115.99H184.558V103.164Z" fill="#9986F0"/>
<path d="M204.254 103.164H199.611V115.99H204.254V103.164Z" fill="#9986F0"/>
<path d="M210.818 95.6338H206.176V115.991H210.818V95.6338Z" fill="#9986F0"/>
<path d="M178.556 111.949H173.914V116.264H178.556V111.949Z" fill="#9986F0"/>
<path d="M191.125 108.952H186.482V115.985H191.125V108.952Z" fill="#9986F0"/>
<path d="M197.685 107.34H193.043V115.985H197.685V107.34Z" fill="#9986F0"/>
<path d="M118.528 54.3516H79.3633V93.0694H118.528V54.3516Z" fill="#FFC803"/>
<g opacity="0.3">
<path opacity="0.3" d="M82.4062 89.7549L93.2398 69.8311L102.101 82.5678L107.488 75.8037L115.496 89.7549H82.4062Z" fill="#2C2937"/>
</g>
<g opacity="0.3">
<path opacity="0.3" d="M105.12 63.8475C107.419 66.9284 104.009 70.4125 100.989 68.0682C98.6898 64.9873 102.1 61.5032 105.12 63.8475Z" fill="#2C2937"/>
</g>
<g opacity="0.3">
<path opacity="0.3" d="M115.493 89.8638C115.493 89.8638 115.488 89.8091 115.483 89.7046C115.483 89.5901 115.478 89.4408 115.474 89.2517C115.474 88.8385 115.464 88.2562 115.454 87.5096C115.444 85.9766 115.43 83.7518 115.415 80.9347C115.396 75.2806 115.366 67.2274 115.332 57.5567L115.493 57.7209C105.907 57.7309 94.5469 57.7358 82.4031 57.7458C82.3592 57.7856 82.7538 57.3874 82.5882 57.5616V59.7566C82.5882 60.4882 82.5882 61.2149 82.5882 61.9416C82.5882 63.39 82.5882 64.8284 82.5882 66.2519C82.5882 69.0988 82.5882 71.8811 82.5882 74.5937C82.5833 80.0139 82.5735 85.1405 82.5687 89.8589L82.4079 89.6946C92.2867 89.7295 100.534 89.7593 106.335 89.7792C109.229 89.7991 111.508 89.8141 113.082 89.824C113.851 89.834 114.451 89.839 114.874 89.8439C115.069 89.8439 115.22 89.8489 115.337 89.8539C115.444 89.8539 115.498 89.8589 115.498 89.8638C115.498 89.8638 115.454 89.8688 115.352 89.8738C115.24 89.8738 115.094 89.8788 114.904 89.8838C114.49 89.8838 113.9 89.8937 113.145 89.9037C111.577 89.9136 109.312 89.9286 106.433 89.9485C100.607 89.9684 92.3208 89.9982 82.4031 90.0331H82.2423V89.8688C82.2374 85.1554 82.2326 80.0239 82.2228 74.6037C82.2228 71.8911 82.2228 69.1038 82.2228 66.2618C82.2228 64.8383 82.2228 63.3999 82.2228 61.9515C82.2228 61.2249 82.2228 60.4982 82.2228 59.7665V57.5716C82.0572 57.7408 82.4469 57.3327 82.4128 57.3775C94.5567 57.3874 105.916 57.3974 115.503 57.4024H115.664V57.5666C115.629 67.2772 115.6 75.3702 115.581 81.0492C115.561 83.8514 115.547 86.0613 115.537 87.5893C115.527 88.3259 115.522 88.8983 115.517 89.3014C115.517 89.4806 115.513 89.6249 115.508 89.7344C115.508 89.829 115.503 89.8788 115.498 89.8738L115.493 89.8638Z" fill="#2C2937"/>
</g>
<path d="M119.054 125.336C119.054 125.406 110.052 125.466 98.9501 125.466C87.8486 125.466 78.8418 125.406 78.8418 125.336C78.8418 125.267 87.8438 125.207 98.9501 125.207C110.056 125.207 119.054 125.267 119.054 125.336Z" fill="#D4D2D9"/>
<path d="M166.013 125.073C166.013 125.142 157.352 125.202 146.665 125.202C135.977 125.202 127.316 125.142 127.316 125.073C127.316 125.003 135.977 124.943 146.665 124.943C157.352 124.943 166.013 125.003 166.013 125.073Z" fill="#D4D2D9"/>
<path d="M213.891 124.322C213.891 124.391 205.283 124.451 194.664 124.451C184.045 124.451 175.438 124.391 175.438 124.322C175.438 124.252 184.045 124.192 194.664 124.192C205.283 124.192 213.891 124.252 213.891 124.322Z" fill="#D4D2D9"/>
<path d="M119.054 132.001C119.054 132.071 110.052 132.13 98.9501 132.13C87.8486 132.13 78.8418 132.071 78.8418 132.001C78.8418 131.932 87.8438 131.872 98.9501 131.872C110.056 131.872 119.054 131.932 119.054 132.001Z" fill="#D4D2D9"/>
<path d="M166.013 131.733C166.013 131.802 157.352 131.862 146.665 131.862C135.977 131.862 127.316 131.802 127.316 131.733C127.316 131.663 135.977 131.604 146.665 131.604C157.352 131.604 166.013 131.663 166.013 131.733Z" fill="#D4D2D9"/>
<path d="M213.891 130.986C213.891 131.055 205.283 131.115 194.664 131.115C184.045 131.115 175.438 131.055 175.438 130.986C175.438 130.916 184.045 130.856 194.664 130.856C205.283 130.856 213.891 130.916 213.891 130.986Z" fill="#D4D2D9"/>
<path d="M180.644 141.259H117.47C110.214 141.259 104.332 147.268 104.332 154.68C104.332 162.092 110.214 168.101 117.47 168.101H180.644C187.9 168.101 193.782 162.092 193.782 154.68C193.782 147.268 187.9 141.259 180.644 141.259Z" fill="#7E64F3"/>
<path d="M136.639 154.647C136.639 155.847 135.762 156.589 134.354 156.589H133.292V158.072H132.074V152.696H134.349C135.752 152.696 136.634 153.443 136.634 154.647H136.639ZM135.406 154.647C135.406 154.055 135.031 153.712 134.286 153.712H133.292V155.578H134.286C135.031 155.578 135.406 155.235 135.406 154.647Z" fill="white"/>
<path d="M137.438 155.708V152.696H138.655V155.663C138.655 156.683 139.094 157.106 139.829 157.106C140.565 157.106 141.003 156.683 141.003 155.663V152.696H142.206V155.708C142.206 157.29 141.32 158.166 139.824 158.166C138.329 158.166 137.442 157.29 137.442 155.708H137.438Z" fill="white"/>
<path d="M148.231 156.603C148.231 157.534 147.51 158.072 146.126 158.072H143.408V152.696H145.98C147.295 152.696 147.973 153.259 147.973 154.095C147.973 154.632 147.7 155.046 147.276 155.279C147.86 155.474 148.236 155.932 148.236 156.608L148.231 156.603ZM144.616 153.632V154.901H145.824C146.419 154.901 146.74 154.687 146.74 154.264C146.74 153.841 146.419 153.632 145.824 153.632H144.616ZM147.008 156.474C147.008 156.021 146.672 155.807 146.039 155.807H144.616V157.136H146.039C146.672 157.136 147.008 156.937 147.008 156.474Z" fill="white"/>
<path d="M149.156 152.696H150.374V157.056H153.014V158.072H149.161V152.696H149.156Z" fill="white"/>
<path d="M153.701 152.696H154.919V158.072H153.701V152.696Z" fill="white"/>
<path d="M155.752 157.539L156.166 156.603C156.609 156.932 157.272 157.166 157.9 157.166C158.621 157.166 158.913 156.922 158.913 156.588C158.913 155.583 155.854 156.275 155.854 154.279C155.854 153.368 156.575 152.606 158.071 152.606C158.733 152.606 159.41 152.766 159.897 153.084L159.522 154.03C159.035 153.746 158.529 153.607 158.066 153.607C157.345 153.607 157.067 153.886 157.067 154.219C157.067 155.21 160.126 154.528 160.126 156.499C160.126 157.395 159.396 158.166 157.895 158.166C157.062 158.166 156.22 157.912 155.752 157.544V157.539Z" fill="white"/>
<path d="M165.786 152.696V158.072H164.569V155.867H162.177V158.072H160.959V152.696H162.177V154.817H164.569V152.696H165.786Z" fill="white"/>
<path d="M176.976 167.918C177.696 169.257 177.828 170.595 177.828 170.595H179.401L186.002 170.476L185.953 170.595C185.953 170.595 187.03 165.424 187.225 163.881C187.385 162.612 188.155 159.576 187.22 158.237C186.884 157.754 186.26 157.545 185.71 157.719C185.393 157.819 185.071 158.053 184.955 158.566C184.955 158.566 184.877 156.769 183.615 156.744C182.353 156.719 182.309 157.724 182.309 157.724C182.309 157.724 181.964 155.674 180.561 155.694C180.561 155.694 179.699 155.733 179.401 156.689V152.812C179.401 152.02 178.807 151.334 178.037 151.304C177.239 151.274 176.576 151.921 176.566 152.732L176.454 161.751L174.311 158.944C173.751 158.217 172.416 158.575 172.246 159.203C172.246 159.203 171.861 160.024 172.655 161.238C173.249 162.144 176.976 167.913 176.976 167.913V167.918Z" fill="#FBFAFC"/>
<path d="M176.976 167.917C176.976 167.917 176.937 167.867 176.873 167.773C176.805 167.668 176.708 167.529 176.586 167.34C176.333 166.952 175.962 166.389 175.485 165.668C175.008 164.936 174.423 164.045 173.746 163.01C173.41 162.492 173.044 161.935 172.66 161.347C172.465 161.054 172.28 160.725 172.182 160.357C172.08 159.988 172.046 159.58 172.192 159.187V159.197C172.265 158.958 172.455 158.784 172.665 158.674C172.874 158.565 173.113 158.505 173.356 158.495C173.6 158.485 173.853 158.535 174.072 158.665C174.126 158.694 174.175 158.739 174.228 158.779C174.272 158.824 174.316 158.874 174.36 158.923C174.433 159.023 174.511 159.122 174.589 159.222C175.198 160.018 175.841 160.855 176.503 161.721L176.386 161.76C176.415 159.242 176.445 156.485 176.479 153.553V153C176.488 152.821 176.479 152.627 176.522 152.433C176.605 152.05 176.839 151.701 177.165 151.487C177.492 151.268 177.906 151.189 178.291 151.278C178.68 151.363 179.021 151.622 179.231 151.965C179.338 152.139 179.411 152.329 179.445 152.533C179.484 152.737 179.47 152.936 179.474 153.13C179.474 153.523 179.474 153.916 179.474 154.309C179.474 155.101 179.474 155.897 179.474 156.704L179.323 156.679C179.426 156.35 179.64 156.007 179.971 155.823C180.103 155.743 180.249 155.688 180.4 155.653C180.473 155.638 180.561 155.623 180.634 155.638C180.712 155.648 180.79 155.638 180.863 155.663C181.165 155.723 181.438 155.897 181.642 156.121C182.051 156.574 182.261 157.151 182.383 157.729L182.232 157.739C182.266 157.331 182.524 156.972 182.884 156.818C183.06 156.733 183.245 156.704 183.43 156.689C183.522 156.689 183.615 156.679 183.708 156.689L183.849 156.704L183.985 156.743C184.355 156.858 184.614 157.186 184.765 157.515C184.916 157.853 184.998 158.207 185.023 158.575L184.877 158.56C184.95 158.177 185.227 157.828 185.588 157.694C185.943 157.55 186.343 157.565 186.684 157.719C186.854 157.794 187.01 157.903 187.142 158.037C187.273 158.172 187.356 158.341 187.449 158.5C187.6 158.834 187.668 159.192 187.717 159.546C187.843 160.969 187.546 162.318 187.341 163.597C187.166 164.891 186.913 166.12 186.689 167.29L186.012 170.62L185.904 170.585L185.953 170.466L186.007 170.545C183.352 170.585 181.136 170.62 179.406 170.645L179.44 170.605V170.645H179.401C178.788 170.645 178.281 170.64 177.828 170.64H177.804V170.61C177.687 169.709 177.448 169.032 177.273 168.594C177.185 168.375 177.107 168.206 177.053 168.096C177 167.987 176.976 167.927 176.976 167.927C176.976 167.927 177.112 168.141 177.302 168.579C177.487 169.017 177.735 169.689 177.862 170.605L177.833 170.575C178.286 170.575 178.788 170.575 179.406 170.57L179.367 170.61V170.57H179.401C181.131 170.535 183.347 170.485 186.002 170.431H186.085L186.051 170.51C186.036 170.55 186.021 170.585 186.002 170.63L185.895 170.595C186.104 169.55 186.323 168.435 186.557 167.265C186.776 166.091 187.025 164.866 187.2 163.577C187.405 162.293 187.692 160.949 187.566 159.565C187.522 159.222 187.453 158.884 187.312 158.57C187.229 158.421 187.151 158.266 187.035 158.147C186.918 158.027 186.776 157.928 186.625 157.858C186.318 157.724 185.958 157.709 185.641 157.838C185.32 157.958 185.091 158.251 185.023 158.6L184.916 159.117L184.877 158.585C184.852 158.246 184.774 157.898 184.628 157.584C184.482 157.276 184.253 156.992 183.932 156.898C183.62 156.803 183.245 156.823 182.938 156.957C182.626 157.087 182.407 157.405 182.378 157.744L182.329 158.251L182.227 157.754C182.115 157.206 181.905 156.644 181.525 156.231C181.155 155.813 180.527 155.638 180.044 155.962C179.752 156.131 179.557 156.43 179.465 156.733L179.314 157.206V154.314C179.314 153.921 179.314 153.528 179.314 153.135C179.314 152.936 179.323 152.747 179.289 152.567C179.255 152.388 179.192 152.209 179.094 152.055C178.905 151.741 178.598 151.512 178.252 151.433C177.906 151.353 177.531 151.428 177.239 151.622C176.946 151.816 176.732 152.129 176.659 152.473C176.62 152.642 176.63 152.826 176.625 153.01C176.625 153.195 176.625 153.379 176.62 153.563C176.581 156.494 176.542 159.252 176.508 161.77V161.959L176.391 161.81C175.728 160.939 175.09 160.103 174.481 159.302C174.321 159.103 174.199 158.884 173.999 158.774C173.804 158.655 173.571 158.61 173.346 158.615C173.122 158.62 172.898 158.679 172.703 158.779C172.509 158.879 172.343 159.038 172.28 159.232V159.242C172.148 159.585 172.168 159.988 172.27 160.337C172.362 160.695 172.538 161.009 172.728 161.302C173.108 161.895 173.468 162.452 173.804 162.975C174.472 164.015 175.047 164.916 175.519 165.648C175.987 166.379 176.347 166.947 176.596 167.335C176.712 167.524 176.805 167.673 176.873 167.773C176.937 167.872 176.961 167.927 176.961 167.927L176.976 167.917Z" fill="#5A5766"/>
<path d="M186.092 170.495H177.821C177.194 170.495 176.686 171.014 176.686 171.655V171.739C176.686 172.38 177.194 172.899 177.821 172.899H186.092C186.719 172.899 187.227 172.38 187.227 171.739V171.655C187.227 171.014 186.719 170.495 186.092 170.495Z" fill="#D4D2D9"/>
<path d="M186.091 172.899C186.091 172.899 186.174 172.894 186.33 172.859C186.481 172.819 186.705 172.729 186.905 172.505C187.002 172.396 187.09 172.252 187.143 172.077C187.192 171.908 187.202 171.699 187.172 171.49C187.119 171.077 186.768 170.629 186.242 170.559C184.074 170.559 181.103 170.564 177.825 170.569C177.44 170.569 177.07 170.798 176.894 171.132C176.807 171.301 176.758 171.49 176.763 171.679C176.758 171.873 176.797 172.058 176.88 172.222C177.04 172.555 177.376 172.779 177.727 172.814C178.088 172.824 178.463 172.814 178.813 172.824C180.236 172.829 181.517 172.834 182.603 172.839C183.67 172.849 184.537 172.859 185.156 172.864C185.448 172.869 185.677 172.874 185.852 172.879C186.013 172.884 186.096 172.889 186.096 172.894C186.096 172.899 186.013 172.904 185.852 172.909C185.682 172.909 185.448 172.919 185.156 172.924C184.537 172.929 183.67 172.938 182.603 172.948C181.522 172.948 180.236 172.958 178.813 172.963C178.453 172.963 178.097 172.973 177.713 172.963C177.318 172.929 176.933 172.675 176.748 172.296C176.651 172.112 176.607 171.888 176.617 171.684C176.612 171.475 176.665 171.251 176.763 171.062C176.967 170.674 177.386 170.415 177.829 170.415C181.122 170.42 184.094 170.415 186.262 170.45C186.836 170.53 187.211 171.027 187.26 171.475C187.284 171.699 187.27 171.908 187.216 172.097C187.158 172.282 187.06 172.431 186.953 172.545C186.739 172.774 186.495 172.859 186.339 172.889C186.179 172.914 186.096 172.899 186.096 172.899H186.091Z" fill="#5A5766"/>
<path d="M179.328 159.999C179.284 159.999 179.25 159.217 179.25 158.252C179.25 157.286 179.284 156.505 179.328 156.505C179.372 156.505 179.406 157.286 179.406 158.252C179.406 159.217 179.372 159.999 179.328 159.999Z" fill="#5A5766"/>
<path d="M182.269 159.764C182.226 159.764 182.191 159.301 182.191 158.729C182.191 158.156 182.226 157.693 182.269 157.693C182.313 157.693 182.347 158.156 182.347 158.729C182.347 159.301 182.313 159.764 182.269 159.764Z" fill="#5A5766"/>
<path d="M184.955 160.635C184.911 160.635 184.877 160.172 184.877 159.6C184.877 159.027 184.911 158.564 184.955 158.564C184.999 158.564 185.033 159.027 185.033 159.6C185.033 160.172 184.999 160.635 184.955 160.635Z" fill="#5A5766"/>
<path d="M175.96 151.173C175.94 151.213 175.219 150.874 174.347 150.421C173.475 149.969 172.784 149.565 172.803 149.531C172.823 149.491 173.544 149.829 174.415 150.282C175.287 150.735 175.979 151.138 175.96 151.173Z" fill="#5A5766"/>
<path d="M177.39 150.352C177.346 150.357 177.156 149.336 176.961 148.067C176.766 146.798 176.644 145.768 176.683 145.758C176.727 145.753 176.917 146.773 177.112 148.042C177.307 149.312 177.429 150.342 177.39 150.352Z" fill="#5A5766"/>
<path d="M179.168 150.561C179.134 150.536 179.577 149.825 180.162 148.973C180.746 148.122 181.248 147.45 181.282 147.475C181.316 147.5 180.873 148.212 180.288 149.063C179.704 149.914 179.202 150.586 179.168 150.561Z" fill="#5A5766"/>
<path d="M293.744 104.621C288.883 107.194 285.151 111.629 282.467 116.507C279.783 121.389 278.059 126.74 276.344 132.061L274.844 159.48C280.504 149.645 285.044 138.078 286.272 126.735C285.015 126.621 283.763 126.506 282.506 126.392C285.029 125.998 287.153 124.127 288.498 121.912C289.847 119.697 290.539 117.139 291.216 114.62C289.686 114.854 288.152 115.083 286.622 115.317C290.222 112.863 292.828 108.941 293.734 104.616L293.744 104.621Z" fill="#1D8651"/>
<g opacity="0.3">
<path opacity="0.3" d="M293.746 104.621C288.884 107.194 285.153 111.629 282.469 116.507C279.785 121.389 278.061 126.74 276.346 132.061L274.846 159.48C280.506 149.645 285.046 138.078 286.274 126.735C285.017 126.621 283.765 126.506 282.508 126.392C285.031 125.998 287.155 124.127 288.5 121.912C289.849 119.697 290.541 117.139 291.218 114.62C289.688 114.854 288.154 115.083 286.624 115.317C290.224 112.863 292.83 108.941 293.736 104.616L293.746 104.621Z" fill="#2C2937"/>
</g>
<path d="M274.011 165.906C274.011 165.906 261.726 150.884 261.868 136.54H266.831C266.831 136.54 261.444 132.917 261.868 130.891C262.296 128.865 262.437 121.185 262.437 121.185L266.973 122.345C266.973 122.345 263.568 120.608 263.144 117.856C262.72 115.103 264.137 102.356 264.137 102.356C264.137 102.356 269.666 108.294 271.366 114.381C273.066 120.464 277.533 127.566 276.223 146.106C274.913 164.646 274.011 165.911 274.011 165.911V165.906Z" fill="#1D8651"/>
<path d="M280.237 167.325C280.237 167.325 293.545 158.266 296.502 146.704L292.513 145.594C292.513 145.594 297.622 143.887 297.715 142.16C297.808 140.433 299.337 134.231 299.337 134.231L295.44 134.146C295.44 134.146 298.548 133.509 299.478 131.394C300.409 129.279 302.002 118.712 302.002 118.712C302.002 118.712 296.283 122.251 293.613 126.76C290.944 131.269 285.834 135.978 282.916 151.178C279.998 166.379 280.237 167.32 280.237 167.32V167.325Z" fill="#1D8651"/>
<path d="M267.493 115.452C267.493 115.452 267.512 115.502 267.537 115.606C267.566 115.726 267.6 115.875 267.644 116.069C267.737 116.492 267.868 117.09 268.034 117.851C268.204 118.623 268.404 119.573 268.618 120.678C268.837 121.783 269.091 123.037 269.344 124.436C269.87 127.223 270.425 130.553 271 134.256C271.556 137.964 272.106 142.05 272.598 146.351C273.08 150.651 273.455 154.762 273.743 158.5C274.011 162.243 274.215 165.613 274.322 168.45C274.391 169.868 274.425 171.147 274.454 172.277C274.493 173.402 274.507 174.373 274.517 175.169C274.522 175.95 274.532 176.563 274.532 176.996C274.532 177.195 274.532 177.349 274.532 177.468C274.532 177.578 274.527 177.633 274.522 177.633C274.522 177.633 274.512 177.578 274.507 177.473C274.503 177.354 274.493 177.195 274.483 177.001C274.469 176.568 274.444 175.955 274.42 175.174C274.4 174.383 274.366 173.412 274.313 172.287C274.264 171.162 274.22 169.878 274.142 168.465C274.011 165.633 273.791 162.263 273.509 158.525C273.207 154.787 272.827 150.686 272.345 146.386C271.853 142.09 271.307 138.009 270.766 134.301C270.206 130.598 269.67 127.268 269.164 124.476C268.925 123.077 268.682 121.823 268.477 120.713C268.277 119.608 268.092 118.653 267.936 117.876C267.79 117.11 267.673 116.512 267.59 116.084C267.556 115.89 267.527 115.736 267.508 115.616C267.488 115.512 267.483 115.457 267.488 115.457L267.493 115.452Z" fill="#5A5766"/>
<path d="M272.306 175.103C272.306 175.103 261.063 162.073 257.576 154.194L260.211 153.044C258.301 153.368 256.343 152.527 254.862 151.252C253.382 149.978 252.295 148.301 251.228 146.654L254.702 146.056C251.545 145.15 248.764 142.95 247.117 140.054C251.214 140.741 254.921 143.04 257.975 145.912C260.45 148.241 262.544 150.939 264.551 153.701C265.53 155.045 266.393 156.484 267.104 157.992C268.994 161.983 272.316 170.32 272.306 175.103Z" fill="#1D8651"/>
<path d="M296.682 126.297C296.682 126.297 296.668 126.342 296.634 126.431C296.59 126.531 296.531 126.655 296.463 126.81C296.297 127.158 296.068 127.641 295.781 128.258C295.182 129.507 294.329 131.329 293.297 133.589C291.231 138.103 288.508 144.409 285.819 151.502C283.135 158.599 281.002 165.139 279.555 169.897C278.829 172.277 278.264 174.213 277.884 175.552C277.694 176.204 277.543 176.721 277.436 177.089C277.387 177.254 277.344 177.383 277.314 177.488C277.285 177.577 277.27 177.622 277.266 177.622C277.266 177.622 277.266 177.572 277.29 177.483C277.314 177.378 277.348 177.244 277.387 177.08C277.485 176.706 277.616 176.189 277.792 175.527C278.142 174.178 278.683 172.237 279.385 169.848C280.788 165.069 282.897 158.514 285.586 151.412C288.275 144.309 291.027 138.013 293.136 133.514C294.188 131.264 295.065 129.452 295.698 128.218C296.005 127.611 296.249 127.133 296.424 126.795C296.502 126.645 296.565 126.521 296.619 126.426C296.663 126.342 296.687 126.302 296.692 126.307L296.682 126.297Z" fill="#5A5766"/>
<path d="M273.262 180.688C273.262 180.688 273.233 180.608 273.204 180.449C273.174 180.259 273.135 180.031 273.092 179.757C273.004 179.155 272.858 178.288 272.648 177.223C272.444 176.158 272.156 174.899 271.786 173.51C271.406 172.127 270.939 170.624 270.369 169.071C269.794 167.523 269.17 166.079 268.561 164.785C267.943 163.496 267.344 162.356 266.808 161.421C266.272 160.48 265.824 159.733 265.502 159.221C265.356 158.982 265.239 158.788 265.137 158.628C265.054 158.489 265.015 158.414 265.025 158.409C265.03 158.404 265.083 158.469 265.181 158.599C265.288 158.753 265.424 158.942 265.585 159.166C265.936 159.659 266.408 160.395 266.964 161.326C267.524 162.257 268.138 163.392 268.771 164.681C269.394 165.975 270.028 167.423 270.607 168.981C271.177 170.539 271.64 172.057 272.01 173.446C272.366 174.839 272.643 176.108 272.824 177.184C273.009 178.259 273.131 179.13 273.189 179.737L273.252 180.434C273.262 180.593 273.267 180.678 273.257 180.678L273.262 180.688Z" fill="#5A5766"/>
<path d="M288.095 177.622H263.49V182.749H288.095V177.622Z" fill="#FC5C5C"/>
<path d="M265.832 182.749L268.497 200H283.363L285.843 182.749H265.832Z" fill="#FC5C5C"/>
<path d="M286.583 182.748C286.583 182.818 281.931 182.878 276.188 182.878C270.445 182.878 265.793 182.818 265.793 182.748C265.793 182.679 270.445 182.619 276.188 182.619C281.931 182.619 286.583 182.679 286.583 182.748Z" fill="#5A5766"/>
<path d="M0.689939 148.492L0.00309989 112.531C-0.172263 103.273 7.11505 95.6682 16.1755 95.6582C25.0995 95.6433 32.3479 103.005 32.3966 112.123L32.5817 148.492L0.69481 149.885" fill="#5A5766"/>
<path d="M0.691406 154.629H50.2948C50.2948 151.24 48.0589 148.686 44.7417 148.686L0.696278 148.492V154.629H0.691406Z" fill="#5A5766"/>
<path d="M41.7183 199.742H45.2012L45.2012 154.624H41.7183L41.7183 199.742Z" fill="#5A5766"/>
<path d="M4.62647 199.742H8.10938L8.10937 154.624H4.62647L4.62647 199.742Z" fill="#5A5766"/>
<path d="M4.73828 148.686C4.73828 148.621 13.9643 148.566 25.3435 148.566C36.7226 148.566 45.9535 148.621 45.9535 148.686C45.9535 148.75 36.7275 148.805 25.3435 148.805C13.9595 148.805 4.73828 148.75 4.73828 148.686Z" fill="#5A5766"/>
<path d="M1.52734 154.649C1.52734 154.584 12.3706 154.529 25.747 154.529C39.1233 154.529 49.9666 154.584 49.9666 154.649C49.9666 154.713 39.1233 154.768 25.747 154.768C12.3706 154.768 1.52734 154.713 1.52734 154.649Z" fill="#5A5766"/>
<path d="M4.17753 102.059C4.2409 102.059 4.29452 112.322 4.29452 124.984C4.29452 137.646 4.2409 147.909 4.17753 147.909C4.11416 147.909 4.06055 137.646 4.06055 124.984C4.06055 112.322 4.11416 102.059 4.17753 102.059Z" fill="#5A5766"/>
<path d="M33.9064 128.309C33.9064 128.309 61.8184 128.189 64.0299 128.309C67.9658 128.523 70.6011 133.012 71.1272 135.342C71.6533 137.666 83.8508 173.507 83.8508 173.507L74.3714 179.774L61.6576 150.463L55.2568 139.09L20.4473 145.301L33.9064 128.314V128.309Z" fill="#FFBE9D"/>
<path d="M55.4363 138.035C55.4363 138.035 60.59 138.035 63.3715 142.245C65.0082 144.719 64.4334 149.144 64.4675 152.484C64.5114 157.028 63.3569 192.301 63.3569 192.301C60.0688 194.685 56.4008 194.959 52.3967 193.362L49.5616 154.315L50.2923 148.492L31.2557 148.925C31.2557 148.925 27.8653 142.439 32.5806 137.298C33.1847 136.636 55.446 138.035 55.446 138.035H55.4363Z" fill="#FFBE9D"/>
<path d="M57.8438 138.224C57.8438 138.224 57.8925 138.224 57.9899 138.239C58.0971 138.253 58.2334 138.278 58.4088 138.303C58.7693 138.393 59.3149 138.527 59.9481 138.861C60.5814 139.189 61.312 139.697 62.0184 140.438C62.7101 141.19 63.3969 142.156 63.9133 143.345C64.4442 144.53 64.7609 145.943 64.8632 147.466C64.9703 148.989 64.868 150.622 64.7365 152.324C64.5855 154.026 64.5027 155.808 64.4394 157.665C64.3809 159.521 64.3176 161.442 64.2543 163.413C64.0204 171.282 63.811 178.41 63.66 183.586C63.5772 186.154 63.5138 188.24 63.4651 189.698C63.4359 190.41 63.4164 190.962 63.4018 191.361C63.3921 191.54 63.3872 191.684 63.3774 191.794C63.3726 191.893 63.3677 191.943 63.3628 191.943C63.358 191.943 63.358 191.893 63.3531 191.794C63.3531 191.684 63.3531 191.54 63.3531 191.361C63.3531 190.967 63.3628 190.41 63.3726 189.698C63.4018 188.24 63.4408 186.154 63.4943 183.586C63.6113 178.425 63.7817 171.292 64.0204 163.413C64.0886 161.442 64.152 159.521 64.2104 157.665C64.2786 155.808 64.3614 154.011 64.5222 152.314C64.6634 150.617 64.7706 148.999 64.6732 147.491C64.5806 145.983 64.2786 144.594 63.7671 143.425C63.2703 142.245 62.6029 141.29 61.9307 140.543C61.2438 139.801 60.5327 139.294 59.914 138.955C58.6621 138.283 57.8389 138.283 57.8535 138.234L57.8438 138.224Z" fill="#FFBE9D"/>
<path d="M63.3534 191.933L63.3631 192.65C63.3631 192.65 75.3073 197.413 75.4583 199.718L51.8281 199.832L52.1107 191.799C55.6325 193.446 59.3103 193.616 63.3485 191.933H63.3534Z" fill="#EB996E"/>
<path d="M51.8281 199.837L51.8963 197.906L74.5182 198.504C74.5182 198.504 75.5703 198.966 75.4583 199.723L51.8281 199.837Z" fill="#D4D2D9"/>
<path d="M83.393 172.014L83.6609 172.676C83.6609 172.676 96.4819 172.601 97.4561 174.691L75.5357 183.7L72.9004 176.125C76.7681 176.329 80.2462 175.1 83.3978 172.019L83.393 172.014Z" fill="#EB996E"/>
<path d="M75.5317 183.7L74.8984 181.879L96.1417 173.91C96.1417 173.91 97.2865 173.945 97.4569 174.692L75.5366 183.7H75.5317Z" fill="#D4D2D9"/>
<path d="M84.5476 175.428C84.5184 175.443 84.4064 175.299 84.3139 175.025C84.2214 174.752 84.163 174.338 84.236 173.895C84.3091 173.452 84.494 173.079 84.6742 172.855C84.8494 172.626 85.0052 172.527 85.0246 172.552C85.0831 172.601 84.6109 173.124 84.4892 173.94C84.348 174.756 84.6206 175.404 84.5525 175.433L84.5476 175.428Z" fill="#5A5766"/>
<path d="M83.2944 175.642C83.2359 175.677 82.9337 174.98 83.0848 174.094C83.2311 173.203 83.7429 172.651 83.7867 172.7C83.8501 172.745 83.465 173.318 83.3383 174.134C83.1969 174.95 83.3724 175.622 83.2993 175.642H83.2944Z" fill="#5A5766"/>
<path d="M86.4505 175.264C86.4017 175.314 85.9825 174.836 85.8947 174.084C85.7972 173.333 86.0897 172.766 86.1434 172.8C86.2165 172.825 86.0556 173.378 86.1434 174.055C86.2214 174.732 86.509 175.224 86.4456 175.269L86.4505 175.264Z" fill="#5A5766"/>
<path d="M85.1459 172.74C85.1313 172.765 84.8195 172.601 84.4932 172.138C84.3324 171.909 84.1765 171.615 84.0353 171.282C83.9622 171.113 83.894 170.938 83.8258 170.754C83.7917 170.665 83.7527 170.57 83.7332 170.446C83.7138 170.326 83.7332 170.167 83.8404 170.048C83.9524 169.918 84.1619 169.923 84.2691 169.993C84.386 170.058 84.4591 170.142 84.5273 170.227C84.649 170.391 84.7464 170.56 84.8244 170.729C84.9803 171.068 85.0582 171.401 85.0874 171.68C85.141 172.243 85.0192 172.581 84.9949 172.571C84.951 172.566 85.0046 172.228 84.9121 171.705C84.8634 171.446 84.7757 171.143 84.6198 170.834C84.5419 170.68 84.4493 170.525 84.3324 170.381C84.2301 170.237 84.0694 170.152 84.0255 170.222C83.9427 170.301 83.9914 170.471 84.0645 170.66C84.1278 170.839 84.1911 171.013 84.2545 171.187C84.3811 171.521 84.5126 171.805 84.649 172.033C84.9169 172.491 85.1751 172.7 85.1508 172.735L85.1459 172.74Z" fill="#5A5766"/>
<path d="M85.2736 172.611C85.2736 172.611 85.2541 172.661 85.1907 172.735L85.1372 172.795L85.1225 172.706C85.0982 172.526 85.0787 172.163 85.181 171.69C85.2297 171.456 85.3125 171.197 85.4294 170.934C85.4879 170.799 85.561 170.67 85.6389 170.535C85.6779 170.471 85.7315 170.391 85.8094 170.326C85.8922 170.262 86.0043 170.217 86.1309 170.247C86.3063 170.282 86.3794 170.476 86.3745 170.59C86.3745 170.715 86.3501 170.809 86.3306 170.899C86.2868 171.083 86.2235 171.257 86.1553 171.416C86.0189 171.735 85.8435 171.999 85.673 172.198C85.332 172.596 85.0446 172.745 85.0251 172.72C85.0008 172.686 85.2443 172.491 85.5317 172.088C85.673 171.889 85.824 171.63 85.9409 171.327C85.9994 171.178 86.0481 171.013 86.0871 170.839C86.1407 170.66 86.1309 170.486 86.0725 170.496C85.9361 170.446 85.7607 170.819 85.6487 171.033C85.5317 171.277 85.4441 171.516 85.3807 171.735C85.2541 172.173 85.2297 172.521 85.2005 172.696L85.1372 172.666C85.22 172.611 85.2638 172.591 85.2736 172.601V172.611Z" fill="#5A5766"/>
<path d="M63.1492 195.401C63.12 195.401 63.0956 195.217 63.1589 194.933C63.2174 194.65 63.383 194.266 63.6704 193.928C63.9627 193.589 64.3085 193.37 64.5764 193.276C64.8444 193.176 65.0246 193.171 65.0295 193.206C65.0538 193.281 64.3865 193.47 63.8604 194.102C63.3197 194.719 63.2271 195.421 63.1492 195.406V195.401Z" fill="#5A5766"/>
<path d="M61.9703 194.919C61.9069 194.919 61.9995 194.162 62.584 193.485C63.1637 192.803 63.8798 192.609 63.8944 192.674C63.9236 192.744 63.305 193.027 62.774 193.654C62.2333 194.272 62.0385 194.938 61.9654 194.914L61.9703 194.919Z" fill="#5A5766"/>
<path d="M64.8524 196.282C64.7891 196.297 64.6772 195.67 64.9838 194.978C65.2857 194.286 65.826 193.958 65.8552 194.018C65.9039 194.077 65.4852 194.461 65.2175 195.088C64.9352 195.71 64.9303 196.282 64.8524 196.282Z" fill="#5A5766"/>
<path d="M65.0331 193.431C65.0331 193.431 64.8237 193.132 64.7848 192.57C64.7653 192.291 64.7848 191.957 64.8335 191.594C64.8578 191.415 64.8919 191.226 64.926 191.032C64.9455 190.937 64.9552 190.833 65.0039 190.718C65.0477 190.604 65.145 190.479 65.3008 190.439C65.4615 190.39 65.6367 190.509 65.6902 190.623C65.7535 190.738 65.7779 190.852 65.7876 190.962C65.8071 191.166 65.8022 191.365 65.7876 191.549C65.7487 191.923 65.6416 192.246 65.5247 192.5C65.2813 193.008 65.0087 193.232 64.9893 193.212C64.9552 193.187 65.1742 192.923 65.3592 192.425C65.4517 192.176 65.5296 191.873 65.5539 191.524C65.5685 191.35 65.5637 191.171 65.5442 190.982C65.5296 190.803 65.442 190.648 65.3641 190.683C65.257 190.708 65.2034 190.877 65.1742 191.076C65.1402 191.266 65.1012 191.445 65.0671 191.629C65.0039 191.977 64.9698 192.296 64.9698 192.56C64.9601 193.092 65.0769 193.411 65.0379 193.426L65.0331 193.431Z" fill="#5A5766"/>
<path d="M65.2074 193.391C65.2074 193.391 65.1636 193.426 65.071 193.456L64.998 193.475L65.0321 193.396C65.1003 193.232 65.2756 192.908 65.602 192.565C65.7627 192.39 65.9673 192.216 66.2011 192.052C66.3181 191.972 66.4496 191.898 66.5811 191.823C66.6493 191.788 66.7321 191.748 66.8344 191.738C66.9367 191.728 67.0585 191.753 67.1462 191.843C67.2777 191.967 67.2436 192.171 67.1803 192.266C67.1218 192.375 67.0439 192.44 66.9805 192.505C66.849 192.639 66.7078 192.754 66.5665 192.853C66.284 193.052 66.0014 193.182 65.7579 193.261C65.2659 193.421 64.9395 193.391 64.9395 193.361C64.9346 193.321 65.2464 193.281 65.6945 193.092C65.9186 192.998 66.1768 192.858 66.4301 192.664C66.5567 192.565 66.6834 192.455 66.8052 192.331C66.9416 192.206 67.0195 192.052 66.9659 192.032C66.8734 191.918 66.5373 192.142 66.3278 192.266C66.0989 192.41 65.904 192.57 65.7384 192.719C65.4071 193.022 65.2026 193.311 65.0954 193.446L65.0564 193.386C65.1538 193.386 65.2026 193.386 65.2074 193.401V193.391Z" fill="#5A5766"/>
<path d="M65.5398 111.37L69.8021 112.072L72.5738 115.994L71.77 118.981L71.2634 119.15L71.3657 120.27C71.4096 120.767 71.1611 121.245 70.7325 121.479L68.5258 117.572L69.4367 121.539C69.4367 121.539 68.8863 121.763 67.951 121.28C67.0157 120.797 66.0123 116.373 66.0123 116.373L64.5412 115.437L65.9879 120.349C65.9879 120.349 65.5495 120.857 64.7311 120.812C63.9128 120.767 62.2566 116.308 62.2566 116.308L40.0634 119.483L40.0195 116.552L45.4022 107.438L65.5495 111.385L65.5398 111.37Z" fill="#FFBE9D"/>
<path d="M17.3874 74.7675C15.02 73.8467 13.1836 71.6218 12.6964 69.0835C12.4918 68.0084 12.5065 66.8885 12.1898 65.8433C11.7319 64.3451 10.5969 63.0511 10.5434 61.4783C10.5044 60.433 10.9623 59.4376 11.05 58.3973C11.1376 57.3919 10.8843 56.3915 10.8649 55.3861C10.8162 52.8228 12.4431 50.3143 14.7716 49.3637L20.9093 46.8203L30.3691 50.7623C30.3691 50.7623 35.7518 56.0979 34.2028 67.0826L17.3874 74.7675Z" fill="#5A5766"/>
<path d="M33.1646 68.0445C33.3303 67.8255 33.5787 67.6114 33.8417 67.492H33.7881C33.8369 67.4771 33.8904 67.4621 33.9392 67.4522C34.134 67.3875 34.3337 67.3775 34.5091 67.4721H34.5042C34.8257 67.5617 35.118 67.7657 35.2933 68.0544C35.6002 68.5571 35.5613 69.234 35.2544 69.7367C34.9865 70.1697 34.4896 70.4833 33.9927 70.4087C33.5348 70.339 33.1695 69.9557 33.0039 69.5128C32.8237 69.03 32.8577 68.4476 33.1695 68.0395L33.1646 68.0445Z" fill="#5A5766"/>
<path d="M33.0588 57.9998C32.4304 54.4959 29.6392 50.4394 26.2391 51.2258L15.805 55.3022C14.7723 55.5411 14.0903 56.5515 14.2365 57.6216L17.3297 81.1191C17.734 84.1801 20.1891 86.5293 23.2044 86.7384C27.0672 87.0071 30.2676 83.7122 29.9802 79.7653C29.8633 78.1427 29.7756 76.9233 29.7756 76.9332C29.7756 76.9332 34.1061 75.6491 34.335 69.6515C34.452 66.6702 33.7505 61.8871 33.0539 57.9899L33.0588 57.9998Z" fill="#FFBE9D"/>
<path d="M31.9681 63.1815C32.0266 63.5797 31.7489 63.9579 31.3446 64.0276C30.9403 64.0973 30.5652 63.8385 30.5019 63.4403C30.4435 63.0421 30.7211 62.6639 31.1254 62.5942C31.5297 62.5245 31.9048 62.7883 31.9681 63.1815Z" fill="#5A5766"/>
<path d="M32.3296 60.6229C32.2517 60.7324 31.6428 60.379 30.8439 60.4736C30.0499 60.5582 29.5141 61.0509 29.4167 60.9613C29.3679 60.9215 29.441 60.7324 29.6748 60.5134C29.9038 60.2944 30.3081 60.0604 30.805 60.0007C31.3018 59.946 31.7402 60.0804 31.9984 60.2396C32.2663 60.4039 32.3686 60.5681 32.3296 60.6179V60.6229Z" fill="#5A5766"/>
<path d="M24.9096 63.9081C24.968 64.3062 24.6904 64.6845 24.286 64.7542C23.8817 64.8239 23.5066 64.565 23.4433 64.1669C23.3849 63.7687 23.6625 63.3904 24.0668 63.3207C24.4711 63.2511 24.8462 63.5149 24.9096 63.9081Z" fill="#5A5766"/>
<path d="M24.5289 61.7176C24.446 61.8271 23.8371 61.4737 23.0431 61.5683C22.2491 61.6529 21.7133 62.1457 21.6159 62.0561C21.5672 62.0162 21.6402 61.8271 21.8741 61.6081C22.103 61.3891 22.5073 61.1552 23.0042 61.0954C23.501 61.0407 23.9394 61.1751 24.1976 61.3344C24.4655 61.4986 24.5678 61.6629 24.5289 61.7126V61.7176Z" fill="#5A5766"/>
<path d="M28.1131 67.3969C28.1033 67.3521 28.5904 67.2028 29.3747 67.0037C29.5744 66.9589 29.7644 66.8942 29.779 66.7498C29.8083 66.5955 29.7011 66.3815 29.5744 66.1526C29.326 65.6748 29.063 65.1721 28.7902 64.6445C27.6941 62.4943 26.8758 60.7174 26.9635 60.6776C27.0463 60.6328 28.0059 62.34 29.0971 64.4852C29.3601 65.0178 29.6134 65.5205 29.857 66.0032C29.9593 66.2272 30.1249 66.4811 30.0567 66.8046C30.0177 66.9639 29.8862 67.0982 29.7595 67.148C29.6329 67.2028 29.5209 67.2227 29.4186 67.2376C28.6197 67.3819 28.1179 67.4417 28.1082 67.3969H28.1131Z" fill="#5A5766"/>
<path d="M29.7759 76.9441C29.7759 76.9441 25.9277 77.6707 21.8164 75.7744C21.8164 75.7744 24.1595 79.5919 29.8588 78.3427L29.7759 76.9441Z" fill="#FFBE9D"/>
<path d="M28.2159 69.3433C27.7678 68.8357 27.1004 68.5719 26.5061 68.6664C26.0921 68.7312 25.7121 68.98 25.527 69.3732C25.3419 69.7714 25.3955 70.3239 25.6975 70.6822C26.0385 71.0903 26.6084 71.165 27.042 71.0008C27.4804 70.8365 27.8116 70.4781 28.1282 70.1198C28.2159 70.0202 28.3036 69.9157 28.3426 69.7863C28.3816 69.6519 28.3669 69.4827 28.2646 69.3782" fill="#FFBE9D"/>
<path d="M25.8385 68.2378C25.9651 68.2129 26.0723 69.0939 26.8809 69.6314C27.6895 70.169 28.6004 69.9599 28.6199 70.0844C28.6394 70.1391 28.4348 70.2785 28.05 70.3382C27.67 70.3979 27.1001 70.3382 26.6032 70.0097C26.1064 69.6812 25.8531 69.1934 25.7849 68.8351C25.7069 68.4717 25.7849 68.2378 25.8385 68.2378Z" fill="#5A5766"/>
<path d="M24.4889 58.3333C24.4353 58.5622 23.6316 58.5572 22.7109 58.7812C21.7854 58.9902 21.0693 59.3586 20.9183 59.1794C20.8501 59.0898 20.9573 58.8658 21.2398 58.617C21.5175 58.3681 21.9754 58.1043 22.5258 57.9749C23.0763 57.8455 23.6024 57.8753 23.958 57.9749C24.3184 58.0744 24.5084 58.2287 24.4889 58.3382V58.3333Z" fill="#5A5766"/>
<path d="M31.7229 57.8614C31.606 58.0605 31.0361 57.936 30.3736 58.0107C29.7111 58.0555 29.1704 58.2795 29.0194 58.1053C28.9512 58.0206 29.0194 57.8216 29.2435 57.6175C29.4627 57.4134 29.8475 57.2243 30.3054 57.1845C30.7584 57.1447 31.1725 57.2641 31.4209 57.4234C31.6742 57.5827 31.7765 57.7668 31.7229 57.8614Z" fill="#5A5766"/>
<path d="M21.7762 52.5898C19.136 52.7491 16.525 53.431 14.1333 54.5957C13.4221 54.9441 12.6914 55.3721 12.3212 56.0839C11.9948 56.711 12.0046 57.4576 12.063 58.1643C12.2481 60.3742 13.3149 63.0171 14.2891 65.0031L15.4241 66.6953C16.905 66.2275 17.9377 62.1909 17.7039 60.3593C19.1116 59.5978 20.0128 57.9553 19.9154 56.3327C21.0504 55.4617 21.7567 54.0382 21.7713 52.5898H21.7762Z" fill="#5A5766"/>
<path d="M17.0214 65.6592C16.846 64.3999 15.3116 64.2705 14.2935 65.0022C13.7333 65.4053 13.3436 66.1469 13.519 67.4808C13.9769 71.0495 17.3867 69.84 17.3819 69.7405C17.3819 69.6758 17.226 67.1324 17.0214 65.6592Z" fill="#FFBE9D"/>
<path d="M16.1394 68.5306C16.1394 68.5306 16.0858 68.5804 15.9884 68.6451C15.8959 68.7048 15.7254 68.7596 15.5354 68.7148C15.1506 68.6252 14.7609 68.0677 14.6634 67.4306C14.6147 67.1071 14.6391 66.7886 14.717 66.5198C14.7901 66.2461 14.9314 66.042 15.1116 65.9823C15.2918 65.9126 15.438 66.0121 15.4915 66.1067C15.55 66.2013 15.5403 66.2759 15.5597 66.2759C15.5695 66.2859 15.6279 66.2062 15.5792 66.0619C15.5549 65.9922 15.5062 65.9126 15.4136 65.8578C15.3211 65.7981 15.1944 65.7782 15.0678 65.813C14.7998 65.8678 14.5904 66.1515 14.5027 66.4501C14.4004 66.7488 14.3614 67.1071 14.4199 67.4705C14.5368 68.1872 14.9801 68.8093 15.5062 68.8939C15.7595 68.9288 15.9543 68.8243 16.0517 68.7247C16.1492 68.6202 16.1589 68.5406 16.1443 68.5356L16.1394 68.5306Z" fill="#FFBE9D"/>
<path d="M14.2369 69.4829C14.4025 69.2639 14.651 69.0499 14.914 68.9305H14.8604C14.9091 68.9155 14.9627 68.9006 15.0114 68.8907C15.2063 68.8259 15.406 68.816 15.5814 68.9106H15.5765C15.898 69.0001 16.1903 69.2042 16.3656 69.4929C16.6725 69.9956 16.6335 70.6725 16.3267 71.1752C16.0587 71.6082 15.5619 71.9218 15.065 71.8471C14.6071 71.7774 14.2418 71.3942 14.0762 70.9512C13.8959 70.4684 13.93 69.8861 14.2418 69.478L14.2369 69.4829Z" fill="#5A5766"/>
<path d="M11.5608 53.2561C12.2866 51.5738 14.0158 50.5186 15.7792 50.1553C16.2956 50.0508 16.8217 49.996 17.3477 49.9761C17.148 49.2743 17.0652 48.5377 17.1285 47.806C17.3185 45.626 18.7604 43.7197 20.5627 42.8437C22.3651 41.9628 24.4597 42.0275 26.3351 42.6894C28.0936 43.3116 29.7596 44.5211 30.6413 46.3278C31.5229 48.1345 31.4547 50.5833 30.1834 52.0765C28.7074 53.4552 27.0073 54.0425 25.1124 54.4457C23.4611 54.7941 21.688 54.59 20.2023 53.724C15.7938 57.422 14.6881 63.5391 13.9525 69.0737C12.0381 65.6295 11.6192 61.5531 11.2441 57.6112C11.1029 56.1429 10.9762 54.6 11.5559 53.2511L11.5608 53.2561Z" fill="#5A5766"/>
<path d="M16.7749 53.6593C16.7213 53.6096 16.9697 53.2562 17.3204 52.8729C17.6712 52.4847 18.0024 52.211 18.0511 52.2607C18.1047 52.3105 17.8563 52.6639 17.5055 53.0471C17.1548 53.4354 16.8236 53.7091 16.7749 53.6593Z" fill="#5A5766"/>
<path d="M26.9645 51.8422C26.9353 51.8123 27.3103 51.4539 27.7488 50.7521C28.1872 50.0603 28.6597 48.9902 28.762 47.731C28.8643 46.4717 28.572 45.332 28.2505 44.5754C27.929 43.8089 27.6172 43.3958 27.6562 43.3659C27.6708 43.356 27.7585 43.4506 27.9046 43.6347C28.0459 43.8239 28.231 44.1125 28.4161 44.4958C28.7912 45.2523 29.1224 46.4319 29.0153 47.7459C28.9081 49.0599 28.3869 50.1648 27.8949 50.8517C27.6513 51.1951 27.4224 51.4539 27.2519 51.6132C27.0814 51.7725 26.9742 51.8521 26.9645 51.8372V51.8422Z" fill="#5A5766"/>
<path d="M24.7557 48.7521C24.7313 48.7272 24.9603 48.4684 25.3402 48.0652C25.7153 47.6621 26.2463 47.1096 26.7188 46.4178C27.1913 45.726 27.4787 45.0142 27.5956 44.4816C27.7174 43.9441 27.7125 43.5957 27.7515 43.5957C27.7807 43.5957 27.8538 43.9441 27.7709 44.5165C27.693 45.0839 27.4202 45.8504 26.9282 46.5671C26.4362 47.2838 25.876 47.8263 25.4669 48.1996C25.0528 48.5729 24.78 48.782 24.7557 48.7571V48.7521Z" fill="#5A5766"/>
<g opacity="0.3">
<path opacity="0.3" d="M17.1054 48.2285C17.1151 50.4384 18.3232 52.6085 20.1791 53.7483L20.1158 53.8478C18.8347 53.8677 17.5682 53.1162 16.9495 51.9664C16.3357 50.8167 16.3942 49.3235 17.1054 48.2285Z" fill="#2C2937"/>
</g>
<path d="M12.895 56.0981C12.9388 56.0384 13.4308 56.3569 14.0689 56.6854C14.7022 57.0189 15.2478 57.2379 15.2283 57.3075C15.2088 57.3722 14.6145 57.2578 13.9569 56.9143C13.2944 56.5709 12.856 56.1479 12.895 56.0931V56.0981Z" fill="white"/>
<path d="M10.7387 59.781C10.7582 59.7065 11.4499 59.8556 12.3072 59.9351C13.1645 60.0196 13.8709 59.9997 13.8757 60.0743C13.8855 60.1439 13.1694 60.2781 12.2829 60.1936C11.3963 60.1141 10.7192 59.8456 10.7387 59.781Z" fill="white"/>
<path d="M15.0882 49.2944C15.1613 49.3143 14.9078 50.2799 14.8104 51.4944C14.708 52.7088 14.8055 53.7042 14.7275 53.7142C14.6641 53.7291 14.4496 52.7237 14.5569 51.4744C14.6544 50.2252 15.0297 49.2695 15.0882 49.2944Z" fill="white"/>
<path d="M16.3888 55.6153C16.4034 55.5407 16.8419 55.5705 17.3728 55.5606C17.9038 55.5506 18.3422 55.5009 18.3568 55.5755C18.3714 55.6401 17.9427 55.8091 17.3777 55.8191C16.8126 55.834 16.3791 55.6849 16.3888 55.6153Z" fill="white"/>
<path d="M13.0998 62.4345C13.1485 62.3847 13.6259 62.8277 14.0643 63.4946C14.5076 64.1616 14.7316 64.7738 14.6683 64.8036C14.605 64.8335 14.2835 64.286 13.8499 63.639C13.4213 62.9919 13.0413 62.4842 13.0949 62.4345H13.0998Z" fill="white"/>
<path d="M22.0879 52.2811C22.0538 52.2662 22.2438 51.7286 22.5653 50.8626C22.9112 49.9219 23.3349 48.7572 23.8026 47.4731C24.2556 46.184 24.6697 45.0193 25.0009 44.0687C25.3078 43.1976 25.5026 42.6601 25.5367 42.6701C25.5708 42.68 25.4344 43.2375 25.1714 44.1234C24.9083 45.0094 24.5186 46.2288 24.0413 47.5577C23.5639 48.8866 23.0914 50.0762 22.7309 50.9223C22.3704 51.7734 22.122 52.2861 22.0879 52.2761V52.2811Z" fill="white"/>
<path d="M19.0439 45.3922C19.0244 45.3623 19.3459 45.1184 19.8964 44.775C20.4468 44.4366 21.236 44.0085 22.1469 43.6253C23.0578 43.242 23.9151 42.9782 24.5386 42.8239C25.167 42.6696 25.5616 42.6149 25.5665 42.6497C25.586 42.7244 24.0418 43.1027 22.2394 43.8642C20.4371 44.6157 19.078 45.4569 19.0391 45.3872L19.0439 45.3922Z" fill="white"/>
<path d="M29.0588 47.5118C29.0977 47.462 29.7992 48.1389 30.2181 49.2489C30.6468 50.3588 30.5786 51.3393 30.5152 51.3293C30.4373 51.3293 30.3935 50.3986 29.9843 49.3385C29.5848 48.2783 29.0003 47.5566 29.0588 47.5068V47.5118Z" fill="white"/>
<path d="M22.4342 54.4753C22.4342 54.4006 23.1162 54.4454 23.8322 54.092C24.558 53.7536 24.9526 53.1911 25.0159 53.2359C25.0792 53.2558 24.7431 53.9477 23.9394 54.3259C23.1405 54.7142 22.4098 54.54 22.4342 54.4753Z" fill="white"/>
<path d="M17.5581 50.7671C17.4948 50.7622 17.5435 50.0952 17.9478 49.4034C18.3472 48.7066 18.8928 48.3432 18.9318 48.398C18.9805 48.4577 18.5372 48.8857 18.167 49.5328C17.7871 50.1798 17.6361 50.7821 17.5581 50.7671Z" fill="white"/>
<path d="M33.1167 58.2877C33.0729 58.228 33.2337 58.0438 33.3799 57.7999C33.5359 57.5561 33.6334 57.3371 33.7017 57.347C33.7699 57.357 33.7748 57.6456 33.5944 57.9393C33.4141 58.228 33.1508 58.3474 33.1167 58.2877Z" fill="white"/>
<path d="M18.5336 52.6782C18.5677 52.7081 18.0075 53.3352 17.2087 54.4302C16.4049 55.5202 15.3917 57.108 14.5149 58.9893C13.643 60.8707 13.0828 62.6775 12.7613 64.0014C12.4349 65.3254 12.3131 66.1665 12.2693 66.1615C12.2498 66.1615 12.2693 65.9475 12.3131 65.5643C12.3521 65.181 12.4446 64.6335 12.5859 63.9616C12.8636 62.6178 13.4043 60.7811 14.2859 58.8798C15.1725 56.9785 16.2198 55.3908 17.0674 54.3207C17.4863 53.7832 17.8468 53.3651 18.1098 53.0913C18.3729 52.8126 18.5239 52.6683 18.5336 52.6782Z" fill="#5A5766"/>
<path d="M11.0596 58.7466C11.0352 58.7317 11.2739 58.2091 11.7561 57.4177C12.2384 56.6263 12.9837 55.5811 13.9384 54.5409C14.8932 53.5006 15.8674 52.6744 16.6078 52.1319C17.3483 51.5894 17.8451 51.3106 17.8597 51.3355C17.8792 51.3704 17.4213 51.6989 16.715 52.2762C16.0087 52.8536 15.0637 53.6898 14.1187 54.7151C13.1785 55.7453 12.4186 56.7607 11.9023 57.5172C11.3859 58.2738 11.0937 58.7665 11.0547 58.7466H11.0596Z" fill="#5A5766"/>
<path d="M19.9395 43.3616C19.9395 43.3616 19.7884 43.6055 19.5692 44.0684C19.3452 44.5263 19.0967 45.2381 19.0091 46.1489C18.9311 47.0547 19.0383 48.1746 19.5254 49.2746C20.0076 50.3746 20.9088 51.4048 22.0779 52.1166C23.2519 52.8333 24.5573 53.1469 25.7362 53.1419C26.9199 53.1469 27.9818 52.8881 28.7953 52.5098C29.6088 52.1265 30.1738 51.6338 30.4953 51.2456C30.8266 50.8573 30.9532 50.5985 30.9776 50.6135C30.9873 50.6135 30.9581 50.6831 30.8948 50.8026C30.8363 50.927 30.7292 51.0963 30.5733 51.3103C30.2664 51.7284 29.7013 52.2609 28.8732 52.679C28.0403 53.0871 26.9589 53.3758 25.7362 53.3808C24.5184 53.4007 23.1593 53.0822 21.9464 52.3406C20.7335 51.6039 19.7982 50.5239 19.3111 49.3741C18.8142 48.2244 18.7265 47.0647 18.8288 46.134C18.9409 45.1982 19.2234 44.4765 19.4767 44.0236C19.6082 43.7947 19.7154 43.6254 19.7982 43.5209C19.881 43.4114 19.9248 43.3567 19.9346 43.3616H19.9395Z" fill="#5A5766"/>
<path d="M17.32 47.0195C17.3638 47.0245 17.2761 47.5571 17.2908 48.4132C17.3054 49.2593 17.4515 50.4638 18.0555 51.6036C18.6596 52.7433 19.6192 53.485 20.3742 53.8135C21.139 54.1569 21.6748 54.1569 21.67 54.2067C21.67 54.2216 21.5384 54.2365 21.2998 54.2216C21.0611 54.2067 20.7152 54.1419 20.3109 53.9877C19.5023 53.689 18.4745 52.9275 17.8363 51.733C17.2031 50.5384 17.0862 49.2792 17.1154 48.4181C17.13 47.9801 17.1739 47.6317 17.2226 47.3928C17.2664 47.1539 17.3054 47.0245 17.3249 47.0295L17.32 47.0195Z" fill="#5A5766"/>
<g opacity="0.3">
<path opacity="0.3" d="M14.7705 58.1688C13.8498 60.1198 13.3919 61.8569 12.7733 63.9274C12.5784 64.5794 12.3982 65.2812 12.5833 65.9332C12.6223 66.0626 12.7246 66.212 12.8463 66.1672C12.9243 66.1373 12.9584 66.0427 12.9779 65.9581C13.7962 62.6532 14.8094 59.4031 16.0029 56.2227L14.7705 58.1688Z" fill="#2C2937"/>
</g>
<g opacity="0.3">
<path opacity="0.3" d="M28.2005 44.0527C29.1991 46.6857 29.0578 49.5824 27.0898 51.7724C27.991 51.5883 28.6632 50.9163 28.9994 50.0403C29.7495 48.0793 29.4329 45.735 28.2005 44.0527Z" fill="#2C2937"/>
</g>
<path d="M64.7985 128.194C55.7819 127.97 47.0771 127.985 38.7035 128.254L38.7912 128.194L41.6993 100.227L30.6416 81.2738L29.9792 80.6367C27.6751 81.7616 25.5366 82.2742 23.0182 81.8362L16.5931 80.7114C13.6947 83.3095 8.35591 88.874 8.35591 89.0681C8.35591 89.327 15.4971 124.735 15.4971 124.735L19.7448 128.995L7.72266 137.636C7.72266 137.636 7.96622 146.162 13.6119 148.491C19.2528 150.821 44.3297 149.054 47.2573 148.685C47.2573 148.685 58.2175 144.335 59.7325 143.001C61.2523 141.672 65.232 131.096 64.7985 128.194Z" fill="#5A5766"/>
<path d="M34.7832 132.141C34.7832 132.141 34.8758 132.141 35.0414 132.166C35.2362 132.196 35.4798 132.235 35.7818 132.285C36.4248 132.395 37.3455 132.569 38.4853 132.803C40.765 133.271 43.8875 134.012 47.3266 134.898C50.7413 135.804 53.8345 136.62 56.1093 137.223C57.2102 137.516 58.1114 137.76 58.769 137.934C59.0613 138.014 59.3 138.084 59.4899 138.133C59.6556 138.183 59.7384 138.213 59.7384 138.218C59.7384 138.223 59.6458 138.213 59.4802 138.178C59.2902 138.138 59.0467 138.084 58.7495 138.019C58.1163 137.88 57.2005 137.661 56.0704 137.382C53.815 136.824 50.7072 136.013 47.273 135.127C43.8388 134.241 40.7212 133.475 38.4561 132.962C37.326 132.703 36.4053 132.504 35.7721 132.37C35.4749 132.305 35.2314 132.25 35.0414 132.206C34.8758 132.166 34.7881 132.141 34.7881 132.131L34.7832 132.141Z" fill="#5A5766"/>
<path d="M32.3477 128.04C32.3477 127.975 33.2976 127.99 34.4569 128.075C35.6162 128.159 36.5515 128.279 36.5466 128.343C36.5466 128.408 35.5968 128.393 34.4374 128.308C33.2781 128.224 32.3428 128.105 32.3477 128.04Z" fill="#5A5766"/>
<path d="M32.2253 122.943C32.2838 122.904 32.9804 123.849 34.0277 124.835C35.0652 125.825 36.0443 126.467 36.0054 126.527C35.981 126.582 34.9288 126.019 33.8669 125.004C32.8001 123.999 32.1766 122.968 32.2253 122.938V122.943Z" fill="#5A5766"/>
<path d="M31.6207 108.26C31.5915 108.23 31.9763 107.867 32.4926 107.2C33.009 106.533 33.6276 105.533 34.066 104.313C34.4996 103.094 34.6555 101.919 34.6798 101.068C34.7042 100.217 34.636 99.6895 34.6798 99.6846C34.6944 99.6846 34.7237 99.814 34.7626 100.053C34.8065 100.292 34.8357 100.64 34.8454 101.073C34.8649 101.939 34.7285 103.149 34.2852 104.398C33.8371 105.647 33.1795 106.663 32.6193 107.31C32.3416 107.638 32.0981 107.882 31.913 108.036C31.7327 108.196 31.6304 108.275 31.6207 108.26Z" fill="#5A5766"/>
<path d="M34.7241 81.8513C37.8563 83.8322 40.9446 88.9189 41.7191 94.3242L43.4533 102.706C43.4533 102.706 44.7636 101.989 45.5722 103.004C46.5221 104.199 46.2639 105.533 46.2639 105.533L49.8638 108.101L44.1109 112.377L40.1798 117.324C40.1798 117.324 43.5556 127.458 44.1109 128.453C44.6662 129.449 45.7817 131.171 45.7817 131.171L40.628 130.16C40.628 130.16 37.1451 127.602 37.2863 123.331C37.4276 119.066 37.8368 102.701 37.2863 100.571C36.7359 98.4354 29.9941 80.6318 29.9941 80.6318L34.7289 81.8463L34.7241 81.8513Z" fill="#FC5C5C"/>
<path d="M40.7753 117.244C40.7753 117.244 40.7558 117.159 40.7412 116.995C40.7266 116.806 40.7071 116.572 40.6877 116.283C40.6584 115.666 40.6438 114.765 40.6779 113.655C40.7363 111.44 40.9749 108.389 41.1306 105.015C41.2718 101.64 41.2426 98.5841 41.0868 96.3792C40.9992 95.2793 40.931 94.3834 40.858 93.7712C40.8288 93.4825 40.8093 93.2485 40.7899 93.0594C40.7753 92.8952 40.7753 92.8105 40.7801 92.8105C40.7899 92.8105 40.8045 92.8952 40.8337 93.0544C40.8629 93.2436 40.9018 93.4725 40.9457 93.7612C41.0479 94.3734 41.1404 95.2643 41.2475 96.3693C41.4471 98.5792 41.5006 101.65 41.3546 105.03C41.2037 108.409 40.9359 111.455 40.8337 113.665C40.7801 114.77 40.7704 115.666 40.7704 116.283C40.7753 116.572 40.7801 116.806 40.785 116.995C40.785 117.159 40.785 117.244 40.7753 117.244Z" fill="#5A5766"/>
<path d="M29.6187 112.983L27.1831 103.482L16.598 80.7109L7.57654 85.1656C7.33785 85.2551 7.10891 85.3696 6.8897 85.504C5.99827 86.0515 5.28708 86.9225 4.73663 87.8632C3.44089 90.0781 3.0171 92.711 3.4068 95.2644L6.87996 117.786C6.87996 117.786 8.37055 121.848 10.2801 125.242L5.02403 141.458C5.02403 141.458 18.4588 148.317 22.7942 148.297C26.4622 148.277 29.6674 148.257 30.2763 140.95C30.8804 133.644 29.6285 112.988 29.6285 112.988L29.6187 112.983Z" fill="#FC5C5C"/>
<path d="M18.4136 117.244C18.3844 117.229 18.5451 116.791 18.7594 116.064C18.8715 115.701 18.9981 115.263 19.1979 114.795C19.3976 114.332 19.685 113.819 20.1526 113.436C20.6202 113.053 21.1902 112.889 21.6968 112.864C22.2083 112.844 22.6613 112.953 23.012 113.113C23.3627 113.272 23.616 113.461 23.7622 113.615C23.9132 113.77 23.9765 113.869 23.9668 113.879C23.9375 113.914 23.6355 113.531 22.9487 113.267C22.6126 113.137 22.179 113.053 21.7065 113.083C21.234 113.113 20.7177 113.272 20.2939 113.62C19.8701 113.969 19.5924 114.441 19.3927 114.884C19.1881 115.332 19.0468 115.76 18.9153 116.114C18.662 116.831 18.4428 117.254 18.4185 117.239L18.4136 117.244Z" fill="#5A5766"/>
<path d="M15.5029 108.429C15.5029 108.429 15.6052 108.365 15.8147 108.305C16.0241 108.245 16.3359 108.196 16.7207 108.201C17.4855 108.201 18.6107 108.514 19.4437 109.415C20.2718 110.321 20.5056 111.49 20.4618 112.267C20.4423 112.665 20.3741 112.979 20.3011 113.188C20.2329 113.397 20.1744 113.501 20.1598 113.496C20.1159 113.481 20.3011 113.028 20.2962 112.262C20.2962 111.51 20.0477 110.42 19.2732 109.574C18.4938 108.733 17.4417 108.41 16.711 108.365C15.9657 108.315 15.5078 108.474 15.498 108.429H15.5029Z" fill="#5A5766"/>
<path d="M15.5008 90.4963C15.5008 90.4963 15.5885 90.7352 15.7103 91.1732C15.832 91.6162 15.9879 92.2582 16.1682 93.0546C16.5286 94.6523 16.9476 96.8771 17.2544 99.3558C17.5565 101.839 17.688 104.099 17.7269 105.737C17.7464 106.558 17.7464 107.22 17.7367 107.678C17.7269 108.136 17.7123 108.389 17.6977 108.389C17.6831 108.389 17.6636 108.136 17.6441 107.678C17.6247 107.18 17.5954 106.528 17.5613 105.742C17.4834 104.109 17.3275 101.859 17.0206 99.3806C16.7137 96.907 16.324 94.6871 16.0074 93.0844C15.8515 92.318 15.72 91.6759 15.6226 91.1881C15.53 90.7402 15.4862 90.4913 15.5008 90.4863V90.4963Z" fill="#5A5766"/>
<path d="M7.63478 85.9563C7.63478 85.9314 8.0196 85.8418 8.65286 85.8418C9.28611 85.8418 10.1727 85.9563 11.0885 86.2997C12.0042 86.6481 12.7544 87.1458 13.2367 87.5689C13.7238 87.992 13.9576 88.3155 13.943 88.3304C13.8943 88.3951 12.8129 87.1856 11.0105 86.5237C9.21792 85.8368 7.62991 86.0409 7.63478 85.9613V85.9563Z" fill="#5A5766"/>
<path d="M10.6799 125.94C10.6799 125.94 10.7481 126.014 10.8602 126.174C10.9819 126.348 11.1378 126.577 11.3327 126.855C11.8003 127.393 12.492 128.194 13.6221 128.792C14.7376 129.394 16.2526 129.737 17.9185 129.598C19.5747 129.424 21.3722 128.811 22.9407 127.667C23.3304 127.418 23.6568 127.089 23.9929 126.821L23.9539 126.91C23.9393 123.267 23.9247 120.022 23.915 117.653C23.9198 116.503 23.9247 115.567 23.9296 114.89C23.9344 114.587 23.9393 114.338 23.9442 114.144C23.9491 113.974 23.9588 113.885 23.9637 113.885C23.9734 113.885 23.9783 113.974 23.988 114.144C23.9929 114.338 24.0026 114.587 24.0124 114.89C24.027 115.567 24.0465 116.503 24.0708 117.653C24.1001 120.022 24.139 123.262 24.1829 126.91V126.97L24.1439 127C23.8029 127.274 23.4668 127.612 23.0674 127.866C21.4599 129.035 19.6234 129.658 17.9283 129.822C16.2233 129.951 14.6694 129.583 13.5393 128.946C12.3946 128.314 11.7029 127.483 11.2547 126.915C11.055 126.612 10.9137 126.368 10.8114 126.203C10.714 126.039 10.6653 125.95 10.6751 125.945L10.6799 125.94Z" fill="#5A5766"/>
<g opacity="0.3">
<path opacity="0.3" d="M30.2218 125.321C28.6338 126.008 26.6269 126.645 26.2907 128.377C26.1787 128.95 26.2518 129.557 26.0618 130.109C25.6088 131.428 23.9867 131.807 22.6227 131.936C20.3187 132.155 17.9464 132.245 15.7495 131.508C13.5526 130.771 11.5456 129.054 11.0195 126.755C13.0216 128.019 13.9617 129.462 16.2853 129.856C17.5859 130.075 20.0166 129.213 21.2685 128.79C22.5204 128.372 24.0695 126.64 24.0695 126.64C24.1766 126.197 24.0549 124.724 23.9623 125.167C23.9331 125.316 26.0862 123.913 27.1676 123.495C28.4487 123.002 30.2218 122.131 30.2218 122.131" fill="#2C2937"/>
</g>
<g opacity="0.3">
<path opacity="0.3" d="M19.7474 113.934C19.4015 115.536 18.4029 118.05 17.8768 119.598C17.7843 119.871 17.6868 120.15 17.5066 120.374C17.3264 120.598 17.0487 120.757 16.7662 120.718C16.3521 120.658 16.1037 120.17 16.1427 119.742C16.1816 119.314 16.4252 118.941 16.659 118.587C17.6868 117.039 18.7195 115.486 19.7474 113.939" fill="#2C2937"/>
</g>
<path d="M11.4688 133.823C11.4688 133.823 11.6051 133.529 11.8877 133.041C12.1702 132.554 12.5843 131.862 13.086 131.031L13.125 130.961L13.198 130.991C14.221 131.369 15.4583 131.807 16.8027 132.23C18.6392 132.812 20.3295 133.25 21.557 133.554C22.1367 133.693 22.6238 133.813 23.0135 133.907C23.3593 133.992 23.5445 134.042 23.5445 134.062C23.5445 134.077 23.3447 134.057 22.9989 133.997C22.6482 133.942 22.1464 133.848 21.5278 133.718C20.2905 133.455 18.5856 133.041 16.7443 132.454C15.3949 132.031 14.1577 131.578 13.1396 131.175L13.2565 131.135C12.7353 131.956 12.3017 132.628 11.99 133.101C11.6782 133.569 11.4931 133.833 11.4785 133.818L11.4688 133.823Z" fill="#5A5766"/>
<path d="M22.6272 138.078C22.5688 138.049 22.939 137.232 23.3189 136.197C23.6989 135.162 23.9376 134.301 24.0058 134.316C24.0642 134.331 23.923 135.231 23.5381 136.282C23.1582 137.332 22.6857 138.108 22.6321 138.078H22.6272Z" fill="#5A5766"/>
<path d="M11.4941 134.141C11.5136 134.106 12.0787 134.454 13.0237 134.942C13.9687 135.43 15.3083 136.037 16.8476 136.535C18.3869 137.038 19.8239 137.331 20.8663 137.5C21.9136 137.67 22.5664 137.729 22.5664 137.769C22.5664 137.784 22.4008 137.784 22.1036 137.774C21.8065 137.764 21.3778 137.729 20.8468 137.665C19.7898 137.535 18.3333 137.262 16.7794 136.754C15.2255 136.251 13.881 135.614 12.9506 135.082C12.483 134.818 12.1177 134.589 11.8692 134.415C11.6208 134.245 11.4893 134.146 11.499 134.131L11.4941 134.141Z" fill="#5A5766"/>
<g opacity="0.3">
<path opacity="0.3" d="M21.8061 137.75C21.9571 138.019 21.7866 138.377 21.5285 138.532C21.2703 138.686 20.9488 138.686 20.6517 138.676C17.4123 138.552 14.2168 137.362 11.6594 135.321C11.4012 135.112 11.1285 134.729 11.3525 134.485C11.5425 134.276 11.8786 134.416 12.1173 134.56C15.1618 136.382 18.5863 137.526 22.0935 137.9" fill="#2C2937"/>
</g>
<path d="M24.0742 114.258L44.1289 109.823L48.3182 108.763L51.6257 110.803C52.0982 111.092 52.4149 111.585 52.4879 112.142L52.7753 114.332L52.371 114.691L52.8971 115.681C53.1309 116.119 53.0822 116.657 52.7753 117.05L49.3996 114.457L51.6062 117.622C51.6062 117.622 51.1873 118.05 50.14 117.981C49.0927 117.911 46.4769 114.243 46.4769 114.243L44.7622 113.969L48.3718 117.936C48.3718 117.936 48.5374 118.269 47.7677 118.553C46.9981 118.837 42.994 115.686 42.994 115.686L24.1716 125.083" fill="#FFBE9D"/>
<path d="M24.1629 125.073C24.1629 125.073 24.1921 125.053 24.2457 125.023C24.309 124.988 24.3918 124.943 24.499 124.888C24.7328 124.769 25.0689 124.595 25.4976 124.371C26.3841 123.918 27.6701 123.266 29.3069 122.44C32.6047 120.782 37.3005 118.423 42.9413 115.586C42.9754 115.566 43.0144 115.576 43.0436 115.596C43.8571 116.228 44.7193 116.86 45.6351 117.462C46.093 117.761 46.5655 118.055 47.0672 118.284C47.3157 118.383 47.5933 118.517 47.7931 118.413C47.9197 118.363 48.0415 118.299 48.134 118.219C48.2363 118.149 48.285 118.02 48.2656 117.975L48.285 118C47.1354 116.741 45.9225 115.407 44.6755 114.038C44.6316 113.993 44.6365 113.919 44.6804 113.874C44.7047 113.849 44.7437 113.839 44.7729 113.844C45.3087 113.928 45.8933 114.023 46.4876 114.118C46.5168 114.118 46.546 114.143 46.5606 114.162C47.2085 115.048 47.9051 115.939 48.6894 116.77C49.0839 117.169 49.5028 117.597 49.9851 117.816C50.4673 117.925 51.1298 117.846 51.5195 117.532L51.5049 117.681C51.3003 117.388 51.0762 117.064 50.8522 116.746C50.331 115.994 49.8097 115.252 49.2983 114.516C49.2593 114.461 49.2739 114.391 49.3275 114.352C49.3713 114.322 49.4249 114.322 49.4639 114.352C50.3845 115.063 51.3003 115.76 52.1966 116.452L52.5327 116.711L52.6984 116.84L52.7812 116.905L52.825 116.935L52.8347 116.945C52.976 116.93 52.6448 116.97 52.6789 116.965H52.6837L52.6984 116.94C52.8542 116.736 52.9322 116.472 52.9224 116.218C52.9224 115.954 52.8006 115.735 52.6594 115.481C52.5279 115.233 52.3963 114.989 52.2697 114.74C52.2453 114.69 52.2551 114.63 52.294 114.6C52.4304 114.481 52.562 114.362 52.6984 114.242L52.6594 114.342C52.5717 113.665 52.484 112.998 52.3963 112.336C52.3622 111.679 52.0018 111.116 51.4513 110.823C50.3602 110.146 49.2934 109.489 48.2607 108.852L48.3386 108.862C47.4472 109.086 46.5753 109.305 45.7179 109.519C44.8606 109.733 44.0276 109.952 43.2044 110.121C41.5579 110.479 39.9943 110.823 38.5183 111.146C35.5712 111.788 32.9846 112.351 30.8413 112.819C28.7077 113.276 27.0174 113.64 25.8532 113.889C25.2832 114.008 24.84 114.098 24.5282 114.162C24.3821 114.192 24.27 114.212 24.1872 114.227C24.1093 114.242 24.0703 114.247 24.0703 114.242C24.0703 114.242 24.1093 114.227 24.1824 114.207C24.2652 114.187 24.3772 114.157 24.5185 114.123C24.8253 114.048 25.2686 113.948 25.8337 113.814C26.9979 113.55 28.6833 113.167 30.8072 112.684C32.9456 112.206 35.5274 111.624 38.4745 110.962C39.9504 110.634 41.5141 110.285 43.1557 109.917C43.9789 109.743 44.8119 109.524 45.6692 109.305C46.5217 109.086 47.3985 108.867 48.285 108.638C48.3143 108.633 48.3435 108.638 48.363 108.648C49.4006 109.285 50.4673 109.942 51.5585 110.614C51.841 110.768 52.1187 111.012 52.2989 111.305C52.4889 111.594 52.5814 111.958 52.6107 112.286C52.6984 112.948 52.786 113.615 52.8737 114.292C52.8786 114.332 52.864 114.371 52.8347 114.391C52.7032 114.511 52.5668 114.63 52.4304 114.75L52.4548 114.61C52.5863 114.854 52.7178 115.103 52.8494 115.347C52.976 115.581 53.1416 115.87 53.1416 116.183C53.1562 116.492 53.0588 116.81 52.8737 117.054L52.8542 117.079V117.089C52.8883 117.089 52.5522 117.129 52.6935 117.109L52.6837 117.099L52.6399 117.069L52.5571 117.004L52.3915 116.875L52.0554 116.616C51.1542 115.924 50.2433 115.223 49.3177 114.516L49.4785 114.352C49.99 115.088 50.5112 115.835 51.0324 116.581C51.2565 116.9 51.4806 117.223 51.6851 117.517V117.527C51.7241 117.572 51.7144 117.637 51.6705 117.671C51.4026 117.9 51.1103 117.98 50.8083 118.035C50.6573 118.055 50.5063 118.07 50.3602 118.07C50.2871 118.07 50.2092 118.07 50.1361 118.065C50.0582 118.055 49.9754 118.03 49.8925 118.01C49.3177 117.751 48.9183 117.318 48.5091 116.91C47.7151 116.069 47.0185 115.173 46.3609 114.277L46.434 114.322C45.8446 114.227 45.2552 114.133 44.7193 114.048L44.8168 113.854C46.0638 115.223 47.2767 116.561 48.4214 117.826H48.4263C48.4263 117.826 48.4361 117.846 48.4361 117.851C48.5189 118.099 48.3679 118.264 48.2509 118.363C48.1243 118.468 47.9879 118.532 47.8515 118.592C47.7979 118.617 47.6859 118.657 47.608 118.647C47.5203 118.647 47.4472 118.627 47.3741 118.612C47.228 118.577 47.0965 118.518 46.9601 118.458C46.4389 118.214 45.9664 117.915 45.5036 117.617C44.5829 117.009 43.7207 116.372 42.9072 115.735L43.0095 115.745C37.3541 118.547 32.6436 120.882 29.341 122.524C27.6945 123.33 26.4036 123.968 25.5073 124.406C25.0689 124.615 24.7328 124.779 24.4941 124.893C24.3869 124.943 24.2993 124.983 24.2311 125.013C24.1726 125.038 24.1434 125.053 24.1385 125.048L24.1629 125.073Z" fill="#FFBE9D"/>
<path d="M51.6029 117.612C51.5785 117.632 51.2668 117.234 50.7894 116.572C50.312 115.91 49.6641 114.984 48.9578 113.959C48.6558 113.436 48.2369 113.023 47.7498 112.874C47.2578 112.73 46.7706 112.65 46.3858 112.55C45.6016 112.366 45.1193 112.242 45.1291 112.207C45.1339 112.177 45.6259 112.247 46.4199 112.386C46.8194 112.466 47.2821 112.526 47.8131 112.665C48.3635 112.814 48.8458 113.282 49.1575 113.835C49.859 114.86 50.4825 115.796 50.9258 116.477C51.3691 117.159 51.6272 117.592 51.6029 117.612Z" fill="#FFBE9D"/>
<path d="M52.2741 114.745C52.2449 114.765 51.9721 114.407 51.4947 113.849C51.0076 113.302 50.3695 112.52 49.5511 111.774C49.3465 111.584 49.1468 111.4 48.9568 111.221C48.8594 111.131 48.7669 111.047 48.6743 110.962L48.5379 110.838C48.5379 110.838 48.4843 110.788 48.4746 110.783H48.4356C47.9875 110.723 47.5393 110.733 47.1837 110.718C46.4628 110.708 46.0146 110.693 46.0098 110.664C46.0098 110.634 46.453 110.584 47.1789 110.554C47.5442 110.544 47.9631 110.514 48.4697 110.564L48.5184 110.574C48.5184 110.574 48.572 110.594 48.6012 110.609C48.6451 110.634 48.65 110.649 48.6792 110.674L48.8204 110.798C48.9179 110.883 49.0104 110.967 49.1079 111.057C49.3027 111.236 49.5024 111.42 49.707 111.609C50.5351 112.366 51.1684 113.177 51.6214 113.754C52.0695 114.342 52.2985 114.74 52.2741 114.755V114.745Z" fill="#FFBE9D"/>
<path d="M80.5963 122.242L87.6206 102.422C88.3025 100.72 87.0799 98.8486 85.2726 98.8486H64.5165C63.4302 98.8486 62.4657 99.5554 62.115 100.606L55.4755 120.594L43.9259 120.634C43.2975 120.634 42.752 121.495 42.752 122.137H46.5515L55.115 122.122L80.5865 122.242H80.5963Z" fill="#D4D2D9"/>
<path d="M80.5951 122.241C80.5951 122.241 80.5366 122.246 80.4197 122.246C80.293 122.246 80.1177 122.246 79.8936 122.251C79.4162 122.251 78.7294 122.251 77.8331 122.256C76.0161 122.256 73.3759 122.256 70.0489 122.256C66.7024 122.251 62.6642 122.241 58.0658 122.231C53.4625 122.206 48.3234 122.261 42.7556 122.251H42.6387V122.132C42.6435 121.833 42.7361 121.549 42.8725 121.295C43.0089 121.042 43.1989 120.808 43.457 120.648C43.5837 120.569 43.7347 120.514 43.8954 120.509C44.0416 120.504 44.1682 120.509 44.3095 120.509C44.5823 120.509 44.8551 120.509 45.1327 120.509C46.2336 120.509 47.354 120.499 48.489 120.494C50.7638 120.484 53.102 120.479 55.4889 120.469L55.372 120.554C56.3365 117.642 57.3497 114.596 58.3775 111.495C59.0497 109.465 59.7171 107.459 60.3747 105.478C60.7011 104.487 61.0275 103.507 61.3538 102.531C61.5146 102.044 61.6753 101.561 61.8361 101.078C61.9189 100.834 61.9871 100.6 62.0894 100.346C62.1917 100.102 62.3329 99.8735 62.5034 99.6744C62.8395 99.2712 63.2926 98.9726 63.7894 98.8282C64.0379 98.7536 64.296 98.7188 64.5493 98.7188H65.28C66.2494 98.7188 67.2139 98.7188 68.1638 98.7188C70.0684 98.7188 71.9292 98.7188 73.751 98.7188C77.3898 98.7188 80.8435 98.7287 84.078 98.7287C84.4823 98.7287 84.8817 98.7287 85.2812 98.7287C85.6952 98.7287 86.1044 98.8283 86.4649 99.0174C87.1955 99.3907 87.7119 100.107 87.8629 100.889C87.9408 101.277 87.936 101.685 87.8385 102.063C87.7314 102.442 87.595 102.78 87.4732 103.129C87.2248 103.82 86.9861 104.497 86.7474 105.159C84.8574 110.435 83.3229 114.711 82.261 117.672C81.73 119.135 81.3209 120.275 81.0383 121.062C80.8971 121.44 80.7948 121.728 80.7168 121.938C80.6438 122.132 80.6048 122.226 80.6048 122.226C80.6048 122.226 80.634 122.117 80.7022 121.913C80.7753 121.704 80.8776 121.405 81.0091 121.017C81.2819 120.225 81.6813 119.076 82.1977 117.597C83.2352 114.631 84.7356 110.356 86.5866 105.08C86.8204 104.418 87.0543 103.746 87.2978 103.054C87.4147 102.71 87.5511 102.357 87.6486 102.014C87.7411 101.665 87.7411 101.287 87.668 100.929C87.5268 100.207 87.0445 99.54 86.3723 99.2015C85.7049 98.8233 84.8866 98.9626 84.078 98.9377C80.8435 98.9377 77.3849 98.9477 73.751 98.9477C71.9341 98.9477 70.0684 98.9477 68.1638 98.9477C67.2139 98.9477 66.2494 98.9477 65.28 98.9477C64.788 98.9577 64.3009 98.9029 63.8576 99.0472C63.4095 99.1816 63.0003 99.4504 62.6934 99.8137C62.5424 99.9979 62.4109 100.202 62.3183 100.426C62.2306 100.645 62.1527 100.899 62.0748 101.138C61.914 101.62 61.7533 102.103 61.5925 102.591C61.271 103.567 60.9446 104.547 60.6134 105.538C59.9558 107.514 59.2884 109.524 58.6162 111.555C57.5835 114.661 56.5752 117.707 55.6058 120.614L55.5766 120.698H55.4889C53.102 120.703 50.7638 120.713 48.489 120.718C47.354 120.718 46.2336 120.723 45.1327 120.728H44.3095C44.178 120.728 44.0318 120.728 43.9052 120.733C43.7931 120.733 43.6811 120.778 43.5788 120.843C43.1696 121.101 42.8968 121.629 42.8822 122.117L42.7653 121.997C48.3282 122.017 53.482 121.972 58.0609 122.012C62.6447 122.047 66.6683 122.077 70.0051 122.102C73.337 122.132 75.982 122.157 77.799 122.176C78.7002 122.186 79.3967 122.196 79.879 122.201L80.4148 122.211C80.5366 122.211 80.5999 122.221 80.5999 122.221L80.5951 122.241Z" fill="#5A5766"/>
<path d="M64.6951 98.9133C64.6951 98.9133 64.6853 98.9979 64.6366 99.1572L64.4223 99.8341C64.2128 100.456 63.9351 101.297 63.5942 102.318C62.883 104.408 61.8892 107.295 60.7689 110.47C59.6534 113.651 58.6304 116.528 57.8754 118.603C57.5052 119.609 57.1983 120.44 56.9693 121.057C56.867 121.321 56.7794 121.54 56.7112 121.719C56.6478 121.868 56.6137 121.948 56.604 121.943C56.5943 121.943 56.6137 121.858 56.6625 121.699C56.7209 121.515 56.7891 121.291 56.8768 121.022C57.0862 120.4 57.3639 119.559 57.7049 118.539C58.4161 116.448 59.4098 113.561 60.5302 110.381C61.6457 107.2 62.6686 104.329 63.4237 102.253C63.7939 101.243 64.1008 100.416 64.3297 99.7993C64.432 99.5355 64.5197 99.3165 64.5879 99.1373C64.6512 98.988 64.6853 98.9083 64.6951 98.9133Z" fill="#5A5766"/>
<path d="M38.4304 125.75H103.821C104.796 125.75 105.59 124.939 105.59 123.943C105.59 122.948 104.796 122.137 103.821 122.137H38.4304C37.4561 122.137 36.6621 122.948 36.6621 123.943C36.6621 124.939 37.4561 125.75 38.4304 125.75Z" fill="#5A5766"/>
<path d="M68.8564 199.741H74.5605L74.5605 125.068H68.8564L68.8564 199.741Z" fill="#5A5766"/>
<path d="M90.9553 199.747H52.1465C52.3998 199.747 68.8547 195.292 68.8547 195.292H74.5589L90.9553 199.747Z" fill="#5A5766"/>
<path d="M38.2598 125.596C38.2598 125.531 53.0487 125.477 71.2816 125.477C89.5145 125.477 104.308 125.531 104.308 125.596C104.308 125.661 89.5243 125.715 71.2816 125.715C53.039 125.715 38.2598 125.661 38.2598 125.596Z" fill="#5A5766"/>
<path d="M124.846 35.9863H122.625V34.8203H124.846C125.232 34.8203 125.545 34.7578 125.783 34.6328C126.021 34.5078 126.195 34.3359 126.305 34.1172C126.418 33.8945 126.475 33.6406 126.475 33.3555C126.475 33.0859 126.418 32.834 126.305 32.5996C126.195 32.3613 126.021 32.1699 125.783 32.0254C125.545 31.8809 125.232 31.8086 124.846 31.8086H123.076V39.168H121.605V30.6367H124.846C125.506 30.6367 126.066 30.7539 126.527 30.9883C126.992 31.2188 127.346 31.5391 127.588 31.9492C127.83 32.3555 127.951 32.8203 127.951 33.3438C127.951 33.8945 127.83 34.3672 127.588 34.7617C127.346 35.1562 126.992 35.459 126.527 35.6699C126.066 35.8809 125.506 35.9863 124.846 35.9863ZM136.072 34.668V35.1367C136.072 35.7812 135.988 36.3594 135.82 36.8711C135.652 37.3828 135.412 37.8184 135.1 38.1777C134.791 38.5371 134.42 38.8125 133.986 39.0039C133.553 39.1914 133.072 39.2852 132.545 39.2852C132.021 39.2852 131.543 39.1914 131.109 39.0039C130.68 38.8125 130.307 38.5371 129.99 38.1777C129.674 37.8184 129.428 37.3828 129.252 36.8711C129.08 36.3594 128.994 35.7812 128.994 35.1367V34.668C128.994 34.0234 129.08 33.4473 129.252 32.9395C129.424 32.4277 129.666 31.9922 129.979 31.6328C130.295 31.2695 130.668 30.9941 131.098 30.8066C131.531 30.6152 132.01 30.5195 132.533 30.5195C133.061 30.5195 133.541 30.6152 133.975 30.8066C134.408 30.9941 134.781 31.2695 135.094 31.6328C135.406 31.9922 135.646 32.4277 135.814 32.9395C135.986 33.4473 136.072 34.0234 136.072 34.668ZM134.602 35.1367V34.6562C134.602 34.1797 134.555 33.7598 134.461 33.3965C134.371 33.0293 134.236 32.7227 134.057 32.4766C133.881 32.2266 133.664 32.0391 133.406 31.9141C133.148 31.7852 132.857 31.7207 132.533 31.7207C132.209 31.7207 131.92 31.7852 131.666 31.9141C131.412 32.0391 131.195 32.2266 131.016 32.4766C130.84 32.7227 130.705 33.0293 130.611 33.3965C130.518 33.7598 130.471 34.1797 130.471 34.6562V35.1367C130.471 35.6133 130.518 36.0352 130.611 36.4023C130.705 36.7695 130.842 37.0801 131.021 37.334C131.205 37.584 131.424 37.7734 131.678 37.9023C131.932 38.0273 132.221 38.0898 132.545 38.0898C132.873 38.0898 133.164 38.0273 133.418 37.9023C133.672 37.7734 133.887 37.584 134.062 37.334C134.238 37.0801 134.371 36.7695 134.461 36.4023C134.555 36.0352 134.602 35.6133 134.602 35.1367ZM137.543 30.6367H140.561C141.209 30.6367 141.762 30.7344 142.219 30.9297C142.676 31.125 143.025 31.4141 143.268 31.7969C143.514 32.1758 143.637 32.6445 143.637 33.2031C143.637 33.6289 143.559 34.0039 143.402 34.3281C143.246 34.6523 143.025 34.9258 142.74 35.1484C142.455 35.3672 142.115 35.5371 141.721 35.6582L141.275 35.875H138.562L138.551 34.709H140.584C140.936 34.709 141.229 34.6465 141.463 34.5215C141.697 34.3965 141.873 34.2266 141.99 34.0117C142.111 33.793 142.172 33.5469 142.172 33.2734C142.172 32.9766 142.113 32.7188 141.996 32.5C141.883 32.2773 141.707 32.1074 141.469 31.9902C141.23 31.8691 140.928 31.8086 140.561 31.8086H139.014V39.168H137.543V30.6367ZM142.412 39.168L140.408 35.3359L141.949 35.3301L143.982 39.0918V39.168H142.412ZM148.213 30.6367V39.168H146.754V30.6367H148.213ZM150.891 30.6367V31.8086H144.1V30.6367H150.891ZM153.486 30.6367V39.168H152.016V30.6367H153.486ZM156.967 34.3691V35.5352H153.111V34.3691H156.967ZM157.453 30.6367V31.8086H153.111V30.6367H157.453ZM165.428 34.668V35.1367C165.428 35.7812 165.344 36.3594 165.176 36.8711C165.008 37.3828 164.768 37.8184 164.455 38.1777C164.146 38.5371 163.775 38.8125 163.342 39.0039C162.908 39.1914 162.428 39.2852 161.9 39.2852C161.377 39.2852 160.898 39.1914 160.465 39.0039C160.035 38.8125 159.662 38.5371 159.346 38.1777C159.029 37.8184 158.783 37.3828 158.607 36.8711C158.436 36.3594 158.35 35.7812 158.35 35.1367V34.668C158.35 34.0234 158.436 33.4473 158.607 32.9395C158.779 32.4277 159.021 31.9922 159.334 31.6328C159.65 31.2695 160.023 30.9941 160.453 30.8066C160.887 30.6152 161.365 30.5195 161.889 30.5195C162.416 30.5195 162.896 30.6152 163.33 30.8066C163.764 30.9941 164.137 31.2695 164.449 31.6328C164.762 31.9922 165.002 32.4277 165.17 32.9395C165.342 33.4473 165.428 34.0234 165.428 34.668ZM163.957 35.1367V34.6562C163.957 34.1797 163.91 33.7598 163.816 33.3965C163.727 33.0293 163.592 32.7227 163.412 32.4766C163.236 32.2266 163.02 32.0391 162.762 31.9141C162.504 31.7852 162.213 31.7207 161.889 31.7207C161.564 31.7207 161.275 31.7852 161.021 31.9141C160.768 32.0391 160.551 32.2266 160.371 32.4766C160.195 32.7227 160.061 33.0293 159.967 33.3965C159.873 33.7598 159.826 34.1797 159.826 34.6562V35.1367C159.826 35.6133 159.873 36.0352 159.967 36.4023C160.061 36.7695 160.197 37.0801 160.377 37.334C160.561 37.584 160.779 37.7734 161.033 37.9023C161.287 38.0273 161.576 38.0898 161.9 38.0898C162.229 38.0898 162.52 38.0273 162.773 37.9023C163.027 37.7734 163.242 37.584 163.418 37.334C163.594 37.0801 163.727 36.7695 163.816 36.4023C163.91 36.0352 163.957 35.6133 163.957 35.1367ZM126.949 56.002V57.168H122.666V56.002H126.949ZM123.076 48.6367V57.168H121.605V48.6367H123.076ZM129.656 48.6367V57.168H128.186V48.6367H129.656ZM138.287 52.668V53.1367C138.287 53.7812 138.203 54.3594 138.035 54.8711C137.867 55.3828 137.627 55.8184 137.314 56.1777C137.006 56.5371 136.635 56.8125 136.201 57.0039C135.768 57.1914 135.287 57.2852 134.76 57.2852C134.236 57.2852 133.758 57.1914 133.324 57.0039C132.895 56.8125 132.521 56.5371 132.205 56.1777C131.889 55.8184 131.643 55.3828 131.467 54.8711C131.295 54.3594 131.209 53.7812 131.209 53.1367V52.668C131.209 52.0234 131.295 51.4473 131.467 50.9395C131.639 50.4277 131.881 49.9922 132.193 49.6328C132.51 49.2695 132.883 48.9941 133.312 48.8066C133.746 48.6152 134.225 48.5195 134.748 48.5195C135.275 48.5195 135.756 48.6152 136.189 48.8066C136.623 48.9941 136.996 49.2695 137.309 49.6328C137.621 49.9922 137.861 50.4277 138.029 50.9395C138.201 51.4473 138.287 52.0234 138.287 52.668ZM136.816 53.1367V52.6562C136.816 52.1797 136.77 51.7598 136.676 51.3965C136.586 51.0293 136.451 50.7227 136.271 50.4766C136.096 50.2266 135.879 50.0391 135.621 49.9141C135.363 49.7852 135.072 49.7207 134.748 49.7207C134.424 49.7207 134.135 49.7852 133.881 49.9141C133.627 50.0391 133.41 50.2266 133.23 50.4766C133.055 50.7227 132.92 51.0293 132.826 51.3965C132.732 51.7598 132.686 52.1797 132.686 52.6562V53.1367C132.686 53.6133 132.732 54.0352 132.826 54.4023C132.92 54.7695 133.057 55.0801 133.236 55.334C133.42 55.584 133.639 55.7734 133.893 55.9023C134.146 56.0273 134.436 56.0898 134.76 56.0898C135.088 56.0898 135.379 56.0273 135.633 55.9023C135.887 55.7734 136.102 55.584 136.277 55.334C136.453 55.0801 136.586 54.7695 136.676 54.4023C136.77 54.0352 136.816 53.6133 136.816 53.1367Z" fill="#5A5766"/>
</svg>
