<svg width="200" height="264" viewBox="0 0 200 264" fill="none" xmlns="http://www.w3.org/2000/svg">
<path d="M166.162 89.138C165.787 88.0999 165.102 87.2025 164.199 86.5677C163.297 85.9329 162.221 85.5915 161.117 85.5898H50.4891C49.7855 85.5896 49.0887 85.7279 48.4385 85.997C47.7883 86.2661 47.1975 86.6606 46.6997 87.1581C46.202 87.6556 45.8071 88.2463 45.5376 88.8964C45.268 89.5466 45.1292 90.2435 45.1289 90.9473V175.868C45.1309 177.289 45.6963 178.652 46.7011 179.657C47.7059 180.662 49.0681 181.227 50.4891 181.229H161.117C162.538 181.227 163.9 180.662 164.905 179.657C165.91 178.652 166.475 177.289 166.477 175.868V90.9514C166.478 90.3332 166.372 89.7195 166.162 89.138Z" fill="white"/>
<path d="M166.162 89.138C165.787 88.0999 165.102 87.2025 164.199 86.5677C163.297 85.9329 162.221 85.5915 161.117 85.5898H50.4891C49.7855 85.5896 49.0887 85.7279 48.4385 85.997C47.7883 86.2661 47.1975 86.6606 46.6997 87.1581C46.202 87.6556 45.8071 88.2463 45.5376 88.8964C45.268 89.5466 45.1292 90.2435 45.1289 90.9473V175.868C45.1309 177.289 45.6963 178.652 46.7011 179.657C47.7059 180.662 49.0681 181.227 50.4891 181.229H161.117C162.538 181.227 163.9 180.662 164.905 179.657C165.91 178.652 166.475 177.289 166.477 175.868V90.9514C166.478 90.3332 166.372 89.7195 166.162 89.138ZM165.847 175.868C165.845 177.122 165.346 178.324 164.46 179.211C163.573 180.098 162.371 180.597 161.117 180.598H50.4891C49.2352 180.597 48.0331 180.098 47.1465 179.211C46.2599 178.324 45.7611 177.122 45.7595 175.868V90.9514C45.7611 89.6972 46.2599 88.4948 47.1465 87.6079C48.0331 86.721 49.2352 86.2221 50.4891 86.2206H161.117C162.371 86.2221 163.573 86.721 164.46 87.6079C165.346 88.4948 165.845 89.6972 165.847 90.9514V175.868Z" fill="#D4D2D9"/>
<path d="M157.945 97.0162V156.311C157.945 156.706 157.788 157.086 157.509 157.366C157.229 157.646 156.849 157.803 156.454 157.803H55.8225C55.7509 157.804 55.6793 157.798 55.6086 157.787C55.2537 157.736 54.929 157.558 54.6942 157.287C54.4594 157.016 54.3301 156.669 54.3301 156.311V97.0162C54.33 96.8203 54.3685 96.6262 54.4435 96.4451C54.5184 96.264 54.6282 96.0995 54.7667 95.9609C54.9052 95.8223 55.0696 95.7123 55.2506 95.6372C55.4316 95.5622 55.6256 95.5235 55.8215 95.5234H156.453C156.649 95.5234 156.843 95.5619 157.024 95.6368C157.205 95.7118 157.369 95.8216 157.508 95.9602C157.646 96.0987 157.756 96.2631 157.831 96.4442C157.906 96.6252 157.945 96.8193 157.945 97.0152V97.0162Z" fill="#D4D2D9"/>
<path d="M79.6959 130.778C86.9271 130.778 92.7892 124.915 92.7892 117.682C92.7892 110.449 86.9271 104.585 79.6959 104.585C72.4646 104.585 66.6025 110.449 66.6025 117.682C66.6025 124.915 72.4646 130.778 79.6959 130.778Z" fill="#7E64F3"/>
<path d="M120.755 158.041H56.5232C56.4428 158.042 56.3625 158.036 56.2832 158.022L86.6619 105.389C86.8473 105.061 87.1164 104.788 87.4417 104.598C87.7669 104.409 88.1367 104.309 88.5132 104.309C88.8897 104.309 89.2595 104.409 89.5848 104.598C89.91 104.788 90.1791 105.061 90.3645 105.389L110.752 140.71L111.729 142.4L120.755 158.041Z" fill="#9986F0"/>
<path opacity="0.2" d="M120.756 158.041H98.8252L109.591 142.4L110.366 141.273L110.753 140.71L111.73 142.4L120.756 158.041Z" fill="#2C2937"/>
<path d="M156.519 158.041H100.964L111.729 142.4L112.504 141.273L126.533 120.889C127.452 119.553 129.665 119.47 130.746 120.637C130.819 120.717 130.886 120.801 130.948 120.889L156.519 158.041Z" fill="#9986F0"/>
<path d="M102.138 258.367L96.7086 258.366L94.126 237.42L102.139 237.42L102.138 258.367Z" fill="#FFB8B8"/>
<path d="M103.522 263.63L86.0166 263.63V263.408C86.0166 262.513 86.1928 261.627 86.5352 260.8C86.8777 259.973 87.3796 259.222 88.0123 258.589C88.645 257.956 89.3961 257.454 90.2228 257.112C91.0495 256.769 91.9356 256.593 92.8303 256.593H92.8308L103.523 256.593L103.522 263.63Z" fill="#3C3B40"/>
<path d="M121.622 258.367L116.193 258.366L113.61 237.42L121.623 237.42L121.622 258.367Z" fill="#FFB8B8"/>
<path d="M123.007 263.63L105.501 263.63V263.408C105.501 262.513 105.677 261.627 106.02 260.8C106.362 259.973 106.864 259.222 107.497 258.589C108.129 257.956 108.881 257.454 109.707 257.112C110.534 256.769 111.42 256.593 112.315 256.593H112.315L123.007 256.593L123.007 263.63Z" fill="#3C3B40"/>
<path d="M114.201 250.239L106.638 195.787C106.617 195.637 106.545 195.497 106.434 195.393C106.323 195.289 106.179 195.227 106.027 195.216C105.875 195.205 105.724 195.247 105.599 195.335C105.475 195.422 105.384 195.55 105.342 195.696L100.275 213.412C99.8924 214.747 99.767 216.142 99.9058 217.524L103.979 249.541C104.006 249.811 103.978 250.084 103.895 250.343C103.813 250.602 103.678 250.842 103.5 251.047C103.321 251.252 103.103 251.418 102.858 251.536C102.613 251.653 102.346 251.719 102.074 251.73L96.8886 251.898C96.4115 251.917 95.9434 251.764 95.5698 251.467C95.1961 251.169 94.9417 250.747 94.8528 250.278L88.2854 215.662C87.9206 213.74 87.843 211.775 88.0551 209.831L93.0231 164.246L117.769 165.142L117.828 165.26C125.302 180.276 124.095 213.686 122.928 245.995L122.783 250.035C122.766 250.551 122.549 251.041 122.177 251.4C121.805 251.758 121.309 251.958 120.792 251.956L116.175 251.958H116.174C115.694 251.956 115.23 251.781 114.868 251.466C114.505 251.15 114.268 250.715 114.201 250.239Z" fill="#3C3B40"/>
<path d="M113.215 118.671C119.222 118.671 124.092 113.8 124.092 107.791C124.092 101.783 119.222 96.9121 113.215 96.9121C107.208 96.9121 102.339 101.783 102.339 107.791C102.339 113.8 107.208 118.671 113.215 118.671Z" fill="#FFB8B8"/>
<path d="M92.6512 166.892C92.4639 166.667 92.3285 166.404 92.2547 166.121C92.1809 165.838 92.1705 165.542 92.2243 165.254L98.276 132.635L99.7101 129.583C100.905 127.036 102.883 124.94 105.355 123.599C107.827 122.259 110.663 121.746 113.447 122.134C115.402 122.401 117.272 123.102 118.92 124.187C120.568 125.271 121.953 126.71 122.973 128.399C123.992 130.089 124.621 131.985 124.812 133.949C125.004 135.912 124.753 137.894 124.079 139.749L117.55 157.712L118.662 165.329C118.703 165.612 118.683 165.901 118.603 166.176C118.523 166.45 118.385 166.705 118.198 166.921C118.011 167.138 117.779 167.311 117.519 167.43C117.259 167.549 116.976 167.611 116.69 167.611H94.1836C93.891 167.611 93.602 167.547 93.3371 167.423C93.0722 167.298 92.838 167.117 92.6512 166.892Z" fill="#FF684D"/>
<path d="M141.694 186.718C141.016 186.561 140.381 186.257 139.834 185.827C139.287 185.398 138.84 184.854 138.526 184.234C138.212 183.613 138.037 182.931 138.015 182.236C137.993 181.54 138.123 180.849 138.397 180.209L120.859 140.577L130.892 138.05L144.976 177.801C146.019 178.333 146.832 179.229 147.259 180.319C147.686 181.41 147.699 182.619 147.294 183.718C146.89 184.817 146.096 185.73 145.064 186.283C144.032 186.835 142.832 186.99 141.694 186.718V186.718Z" fill="#FFB8B8"/>
<path d="M121.457 147.679C121.178 147.554 120.928 147.37 120.726 147.139C120.524 146.909 120.374 146.638 120.286 146.344L117.22 136.084C116.556 134.663 116.482 133.037 117.014 131.562C117.546 130.087 118.641 128.884 120.059 128.215C121.477 127.546 123.102 127.466 124.578 127.994C126.055 128.521 127.262 129.612 127.936 131.028L133.865 139.986C134.035 140.242 134.147 140.531 134.194 140.834C134.242 141.136 134.223 141.446 134.14 141.741C134.057 142.036 133.912 142.31 133.713 142.544C133.515 142.778 133.269 142.966 132.991 143.096L123.234 147.665C122.956 147.795 122.654 147.863 122.347 147.866C122.041 147.868 121.737 147.805 121.457 147.679Z" fill="#FF684D"/>
<path d="M68.5365 84.7328C68.3247 85.3955 68.2607 86.0965 68.3491 86.7865C68.4375 87.4765 68.676 88.1388 69.0479 88.7266C69.4198 89.3145 69.9161 89.8136 70.5017 90.1888C71.0874 90.5641 71.7481 90.8063 72.4374 90.8985L97.4884 126.261L104.796 118.937L77.8742 86.4792C77.9522 85.3106 77.599 84.1539 76.8814 83.2284C76.1639 82.3028 75.1318 81.6728 73.9808 81.4575C72.8298 81.2422 71.6399 81.4568 70.6365 82.0604C69.633 82.6641 68.8859 83.615 68.5365 84.7328Z" fill="#FFB8B8"/>
<path d="M92.6175 120.592L101.537 114.549C101.791 114.377 102.079 114.262 102.381 114.211C102.683 114.16 102.993 114.175 103.289 114.255C103.585 114.335 103.86 114.478 104.096 114.674C104.332 114.87 104.523 115.114 104.656 115.39L109.311 125.072C110.183 126.376 110.503 127.973 110.2 129.512C109.897 131.051 108.996 132.407 107.695 133.283C106.394 134.159 104.799 134.483 103.259 134.185C101.72 133.886 100.361 132.989 99.4821 131.69L92.242 123.801C92.0347 123.575 91.8786 123.307 91.7842 123.015C91.6899 122.724 91.6595 122.415 91.6951 122.111C91.7308 121.806 91.8316 121.513 91.9908 121.251C92.1499 120.989 92.3637 120.764 92.6175 120.592V120.592Z" fill="#FF684D"/>
<path d="M61.0415 264H154.481C154.598 264 154.711 263.953 154.794 263.87C154.877 263.787 154.924 263.675 154.924 263.557C154.924 263.44 154.877 263.327 154.794 263.244C154.711 263.161 154.598 263.114 154.481 263.114H61.0415C60.924 263.114 60.8114 263.161 60.7283 263.244C60.6453 263.327 60.5986 263.44 60.5986 263.557C60.5986 263.675 60.6453 263.787 60.7283 263.87C60.8114 263.953 60.924 264 61.0415 264Z" fill="#D4D2D9"/>
<path d="M129.227 58.6568C126.337 58.6568 123.511 57.7995 121.108 56.1933C118.705 54.5871 116.832 52.3042 115.726 49.6332C114.62 46.9622 114.33 44.0231 114.894 41.1876C115.458 38.3521 116.85 35.7475 118.894 33.7032C120.937 31.6589 123.541 30.2668 126.376 29.7028C129.211 29.1387 132.149 29.4282 134.819 30.5346C137.49 31.6409 139.772 33.5145 141.378 35.9183C142.984 38.3221 143.841 41.1483 143.841 44.0393C143.836 47.9148 142.295 51.6302 139.556 54.3706C136.816 57.111 133.101 58.6524 129.227 58.6568ZM129.227 30.3078C126.512 30.3078 123.858 31.1131 121.6 32.622C119.343 34.1308 117.583 36.2754 116.544 38.7845C115.505 41.2936 115.233 44.0546 115.763 46.7182C116.292 49.3819 117.6 51.8286 119.52 53.749C121.44 55.6694 123.886 56.9772 126.549 57.507C129.212 58.0369 131.972 57.7649 134.481 56.7256C136.989 55.6863 139.133 53.9263 140.641 51.6682C142.15 49.41 142.955 46.7552 142.955 44.0393C142.951 40.3988 141.503 36.9085 138.93 34.3342C136.356 31.76 132.867 30.3119 129.227 30.3078Z" fill="#429DDF"/>
<path fill-rule="evenodd" clip-rule="evenodd" d="M23.2418 44.1181C23.2415 42.5664 22.7967 41.0474 21.9602 39.7407C21.1236 38.4341 19.9303 37.3946 18.5214 36.7452C17.1126 36.0959 15.5472 35.8639 14.0106 36.0768C12.4741 36.2897 11.0307 36.9385 9.85129 37.9464C8.67191 38.9543 7.80596 40.2791 7.35594 41.764C6.90591 43.2489 6.89067 44.8317 7.31201 46.325C7.73336 47.8183 8.57364 49.1595 9.73339 50.19C10.8931 51.2204 12.3238 51.8969 13.856 52.1393V46.4658H11.7943V44.1181H13.856V42.3289C13.856 40.2943 15.0681 39.1695 16.9221 39.1695C17.531 39.178 18.1384 39.231 18.7395 39.3283V41.3266H17.7154C17.5409 41.3035 17.3635 41.3199 17.1962 41.3747C17.0289 41.4295 16.8761 41.5212 16.7491 41.643C16.6221 41.7648 16.524 41.9136 16.4623 42.0785C16.4005 42.2433 16.3766 42.4199 16.3923 42.5953V44.1184H18.6434L18.284 46.4662H16.3923V52.1401C18.3019 51.8376 20.0408 50.8634 21.2964 49.3929C22.552 47.9223 23.2418 46.0519 23.2418 44.118V44.1181Z" fill="#4C2CD9"/>
<path d="M14.6138 58.6568C11.7235 58.6568 8.89804 57.7995 6.49482 56.1933C4.09159 54.5871 2.21852 52.3042 1.11243 49.6332C0.00634523 46.9622 -0.283071 44.0231 0.280796 41.1876C0.844664 38.3521 2.23649 35.7475 4.28025 33.7032C6.32401 31.659 8.92793 30.2668 11.7627 29.7028C14.5975 29.1387 17.5358 29.4282 20.2061 30.5346C22.8765 31.6409 25.1588 33.5145 26.7646 35.9183C28.3704 38.3221 29.2275 41.1483 29.2275 44.0393C29.2231 47.9148 27.682 51.6302 24.9424 54.3706C22.2027 57.1109 18.4882 58.6524 14.6138 58.6568ZM14.6138 30.3078C11.8986 30.3078 9.24445 31.1131 6.98688 32.6219C4.7293 34.1308 2.96974 36.2753 1.93069 38.7845C0.891637 41.2936 0.619769 44.0545 1.14946 46.7182C1.67915 49.3819 2.98662 51.8286 4.90652 53.749C6.82642 55.6694 9.27252 56.9772 11.9355 57.507C14.5985 58.0369 17.3587 57.7649 19.8672 56.7256C22.3757 55.6863 24.5197 53.9263 26.0282 51.6682C27.5366 49.41 28.3418 46.7552 28.3418 44.0393C28.3377 40.3988 26.89 36.9085 24.3164 34.3342C21.7428 31.76 18.2534 30.3119 14.6138 30.3078Z" fill="#4C2CD9"/>
<path d="M110.185 106.359C107.953 108.908 104.886 111.726 101.614 110.461C99.4654 109.631 98.2778 107.377 98.4742 105.082C98.8272 100.954 102.038 98.3528 105.19 96.1819C109.287 93.3598 113.873 90.7743 118.847 90.7666C123.822 90.7589 129.108 94.2223 129.482 99.184C129.782 103.174 126.998 107.273 128.494 110.984C129.999 114.719 134.869 115.639 138.884 115.345C142.899 115.052 147.251 114.172 150.717 116.222C155.138 118.837 155.871 125.35 153.512 129.914C151.154 134.477 146.589 137.443 142.041 139.829C136.014 142.991 129.281 145.568 122.543 144.614C115.805 143.661 109.327 138.102 109.463 131.297C109.521 128.423 110.695 125.704 111.826 123.061C112.958 120.418 114.084 117.669 114.037 114.794C113.998 112.398 112.927 109.88 110.996 108.571C110.648 108.344 110.381 108.013 110.232 107.625C110.084 107.237 110.062 106.812 110.171 106.411L110.185 106.359Z" fill="#3C3B40"/>
<path d="M121.116 37.1461C121.116 36.5135 121.646 36 122.3 36H135.948C136.602 36 137.132 36.5135 137.132 37.1461V50.8541C137.132 51.4869 136.602 52 135.948 52H122.3C121.646 52 121.116 51.4869 121.116 50.8542V37.1459V37.1461Z" fill="#429DDF"/>
<path d="M125.982 49.3895V42.1862H123.586V49.3895H125.982H125.982ZM124.784 41.2029C125.62 41.2029 126.14 40.6498 126.14 39.9586C126.124 39.2516 125.62 38.7139 124.8 38.7139C123.98 38.7139 123.444 39.2516 123.444 39.9585C123.444 40.6497 123.964 41.2029 124.769 41.2029H124.784L124.784 41.2029ZM127.309 49.3895H129.705V45.3673C129.705 45.1523 129.721 44.9367 129.784 44.7832C129.957 44.3529 130.351 43.9074 131.014 43.9074C131.881 43.9074 132.228 44.5679 132.228 45.5364V49.3895H134.624V45.2594C134.624 43.0469 133.442 42.0174 131.865 42.0174C130.572 42.0174 130.005 42.7392 129.689 43.2308H129.705V42.1865H127.309C127.34 42.8622 127.309 49.3897 127.309 49.3897L127.309 49.3895Z" fill="white"/>
<path d="M82.6792 33.2349C79.7888 33.2349 76.9634 32.3776 74.5602 30.7714C72.157 29.1652 70.2839 26.8823 69.1778 24.2113C68.0718 21.5403 67.7824 18.6012 68.3462 15.7657C68.9101 12.9302 70.3019 10.3257 72.3457 8.28136C74.3895 6.23708 76.9934 4.84489 79.8282 4.28088C82.663 3.71686 85.6013 4.00634 88.2716 5.1127C90.9419 6.21906 93.2243 8.09261 94.83 10.4964C96.4358 12.9003 97.2929 15.7264 97.2929 18.6175C97.2885 22.4929 95.7475 26.2084 93.0078 28.9487C90.2681 31.6891 86.5536 33.2305 82.6792 33.2349ZM82.6792 4.88591C79.964 4.88591 77.3098 5.69126 75.0523 7.2001C72.7947 8.70894 71.0351 10.8535 69.9961 13.3626C68.9571 15.8717 68.6852 18.6327 69.2149 21.2964C69.7446 23.96 71.0521 26.4067 72.972 28.3271C74.8919 30.2475 77.338 31.5553 80.001 32.0852C82.6639 32.615 85.4242 32.3431 87.9327 31.3038C90.4411 30.2644 92.5852 28.5044 94.0936 26.2463C95.6021 23.9882 96.4072 21.3333 96.4072 18.6175C96.4031 14.9769 94.9554 11.4866 92.3818 8.91235C89.8082 6.33808 86.3188 4.89004 82.6792 4.88591Z" fill="#FC5C5C"/>
<g clip-path="url(#clip0_2431_18586)">
<path d="M76.7409 13.667H87.4178C88.1518 13.667 88.7524 14.267 88.7524 15.0003V23.0003C88.7524 23.7337 88.1518 24.3337 87.4178 24.3337H76.7409C76.0068 24.3337 75.4062 23.7337 75.4062 23.0003V15.0003C75.4062 14.267 76.0068 13.667 76.7409 13.667Z" stroke="#FC5C5C" stroke-width="2" stroke-linecap="round" stroke-linejoin="round"/>
<path d="M88.7524 15L82.0793 19.6667L75.4062 15" stroke="#FC5C5C" stroke-width="2" stroke-linecap="round" stroke-linejoin="round"/>
</g>
<path d="M57.0545 73.2347C54.8768 73.2347 52.7481 72.5888 50.9374 71.3787C49.1267 70.1685 47.7154 68.4484 46.8821 66.436C46.0487 64.4236 45.8307 62.2092 46.2555 60.0728C46.6804 57.9364 47.729 55.974 49.2689 54.4338C50.8087 52.8935 52.7706 51.8446 54.9065 51.4196C57.0423 50.9947 59.2561 51.2128 61.2681 52.0464C63.28 52.8799 64.9996 54.2915 66.2094 56.1027C67.4193 57.9138 68.0651 60.0431 68.0651 62.2214C68.0618 65.1413 66.9007 67.9407 64.8365 70.0054C62.7723 72.07 59.9737 73.2314 57.0545 73.2347ZM57.0545 51.8755C55.0088 51.8755 53.009 52.4823 51.3081 53.6191C49.6072 54.7559 48.2814 56.3717 47.4986 58.2622C46.7157 60.1526 46.5109 62.2329 46.91 64.2398C47.3091 66.2467 48.2942 68.0901 49.7407 69.537C51.1873 70.9839 53.0302 71.9693 55.0366 72.3685C57.043 72.7677 59.1227 72.5628 61.0127 71.7797C62.9027 70.9967 64.5181 69.6706 65.6546 67.9692C66.7911 66.2679 67.3978 64.2676 67.3978 62.2214C67.3946 59.4784 66.3039 56.8487 64.3649 54.9092C62.4258 52.9696 59.7968 51.8786 57.0545 51.8755Z" fill="#FFC803"/>
<g clip-path="url(#clip1_2431_18586)">
<path d="M62.1333 57.9894C61.6519 58.3287 61.1188 58.5882 60.5546 58.7579C60.2518 58.4101 59.8494 58.1636 59.4018 58.0517C58.9541 57.9398 58.4829 57.9679 58.0518 58.1323C57.6207 58.2967 57.2506 58.5894 56.9914 58.9708C56.7323 59.3522 56.5966 59.8039 56.6028 60.2648V60.7671C55.7192 60.79 54.8437 60.5942 54.0542 60.1972C53.2647 59.8002 52.5858 59.2143 52.0778 58.4917C52.0778 58.4917 50.0667 63.0124 54.5917 65.0215C53.5562 65.7237 52.3227 66.0758 51.0723 66.0261C55.5972 68.5376 61.1278 66.0261 61.1278 60.2497C61.1273 60.1098 61.1138 59.9703 61.0875 59.8328C61.6007 59.3273 61.9628 58.689 62.1333 57.9894V57.9894Z" stroke="#FFC803" stroke-width="2" stroke-linecap="round" stroke-linejoin="round"/>
</g>
<path d="M183.776 32.2349C180.886 32.2349 178.06 31.3776 175.657 29.7714C173.254 28.1652 171.381 25.8823 170.275 23.2113C169.168 20.5403 168.879 17.6012 169.443 14.7657C170.007 11.9302 171.399 9.32564 173.442 7.28135C175.486 5.23707 178.09 3.84489 180.925 3.28088C183.76 2.71686 186.698 3.00634 189.368 4.1127C192.039 5.21906 194.321 7.09261 195.927 9.49644C197.532 11.9003 198.39 14.7264 198.39 17.6175C198.385 21.4929 196.844 25.2084 194.104 27.9487C191.365 30.6891 187.65 32.2305 183.776 32.2349ZM183.776 3.88591C181.061 3.88591 178.407 4.69125 176.149 6.2001C173.891 7.70894 172.132 9.85351 171.093 12.3626C170.054 14.8717 169.782 17.6327 170.312 20.2963C170.841 22.96 172.149 25.4067 174.069 27.3271C175.989 29.2475 178.435 30.5553 181.098 31.0851C183.761 31.615 186.521 31.343 189.029 30.3037C191.538 29.2644 193.682 27.5044 195.19 25.2463C196.699 22.9881 197.504 20.3333 197.504 17.6175C197.5 13.9769 196.052 10.4866 193.478 7.91235C190.905 5.33808 187.415 3.89004 183.776 3.88591Z" fill="#1D8651"/>
<path d="M187 24.667C188.105 24.667 189 23.7716 189 22.667C189 21.5624 188.105 20.667 187 20.667C185.895 20.667 185 21.5624 185 22.667C185 23.7716 185.895 24.667 187 24.667Z" stroke="#1D8651" stroke-linecap="round" stroke-linejoin="round"/>
<path d="M179 20C180.105 20 181 19.1046 181 18C181 16.8954 180.105 16 179 16C177.895 16 177 16.8954 177 18C177 19.1046 177.895 20 179 20Z" stroke="#1D8651" stroke-linecap="round" stroke-linejoin="round"/>
<path d="M180.727 19.0068L185.28 21.6602" stroke="#1D8651" stroke-linecap="round" stroke-linejoin="round"/>
<path d="M187 15.333C188.105 15.333 189 14.4376 189 13.333C189 12.2284 188.105 11.333 187 11.333C185.895 11.333 185 12.2284 185 13.333C185 14.4376 185.895 15.333 187 15.333Z" stroke="#1D8651" stroke-linecap="round" stroke-linejoin="round"/>
<path d="M185.273 14.3398L180.727 16.9932" stroke="#1D8651" stroke-linecap="round" stroke-linejoin="round"/>
<defs>
<clipPath id="clip0_2431_18586">
<rect width="16.0154" height="16" fill="white" transform="translate(74.0713 11)"/>
</clipPath>
<clipPath id="clip1_2431_18586">
<rect width="12.0666" height="12.055" fill="white" transform="translate(50.5693 56.4824)"/>
</clipPath>
</defs>
</svg>
