<svg width="268" height="268" viewBox="0 0 268 268" fill="none" xmlns="http://www.w3.org/2000/svg">
<g clip-path="url(#clip0_715_67736)">
<path d="M226.873 221.925V237.742C226.872 238.341 226.634 238.915 226.211 239.338C225.788 239.761 225.214 239.999 224.615 240H45.2745C44.6761 239.999 44.1025 239.76 43.6794 239.337C43.2562 238.914 43.0179 238.34 43.0166 237.742V217.706C43.2295 217.48 43.4424 217.257 43.6617 217.035C55.5745 204.687 69.9173 194.941 85.7851 188.413C101.653 181.885 118.701 178.717 135.855 179.107C153.009 179.497 169.896 183.438 185.45 190.681C201.005 197.924 214.889 208.312 226.228 221.189C226.447 221.431 226.66 221.679 226.873 221.925Z" fill="#1FC9FF"/>
<path d="M167.684 48.4062C167.504 48.2966 167.323 48.1901 167.142 48.0869H148.292C148.157 48.2998 148.028 48.5159 147.902 48.732H168.226C168.045 48.6223 167.865 48.5159 167.684 48.4062ZM43.0166 112.099V116.905C43.0972 116.911 43.1811 116.911 43.2617 116.914L43.1005 126.152L43.0166 126.107V127.016L43.0843 127.052L43.0166 130.926V144.279H43.6617V109.922C43.4811 110.618 43.266 111.344 43.0166 112.099V112.099ZM167.684 48.4062C167.504 48.2966 167.323 48.1901 167.142 48.0869H148.292C148.157 48.2998 148.028 48.5159 147.902 48.732H168.226C168.045 48.6223 167.865 48.5159 167.684 48.4062ZM224.615 48.0869H45.2745C44.6759 48.0876 44.1019 48.3257 43.6786 48.7489C43.2553 49.1722 43.0173 49.7461 43.0166 50.3447V237.742C43.0179 238.341 43.2562 238.914 43.6794 239.337C44.1025 239.76 44.6761 239.999 45.2745 240H224.615C225.214 239.999 225.788 239.761 226.211 239.338C226.634 238.915 226.872 238.341 226.873 237.742V50.3447C226.872 49.7461 226.634 49.1722 226.211 48.7489C225.788 48.3257 225.214 48.0876 224.615 48.0869V48.0869ZM226.228 237.742C226.228 238.17 226.058 238.58 225.755 238.882C225.453 239.185 225.043 239.355 224.615 239.355H45.2745C44.8468 239.355 44.4367 239.185 44.1343 238.882C43.8318 238.58 43.6619 238.17 43.6617 237.742V50.3447C43.6624 49.9172 43.8326 49.5074 44.1349 49.2051C44.4372 48.9029 44.847 48.7327 45.2745 48.732H224.615C225.043 48.7327 225.453 48.9029 225.755 49.2051C226.057 49.5074 226.227 49.9172 226.228 50.3447V237.742Z" fill="#3F3D56"/>
<path d="M117.375 214.654L110.978 214.83C110.006 214.88 109.045 214.611 108.241 214.063C107.546 213.546 107.227 212.848 107.367 212.146L108.626 205.82C108.863 204.627 110.326 203.725 112.103 203.676L115.636 203.578C117.413 203.529 118.923 204.349 119.226 205.528L120.832 211.775C121.01 212.467 120.731 213.182 120.066 213.737C119.293 214.328 118.348 214.65 117.375 214.654Z" fill="#3F3D56"/>
<path d="M156.284 214.473L149.887 214.649C148.915 214.699 147.954 214.43 147.15 213.882C146.455 213.365 146.137 212.667 146.276 211.965L147.535 205.639C147.772 204.446 149.235 203.544 151.012 203.495L154.545 203.397C156.322 203.348 157.833 204.168 158.135 205.347L159.741 211.594C159.919 212.286 159.64 213.001 158.975 213.556C158.202 214.147 157.257 214.469 156.284 214.473Z" fill="#3F3D56"/>
<path d="M95.1616 160.768C94.8694 160.642 94.6289 160.42 94.4799 160.139C94.3309 159.858 94.2824 159.534 94.3424 159.222C94.4024 158.909 94.5673 158.627 94.8099 158.421C95.0524 158.215 95.358 158.097 95.6761 158.089L168.402 156.081C168.585 156.076 168.768 156.107 168.939 156.172C169.11 156.237 169.267 156.336 169.4 156.462C169.534 156.588 169.641 156.739 169.716 156.907C169.791 157.074 169.832 157.255 169.837 157.438V157.438C169.847 157.808 169.709 158.167 169.455 158.436C169.2 158.705 168.849 158.862 168.479 158.873L168.479 158.873L95.7532 160.881C95.5502 160.887 95.3482 160.849 95.1616 160.768Z" fill="#3F3D56"/>
<path d="M122.001 136.693L101.213 137.267L103.151 207.452L123.939 206.878L122.001 136.693Z" fill="#E6E6E6"/>
<path d="M122.528 135.432L118.532 146.318L118.536 195.911L123.405 197.308L122.528 135.432Z" fill="#CCCCCC"/>
<path d="M111.498 118.351C107.609 118.462 104.642 125.192 104.713 127.819L104.844 132.573L118.927 132.185L118.796 127.43C118.722 124.803 115.388 118.247 111.498 118.351Z" fill="#3F3D56"/>
<path d="M101.482 166.333C100.756 166.352 100.051 166.082 99.523 165.582C98.9951 165.083 98.6868 164.394 98.6659 163.668L98.4522 155.93C98.4321 155.203 98.7016 154.498 99.2014 153.97C99.7012 153.441 100.39 153.133 101.117 153.113C101.844 153.093 102.549 153.363 103.077 153.863C103.605 154.362 103.913 155.051 103.934 155.778L104.147 163.516C104.166 164.243 103.897 164.948 103.397 165.475C102.897 166.003 102.209 166.312 101.482 166.333Z" fill="#3F3D56"/>
<path d="M106.758 137.434L106.659 132.32L108 132.287L108.099 137.384L109.314 211.681L107.973 211.718" fill="#3F3D56"/>
<path d="M124.385 149.393L100.277 150.058C97.9748 147.25 97.7657 135.288 102.571 133.011L104.455 129.812L118.984 129.103L120.682 132.472C123.073 134.505 124.305 146.393 124.385 149.393Z" fill="#E6E6E6"/>
<path d="M115.311 143.655L109.215 143.823C108.038 143.856 107.038 142.33 106.986 140.422C106.933 138.514 107.847 136.935 109.024 136.902L115.12 136.734C116.296 136.701 117.297 138.228 117.349 140.136C117.402 142.044 116.488 143.623 115.311 143.655Z" fill="#1FC9FF"/>
<path d="M103.506 178.166L90.9395 187.042L88.7441 207.056L103.404 202.158L103.506 178.166Z" fill="#E6E6E6"/>
<path d="M162.13 135.834L141.342 136.408L143.28 206.592L164.068 206.018L162.13 135.834Z" fill="#E6E6E6"/>
<path d="M141.84 135.667L146.117 146.445L147.401 196.022L142.569 197.544L141.84 135.667Z" fill="#CCCCCC"/>
<path d="M172.526 116.348C174.031 116.348 175.251 114.712 175.251 112.695C175.251 110.677 174.031 109.041 172.526 109.041C171.022 109.041 169.802 110.677 169.802 112.695C169.802 114.712 171.022 116.348 172.526 116.348Z" fill="#E6E6E6"/>
<path d="M186.771 169.987C188.275 169.987 189.495 168.351 189.495 166.333C189.495 164.315 188.275 162.68 186.771 162.68C185.266 162.68 184.046 164.315 184.046 166.333C184.046 168.351 185.266 169.987 186.771 169.987Z" fill="#E6E6E6"/>
<path d="M80.7423 159.733C82.2472 159.733 83.4671 158.098 83.4671 156.08C83.4671 154.062 82.2472 152.426 80.7423 152.426C79.2375 152.426 78.0176 154.062 78.0176 156.08C78.0176 158.098 79.2375 159.733 80.7423 159.733Z" fill="#E6E6E6"/>
<path d="M151.222 117.503C147.333 117.614 144.365 124.344 144.437 126.97L144.568 131.725L158.651 131.336L158.519 126.582C158.446 123.955 155.111 117.399 151.222 117.503Z" fill="#3F3D56"/>
<path d="M155.249 139.034L155.15 133.92L156.492 133.887L156.59 138.985L157.806 213.281L156.464 213.318" fill="#3F3D56"/>
<path d="M164.109 148.544L140.001 149.21C139.581 146.669 140.125 134.814 142.295 132.163L144.179 128.964L158.708 128.254L160.406 131.623C164.696 131.973 166.196 143.623 164.109 148.544Z" fill="#E6E6E6"/>
<path d="M155.065 143.875L148.969 144.043C147.792 144.075 146.785 142.31 146.725 140.107C146.664 137.905 147.572 136.087 148.748 136.054L154.844 135.886C156.021 135.853 157.027 137.619 157.088 139.821C157.149 142.024 156.241 143.842 155.065 143.875Z" fill="#1FC9FF"/>
<path d="M163.158 173.035L175.306 182.475L176.585 202.569L162.165 197.007L163.158 173.035Z" fill="#E6E6E6"/>
<path d="M159.765 79.9681C146.729 79.9681 131.748 65.5033 118.494 72.3759C78.3634 93.1843 83.8876 58.3647 72.3584 45.4149L72.7369 44.6558C81.4651 77.9481 89.3624 130.998 118.668 71.4929C126.009 56.5869 150.103 79.6274 164.285 78.9477L164.31 79.8602C162.812 79.9324 161.297 79.9684 159.765 79.9681Z" fill="#F2F2F2"/>
<path d="M191.052 82.0153C180.661 89.8853 159.985 87.399 153.569 100.88C134.142 141.696 117.522 110.604 100.512 107.242L100.355 106.408C117.383 107.82 135.648 105.629 153.174 100.071C169.013 95.0483 183.144 87.5768 194.039 78.4727L194.61 79.1852C193.46 80.1471 192.274 81.0904 191.052 82.0153Z" fill="#F2F2F2"/>
<path d="M78.0177 80.2232C79.5225 80.2232 80.7424 78.5874 80.7424 76.5696C80.7424 74.5518 79.5225 72.916 78.0177 72.916C76.5129 72.916 75.293 74.5518 75.293 76.5696C75.293 78.5874 76.5129 80.2232 78.0177 80.2232Z" fill="#E6E6E6"/>
<path d="M162.527 50.5494C164.032 50.5494 165.252 48.9136 165.252 46.8958C165.252 44.878 164.032 43.2422 162.527 43.2422C161.023 43.2422 159.803 44.878 159.803 46.8958C159.803 48.9136 161.023 50.5494 162.527 50.5494Z" fill="#E6E6E6"/>
<path d="M75.2931 127.128C76.7979 127.128 78.0178 125.493 78.0178 123.475C78.0178 121.457 76.7979 119.821 75.2931 119.821C73.7883 119.821 72.5684 121.457 72.5684 123.475C72.5684 125.493 73.7883 127.128 75.2931 127.128Z" fill="#E6E6E6"/>
<path d="M102.964 94.9692C101.718 95.7992 100.443 93.8238 101.713 93.0307C102.959 92.2008 104.234 94.1762 102.964 94.9692Z" fill="#E6E6E6"/>
<path d="M149.089 30.1382C147.843 30.9682 146.568 28.9928 147.838 28.1997C149.084 27.3697 150.359 29.3451 149.089 30.1382Z" fill="#E6E6E6"/>
<path d="M176.274 68.5761L175.481 68.4023L175.655 67.6094L175.127 67.4937L174.953 68.2865L174.16 68.1129L174.044 68.6413L174.837 68.8151L174.663 69.6076L175.192 69.7234L175.366 68.9306L176.158 69.1044L176.274 68.5761Z" fill="#E6E6E6"/>
<path d="M103.63 42.0108C105.536 42.0108 107.082 40.4654 107.082 38.5589C107.082 36.6524 105.536 35.1069 103.63 35.1069C101.723 35.1069 100.178 36.6524 100.178 38.5589C100.178 40.4654 101.723 42.0108 103.63 42.0108Z" fill="#FF6584"/>
<path d="M128.88 34.1897C124.991 34.3002 122.024 41.0306 122.095 43.6569L122.226 48.4117L136.309 48.0229L136.177 43.2681C136.104 40.6418 132.77 34.0854 128.88 34.1897Z" fill="#3F3D56"/>
<path d="M137.266 214.239L130.869 214.416C129.897 214.466 128.936 214.196 128.131 213.649C127.437 213.132 127.118 212.433 127.258 211.732L128.517 205.406C128.754 204.213 130.216 203.31 131.994 203.261L135.527 203.164C137.304 203.115 138.814 203.935 139.117 205.113L140.723 211.36C140.901 212.053 140.621 212.768 139.956 213.322C139.184 213.913 138.239 214.236 137.266 214.239Z" fill="#3F3D56"/>
<path d="M140.118 64.4592L119.329 65.0332L123.247 206.903L144.035 206.329L140.118 64.4592Z" fill="#E6E6E6"/>
<path d="M131.8 133.132L131.701 128.019L133.042 127.985L133.141 133.083L134.356 207.379L133.015 207.416" fill="#3F3D56"/>
<path d="M144.21 77.4433L116.043 78.2211C115.552 75.2526 116.187 61.4005 118.723 58.3034L119.418 54.6064L138.867 54.0693L139.884 57.6725C142.677 60.049 144.117 73.9386 144.21 77.4433Z" fill="#E6E6E6"/>
<path d="M139.482 54.5052L119.411 55.0594C118.671 55.0799 118.059 54.6909 118.045 54.1907C118.043 54.1186 118.054 54.0468 118.076 53.9783L121.194 44.3745C121.327 43.9633 121.859 43.6613 122.479 43.6441L135.789 43.2766C136.409 43.2595 136.956 43.5317 137.112 43.935L140.755 53.3521C140.941 53.8338 140.511 54.335 139.794 54.4716C139.691 54.4911 139.587 54.5024 139.482 54.5052Z" fill="#E6E6E6"/>
<path d="M121.391 132.48C121.21 132.402 121.039 132.303 120.881 132.185C120.655 132.026 120.469 131.818 120.336 131.577C120.203 131.335 120.127 131.066 120.114 130.791L119.384 104.382C119.354 103.289 120.425 102.369 121.771 102.332L139.738 101.836C141.084 101.798 142.203 102.658 142.234 103.751L142.963 130.16C142.965 130.436 142.904 130.709 142.784 130.957C142.665 131.206 142.49 131.424 142.274 131.594C141.794 131.985 141.195 132.202 140.576 132.21L122.609 132.706C122.192 132.72 121.776 132.643 121.391 132.48Z" fill="#3F3D56"/>
<path d="M132.891 52.8057L126.795 52.9741C125.619 53.0065 124.624 51.6775 124.578 50.0118C124.532 48.346 125.452 46.9641 126.628 46.9316L132.724 46.7633C133.901 46.7308 134.896 48.0599 134.942 49.7256C134.988 51.3913 134.068 52.7732 132.891 52.8057Z" fill="#1FC9FF"/>
<path d="M162.645 164.618C161.919 164.638 161.214 164.368 160.686 163.868C160.158 163.369 159.85 162.68 159.829 161.953L159.615 154.215C159.596 153.489 159.865 152.784 160.365 152.256C160.865 151.729 161.554 151.421 162.28 151.401C163.007 151.381 163.712 151.65 164.24 152.15C164.768 152.649 165.076 153.338 165.097 154.064L165.31 161.802C165.33 162.529 165.06 163.233 164.56 163.761C164.061 164.289 163.372 164.597 162.645 164.618Z" fill="#3F3D56"/>
<path d="M62.5119 186.561C59.207 186.561 57.0584 185.739 56.1075 184.107C54.2321 180.888 57.373 175.239 65.4425 167.318L66.1204 168.009C58.6246 175.367 55.3655 180.911 56.9435 183.62C57.942 185.333 60.9137 185.948 65.539 185.395C70.1307 184.847 76.2158 183.213 83.6253 180.539C98.8792 175.034 118.017 165.749 137.513 154.393C157.008 143.037 174.526 130.971 186.84 120.418C189.205 118.39 191.352 116.44 193.22 114.621C195.673 112.292 197.935 109.77 199.986 107.081C202.748 103.331 203.68 100.443 202.682 98.7287C201.014 95.8663 194.009 96.1355 182.956 99.4877L182.675 98.5616C194.534 94.9656 201.547 94.8578 203.518 98.2418C204.743 100.344 203.817 103.511 200.765 107.655C198.683 110.387 196.386 112.948 193.895 115.314C192.013 117.147 189.851 119.111 187.47 121.152C175.113 131.742 157.544 143.844 138 155.229C118.455 166.613 99.261 175.925 83.9538 181.45C76.4754 184.148 70.3183 185.799 65.6537 186.356C64.6114 186.486 63.5623 186.554 62.5119 186.561Z" fill="#3F3D56"/>
<path d="M140.027 72.916L152.175 82.3562L153.454 102.45L139.034 96.8877L140.027 72.916Z" fill="#E6E6E6"/>
<path d="M121.675 72.916L109.527 82.3562L108.248 102.45L122.668 96.8877L121.675 72.916Z" fill="#E6E6E6"/>
<path d="M128.53 58.2624L128.432 53.1485L129.773 53.1152L129.871 58.213L131.087 68.0009L129.745 68.038" fill="#3F3D56"/>
<path d="M67.3313 98.8275C68.5867 98.3415 69.3303 97.2397 68.9922 96.3664C68.6542 95.4931 67.3624 95.1791 66.1071 95.6651C64.8517 96.151 64.108 97.2529 64.4461 98.1261C64.7842 98.9994 66.0759 99.3134 67.3313 98.8275Z" fill="#E6E6E6"/>
<path d="M83.1379 96.8001C84.3933 96.3142 85.1369 95.2123 84.7989 94.339C84.4608 93.4658 83.1691 93.1518 81.9137 93.6377C80.6583 94.1236 79.9147 95.2255 80.2527 96.0988C80.5908 96.9721 81.8825 97.2861 83.1379 96.8001Z" fill="#E6E6E6"/>
<path d="M65.9602 112.312C67.2156 111.826 67.9592 110.725 67.6212 109.851C67.2831 108.978 65.9914 108.664 64.736 109.15C63.4806 109.636 62.7369 110.738 63.075 111.611C63.4131 112.484 64.7048 112.798 65.9602 112.312Z" fill="#E6E6E6"/>
<path d="M61.3882 118.261C61.9641 118.125 62.2721 117.343 62.0762 116.515C61.8802 115.687 61.2545 115.127 60.6786 115.263C60.1026 115.399 59.7946 116.181 59.9906 117.009C60.1865 117.837 60.8122 118.397 61.3882 118.261Z" fill="#E6E6E6"/>
<path d="M61.2935 128.331C61.8694 128.195 62.1774 127.413 61.9815 126.585C61.7855 125.758 61.1598 125.197 60.5838 125.333C60.0079 125.47 59.6999 126.251 59.8958 127.079C60.0918 127.907 60.7175 128.468 61.2935 128.331Z" fill="#E6E6E6"/>
<path d="M75.1665 107.473C75.7424 107.337 76.0505 106.555 75.8545 105.727C75.6585 104.899 75.0328 104.339 74.4569 104.475C73.8809 104.611 73.5729 105.393 73.7689 106.221C73.9648 107.049 74.5906 107.609 75.1665 107.473Z" fill="#E6E6E6"/>
<path d="M66.8423 105.451C67.4182 105.315 67.7262 104.533 67.5303 103.706C67.3343 102.878 66.7086 102.317 66.1327 102.453C65.5567 102.59 65.2487 103.371 65.4447 104.199C65.6406 105.027 66.2663 105.588 66.8423 105.451Z" fill="#E6E6E6"/>
<path d="M75.6655 96.1779C76.2415 96.0416 76.5495 95.26 76.3535 94.4321C76.1576 93.6042 75.5318 93.0436 74.9559 93.1799C74.38 93.3163 74.0719 94.0979 74.2679 94.9258C74.4639 95.7536 75.0896 96.3142 75.6655 96.1779Z" fill="#E6E6E6"/>
<path d="M205.536 144.323C206.836 143.977 207.696 142.962 207.455 142.057C207.214 141.152 205.964 140.7 204.663 141.046C203.362 141.393 202.503 142.407 202.744 143.312C202.985 144.217 204.235 144.669 205.536 144.323Z" fill="#E6E6E6"/>
<path d="M189.603 144.618C190.903 144.271 191.763 143.257 191.522 142.352C191.281 141.447 190.031 140.995 188.73 141.341C187.429 141.687 186.57 142.702 186.811 143.607C187.052 144.512 188.302 144.964 189.603 144.618Z" fill="#E6E6E6"/>
<path d="M208.366 131.068C209.667 130.721 210.526 129.707 210.285 128.802C210.044 127.897 208.794 127.444 207.494 127.791C206.193 128.137 205.334 129.152 205.575 130.056C205.816 130.961 207.065 131.414 208.366 131.068Z" fill="#E6E6E6"/>
<path d="M213.066 125.433C213.653 125.36 214.044 124.617 213.94 123.772C213.835 122.928 213.274 122.303 212.687 122.375C212.099 122.448 211.708 123.192 211.813 124.036C211.917 124.88 212.478 125.506 213.066 125.433Z" fill="#E6E6E6"/>
<path d="M214.256 115.432C214.843 115.359 215.234 114.616 215.13 113.771C215.025 112.927 214.464 112.302 213.876 112.374C213.289 112.447 212.898 113.191 213.003 114.035C213.107 114.879 213.668 115.505 214.256 115.432Z" fill="#E6E6E6"/>
<path d="M198.195 134.657C198.782 134.584 199.173 133.841 199.068 132.996C198.964 132.152 198.403 131.527 197.815 131.6C197.228 131.672 196.837 132.416 196.941 133.26C197.046 134.104 197.607 134.73 198.195 134.657Z" fill="#E6E6E6"/>
<path d="M206.25 137.573C206.837 137.5 207.228 136.756 207.124 135.912C207.019 135.068 206.458 134.442 205.871 134.515C205.283 134.588 204.892 135.331 204.997 136.176C205.101 137.02 205.662 137.645 206.25 137.573Z" fill="#E6E6E6"/>
<path d="M196.469 145.83C197.057 145.758 197.448 145.014 197.343 144.17C197.239 143.326 196.678 142.7 196.09 142.773C195.503 142.846 195.112 143.589 195.216 144.433C195.321 145.278 195.882 145.903 196.469 145.83Z" fill="#E6E6E6"/>
<path d="M235.305 196.767C231.14 196.767 226.575 196.609 221.61 196.294C195.93 194.664 162.667 188.994 127.948 180.331C93.2286 171.668 61.2013 161.045 37.766 150.42C26.3499 145.245 17.5882 140.345 11.7244 135.858C5.51616 131.108 2.80058 126.968 3.6528 123.552C5.31332 116.899 20.0164 115.443 32.0583 115.394L32.0624 116.361C15.5256 116.429 5.76974 119.066 4.59182 123.787C3.09134 129.799 15.3286 139.185 38.1656 149.539C61.5494 160.14 93.5178 170.743 128.182 179.392C162.846 188.042 196.048 193.702 221.671 195.329C246.695 196.918 261.908 194.381 263.408 188.369C264.654 183.377 256.442 176.023 240.284 167.662L240.729 166.803C252.469 172.878 266.097 181.592 264.347 188.603C263.495 192.019 259.152 194.398 251.44 195.674C247.044 196.402 241.644 196.767 235.305 196.767Z" fill="#1FC9FF"/>
</g>
<defs>
<clipPath id="clip0_715_67736">
<rect width="261" height="212" fill="white" transform="translate(3.5 28)"/>
</clipPath>
</defs>
</svg>
