<svg width="32" height="32" viewBox="0 0 32 32" fill="none" xmlns="http://www.w3.org/2000/svg">
<path d="M20.7062 25.0001C21.3709 25.0001 21.9777 24.7654 22.471 24.3845V31L20.7062 29.1999L18.9414 31V24.3845C19.4342 24.7654 20.0415 25.0001 20.7062 25.0001ZM20.7062 20.2002C19.7334 20.2002 18.9414 21.0079 18.9414 22.0002C18.9414 22.9925 19.7333 23.8003 20.7062 23.8003C21.6791 23.8003 22.471 22.9925 22.471 22.0002C22.471 21.0079 21.6791 20.2002 20.7062 20.2002ZM26 1.60058V26.8C26 27.131 25.7366 27.4002 25.4116 27.4002H23.6468V22.0005C23.6468 20.3465 22.3273 19.0006 20.7057 19.0006C19.0841 19.0006 17.7646 20.3465 17.7646 22.0005V27.4002L6.58839 27.3997C6.26384 27.3997 6 27.1311 6 26.7996L6.00041 1.60016C6.00041 1.26911 6.26383 1 6.5888 1H25.4119C25.7365 1 25.9999 1.26869 25.9999 1.60016L26 1.60058ZM21.8825 16.0002C21.8825 15.6684 21.6191 15.4001 21.2942 15.4001H10.7062C10.3816 15.4001 10.1178 15.6684 10.1178 16.0002C10.1178 16.3321 10.3812 16.6004 10.7062 16.6004H21.2942C21.6187 16.6004 21.8821 16.3321 21.8821 16.0002H21.8825ZM22.4709 13.6005C22.4709 13.2686 22.2075 13.0004 21.8825 13.0004H10.1181C9.79355 13.0004 9.52971 13.2686 9.52971 13.6005C9.52971 13.9324 9.79313 14.2007 10.1181 14.2007H21.8825C22.2071 14.2003 22.4709 13.932 22.4709 13.6005ZM22.4709 11.2004C22.4709 10.8685 22.2075 10.6002 21.8825 10.6002L10.1181 10.6006C9.79355 10.6006 9.52971 10.8689 9.52971 11.2008C9.52971 11.5327 9.79313 11.8009 10.1181 11.8009H21.8825C22.2071 11.8005 22.4709 11.5322 22.4709 11.2004ZM22.4709 8.80062C22.4709 8.46874 22.2075 8.20047 21.8825 8.20047H10.1181C9.79355 8.20047 9.52971 8.46874 9.52971 8.80062C9.52971 9.13251 9.79313 9.40078 10.1181 9.40078H21.8825C22.2071 9.40036 22.4709 9.13251 22.4709 8.80062Z" fill="#6D6C73"/>
</svg>
