<svg width="20" height="20" viewBox="0 0 20 20" fill="none" xmlns="http://www.w3.org/2000/svg">
<path d="M9.87521 18.2354V17.7354H9.37521H8.12522C8.0809 17.7354 8.04694 17.7188 8.02589 17.6989C8.00536 17.6796 8.00012 17.6613 8.00012 17.647C8.00012 17.6328 8.00534 17.6145 8.02583 17.5953C8.04685 17.5755 8.08082 17.5589 8.12522 17.5589H9.37521H9.87521V17.0589V15.8824C9.87521 15.8681 9.88048 15.8497 9.90096 15.8304C9.92196 15.8107 9.95585 15.7941 10.0002 15.7941C10.0445 15.7941 10.0784 15.8107 10.0993 15.8304C10.1198 15.8497 10.1251 15.8681 10.1251 15.8824V17.0589V17.5589H10.6251H11.8751C11.9195 17.5589 11.9535 17.5755 11.9745 17.5953C11.995 17.6145 12.0002 17.6328 12.0002 17.647C12.0002 17.6613 11.9949 17.6796 11.9744 17.6989C11.9534 17.7188 11.9194 17.7354 11.8751 17.7354H10.6251H10.1251V18.2354V19.4118C10.1251 19.426 10.1199 19.4443 10.0994 19.4636C10.0784 19.4834 10.0445 19.5 10.0002 19.5C9.95584 19.5 9.92194 19.4834 9.90093 19.4636C9.88044 19.4443 9.87521 19.426 9.87521 19.4118V18.2354ZM1.87509 0.676462C1.2828 0.676462 0.749995 1.1355 0.749995 1.76464V6.4707C0.749995 7.09988 1.28269 7.55902 1.87509 7.55902H18.1249C18.7173 7.55902 19.25 7.09991 19.25 6.4707V1.76464C19.25 1.13552 18.7172 0.676462 18.1249 0.676462H1.87509ZM1.87509 0.5H18.1249C18.9133 0.5 19.5 1.09435 19.5 1.76464V6.4707C19.5 7.14104 18.9133 7.73549 18.1249 7.73549H1.87509C1.08672 7.73549 0.5 7.14104 0.5 6.4707V1.76464C0.5 1.09435 1.08666 0.5 1.87509 0.5ZM5.31251 17.5589C5.3569 17.5589 5.39087 17.5755 5.41189 17.5953C5.43238 17.6146 5.4376 17.6329 5.4376 17.6471C5.4376 17.6613 5.43236 17.6797 5.41183 17.699C5.39079 17.7188 5.35683 17.7354 5.31251 17.7354H1.87509C1.08672 17.7354 0.5 17.141 0.5 16.4706V11.7646C0.5 11.0943 1.08666 10.4999 1.87509 10.4999H18.1249C18.9133 10.4999 19.5 11.0943 19.5 11.7646V16.4706C19.5 17.141 18.9133 17.7354 18.1249 17.7354H14.6875C14.6432 17.7354 14.6092 17.7188 14.5882 17.699C14.5676 17.6797 14.5624 17.6613 14.5624 17.6471C14.5624 17.6329 14.5676 17.6146 14.5881 17.5953C14.6091 17.5755 14.6431 17.5589 14.6875 17.5589H18.1249C18.7173 17.5589 19.25 17.0998 19.25 16.4706V11.7645C19.25 11.1354 18.7172 10.6763 18.1249 10.6763H1.87509C1.2828 10.6763 0.749995 11.1354 0.749995 11.7645V16.4706C0.749995 17.0998 1.28269 17.5589 1.87509 17.5589H5.31251Z" fill="black" stroke="#6D6C73"/>
</svg>
