<svg width="40" height="41" viewBox="0 0 40 41" fill="none" xmlns="http://www.w3.org/2000/svg">
<path d="M23.2112 28.5749L23.073 28.4993H23.0727C22.7471 28.3058 22.4824 28.0228 22.309 27.6828C22.1357 27.3428 22.0612 26.96 22.0938 26.5787V25.9637C22.0812 25.5836 22.1743 25.2074 22.3625 24.8784C22.5507 24.5492 22.8262 24.2804 23.1579 24.1025L23.2962 24.0323H23.2964C23.5439 23.9088 23.6573 23.6136 23.5569 23.3526L22.695 21.0543V21.0546C22.5975 20.7916 22.3176 20.6485 22.0513 20.7253L21.95 20.7632C21.5826 20.8601 21.1953 20.8491 20.8337 20.7317C20.4719 20.6143 20.1505 20.3951 19.9068 20.0996C19.7739 19.9431 19.6354 19.7921 19.4919 19.6518C19.2159 19.3905 19.0193 19.0547 18.9252 18.6839C18.8309 18.313 18.8429 17.9227 18.9597 17.5587L19.0075 17.4075H19.0077C19.0984 17.1443 18.9761 16.8542 18.7257 16.7385L16.5228 15.7351C16.2707 15.6219 15.9752 15.7227 15.8418 15.9673L15.7726 16.0967C15.5805 16.4296 15.2987 16.6996 14.9603 16.8755C14.6221 17.0514 14.2411 17.1255 13.8624 17.0893H13.2506C12.8709 17.0988 12.4964 16.999 12.1705 16.8014C11.8446 16.6038 11.5807 16.3164 11.4096 15.9727L11.3404 15.8379V15.8377C11.2222 15.5826 10.93 15.4625 10.67 15.5625L8.40323 16.4473C8.14413 16.5461 8.003 16.8301 8.07875 17.1001L8.12121 17.2403L8.12145 17.2405C8.21651 17.6106 8.20661 18.0005 8.09274 18.365C7.97887 18.7297 7.76561 19.0543 7.47756 19.3013C7.32316 19.4361 7.17431 19.5818 7.03583 19.7274C6.77528 20.0079 6.44116 20.2078 6.07275 20.3032C5.70461 20.3988 5.31693 20.3861 4.95552 20.267L4.81704 20.2237C4.5577 20.1395 4.2776 20.2677 4.16782 20.5204L3.15699 22.7485C3.03106 23.0082 3.12949 23.3226 3.38039 23.4605L3.51863 23.5415H3.51887C3.84094 23.732 4.10366 24.0106 4.27685 24.3455C4.45007 24.6806 4.52654 25.058 4.49783 25.4352V26.0555C4.51134 26.4366 4.41871 26.8138 4.23053 27.144C4.04235 27.4742 3.76613 27.744 3.4337 27.9221L3.29547 27.9923H3.29523C3.05036 28.1158 2.93769 28.4074 3.03467 28.6667L3.89665 30.9704C3.99605 31.2309 4.27542 31.3715 4.54032 31.294L4.68386 31.2563L4.6841 31.2561C5.05152 31.1594 5.43874 31.1702 5.80059 31.2876C6.16223 31.4053 6.4836 31.6244 6.72724 31.9197C6.86017 32.0709 6.99864 32.2218 7.14219 32.3676C7.4177 32.6281 7.61407 32.9629 7.70841 33.3328C7.80274 33.7026 7.79091 34.092 7.67439 34.4553L7.62662 34.6064H7.62638C7.53567 34.8699 7.65799 35.1597 7.9084 35.2754L10.1325 36.2842C10.3861 36.3964 10.6821 36.2935 10.8138 36.0469L10.883 35.9229L10.8828 35.9226C11.0743 35.5917 11.3542 35.3221 11.6905 35.1455C12.0265 34.9689 12.405 34.8924 12.7824 34.9247H13.3889C13.7679 34.9151 14.1418 35.0144 14.4675 35.2111C14.7934 35.4078 15.0576 35.6937 15.2301 36.0362L15.2994 36.1763H15.2991C15.3908 36.3556 15.5737 36.4681 15.7727 36.4676C15.8361 36.4681 15.8994 36.4571 15.9589 36.4353L18.231 35.556C18.4901 35.4572 18.6315 35.1732 18.5555 34.9031L18.4703 34.7899C18.3753 34.4183 18.3859 34.0272 18.5007 33.6618C18.6156 33.2961 18.83 32.9708 19.1196 32.7237C19.274 32.589 19.4228 32.4485 19.5613 32.303V32.3028C19.8219 32.0222 20.156 31.8226 20.5241 31.727C20.8925 31.6316 21.2802 31.644 21.6416 31.7634L21.7852 31.8118H21.7854C22.0433 31.8967 22.3229 31.7712 22.4346 31.5205L23.4401 29.2655C23.5518 29.0099 23.4524 28.7103 23.2114 28.575L23.2112 28.5749ZM17.406 27.879C16.7906 29.272 15.5296 30.2615 14.0452 30.5161C12.5608 30.7707 11.0488 30.257 10.0156 29.147C8.98236 28.0368 8.564 26.4769 8.90053 24.989C9.23707 23.5014 10.2843 22.2822 11.6915 21.7397C12.8083 21.3092 14.048 21.3459 15.138 21.8417C16.2282 22.3378 17.0796 23.2523 17.5047 24.3843C17.93 25.5163 17.8945 26.7733 17.406 27.879L17.406 27.879Z" fill="#9986F0"/>
<path d="M17.1778 12.5311L17.0927 12.5741V12.5744C16.8456 12.6959 16.7303 12.988 16.8266 13.2488L17.3906 14.7377C17.4878 14.9979 17.7643 15.1405 18.0292 15.0667L18.1197 15.0397C18.3231 14.9862 18.5373 14.9928 18.7373 15.0588C18.937 15.1246 19.1141 15.2472 19.2475 15.412C19.338 15.5145 19.4338 15.6116 19.5295 15.7087C19.6849 15.8506 19.7954 16.036 19.8475 16.2412C19.8996 16.4465 19.8907 16.6629 19.8222 16.8633L19.7903 16.9604C19.7003 17.225 19.8251 17.5156 20.0777 17.6294L21.5143 18.2769V18.2766C21.7609 18.3935 22.055 18.3028 22.1953 18.0663L22.2378 17.9853C22.3466 17.8026 22.5044 17.6546 22.6928 17.5592C22.8812 17.4638 23.0925 17.4244 23.3022 17.4459H23.7118C23.9208 17.4433 24.1261 17.4998 24.3048 17.6096C24.4836 17.7192 24.6283 17.8774 24.7227 18.0663L24.7651 18.158H24.7654C24.857 18.3373 25.0397 18.4498 25.2389 18.4493C25.3041 18.4491 25.3687 18.4383 25.4305 18.417L26.8937 17.8451C27.1503 17.7466 27.291 17.466 27.2181 17.1977L27.1916 17.1005C27.1385 16.8956 27.1446 16.6796 27.2087 16.4778C27.2727 16.2762 27.3923 16.0972 27.5535 15.9622C27.6579 15.8726 27.7573 15.7772 27.8514 15.6765C27.9942 15.5197 28.1783 15.4074 28.3819 15.3529C28.5855 15.2983 28.8 15.3039 29.0007 15.3688L29.0965 15.3957V15.3959C29.3544 15.4805 29.634 15.3551 29.7457 15.1046L30.3897 13.6533H30.3894C30.5021 13.3992 30.4051 13.0998 30.166 12.9628L30.0809 12.9144V12.9142C29.9004 12.8039 29.7547 12.6439 29.6606 12.4528C29.5663 12.2618 29.5277 12.0478 29.5489 11.8352V11.4253C29.5414 11.2132 29.5933 11.0031 29.699 10.8199C29.8044 10.6364 29.959 10.4872 30.1448 10.3894L30.2353 10.3463C30.4801 10.2228 30.5928 9.93123 30.4958 9.67192L29.9426 8.18842C29.8449 7.92278 29.5614 7.7792 29.2934 7.85919L29.1976 7.88609V7.88634C28.9943 7.93991 28.7798 7.9333 28.58 7.86726C28.38 7.80122 28.203 7.67867 28.0695 7.51405C27.9791 7.41157 27.8886 7.31446 27.7928 7.21735C27.6396 7.07376 27.5299 6.88885 27.4773 6.68436C27.4244 6.47963 27.4305 6.26389 27.4949 6.06282L27.5267 5.9711H27.527C27.6208 5.70619 27.498 5.41242 27.245 5.2967L25.8083 4.64922C25.5547 4.53279 25.2556 4.63381 25.122 4.88135L25.0848 4.96231H25.0846C24.9767 5.14601 24.8192 5.29449 24.6305 5.39012C24.4419 5.48576 24.2301 5.52441 24.0204 5.50166C23.8841 5.4909 23.7471 5.4909 23.6108 5.50166C23.4004 5.50753 23.1929 5.45298 23.0122 5.34414C22.8313 5.23529 22.6846 5.07654 22.5891 4.88673L22.5466 4.795C22.4229 4.54869 22.1358 4.4369 21.8815 4.53597L20.4342 5.11861C20.1794 5.21939 20.0414 5.49922 20.1148 5.76609V5.8632C20.1652 6.06817 20.1582 6.28343 20.0943 6.48474C20.0303 6.6858 19.9121 6.86485 19.7531 7.00134C19.6475 7.08964 19.5478 7.18528 19.4552 7.28728C19.3104 7.44138 19.1256 7.55047 18.922 7.60208C18.7187 7.65369 18.5049 7.64562 18.3059 7.5786H18.2101C17.9732 7.50033 17.7146 7.5989 17.5874 7.81611L16.9435 9.26736C16.8202 9.52419 16.9158 9.83435 17.1619 9.97401L17.2523 10.0224C17.434 10.1313 17.5809 10.291 17.6752 10.4825C17.7696 10.6738 17.8074 10.8888 17.7843 11.1016V11.517C17.7867 11.7266 17.7312 11.9328 17.6241 12.1118C17.5167 12.2911 17.3621 12.4364 17.1778 12.5311L17.1778 12.5311ZM20.8385 10.1736C21.1449 9.48238 21.6872 8.92639 22.3658 8.60841C23.0442 8.29019 23.8131 8.23124 24.5313 8.44209C25.2492 8.65294 25.8678 9.11962 26.2736 9.75632C26.6791 10.393 26.8444 11.1567 26.739 11.9071C26.6333 12.6573 26.2642 13.3439 25.6992 13.8402C25.1342 14.3365 24.4113 14.6093 23.6637 14.6083C23.2203 14.61 22.7813 14.5161 22.3762 14.3331C21.6261 13.9902 21.0409 13.3599 20.7487 12.5801C20.4563 11.8005 20.4809 10.9351 20.8172 10.1736L20.8385 10.1736Z" fill="#9986F0"/>
<path d="M36.6352 31.0142L36.55 30.9657C36.3698 30.8554 36.2241 30.6954 36.1298 30.5044C36.0357 30.3134 35.9968 30.0991 36.0181 29.8865V29.4766C36.0113 29.2645 36.0634 29.0549 36.1688 28.8717C36.2743 28.6885 36.4287 28.5392 36.6139 28.4409L36.7044 28.3979V28.3976C36.9493 28.2743 37.0622 27.9825 36.9652 27.7232L36.4065 26.2343C36.3092 25.9741 36.0328 25.8315 35.7679 25.9054H35.6721C35.4687 25.9582 35.2545 25.9511 35.0547 25.8853C34.855 25.8195 34.6779 25.6972 34.5443 25.5331C34.4538 25.4306 34.3633 25.3335 34.2675 25.2364C34.1141 25.0928 34.0046 24.9079 33.9517 24.7034C33.8989 24.4986 33.9052 24.2829 33.9696 24.0818L34.0067 23.9847C34.0967 23.7198 33.972 23.4292 33.7194 23.3157L32.2828 22.6682C32.0294 22.5518 31.7301 22.6528 31.5964 22.9004L31.5593 22.9813C31.4514 23.165 31.2937 23.3135 31.105 23.4091C30.9163 23.5048 30.7048 23.5434 30.4949 23.5207H30.0852C29.8794 23.5251 29.6763 23.4715 29.4988 23.3656C29.3212 23.2599 29.1762 23.1063 29.0797 22.9219L29.0372 22.8302H29.037C28.9135 22.5838 28.6264 22.4721 28.3718 22.5711L26.9034 23.143C26.6489 23.2438 26.5109 23.5236 26.5842 23.7905L26.6107 23.8876C26.6624 24.0926 26.6559 24.3083 26.5919 24.5096C26.5278 24.7112 26.4091 24.89 26.2489 25.026C26.1447 25.1157 26.045 25.2111 25.9509 25.3117C25.8064 25.4658 25.6214 25.5749 25.418 25.6265C25.2144 25.6781 25.0009 25.67 24.8016 25.603H24.7058C24.4479 25.5184 24.1683 25.6438 24.0566 25.8943L23.4395 27.3402C23.3261 27.5931 23.4204 27.8918 23.6576 28.0307L23.7481 28.0791V28.0793C23.9297 28.1882 24.0766 28.3479 24.1712 28.5392C24.2655 28.7307 24.3034 28.9455 24.2803 29.1583V29.5736C24.2872 29.7864 24.2344 29.9968 24.1278 30.18C24.0214 30.3635 23.8658 30.5124 23.6788 30.6095L23.5937 30.6526H23.5939C23.3469 30.7741 23.2315 31.0662 23.3278 31.327L23.8918 32.8159C23.9891 33.0764 24.2655 33.2187 24.5302 33.1451L24.626 33.1182C24.8296 33.0651 25.0436 33.0722 25.2433 33.138C25.4431 33.204 25.6202 33.3261 25.754 33.4902C25.8392 33.5927 25.935 33.6898 26.0308 33.7869C26.1859 33.929 26.2966 34.1142 26.3485 34.3197C26.4006 34.5249 26.3919 34.7411 26.3234 34.9415L26.2915 35.0332C26.1982 35.2996 26.3236 35.5938 26.5789 35.7076L28.0155 36.3551C28.2674 36.4683 28.5629 36.3675 28.6966 36.1229L28.739 36.042V36.0422C28.8483 35.8597 29.0061 35.7122 29.1945 35.6168C29.3827 35.5215 29.5938 35.4818 29.8032 35.5026H30.2128H30.2131C30.4229 35.4975 30.6304 35.5523 30.8111 35.6611C30.9918 35.77 31.1385 35.928 31.2345 36.1175L31.277 36.2093H31.2772C31.3686 36.3886 31.5515 36.5011 31.7508 36.5006C31.8159 36.5006 31.8806 36.4896 31.9423 36.4683L33.3628 35.8695C33.6195 35.7709 33.7602 35.4904 33.6875 35.222V35.1249C33.6345 34.92 33.6403 34.704 33.7044 34.5022C33.7686 34.3006 33.8883 34.1218 34.0492 33.9868L34.3471 33.7008H34.3474C34.4916 33.5463 34.6764 33.4367 34.88 33.3851C35.0836 33.3335 35.2974 33.342 35.4967 33.4095L35.5924 33.4364H35.5922C35.8339 33.5071 36.0911 33.397 36.2096 33.172L36.8535 31.7208C36.9767 31.4639 36.8812 31.1538 36.6351 31.0141L36.6352 31.0142ZM32.9639 30.8092C32.7187 31.3622 32.3212 31.8316 31.8189 32.1609C31.3166 32.4901 30.7314 32.6652 30.1333 32.665C29.6969 32.6638 29.2655 32.5698 28.8667 32.3898C28.1157 32.0488 27.529 31.4192 27.2359 30.6394C26.943 29.8597 26.9674 28.9938 27.3042 28.2325C27.6409 27.4711 28.2624 26.8764 29.0315 26.5797C29.8006 26.283 30.6546 26.3082 31.4054 26.6501C32.1562 26.9918 32.7422 27.6222 33.0346 28.4022C33.3268 29.1822 33.3014 30.0481 32.9639 30.8091L32.9639 30.8092Z" fill="#9986F0"/>
</svg>
