<svg width="16" height="16" viewBox="0 0 16 16" fill="none" xmlns="http://www.w3.org/2000/svg">
<path d="M4 1.33325L2 3.99992V13.3333C2 13.6869 2.14048 14.026 2.39052 14.2761C2.64057 14.5261 2.97971 14.6666 3.33333 14.6666H12.6667C13.0203 14.6666 13.3594 14.5261 13.6095 14.2761C13.8595 14.026 14 13.6869 14 13.3333V3.99992L12 1.33325H4Z" stroke="#6D6C73" stroke-width="2" stroke-linecap="round" stroke-linejoin="round"/>
<path d="M10.6663 6.66675C10.6663 7.37399 10.3854 8.05227 9.88529 8.55237C9.3852 9.05246 8.70692 9.33341 7.99967 9.33341C7.29243 9.33341 6.61415 9.05246 6.11406 8.55237C5.61396 8.05227 5.33301 7.37399 5.33301 6.66675" stroke="#6D6C73" stroke-width="2" stroke-linecap="round" stroke-linejoin="round"/>
<path d="M2 4H14" stroke="#6D6C73" stroke-width="2" stroke-linecap="round" stroke-linejoin="round"/>
</svg>
