<svg width="166" height="163" viewBox="0 0 166 163" fill="none" xmlns="http://www.w3.org/2000/svg">
<rect x="1.5" y="2.5" width="162" height="158" stroke="#7E64F3" stroke-dasharray="4 4"/>
<rect x="162" y="142" width="4" height="18" rx="2" fill="#9986F0"/>
<rect x="147" y="161" width="4" height="18" rx="2" transform="rotate(-90 147 161)" fill="#9986F0"/>
<rect width="4" height="18" rx="2" transform="matrix(-1 0 0 1 4 144)" fill="#9986F0"/>
<rect width="4" height="18" rx="2" transform="matrix(0 -1 -1 0 19 163)" fill="#9986F0"/>
<rect width="4" height="18" rx="2" transform="matrix(1 0 0 -1 162 20)" fill="#9986F0"/>
<rect width="4" height="18" rx="2" transform="matrix(0 1 1 0 147 1)" fill="#9986F0"/>
<rect x="6" y="19" width="4" height="18" rx="2" transform="rotate(-180 6 19)" fill="#9986F0"/>
<rect x="21" width="4" height="18" rx="2" transform="rotate(90 21 0)" fill="#9986F0"/>
</svg>
