<svg width="40" height="41" viewBox="0 0 40 41" fill="none" xmlns="http://www.w3.org/2000/svg">
<path d="M21.6621 11.3496H19.8122C19.7659 11.3496 19.6735 11.3946 19.6273 11.4397L18.1008 14.1887C18.0546 14.2788 18.1008 14.4141 18.2395 14.4141L18.8872 14.5042C19.0259 14.5042 19.0721 14.6393 19.0259 14.7296L18.1933 16.7125C18.1009 16.8927 18.3782 17.028 18.5171 16.8476L21.4773 13.3325C21.5697 13.2424 21.4773 13.062 21.3386 13.062H21.2923C21.1537 13.062 21.061 12.9269 21.1537 12.8366L21.8937 11.5748C21.8935 11.485 21.8008 11.3496 21.6621 11.3496L21.6621 11.3496Z" fill="#9986F0"/>
<path d="M32.3476 20.8138C31.6999 19.462 30.9139 18.2002 31.3763 16.803C32.0702 14.685 31.9313 12.3866 31.0525 10.3589C30.1738 8.33093 28.5549 6.6185 26.5197 5.62696C22.9581 3.86951 18.6105 4.36519 14.864 5.76231C13.0602 6.43836 10.4699 8.42126 9.26756 10.3588C8.15742 12.1613 6.9548 14.0541 7.00131 16.1271C7.04753 19.0112 9.26757 21.3547 10.4702 23.9682C11.0713 25.3201 11.4414 26.7623 11.5341 28.2495C11.5341 28.565 11.719 28.8352 11.9504 29.0157C13.5693 30.1874 14.7718 31.6746 16.1131 33.1616C17.1771 34.3333 18.2407 35.505 19.582 36.3613C19.9983 36.6317 20.5532 36.4964 20.7384 36.0458C21.4784 34.4234 22.3573 32.8912 23.2822 31.3589C23.3747 31.1787 23.5136 30.9983 23.6985 30.9083C23.9299 30.7731 24.2072 30.8182 24.4386 30.8632C25.5025 31.0434 26.5661 31.2238 27.6301 31.0886C28.694 30.9535 29.7577 30.4126 30.1739 29.4213C30.4978 28.6101 30.3589 27.6638 30.8678 26.9428C31.0065 26.7626 31.1454 26.6273 31.1916 26.4021C31.2841 26.0866 31.053 25.681 31.3303 25.4558C31.4228 25.3657 31.5152 25.3657 31.6079 25.2756C31.8393 25.0954 31.7928 24.7349 31.7004 24.4194C31.6541 24.1039 31.6541 23.7434 31.9317 23.6083C32.0242 23.5632 32.0704 23.5632 32.1631 23.5632C32.718 23.4731 33.0418 22.8421 32.9956 22.3014C32.8563 21.8053 32.5787 21.3097 32.3476 20.814L32.3476 20.8138ZM26.7509 17.1636C26.2884 17.6142 25.6407 17.8846 24.9933 17.9297H14.9105C13.4768 17.8396 12.3667 16.6679 12.3667 15.2257C12.3667 13.8739 13.4306 12.7021 14.7719 12.5668C14.7719 11.6205 15.1419 10.674 15.882 9.95315C17.3622 8.51095 19.7672 8.51095 21.2474 9.95315C21.386 10.0883 21.4787 10.1786 21.5712 10.3137C22.4037 10.1786 23.2825 10.4488 23.9302 11.0798C24.3464 11.4854 24.624 12.0261 24.7165 12.5671C25.4566 12.5671 26.1502 12.8375 26.7054 13.3332C27.8151 14.4146 27.8151 16.082 26.7512 17.1636L26.7509 17.1636Z" fill="#9986F0"/>
</svg>
