<svg width="40" height="40" viewBox="0 0 40 40" fill="none" xmlns="http://www.w3.org/2000/svg">
<path d="M21.6621 10.8496H19.8121C19.7659 10.8496 19.6735 10.8946 19.6272 10.9397L18.1008 13.6887C18.0546 13.7788 18.1008 13.9141 18.2395 13.9141L18.8871 14.0042C19.0258 14.0042 19.0721 14.1393 19.0258 14.2296L18.1933 16.2125C18.1008 16.3927 18.3782 16.528 18.5171 16.3476L21.4772 12.8325C21.5697 12.7424 21.4772 12.562 21.3385 12.562H21.2923C21.1536 12.562 21.061 12.4269 21.1536 12.3366L21.8937 11.0748C21.8935 10.985 21.8008 10.8496 21.6621 10.8496L21.6621 10.8496Z" fill="#6D6C73"/>
<path d="M32.3476 20.3138C31.6999 18.962 30.9139 17.7002 31.3763 16.303C32.0702 14.185 31.9313 11.8866 31.0525 9.85885C30.1738 7.83093 28.5549 6.1185 26.5197 5.12696C22.9581 3.36951 18.6105 3.86519 14.864 5.26231C13.0602 5.93836 10.4699 7.92126 9.26756 9.85885C8.15742 11.6613 6.9548 13.5541 7.00131 15.6271C7.04753 18.5112 9.26757 20.8547 10.4702 23.4682C11.0713 24.8201 11.4414 26.2623 11.5341 27.7495C11.5341 28.065 11.719 28.3352 11.9504 28.5157C13.5693 29.6874 14.7718 31.1746 16.1131 32.6616C17.1771 33.8333 18.2407 35.005 19.582 35.8613C19.9983 36.1317 20.5532 35.9964 20.7384 35.5458C21.4784 33.9234 22.3573 32.3912 23.2822 30.8589C23.3747 30.6787 23.5136 30.4983 23.6985 30.4083C23.9299 30.2731 24.2072 30.3182 24.4386 30.3632C25.5025 30.5434 26.5661 30.7238 27.6301 30.5886C28.694 30.4535 29.7577 29.9126 30.1739 28.9213C30.4978 28.1101 30.3589 27.1638 30.8678 26.4428C31.0065 26.2626 31.1454 26.1273 31.1916 25.9021C31.2841 25.5866 31.053 25.181 31.3303 24.9558C31.4228 24.8657 31.5152 24.8657 31.6079 24.7756C31.8393 24.5954 31.7928 24.2349 31.7004 23.9194C31.6541 23.6039 31.6541 23.2434 31.9317 23.1083C32.0242 23.0632 32.0704 23.0632 32.1631 23.0632C32.718 22.9731 33.0418 22.3421 32.9956 21.8014C32.8563 21.3053 32.5787 20.8097 32.3476 20.314L32.3476 20.3138ZM26.7509 16.6636C26.2884 17.1142 25.6407 17.3846 24.9933 17.4297H14.9105C13.4768 17.3396 12.3667 16.1679 12.3667 14.7257C12.3667 13.3739 13.4306 12.2021 14.7719 12.0668C14.7719 11.1205 15.1419 10.174 15.882 9.45315C17.3622 8.01095 19.7672 8.01095 21.2474 9.45315C21.386 9.58827 21.4787 9.67858 21.5712 9.8137C22.4037 9.67858 23.2825 9.94882 23.9302 10.5798C24.3464 10.9854 24.624 11.5261 24.7165 12.0671C25.4566 12.0671 26.1502 12.3375 26.7054 12.8332C27.8151 13.9146 27.8151 15.582 26.7512 16.6636L26.7509 16.6636Z" fill="#6D6C73"/>
</svg>
