<svg width="85" height="28" viewBox="0 0 85 28" fill="none" xmlns="http://www.w3.org/2000/svg">
<rect width="85" height="28" fill="#F7F5FF"/>
<path d="M9.89062 15.7598H11.5996C11.5449 16.4115 11.3626 16.9925 11.0527 17.5029C10.7428 18.0088 10.3076 18.4076 9.74707 18.6992C9.18652 18.9909 8.50521 19.1367 7.70312 19.1367C7.08789 19.1367 6.53418 19.0273 6.04199 18.8086C5.5498 18.5853 5.12826 18.2708 4.77734 17.8652C4.42643 17.4551 4.15755 16.9606 3.9707 16.3818C3.78841 15.8031 3.69727 15.1559 3.69727 14.4404V13.6133C3.69727 12.8978 3.79069 12.2507 3.97754 11.6719C4.16895 11.0931 4.44238 10.5986 4.79785 10.1885C5.15332 9.77376 5.57943 9.45703 6.07617 9.23828C6.57747 9.01953 7.1403 8.91016 7.76465 8.91016C8.55762 8.91016 9.22754 9.05599 9.77441 9.34766C10.3213 9.63932 10.7451 10.0426 11.0459 10.5576C11.3512 11.0726 11.5381 11.6628 11.6064 12.3281H9.89746C9.85189 11.8997 9.75163 11.5329 9.59668 11.2275C9.44629 10.9222 9.22298 10.6898 8.92676 10.5303C8.63053 10.3662 8.24316 10.2842 7.76465 10.2842C7.37272 10.2842 7.03092 10.3571 6.73926 10.5029C6.44759 10.6488 6.20378 10.863 6.00781 11.1455C5.81185 11.4281 5.66374 11.7767 5.56348 12.1914C5.46777 12.6016 5.41992 13.071 5.41992 13.5996V14.4404C5.41992 14.9417 5.46322 15.3975 5.5498 15.8076C5.64095 16.2132 5.77767 16.5618 5.95996 16.8535C6.14681 17.1452 6.38379 17.3708 6.6709 17.5303C6.95801 17.6898 7.30208 17.7695 7.70312 17.7695C8.19076 17.7695 8.58496 17.6921 8.88574 17.5371C9.19108 17.3822 9.42122 17.1566 9.57617 16.8604C9.73568 16.5596 9.84049 16.1927 9.89062 15.7598ZM14.6211 8.5V19H12.9805V8.5H14.6211ZM14.334 15.0283L13.8008 15.0215C13.8053 14.5111 13.876 14.0394 14.0127 13.6064C14.154 13.1735 14.3499 12.7975 14.6006 12.4785C14.8558 12.1549 15.1611 11.9066 15.5166 11.7334C15.8721 11.5557 16.2663 11.4668 16.6992 11.4668C17.0638 11.4668 17.3919 11.5169 17.6836 11.6172C17.9798 11.7174 18.235 11.8792 18.4492 12.1025C18.6634 12.3213 18.8252 12.6084 18.9346 12.9639C19.0485 13.3148 19.1055 13.7432 19.1055 14.249V19H17.4512V14.2354C17.4512 13.8799 17.3988 13.5973 17.2939 13.3877C17.1937 13.1781 17.0456 13.0277 16.8496 12.9365C16.6536 12.8408 16.4144 12.793 16.1318 12.793C15.8356 12.793 15.5736 12.8522 15.3457 12.9707C15.1224 13.0892 14.9355 13.251 14.7852 13.4561C14.6348 13.6611 14.5208 13.8981 14.4434 14.167C14.3704 14.4359 14.334 14.723 14.334 15.0283ZM24.9434 17.5166V13.9893C24.9434 13.7249 24.8955 13.4971 24.7998 13.3057C24.7041 13.1143 24.5583 12.9661 24.3623 12.8613C24.1709 12.7565 23.9294 12.7041 23.6377 12.7041C23.3688 12.7041 23.1364 12.7497 22.9404 12.8408C22.7445 12.932 22.5918 13.055 22.4824 13.21C22.373 13.3649 22.3184 13.5404 22.3184 13.7363H20.6777C20.6777 13.4447 20.7484 13.1621 20.8896 12.8887C21.0309 12.6152 21.236 12.3714 21.5049 12.1572C21.7738 11.943 22.0951 11.7744 22.4688 11.6514C22.8424 11.5283 23.2617 11.4668 23.7266 11.4668C24.2826 11.4668 24.7747 11.5602 25.2031 11.7471C25.6361 11.9339 25.9756 12.2165 26.2217 12.5947C26.4723 12.9684 26.5977 13.4378 26.5977 14.0029V17.291C26.5977 17.6283 26.6204 17.9313 26.666 18.2002C26.7161 18.4645 26.7868 18.6947 26.8779 18.8906V19H25.1895C25.112 18.8223 25.0505 18.5967 25.0049 18.3232C24.9639 18.0452 24.9434 17.7764 24.9434 17.5166ZM25.1826 14.502L25.1963 15.5205H24.0137C23.7083 15.5205 23.4395 15.5501 23.207 15.6094C22.9746 15.6641 22.7809 15.7461 22.626 15.8555C22.471 15.9648 22.3548 16.097 22.2773 16.252C22.1999 16.4069 22.1611 16.5824 22.1611 16.7783C22.1611 16.9743 22.2067 17.1543 22.2979 17.3184C22.389 17.4779 22.5212 17.6032 22.6943 17.6943C22.8721 17.7855 23.0863 17.8311 23.3369 17.8311C23.6742 17.8311 23.9681 17.7627 24.2188 17.626C24.474 17.4847 24.6745 17.3138 24.8203 17.1133C24.9661 16.9082 25.0436 16.7145 25.0527 16.5322L25.5859 17.2637C25.5312 17.4505 25.4378 17.651 25.3057 17.8652C25.1735 18.0794 25.0003 18.2845 24.7861 18.4805C24.5765 18.6719 24.3236 18.8291 24.0273 18.9521C23.7357 19.0752 23.3984 19.1367 23.0156 19.1367C22.5326 19.1367 22.1019 19.041 21.7236 18.8496C21.3454 18.6536 21.0492 18.3916 20.835 18.0635C20.6208 17.7308 20.5137 17.3548 20.5137 16.9355C20.5137 16.5436 20.5866 16.1973 20.7324 15.8965C20.8828 15.5911 21.1016 15.3359 21.3887 15.1309C21.6803 14.9258 22.0358 14.7708 22.4551 14.666C22.8743 14.5566 23.3529 14.502 23.8906 14.502H25.1826ZM29.9541 13.1826V19H28.3066V11.6035H29.8584L29.9541 13.1826ZM29.6602 15.0283L29.127 15.0215C29.1315 14.4974 29.2044 14.0166 29.3457 13.5791C29.4915 13.1416 29.6921 12.7656 29.9473 12.4512C30.207 12.1367 30.5169 11.8952 30.877 11.7266C31.237 11.5534 31.638 11.4668 32.0801 11.4668C32.4355 11.4668 32.7568 11.5169 33.0439 11.6172C33.3356 11.7129 33.584 11.8701 33.7891 12.0889C33.9987 12.3076 34.1582 12.5924 34.2676 12.9434C34.377 13.2897 34.4316 13.7158 34.4316 14.2217V19H32.7773V14.2148C32.7773 13.8594 32.7249 13.5791 32.6201 13.374C32.5199 13.1644 32.3717 13.0163 32.1758 12.9297C31.9844 12.8385 31.7451 12.793 31.458 12.793C31.1755 12.793 30.9225 12.8522 30.6992 12.9707C30.4759 13.0892 30.2868 13.251 30.1318 13.4561C29.9814 13.6611 29.8652 13.8981 29.7832 14.167C29.7012 14.4359 29.6602 14.723 29.6602 15.0283ZM40.8506 11.6035H42.3477V18.7949C42.3477 19.4603 42.2064 20.0254 41.9238 20.4902C41.6413 20.9551 41.2471 21.3083 40.7412 21.5498C40.2354 21.7959 39.6497 21.9189 38.9844 21.9189C38.7018 21.9189 38.3874 21.8779 38.041 21.7959C37.6992 21.7139 37.3665 21.5817 37.043 21.3994C36.724 21.2217 36.4574 20.987 36.2432 20.6953L37.0156 19.7246C37.2799 20.0391 37.5716 20.2692 37.8906 20.415C38.2096 20.5609 38.5446 20.6338 38.8955 20.6338C39.2738 20.6338 39.5951 20.5632 39.8594 20.4219C40.1283 20.2852 40.3356 20.0824 40.4814 19.8135C40.6273 19.5446 40.7002 19.2165 40.7002 18.8291V13.2783L40.8506 11.6035ZM35.8262 15.3838V15.2402C35.8262 14.6797 35.8945 14.1693 36.0312 13.709C36.168 13.2441 36.3639 12.8454 36.6191 12.5127C36.8743 12.1755 37.1842 11.918 37.5488 11.7402C37.9134 11.5579 38.3258 11.4668 38.7861 11.4668C39.2646 11.4668 39.6725 11.5534 40.0098 11.7266C40.3516 11.8997 40.6364 12.1481 40.8643 12.4717C41.0921 12.7907 41.2699 13.1735 41.3975 13.6201C41.5296 14.0622 41.6276 14.5544 41.6914 15.0967V15.5547C41.6322 16.0833 41.5319 16.5664 41.3906 17.0039C41.2493 17.4414 41.0625 17.8197 40.8301 18.1387C40.5977 18.4577 40.3105 18.7038 39.9688 18.877C39.6315 19.0501 39.2327 19.1367 38.7725 19.1367C38.3213 19.1367 37.9134 19.0433 37.5488 18.8564C37.1888 18.6696 36.8789 18.4076 36.6191 18.0703C36.3639 17.7331 36.168 17.3366 36.0312 16.8809C35.8945 16.4206 35.8262 15.9215 35.8262 15.3838ZM37.4736 15.2402V15.3838C37.4736 15.721 37.5055 16.0355 37.5693 16.3271C37.6377 16.6188 37.7402 16.8763 37.877 17.0996C38.0182 17.3184 38.196 17.4915 38.4102 17.6191C38.6289 17.7422 38.8864 17.8037 39.1826 17.8037C39.57 17.8037 39.8867 17.7217 40.1328 17.5576C40.3835 17.3936 40.5749 17.1725 40.707 16.8945C40.8438 16.612 40.9395 16.2975 40.9941 15.9512V14.7139C40.9668 14.445 40.9098 14.1943 40.8232 13.9619C40.7412 13.7295 40.6296 13.5267 40.4883 13.3535C40.347 13.1758 40.1693 13.0391 39.9551 12.9434C39.7409 12.8431 39.488 12.793 39.1963 12.793C38.9001 12.793 38.6426 12.8568 38.4238 12.9844C38.2051 13.112 38.0251 13.2874 37.8838 13.5107C37.7471 13.734 37.6445 13.9938 37.5762 14.29C37.5078 14.5863 37.4736 14.903 37.4736 15.2402ZM47.3174 19.1367C46.7705 19.1367 46.276 19.0479 45.834 18.8701C45.3965 18.6878 45.0228 18.4349 44.7129 18.1113C44.4076 17.7878 44.1729 17.4072 44.0088 16.9697C43.8447 16.5322 43.7627 16.0605 43.7627 15.5547V15.2812C43.7627 14.7025 43.847 14.1784 44.0156 13.709C44.1842 13.2396 44.4189 12.8385 44.7197 12.5059C45.0205 12.1686 45.376 11.9111 45.7861 11.7334C46.1963 11.5557 46.6406 11.4668 47.1191 11.4668C47.6478 11.4668 48.1104 11.5557 48.5068 11.7334C48.9033 11.9111 49.2314 12.1618 49.4912 12.4854C49.7555 12.8044 49.9515 13.1849 50.0791 13.627C50.2113 14.069 50.2773 14.5566 50.2773 15.0898V15.7939H44.5625V14.6113H48.6504V14.4814C48.6413 14.1852 48.582 13.9072 48.4727 13.6475C48.3678 13.3877 48.2061 13.1781 47.9873 13.0186C47.7686 12.859 47.4769 12.7793 47.1123 12.7793C46.8389 12.7793 46.5951 12.8385 46.3809 12.957C46.1712 13.071 45.9958 13.2373 45.8545 13.4561C45.7132 13.6748 45.6038 13.9391 45.5264 14.249C45.4535 14.5544 45.417 14.8984 45.417 15.2812V15.5547C45.417 15.8783 45.4603 16.179 45.5469 16.457C45.638 16.7305 45.7702 16.9697 45.9434 17.1748C46.1165 17.3799 46.3262 17.5417 46.5723 17.6602C46.8184 17.7741 47.0986 17.8311 47.4131 17.8311C47.8096 17.8311 48.1628 17.7513 48.4727 17.5918C48.7826 17.4323 49.0514 17.2067 49.2793 16.915L50.1475 17.7559C49.988 17.9883 49.7806 18.2116 49.5254 18.4258C49.2702 18.6354 48.958 18.8063 48.5889 18.9385C48.2243 19.0706 47.8005 19.1367 47.3174 19.1367ZM57.0449 9.04688V19H55.3291V9.04688H57.0449ZM62.0352 17.8242C62.304 17.8242 62.5456 17.7718 62.7598 17.667C62.9785 17.5576 63.154 17.4072 63.2861 17.2158C63.4229 17.0244 63.498 16.8034 63.5117 16.5527H65.0635C65.0544 17.0312 64.9131 17.4665 64.6396 17.8584C64.3662 18.2503 64.0039 18.5625 63.5527 18.7949C63.1016 19.0228 62.6025 19.1367 62.0557 19.1367C61.4906 19.1367 60.9984 19.041 60.5791 18.8496C60.1598 18.6536 59.8112 18.3848 59.5332 18.043C59.2552 17.7012 59.0456 17.307 58.9043 16.8604C58.7676 16.4137 58.6992 15.9352 58.6992 15.4248V15.1855C58.6992 14.6751 58.7676 14.1966 58.9043 13.75C59.0456 13.2988 59.2552 12.9023 59.5332 12.5605C59.8112 12.2188 60.1598 11.9521 60.5791 11.7607C60.9984 11.5648 61.4883 11.4668 62.0488 11.4668C62.6413 11.4668 63.1608 11.5853 63.6074 11.8223C64.054 12.0547 64.4049 12.3805 64.6602 12.7998C64.9199 13.2145 65.0544 13.6976 65.0635 14.249H63.5117C63.498 13.9756 63.4297 13.7295 63.3066 13.5107C63.1882 13.2874 63.0195 13.1097 62.8008 12.9775C62.5866 12.8454 62.3291 12.7793 62.0283 12.7793C61.6956 12.7793 61.4199 12.8477 61.2012 12.9844C60.9824 13.1165 60.8115 13.2988 60.6885 13.5312C60.5654 13.7591 60.4766 14.0166 60.4219 14.3037C60.3717 14.5863 60.3467 14.8802 60.3467 15.1855V15.4248C60.3467 15.7301 60.3717 16.0264 60.4219 16.3135C60.472 16.6006 60.5586 16.8581 60.6816 17.0859C60.8092 17.3092 60.9824 17.4893 61.2012 17.626C61.4199 17.7581 61.6979 17.8242 62.0352 17.8242ZM66.0137 15.3838V15.2266C66.0137 14.6934 66.0911 14.1989 66.2461 13.7432C66.401 13.2829 66.6243 12.8841 66.916 12.5469C67.2122 12.2051 67.5723 11.9408 67.9961 11.7539C68.4245 11.5625 68.9076 11.4668 69.4453 11.4668C69.9876 11.4668 70.4707 11.5625 70.8945 11.7539C71.3229 11.9408 71.6852 12.2051 71.9814 12.5469C72.2777 12.8841 72.5033 13.2829 72.6582 13.7432C72.8132 14.1989 72.8906 14.6934 72.8906 15.2266V15.3838C72.8906 15.917 72.8132 16.4115 72.6582 16.8672C72.5033 17.3229 72.2777 17.7217 71.9814 18.0635C71.6852 18.4007 71.3252 18.665 70.9014 18.8564C70.4775 19.0433 69.9967 19.1367 69.459 19.1367C68.9167 19.1367 68.4313 19.0433 68.0029 18.8564C67.5791 18.665 67.2191 18.4007 66.9229 18.0635C66.6266 17.7217 66.401 17.3229 66.2461 16.8672C66.0911 16.4115 66.0137 15.917 66.0137 15.3838ZM67.6611 15.2266V15.3838C67.6611 15.7165 67.6953 16.0309 67.7637 16.3271C67.832 16.6234 67.9391 16.8831 68.085 17.1064C68.2308 17.3298 68.4176 17.5052 68.6455 17.6328C68.8734 17.7604 69.1445 17.8242 69.459 17.8242C69.7643 17.8242 70.0286 17.7604 70.252 17.6328C70.4798 17.5052 70.6667 17.3298 70.8125 17.1064C70.9583 16.8831 71.0654 16.6234 71.1338 16.3271C71.2067 16.0309 71.2432 15.7165 71.2432 15.3838V15.2266C71.2432 14.8984 71.2067 14.5885 71.1338 14.2969C71.0654 14.0007 70.9561 13.7386 70.8057 13.5107C70.6598 13.2829 70.473 13.1051 70.2451 12.9775C70.0218 12.8454 69.7552 12.7793 69.4453 12.7793C69.1354 12.7793 68.8665 12.8454 68.6387 12.9775C68.4154 13.1051 68.2308 13.2829 68.085 13.5107C67.9391 13.7386 67.832 14.0007 67.7637 14.2969C67.6953 14.5885 67.6611 14.8984 67.6611 15.2266ZM75.9053 13.1826V19H74.2578V11.6035H75.8096L75.9053 13.1826ZM75.6113 15.0283L75.0781 15.0215C75.0827 14.4974 75.1556 14.0166 75.2969 13.5791C75.4427 13.1416 75.6432 12.7656 75.8984 12.4512C76.1582 12.1367 76.4681 11.8952 76.8281 11.7266C77.1882 11.5534 77.5892 11.4668 78.0312 11.4668C78.3867 11.4668 78.708 11.5169 78.9951 11.6172C79.2868 11.7129 79.5352 11.8701 79.7402 12.0889C79.9499 12.3076 80.1094 12.5924 80.2188 12.9434C80.3281 13.2897 80.3828 13.7158 80.3828 14.2217V19H78.7285V14.2148C78.7285 13.8594 78.6761 13.5791 78.5713 13.374C78.471 13.1644 78.3229 13.0163 78.127 12.9297C77.9355 12.8385 77.6963 12.793 77.4092 12.793C77.1266 12.793 76.8737 12.8522 76.6504 12.9707C76.4271 13.0892 76.238 13.251 76.083 13.4561C75.9326 13.6611 75.8164 13.8981 75.7344 14.167C75.6523 14.4359 75.6113 14.723 75.6113 15.0283Z" fill="#5A5766"/>
</svg>
