<svg width="16" height="16" viewBox="0 0 16 16" fill="none" xmlns="http://www.w3.org/2000/svg">
<path d="M7.99967 14.6666C11.6816 14.6666 14.6663 11.6818 14.6663 7.99992C14.6663 4.31802 11.6816 1.33325 7.99967 1.33325C4.31778 1.33325 1.33301 4.31802 1.33301 7.99992C1.33301 11.6818 4.31778 14.6666 7.99967 14.6666Z" stroke="#6D6C73" stroke-width="2" stroke-linecap="round" stroke-linejoin="round"/>
<path d="M14.1133 5.33325H8" stroke="#6D6C73" stroke-width="2" stroke-linecap="round" stroke-linejoin="round"/>
<path d="M7.99967 10.6666C9.47243 10.6666 10.6663 9.47268 10.6663 7.99992C10.6663 6.52716 9.47243 5.33325 7.99967 5.33325C6.52692 5.33325 5.33301 6.52716 5.33301 7.99992C5.33301 9.47268 6.52692 10.6666 7.99967 10.6666Z" stroke="#6D6C73" stroke-width="2" stroke-linecap="round" stroke-linejoin="round"/>
<path d="M7.25293 14.6266L10.3063 9.33325" stroke="#6D6C73" stroke-width="2" stroke-linecap="round" stroke-linejoin="round"/>
<path d="M2.63379 4.04004L5.69379 9.33337" stroke="#6D6C73" stroke-width="2" stroke-linecap="round" stroke-linejoin="round"/>
</svg>
