<svg width="40" height="41" viewBox="0 0 40 41" fill="none" xmlns="http://www.w3.org/2000/svg">
<path d="M20 4.5C11.1774 4.5 4 11.678 4 20.5C4 29.322 11.1774 36.5 20 36.5C28.8226 36.5 36 29.322 36 20.5C36 11.678 28.8226 4.5 20 4.5ZM26.961 9.13596C28.293 9.13596 29.3769 10.1998 29.3769 11.5076C29.3769 12.2311 29.0439 12.879 28.5223 13.3145C27.6486 14.0417 26.2734 14.0417 25.4001 13.3145C24.8778 12.8788 24.5455 12.2311 24.5455 11.5076C24.5448 10.1995 25.6287 9.13596 26.961 9.13596ZM27.4833 14.4943V16.5097L26.961 17.1761L26.4386 16.5097V14.4943C26.4515 14.4963 26.4649 14.4959 26.4778 14.498C26.6356 14.5228 26.7962 14.5392 26.961 14.5392C27.1257 14.5392 27.2861 14.5226 27.4441 14.498C27.457 14.4954 27.4704 14.4963 27.4833 14.4943H27.4833ZM23.6329 24.3048C24.531 24.3048 25.2608 25.0074 25.2608 25.8708C25.2608 26.2986 25.0822 26.6986 24.7585 26.9984L24.7377 27.0129C24.438 27.2889 24.0384 27.4274 23.6368 27.4274C23.2393 27.4274 22.8405 27.2917 22.5329 27.0196L22.5135 27.0032C22.1859 26.7035 22.0052 26.3007 22.0052 25.8707C22.0045 25.0078 22.735 24.3048 23.6329 24.3048L23.6329 24.3048ZM12.0964 16.7994C12.0964 16.7948 12.0964 16.7895 12.0968 16.7849C12.1159 16.39 12.4344 16.081 12.8215 16.081H20.1936C20.5931 16.081 20.9182 16.4082 20.9182 16.8102V19.0803C20.9182 19.4823 20.5931 19.8095 20.1936 19.8095H19.024L19.2237 20.9625C19.2449 21.0837 19.1892 21.2061 19.0839 21.268C19.038 21.2948 18.9869 21.3084 18.9369 21.3084C18.8714 21.3084 18.8058 21.2855 18.7525 21.2418L17.0235 19.8095H12.8212C12.4217 19.8095 12.0966 19.4823 12.0966 19.0803V16.7994L12.0964 16.7994ZM16.2259 27.0554C15.7593 26.6662 15.462 26.0876 15.462 25.4409C15.462 24.2724 16.4307 23.3217 17.6211 23.3217C18.8112 23.3217 19.7801 24.2724 19.7801 25.4409C19.7801 26.0876 19.4824 26.6671 19.0151 27.0563C18.2347 27.7052 17.0063 27.7059 16.2259 27.0554L16.2259 27.0554ZM18.088 28.1105V29.9118L17.621 30.5075L17.1544 29.9118V28.1105C17.1664 28.1125 17.1781 28.1114 17.1894 28.1135C17.3304 28.1356 17.4738 28.1505 17.621 28.1505C17.768 28.1505 17.9111 28.1356 18.0519 28.1139C18.0643 28.1114 18.0763 28.1125 18.088 28.1105H18.088ZM11.6102 24.3049C12.5077 24.3049 13.2381 25.0074 13.2381 25.8708C13.2381 26.2971 13.0604 26.6971 12.7385 26.9959L12.7178 27.0109C12.416 27.2881 12.0148 27.4275 11.6128 27.4275C11.2107 27.4275 10.807 27.2885 10.4985 27.0095L10.4892 27.0017C10.162 26.7019 9.98186 26.3003 9.98186 25.8703C9.98232 25.0079 10.7121 24.3049 11.6102 24.3049L11.6102 24.3049ZM13.5915 29.4199C13.5885 29.4303 13.5858 29.4406 13.5828 29.4508C13.4991 29.7367 13.4496 30.0356 13.4372 30.3427C13.4367 30.3593 13.433 30.3752 13.4325 30.3913H9.00215V29.5185C9.00215 28.639 9.52036 27.8427 10.3079 27.489C10.6671 27.7637 11.1188 27.9286 11.6095 27.9286C12.1003 27.9286 12.5519 27.7634 12.9111 27.489C13.3765 27.6996 13.7577 28.0727 13.9851 28.542C13.8176 28.8139 13.6855 29.1091 13.5915 29.4199L13.5915 29.4199ZM21.2279 30.6865V31.8644H19.9346V31.104H19.3518V31.8644H15.8901V31.104H15.3073V31.8644H14.014V30.4976C14.014 30.3386 14.0264 30.1817 14.0497 30.0284C14.1193 29.5685 14.2919 29.1303 14.5587 28.7411C14.5612 28.7374 14.5608 28.7328 14.5633 28.7287C14.9066 28.2305 15.3942 27.8358 15.981 27.6098C15.9889 27.6155 15.9981 27.6197 16.0064 27.6252C16.1808 27.7517 16.3698 27.8596 16.5721 27.9432V30.0144C16.5721 30.081 16.5942 30.1455 16.635 30.1975L17.3932 31.1648C17.4485 31.2355 17.5331 31.2763 17.6218 31.2763C17.7105 31.2763 17.7946 31.2351 17.8504 31.1648L18.6091 30.1975C18.6499 30.1455 18.672 30.081 18.672 30.0144V27.9427C18.8739 27.8595 19.0616 27.7522 19.2356 27.6264C19.2444 27.6201 19.2543 27.616 19.263 27.6098C19.8478 27.8349 20.334 28.2286 20.6773 28.7245C20.6794 28.7275 20.679 28.7316 20.6815 28.7349C20.9499 29.1245 21.1239 29.5648 21.1939 30.0268C21.2172 30.1807 21.2296 30.3381 21.2296 30.4975L21.2294 30.6864L21.2279 30.6865ZM26.2401 30.3911H21.8097C21.8093 30.3745 21.8056 30.3591 21.8051 30.3425C21.7922 30.0349 21.7431 29.7361 21.6595 29.4501C21.6558 29.4381 21.6528 29.4259 21.6491 29.4139C21.6033 29.2621 21.5475 29.1151 21.483 28.9715C21.4825 28.9706 21.4821 28.9694 21.4821 28.969C21.4146 28.8192 21.3385 28.6743 21.2523 28.5353C21.4795 28.0717 21.8625 27.7012 22.3337 27.4902C22.6924 27.7637 23.1429 27.9284 23.6327 27.9284C24.124 27.9284 24.5752 27.7632 24.9343 27.4888C25.7219 27.8429 26.2401 28.6388 26.2401 29.5183L26.2401 30.3911ZM30.9972 18.6947H29.5495V17.844H28.8972V18.6947H25.0237V17.844H24.3714V18.6947H22.9237L22.9234 17.1662C22.9234 15.7215 23.8009 14.4441 25.1237 13.9346C25.1329 13.9413 25.1433 13.9459 25.1525 13.9521C25.3477 14.0936 25.5587 14.2143 25.7852 14.3072V16.6247C25.7852 16.6991 25.8106 16.7712 25.856 16.8302L26.7046 17.9125C26.7666 17.9915 26.8611 18.0374 26.9601 18.0374C27.0592 18.0374 27.1537 17.9915 27.2157 17.9125L28.0643 16.8302C28.1097 16.7719 28.135 16.6996 28.135 16.6247V14.3072C28.3611 14.2143 28.5721 14.0936 28.7678 13.9521C28.777 13.9454 28.7874 13.9413 28.7966 13.9346C30.1194 14.4441 30.9968 15.7215 30.9968 17.1662V18.6947H30.9972Z" fill="#9986F0"/>
<path d="M14.0754 17.7537H18.9395V18.3435H14.0754V17.7537Z" fill="#9986F0"/>
</svg>
