<svg width="40" height="41" viewBox="0 0 40 41" fill="none" xmlns="http://www.w3.org/2000/svg">
<path d="M16.8946 6.5C13.4242 6.5 10.607 9.3299 10.607 12.8353C10.607 16.3404 13.4242 19.1856 16.8946 19.1856C20.3649 19.1856 23.1672 16.3403 23.1672 12.8353C23.1672 9.33034 20.3653 6.5 16.8946 6.5ZM16.9401 8.65271C17.0431 8.64825 17.1433 8.68807 17.2157 8.76221C17.2881 8.836 17.3262 8.93759 17.3207 9.04159V13.3316C17.3217 13.4647 17.2521 13.5879 17.1379 13.6545L14.6867 15.0844C14.5103 15.1856 14.286 15.1235 14.1854 14.9457C14.0848 14.7676 14.1456 14.541 14.3213 14.4388L16.5897 13.1102V9.03537C16.5883 8.84831 16.7256 8.68974 16.9095 8.6664C16.9193 8.66091 16.9295 8.65577 16.9397 8.65096L16.9401 8.65271ZM22.5885 9.16C23.2614 10.2212 23.6542 11.4819 23.6542 12.8349C23.6542 16.6042 20.6266 19.662 16.8946 19.662C16.5055 19.662 16.1242 19.6181 15.7528 19.5542V31.7017H25.633C25.8155 30.1342 27.1525 28.9184 28.7541 28.9184C30.3557 28.9184 31.6926 30.1338 31.8751 31.7017H39V9.15968H22.588L22.5885 9.16ZM7.79026 14.757L5.11065 20.5849C5.08483 20.646 5.04201 20.6999 4.989 20.7387L1 23.4296V31.702H4.89756C5.07835 30.1345 6.40166 28.9188 8.00328 28.9188C9.6049 28.9188 10.9418 30.1341 11.1243 31.702H15.0219V19.3858C12.8038 18.7409 11.0451 16.9904 10.3937 14.7574H7.79022L7.79026 14.757ZM7.75967 29.6564C6.5458 29.7799 5.61293 30.8114 5.61293 32.0707C5.61293 33.4137 6.6729 34.5 8.00335 34.5C9.3338 34.5 10.4087 33.4134 10.4087 32.0707C10.4087 30.7277 9.33345 29.6564 8.00335 29.6564C7.92009 29.6564 7.84057 29.6482 7.75969 29.6564H7.75967ZM28.5111 29.6564C27.2973 29.7799 26.3491 30.8114 26.3491 32.0707C26.3491 33.4137 27.4243 34.5 28.7544 34.5C30.0848 34.5 31.1597 33.4134 31.1597 32.0707C31.1597 30.7277 30.0845 29.6564 28.7544 29.6564C28.6711 29.6564 28.5916 29.6482 28.5107 29.6564H28.5111Z" fill="#9986F0"/>
</svg>
