<svg width="16" height="16" viewBox="0 0 16 16" fill="none" xmlns="http://www.w3.org/2000/svg">
<g clip-path="url(#clip0_5419_29703)">
<path d="M8 0.666748V15.3334" stroke="#6D6C73" stroke-width="2" stroke-linecap="round" stroke-linejoin="round"/>
<path d="M11.3333 3.33325H6.33333C5.71449 3.33325 5.121 3.57908 4.68342 4.01667C4.24583 4.45425 4 5.04775 4 5.66659C4 6.28542 4.24583 6.87892 4.68342 7.3165C5.121 7.75409 5.71449 7.99992 6.33333 7.99992H9.66667C10.2855 7.99992 10.879 8.24575 11.3166 8.68334C11.7542 9.12092 12 9.71441 12 10.3333C12 10.9521 11.7542 11.5456 11.3166 11.9832C10.879 12.4208 10.2855 12.6666 9.66667 12.6666H4" stroke="#6D6C73" stroke-width="2" stroke-linecap="round" stroke-linejoin="round"/>
</g>
<defs>
<clipPath id="clip0_5419_29703">
<rect width="16" height="16" fill="white"/>
</clipPath>
</defs>
</svg>
