<svg width="40" height="40" viewBox="0 0 40 40" fill="none" xmlns="http://www.w3.org/2000/svg">
<path d="M25.7458 22.4242H16.0052C16.2354 21.1624 16.57 19.2898 16.8712 17.4712C17.3927 14.3195 15.0981 13.8347 14.1761 16.3043C13.1198 19.1345 10.5092 22.4242 10.5092 22.4242V35.4438H23.7899C24.692 35.4438 25.4237 34.715 25.4237 33.8163C25.4237 32.9169 24.6921 32.1889 23.7899 32.1889H24.233C25.135 32.1889 25.8667 31.46 25.8667 30.5614C25.8667 29.6619 25.1351 28.9339 24.233 28.9339H24.6761C25.5781 28.9339 26.3098 28.2051 26.3098 27.3064C26.3098 26.407 25.5782 25.679 24.6761 25.679H25.7449C26.6469 25.679 27.3786 24.9502 27.3786 24.0515C27.3792 23.1523 26.6475 22.4243 25.7455 22.4243L25.7458 22.4242Z" fill="#6D6C73"/>
<path d="M8.84064 21.8691H3.83446C3.37295 21.8691 3 22.2415 3 22.7004V35.1679C3 35.6276 3.37295 35.9992 3.83446 35.9992H8.84064C9.30215 35.9992 9.6751 35.6276 9.6751 35.1679V22.7004C9.6751 22.2407 9.30216 21.8691 8.84064 21.8691ZM6.33755 34.5447C5.37293 34.5447 4.59039 33.7652 4.59039 32.8042C4.59039 31.8432 5.37286 31.0637 6.33755 31.0637C7.30224 31.0637 8.08471 31.8432 8.08471 32.8042C8.08471 33.7648 7.30224 34.5447 6.33755 34.5447Z" fill="#6D6C73"/>
<path d="M36.1651 4H21.7723C21.3108 4 20.9379 4.37236 20.9379 4.83126V14.251C20.9379 14.7099 21.3108 15.0822 21.7723 15.0822H22.9504L21.9807 17.7836L28.0298 15.0822H36.1648C36.6263 15.0822 36.9993 14.7099 36.9993 14.251V4.83126C36.9993 4.37264 36.6263 4.00029 36.1651 4.00029V4ZM29.49 12.9517H23.6237V11.9128H29.49V12.9517ZM34.3135 10.0599H23.6238V9.02105H34.3142V10.0599H34.3135ZM34.3135 7.16931H23.6238V6.13045H34.3142V7.16931H34.3135Z" fill="#6D6C73"/>
</svg>
