<svg width="40" height="41" viewBox="0 0 40 41" fill="none" xmlns="http://www.w3.org/2000/svg">
<path d="M25.7463 22.9242H16.0057C16.2359 21.6624 16.5706 19.7898 16.8717 17.9712C17.3933 14.8195 15.0986 14.3347 14.1767 16.8043C13.1203 19.6345 10.5098 22.9242 10.5098 22.9242V35.9438H23.7905C24.6925 35.9438 25.4242 35.215 25.4242 34.3163C25.4242 33.4169 24.6926 32.6889 23.7905 32.6889H24.2335C25.1356 32.6889 25.8673 31.96 25.8673 31.0614C25.8673 30.1619 25.1356 29.4339 24.2335 29.4339H24.6766C25.5786 29.4339 26.3103 28.7051 26.3103 27.8064C26.3103 26.907 25.5787 26.179 24.6766 26.179H25.7454C26.6475 26.179 27.3791 25.4502 27.3791 24.5515C27.3797 23.6523 26.648 22.9243 25.746 22.9243L25.7463 22.9242Z" fill="#9986F0"/>
<path d="M8.84064 22.3691H3.83446C3.37295 22.3691 3 22.7415 3 23.2004V35.6679C3 36.1276 3.37295 36.4992 3.83446 36.4992H8.84064C9.30215 36.4992 9.6751 36.1276 9.6751 35.6679V23.2004C9.6751 22.7407 9.30216 22.3691 8.84064 22.3691ZM6.33755 35.0447C5.37293 35.0447 4.59039 34.2652 4.59039 33.3042C4.59039 32.3432 5.37286 31.5637 6.33755 31.5637C7.30224 31.5637 8.08471 32.3432 8.08471 33.3042C8.08471 34.2648 7.30224 35.0447 6.33755 35.0447Z" fill="#9986F0"/>
<path d="M36.1647 4.5H21.772C21.3105 4.5 20.9375 4.87236 20.9375 5.33126V14.751C20.9375 15.2099 21.3104 15.5822 21.772 15.5822H22.9501L21.9804 18.2836L28.0294 15.5822H36.1645C36.626 15.5822 36.9989 15.2099 36.9989 14.751V5.33126C36.9989 4.87264 36.626 4.50029 36.1647 4.50029V4.5ZM29.4896 13.4517H23.6233V12.4128H29.4896V13.4517ZM34.3131 10.5599H23.6235V9.52105H34.3138V10.5599H34.3131ZM34.3131 7.66931H23.6235V6.63045H34.3138V7.66931H34.3131Z" fill="#9986F0"/>
</svg>
