<svg width="40" height="41" viewBox="0 0 40 41" fill="none" xmlns="http://www.w3.org/2000/svg">
<path d="M14.8141 28.9104L10.2473 24.1334C9.98507 23.8497 9.79026 23.627 9.45468 23.627C9.12011 23.627 8.93799 23.8168 8.66305 24.1334L4.09576 28.9104C3.95397 29.1944 3.97224 29.5357 4.1333 29.8076C4.29285 30.0819 4.57974 30.2476 4.8874 30.2476H7.6365V34.6614C7.6365 35.6774 8.45072 36.5004 9.45469 36.5004C10.4587 36.5004 11.2729 35.6774 11.2729 34.6614V30.2476H14.023C14.3299 30.2476 14.6176 30.0816 14.7771 29.8076C14.8634 29.6614 14.9093 29.4933 14.9093 29.3253C14.9093 29.1831 14.8771 29.0413 14.8142 28.9104L14.8141 28.9104Z" fill="#9986F0"/>
<path d="M25.3593 24.4962L20.7923 19.7194C20.5302 19.4356 20.3352 19.2129 19.9996 19.2129C19.665 19.2129 19.4829 19.4027 19.208 19.7194L14.6407 24.4962C14.4989 24.7802 14.5172 25.1214 14.6782 25.3934C14.8378 25.6676 15.1247 25.8336 15.4323 25.8336H18.1814V34.6612C18.1814 35.6772 18.9956 36.5003 19.9996 36.5003C21.0041 36.5003 21.8178 35.6772 21.8178 34.6612V25.8336H24.5679C24.8749 25.8336 25.1625 25.6676 25.322 25.3936C25.4083 25.2474 25.4542 25.0793 25.4542 24.9113C25.4542 24.7691 25.4222 24.6273 25.3593 24.4961L25.3593 24.4962Z" fill="#9986F0"/>
<path d="M35.9062 9.78327L31.3394 5.00646C31.0771 4.7227 30.8823 4.5 30.5465 4.5C30.2119 4.5 30.0298 4.68986 29.7549 5.00646L25.1876 9.78327C25.0458 10.0673 25.064 10.4085 25.2251 10.6805C25.3846 10.9547 25.6718 11.1207 25.9792 11.1207H28.7283V34.6609C28.7283 35.6769 29.542 36.5 30.5465 36.5C31.551 36.5 32.3647 35.6769 32.3647 34.6609V11.1207H35.1148C35.4217 11.1207 35.7094 10.9547 35.8689 10.6807C35.9554 10.5345 36.0011 10.3664 36.0011 10.1984C36.0011 10.0562 35.9691 9.91436 35.9062 9.78325L35.9062 9.78327Z" fill="#9986F0"/>
</svg>
