<svg width="20" height="20" viewBox="0 0 20 20" fill="none" xmlns="http://www.w3.org/2000/svg">
<path d="M18.6653 12.7632C18.6653 12.7632 18.6653 12.7632 18.6653 12.7632C18.6653 12.7632 18.6653 12.7632 18.6653 12.7632ZM18.6655 12.7634C18.8797 12.9778 19 13.2683 19 13.5713C19 13.5713 19 13.5714 19 13.5714V17.8571C19 17.8572 19 17.8572 19 17.8572C19 18.1602 18.8797 18.4507 18.6655 18.6652C18.6654 18.6652 18.6654 18.6653 18.6653 18.6653C18.6653 18.6654 18.6653 18.6654 18.6652 18.6655L18.6655 12.7634ZM1.33465 1.33467C1.33465 1.33466 1.33466 1.33466 1.33466 1.33466C1.33466 1.33466 1.33465 1.33466 1.33465 1.33467Z" fill="#6D6C73" stroke="#6D6C73" stroke-width="2"/>
<path d="M5.71456 15.7142C5.71456 16.5031 5.07489 17.1428 4.28599 17.1428C3.4971 17.1428 2.85742 16.5031 2.85742 15.7142C2.85742 14.9253 3.4971 14.2856 4.28599 14.2856C5.07489 14.2856 5.71456 14.9253 5.71456 15.7142Z" fill="#6D6C73"/>
<path d="M3.57171 7.14313C3.76112 7.14313 3.94288 7.06787 4.07681 6.93394C4.21074 6.80002 4.28599 6.61825 4.28599 6.42884V3.5717C4.28599 3.31644 4.14983 3.08064 3.92885 2.95309C3.70787 2.82553 3.43554 2.82553 3.21456 2.95309C2.99359 3.08064 2.85742 3.31644 2.85742 3.5717V6.42884C2.85742 6.61825 2.93268 6.80002 3.06661 6.93394C3.20053 7.06787 3.3823 7.14313 3.57171 7.14313Z" fill="#6D6C73"/>
</svg>
