<svg width="20" height="30" viewBox="0 0 20 30" fill="none" xmlns="http://www.w3.org/2000/svg">
<path d="M14.7062 24.0001C15.3709 24.0001 15.9777 23.7654 16.471 23.3845V30L14.7062 28.1999L12.9414 30V23.3845C13.4342 23.7654 14.0415 24.0001 14.7062 24.0001ZM14.7062 19.2002C13.7334 19.2002 12.9414 20.0079 12.9414 21.0002C12.9414 21.9925 13.7333 22.8003 14.7062 22.8003C15.6791 22.8003 16.471 21.9925 16.471 21.0002C16.471 20.0079 15.6791 19.2002 14.7062 19.2002ZM20 0.600575V25.8C20 26.131 19.7366 26.4002 19.4116 26.4002H17.6468V21.0005C17.6468 19.3465 16.3273 18.0006 14.7057 18.0006C13.0841 18.0006 11.7646 19.3465 11.7646 21.0005V26.4002L0.58839 26.3997C0.263838 26.3997 0 26.1311 0 25.7996L0.000410311 0.600157C0.000410311 0.269115 0.263828 0 0.5888 0H19.4119C19.7365 0 19.9999 0.268686 19.9999 0.600157L20 0.600575ZM15.8825 15.0002C15.8825 14.6684 15.6191 14.4001 15.2942 14.4001H4.70616C4.38161 14.4001 4.11777 14.6684 4.11777 15.0002C4.11777 15.3321 4.38119 15.6004 4.70616 15.6004H15.2942C15.6187 15.6004 15.8821 15.3321 15.8821 15.0002H15.8825ZM16.4709 12.6005C16.4709 12.2686 16.2075 12.0004 15.8825 12.0004H4.1181C3.79355 12.0004 3.52971 12.2686 3.52971 12.6005C3.52971 12.9324 3.79313 13.2007 4.1181 13.2007H15.8825C16.2071 13.2003 16.4709 12.932 16.4709 12.6005ZM16.4709 10.2004C16.4709 9.86847 16.2075 9.6002 15.8825 9.6002L4.1181 9.60062C3.79355 9.60062 3.52971 9.86889 3.52971 10.2008C3.52971 10.5327 3.79313 10.8009 4.1181 10.8009H15.8825C16.2071 10.8005 16.4709 10.5322 16.4709 10.2004ZM16.4709 7.80062C16.4709 7.46874 16.2075 7.20047 15.8825 7.20047H4.1181C3.79355 7.20047 3.52971 7.46874 3.52971 7.80062C3.52971 8.13251 3.79313 8.40078 4.1181 8.40078H15.8825C16.2071 8.40036 16.4709 8.13251 16.4709 7.80062Z" fill="#6D6C73"/>
</svg>
