<svg width="20" height="20" viewBox="0 0 20 20" fill="none" xmlns="http://www.w3.org/2000/svg">
<path d="M15.8333 10.8334C16.2936 10.8334 16.6667 10.4603 16.6667 10.0001C16.6667 9.53984 16.2936 9.16675 15.8333 9.16675C15.3731 9.16675 15 9.53984 15 10.0001C15 10.4603 15.3731 10.8334 15.8333 10.8334Z" stroke="#6D6C73" stroke-width="2" stroke-linecap="round" stroke-linejoin="round"/>
<path d="M9.99935 10.8334C10.4596 10.8334 10.8327 10.4603 10.8327 10.0001C10.8327 9.53984 10.4596 9.16675 9.99935 9.16675C9.53911 9.16675 9.16602 9.53984 9.16602 10.0001C9.16602 10.4603 9.53911 10.8334 9.99935 10.8334Z" stroke="#6D6C73" stroke-width="2" stroke-linecap="round" stroke-linejoin="round"/>
<path d="M4.16732 10.8334C4.62755 10.8334 5.00065 10.4603 5.00065 10.0001C5.00065 9.53984 4.62755 9.16675 4.16732 9.16675C3.70708 9.16675 3.33398 9.53984 3.33398 10.0001C3.33398 10.4603 3.70708 10.8334 4.16732 10.8334Z" stroke="#6D6C73" stroke-width="2" stroke-linecap="round" stroke-linejoin="round"/>
</svg>
