<svg width="62" height="28" viewBox="0 0 62 28" fill="none" xmlns="http://www.w3.org/2000/svg">
<rect width="62" height="28" fill="#F7F5FF"/>
<path d="M8.76465 14.5635H6.22168L6.20801 13.2373H8.38867C8.76237 13.2373 9.07454 13.1849 9.3252 13.0801C9.57585 12.9753 9.76497 12.8226 9.89258 12.6221C10.0247 12.4215 10.0908 12.1777 10.0908 11.8906C10.0908 11.5716 10.0293 11.3118 9.90625 11.1113C9.78776 10.9108 9.60091 10.765 9.3457 10.6738C9.09049 10.5781 8.76693 10.5303 8.375 10.5303H6.83008V19H4.9502V9.04688H8.375C8.9401 9.04688 9.44368 9.10156 9.88574 9.21094C10.3324 9.31576 10.7106 9.47982 11.0205 9.70312C11.3304 9.92643 11.5651 10.2067 11.7246 10.5439C11.8887 10.8812 11.9707 11.2822 11.9707 11.7471C11.9707 12.1572 11.875 12.5355 11.6836 12.8818C11.4967 13.2236 11.2074 13.5016 10.8154 13.7158C10.4281 13.93 9.93587 14.0531 9.33887 14.085L8.76465 14.5635ZM8.68262 19H5.66797L6.4541 17.5234H8.68262C9.05632 17.5234 9.36393 17.4619 9.60547 17.3389C9.85156 17.2158 10.0339 17.0472 10.1523 16.833C10.2754 16.6143 10.3369 16.3636 10.3369 16.0811C10.3369 15.7712 10.2822 15.5023 10.1729 15.2744C10.068 15.0465 9.89941 14.8711 9.66699 14.748C9.43913 14.625 9.13835 14.5635 8.76465 14.5635H6.80957L6.82324 13.2373H9.31152L9.74219 13.75C10.3164 13.7546 10.7835 13.8685 11.1436 14.0918C11.5081 14.3151 11.777 14.6022 11.9502 14.9531C12.1234 15.304 12.21 15.6823 12.21 16.0879C12.21 16.7259 12.071 17.2614 11.793 17.6943C11.5195 18.1273 11.1185 18.4531 10.5898 18.6719C10.0658 18.8906 9.43001 19 8.68262 19ZM13.3789 15.377V15.2334C13.3789 14.6911 13.4564 14.1921 13.6113 13.7363C13.7663 13.276 13.9919 12.8773 14.2881 12.54C14.5843 12.2028 14.9466 11.9408 15.375 11.7539C15.8034 11.5625 16.291 11.4668 16.8379 11.4668C17.3939 11.4668 17.8861 11.5625 18.3145 11.7539C18.7474 11.9408 19.112 12.2028 19.4082 12.54C19.7044 12.8773 19.93 13.276 20.085 13.7363C20.2399 14.1921 20.3174 14.6911 20.3174 15.2334V15.377C20.3174 15.9147 20.2399 16.4137 20.085 16.874C19.93 17.3298 19.7044 17.7285 19.4082 18.0703C19.112 18.4076 18.7497 18.6696 18.3213 18.8564C17.8929 19.0433 17.403 19.1367 16.8516 19.1367C16.3047 19.1367 15.8148 19.0433 15.3818 18.8564C14.9489 18.6696 14.5843 18.4076 14.2881 18.0703C13.9919 17.7285 13.7663 17.3298 13.6113 16.874C13.4564 16.4137 13.3789 15.9147 13.3789 15.377ZM15.1836 15.2334V15.377C15.1836 15.7005 15.2155 16.0036 15.2793 16.2861C15.3431 16.5687 15.4411 16.8171 15.5732 17.0312C15.7054 17.2454 15.8763 17.4141 16.0859 17.5371C16.3001 17.6556 16.5553 17.7148 16.8516 17.7148C17.1432 17.7148 17.3939 17.6556 17.6035 17.5371C17.8132 17.4141 17.984 17.2454 18.1162 17.0312C18.2529 16.8171 18.3532 16.5687 18.417 16.2861C18.4808 16.0036 18.5127 15.7005 18.5127 15.377V15.2334C18.5127 14.9144 18.4808 14.6159 18.417 14.3379C18.3532 14.0553 18.2529 13.807 18.1162 13.5928C17.984 13.374 17.8109 13.2031 17.5967 13.0801C17.387 12.9525 17.1341 12.8887 16.8379 12.8887C16.5462 12.8887 16.2956 12.9525 16.0859 13.0801C15.8763 13.2031 15.7054 13.374 15.5732 13.5928C15.4411 13.807 15.3431 14.0553 15.2793 14.3379C15.2155 14.6159 15.1836 14.9144 15.1836 15.2334ZM23.5439 8.5V19H21.7324V8.5H23.5439ZM29.7031 17.4277V8.5H31.5215V19H29.8809L29.7031 17.4277ZM24.9521 15.3906V15.2471C24.9521 14.682 25.016 14.1693 25.1436 13.709C25.2757 13.2441 25.4671 12.8454 25.7178 12.5127C25.9684 12.18 26.2715 11.9225 26.627 11.7402C26.987 11.5579 27.3949 11.4668 27.8506 11.4668C28.2926 11.4668 28.6777 11.5557 29.0059 11.7334C29.3385 11.9111 29.6211 12.1641 29.8535 12.4922C30.0905 12.8203 30.2796 13.21 30.4209 13.6611C30.5622 14.1077 30.6647 14.5999 30.7285 15.1377V15.5273C30.6647 16.0514 30.5622 16.5322 30.4209 16.9697C30.2796 17.4072 30.0905 17.79 29.8535 18.1182C29.6211 18.4417 29.3385 18.6924 29.0059 18.8701C28.6732 19.0479 28.2835 19.1367 27.8369 19.1367C27.3857 19.1367 26.9801 19.0433 26.6201 18.8564C26.2646 18.6696 25.9616 18.4076 25.7109 18.0703C25.4648 17.7331 25.2757 17.3366 25.1436 16.8809C25.016 16.4251 24.9521 15.9284 24.9521 15.3906ZM26.7637 15.2471V15.3906C26.7637 15.7096 26.791 16.0081 26.8457 16.2861C26.9004 16.5641 26.9893 16.8102 27.1123 17.0244C27.2354 17.234 27.3926 17.3981 27.584 17.5166C27.7799 17.6351 28.0169 17.6943 28.2949 17.6943C28.6504 17.6943 28.9421 17.6169 29.1699 17.4619C29.4023 17.3024 29.5824 17.0859 29.71 16.8125C29.8376 16.5345 29.9196 16.2223 29.9561 15.876V14.8027C29.9378 14.5293 29.89 14.2764 29.8125 14.0439C29.7396 13.8115 29.6348 13.611 29.498 13.4424C29.3659 13.2738 29.2018 13.1416 29.0059 13.0459C28.8099 12.9502 28.5775 12.9023 28.3086 12.9023C28.0306 12.9023 27.7936 12.9639 27.5977 13.0869C27.4017 13.2054 27.2422 13.3717 27.1191 13.5859C26.9961 13.8001 26.9049 14.0485 26.8457 14.3311C26.791 14.6136 26.7637 14.9189 26.7637 15.2471Z" fill="#6D6C73"/>
<path d="M43 11.5L48 16.5L53 11.5" stroke="#6D6C73" stroke-width="2" stroke-linecap="round" stroke-linejoin="round"/>
</svg>
