<svg width="40" height="40" viewBox="0 0 40 40" fill="none" xmlns="http://www.w3.org/2000/svg">
<path d="M24.2737 4.00018C18.3558 4.00018 13.5474 8.8158 13.5474 14.743C13.5474 16.9318 14.2198 18.9862 15.363 20.7038C15.7329 20.6364 16.1027 20.5692 16.4726 20.5692L16.6408 20.569L18.3556 20.6026C16.8425 19.0872 15.9346 16.999 15.9346 14.7092C15.9346 10.1294 19.6669 6.39106 24.2735 6.39106C28.88 6.39106 32.5788 10.1292 32.5788 14.7428C32.5788 17.0327 31.6709 19.1208 30.1578 20.6362L30.7294 20.4678C31.032 20.3668 31.3684 20.2994 31.7044 20.2994C32.2087 20.2994 32.7132 20.434 33.184 20.6698C34.3272 18.986 34.9996 16.9317 34.9996 14.7428C34.9998 8.81562 30.1578 4 24.2733 4L24.2737 4.00018Z" fill="#6D6C73"/>
<path d="M29.4526 13.8001C29.9233 13.3622 29.6543 12.5877 29.0492 12.5203L26.3927 12.2173C26.2245 12.1837 26.0901 12.1162 26.0228 11.9478L24.9132 9.5231C24.6442 8.95063 23.8371 8.95063 23.5683 9.5231L22.4587 11.9478C22.3914 12.0824 22.257 12.1837 22.0888 12.2173L19.4661 12.5203C18.8272 12.5877 18.5919 13.3622 19.0627 13.8001L21.0129 15.5849C21.1138 15.6859 21.1811 15.8544 21.1473 15.989L20.6093 18.5821C20.4749 19.222 21.1473 19.6934 21.7189 19.3904L24.039 18.077C24.1734 18.0096 24.3416 18.0096 24.4762 18.077L26.7964 19.3904C27.3344 19.6934 28.0069 19.222 27.906 18.5821L27.368 15.989C27.3344 15.8205 27.4015 15.6859 27.5024 15.5511L29.4526 13.8001Z" fill="#6D6C73"/>
<path d="M5.14161 31.1766C4.90612 31.4797 4.97344 31.9175 5.276 32.1531L10.2861 35.8577C10.5887 36.0935 11.0259 36.0261 11.2276 35.7231L13.2114 33.0289L7.15899 28.4824L5.14161 31.1766Z" fill="#6D6C73"/>
<path d="M31.2686 22.0514L26.7291 23.4994V23.8024C26.6618 25.1158 25.7541 26.2272 24.4763 26.5302L24.1737 26.5976C22.4925 26.9681 20.8112 27.2037 19.0964 27.2711L17.7177 27.3385C17.247 27.3721 16.8771 27.0016 16.8436 26.564C16.81 26.0925 17.1799 25.7221 17.6169 25.6885L18.9955 25.621C20.6095 25.5536 22.1898 25.3516 23.7703 24.9811L24.0728 24.9137C24.6109 24.7791 25.0143 24.3077 25.0478 23.7688C25.0478 23.4319 24.947 23.1289 24.7115 22.8594C24.476 22.6236 24.1734 22.489 23.8373 22.4554L16.5407 22.2534C15.7337 22.2198 14.9604 22.4892 14.2879 22.9607L8.36981 27.3723L14.624 32.0197L20.7437 32.5586C21.8198 32.6596 22.8621 32.3227 23.7027 31.683L32.6133 24.5773C32.9496 24.3078 33.1176 23.9374 33.1513 23.5334C33.1849 23.1293 33.0505 22.7251 32.7479 22.4221C32.3442 22.0178 31.7727 21.8829 31.2684 22.0514L31.2686 22.0514Z" fill="#6D6C73"/>
</svg>
