<svg width="40" height="41" viewBox="0 0 40 41" fill="none" xmlns="http://www.w3.org/2000/svg">
<path d="M24.2736 4.50018C18.3558 4.50018 13.5474 9.3158 13.5474 15.243C13.5474 17.4318 14.2198 19.4862 15.363 21.2038C15.7329 21.1364 16.1027 21.0692 16.4726 21.0692L16.6408 21.069L18.3556 21.1026C16.8425 19.5872 15.9346 17.499 15.9346 15.2092C15.9346 10.6294 19.6669 6.89106 24.2735 6.89106C28.88 6.89106 32.5788 10.6292 32.5788 15.2428C32.5788 17.5327 31.6709 19.6208 30.1578 21.1362L30.7294 20.9678C31.032 20.8668 31.3684 20.7994 31.7044 20.7994C32.2087 20.7994 32.7132 20.934 33.184 21.1698C34.3272 19.486 34.9996 17.4317 34.9996 15.2428C34.9998 9.31562 30.1578 4.5 24.2733 4.5L24.2736 4.50018Z" fill="#9986F0"/>
<path d="M29.4524 14.3001C29.9231 13.8622 29.6541 13.0877 29.049 13.0203L26.3925 12.7173C26.2243 12.6837 26.0899 12.6162 26.0226 12.4478L24.913 10.0231C24.644 9.45063 23.8369 9.45063 23.5681 10.0231L22.4585 12.4478C22.3912 12.5824 22.2568 12.6837 22.0886 12.7173L19.4659 13.0203C18.827 13.0877 18.5917 13.8622 19.0625 14.3001L21.0127 16.0849C21.1136 16.1859 21.1809 16.3544 21.1471 16.489L20.6091 19.0821C20.4747 19.722 21.1471 20.1934 21.7187 19.8904L24.0388 18.577C24.1732 18.5096 24.3414 18.5096 24.476 18.577L26.7962 19.8904C27.3342 20.1934 28.0067 19.722 27.9058 19.0821L27.3678 16.489C27.3342 16.3205 27.4013 16.1859 27.5022 16.0511L29.4524 14.3001Z" fill="#9986F0"/>
<path d="M5.14161 31.6766C4.90612 31.9797 4.97344 32.4175 5.276 32.6531L10.2861 36.3577C10.5887 36.5935 11.0259 36.5261 11.2276 36.2231L13.2114 33.5289L7.15899 28.9824L5.14161 31.6766Z" fill="#9986F0"/>
<path d="M31.2684 22.5514L26.7289 23.9994V24.3024C26.6616 25.6158 25.7539 26.7272 24.4761 27.0302L24.1735 27.0976C22.4923 27.4681 20.811 27.7037 19.0962 27.7711L17.7176 27.8385C17.2468 27.8721 16.8769 27.5016 16.8434 27.064C16.8098 26.5925 17.1797 26.2221 17.6167 26.1885L18.9954 26.121C20.6093 26.0536 22.1897 25.8516 23.7701 25.4811L24.0726 25.4137C24.6107 25.2791 25.0141 24.8077 25.0476 24.2688C25.0476 23.9319 24.9468 23.6289 24.7113 23.3594C24.4758 23.1236 24.1732 22.989 23.8371 22.9554L16.5406 22.7534C15.7335 22.7198 14.9602 22.9892 14.2877 23.4607L8.36963 27.8723L14.6238 32.5197L20.7435 33.0586C21.8196 33.1596 22.8619 32.8227 23.7026 32.183L32.6131 25.0773C32.9494 24.8078 33.1174 24.4374 33.1511 24.0334C33.1847 23.6293 33.0503 23.2251 32.7477 22.9221C32.3441 22.5178 31.7725 22.3829 31.2682 22.5514L31.2684 22.5514Z" fill="#9986F0"/>
</svg>
