<svg width="40" height="41" viewBox="0 0 40 41" fill="none" xmlns="http://www.w3.org/2000/svg">
<path d="M30.8678 4.5H9.13222C7.96297 4.5 7 5.44316 7 6.58837V34.4116C7 35.5568 7.96297 36.5 9.13222 36.5H30.8678C32.037 36.5 33 35.5568 33 34.4116V6.58837C33 5.44316 32.037 4.5 30.8678 4.5ZM22.545 9.88961C22.545 9.72114 22.6824 9.55267 22.889 9.55267H24.4711C24.6431 9.55267 24.8152 9.68731 24.8152 9.88961V15.818C24.8152 15.9865 24.6777 16.1549 24.4711 16.1549H22.889C22.717 16.1549 22.545 16.0203 22.545 15.818V9.88961ZM18.6243 11.6075C18.6243 11.439 18.7618 11.2705 18.9683 11.2705H20.5505C20.7225 11.2705 20.8945 11.4052 20.8945 11.6075V15.818C20.8945 15.9865 20.757 16.1549 20.5505 16.1549H18.9681C18.7961 16.1549 18.6241 16.0203 18.6241 15.818L18.6243 11.6075ZM14.7037 13.3591C14.7037 13.1906 14.8411 13.0222 15.0477 13.0222H16.6298C16.8018 13.0222 16.9738 13.1568 16.9738 13.3591V15.818C16.9738 15.9865 16.8364 16.1549 16.6298 16.1549H15.0477C14.8757 16.1549 14.7037 16.0203 14.7037 15.818V13.3591ZM26.4656 31.2118H13.5344C13.156 31.2118 12.8466 30.9087 12.8466 30.5382C12.8466 30.1677 13.1561 29.8645 13.5344 29.8645H26.5C26.8783 29.8645 27.1878 30.1677 27.1878 30.5382C27.1878 30.9087 26.844 31.2118 26.4657 31.2118H26.4656ZM26.4656 26.0581H13.5344C13.156 26.0581 12.8466 25.755 12.8466 25.3845C12.8466 25.0139 13.1561 24.7108 13.5344 24.7108H26.5C26.8783 24.7108 27.1878 25.0139 27.1878 25.3845C27.1878 25.755 26.844 26.0581 26.4657 26.0581H26.4656ZM26.4656 20.9383H13.5344C13.156 20.9383 12.8466 20.6352 12.8466 20.2646C12.8466 19.8941 13.1561 19.591 13.5344 19.591H26.5C26.8783 19.591 27.1878 19.8941 27.1878 20.2646C27.1878 20.6349 26.844 20.9383 26.4657 20.9383H26.4656Z" fill="#9986F0"/>
</svg>
