<svg width="40" height="41" viewBox="0 0 40 41" fill="none" xmlns="http://www.w3.org/2000/svg">
<path d="M33.7897 8.88837C33.7939 8.89727 33.8068 8.89727 33.811 8.88837C34.1317 7.84524 34.9487 7.02869 35.9924 6.70816C36.0014 6.70395 36.0014 6.69109 35.9924 6.68689C34.9487 6.36639 34.1317 5.54981 33.811 4.50668C33.8068 4.49777 33.7939 4.49777 33.7897 4.50668C33.469 5.54981 32.652 6.36636 31.6082 6.68689C31.5993 6.69109 31.5993 6.70395 31.6082 6.70816C32.652 7.02865 33.469 7.84524 33.7897 8.88837Z" fill="#9986F0"/>
<path d="M6.18814 11.5485C6.19235 11.5574 6.20522 11.5574 6.20942 11.5485C6.53011 10.5054 7.34716 9.68884 8.39089 9.36831C8.39979 9.36411 8.39979 9.35125 8.39089 9.34704C7.34716 9.02655 6.53014 8.20996 6.20942 7.16683C6.20522 7.15793 6.19235 7.15793 6.18814 7.16683C5.86746 8.20996 5.05041 9.02651 4.00668 9.34704C3.99777 9.35125 3.99777 9.36411 4.00668 9.36831C5.05041 9.68881 5.86743 10.5054 6.18814 11.5485Z" fill="#9986F0"/>
<path d="M34.9887 20.9902C34.6693 20.9902 34.3775 21.1705 34.2348 21.4561L31.6963 26.5297L30.0335 28.1916L27.8164 29.2995L29.5413 26.2831C29.7168 25.9673 29.7197 25.5843 29.5492 25.2658C29.379 24.9475 29.0583 24.7373 28.6983 24.7076C28.3382 24.6782 27.9876 24.8335 27.7677 25.1199L25.0451 28.7455L23.9366 32.0692L23.3823 36.5008H28.3707V34.3238C28.3707 33.9534 28.556 33.6074 28.8646 33.4019L31.6963 31.5153L33.9134 28.1916L35.7946 22.0811C35.8733 21.8254 35.8261 21.5474 35.667 21.3323C35.5081 21.1171 35.2562 20.9903 34.9887 20.9903L34.9887 20.9902Z" fill="#9986F0"/>
<path d="M5.12252 20.9903C4.85503 20.9903 4.60314 21.1171 4.44429 21.3323C4.28518 21.5474 4.23792 21.8254 4.31661 22.0811L6.19788 28.1916L8.41494 31.5153L11.2466 33.4019C11.5552 33.6074 11.7405 33.9534 11.7405 34.3238V36.5008H16.7289L16.1747 32.0692L15.0661 28.7455L12.344 25.1182C12.124 24.8318 11.7737 24.6765 11.4134 24.7062C11.0534 24.7356 10.7327 24.9458 10.5624 25.2643C10.392 25.5826 10.3949 25.9659 10.5704 26.2814L12.2948 29.2995L10.0777 28.1916L8.41494 26.5297L5.87646 21.4561C5.73369 21.1705 5.44196 20.9902 5.12254 20.9902L5.12252 20.9903Z" fill="#9986F0"/>
<path d="M16.4139 23.4863C16.3785 23.2226 16.3258 22.7661 16.2875 22.1827C16.2558 21.6288 16.2427 20.968 16.2692 20.2494C15.2777 18.9785 14.2931 17.7012 13.412 16.3101C14.4651 16.9687 15.4516 17.6982 16.4216 18.4438L16.4219 18.4441C16.6035 16.9427 17.0504 15.4854 17.7415 14.1401C14.4785 11.5791 9.31664 12.2013 9.31664 12.2013C9.31664 12.2013 8.60819 18.0603 11.7777 21.2278V21.2275C13.0642 22.4245 14.6782 23.2106 16.414 23.4861L16.4139 23.4863Z" fill="#9986F0"/>
<path d="M17.3953 22.1117C18.5565 20.9744 19.7987 19.942 21.0535 18.8743C22.5854 17.6678 24.0948 16.4498 25.7647 15.3845V15.3847C24.6827 17.0132 23.517 18.5848 22.2728 20.0933C21.2282 21.3236 20.2065 22.565 19.0581 23.7132C21.3333 23.8411 25.6402 23.69 28.2291 21.103C31.8512 17.4831 30.6902 10.4407 30.6902 10.4407C30.6902 10.4409 23.6406 9.27985 20.0071 12.902C17.4065 15.4989 17.2675 19.8615 17.3954 22.1121L17.3953 22.1117Z" fill="#9986F0"/>
</svg>
