<svg width="40" height="41" viewBox="0 0 40 41" fill="none" xmlns="http://www.w3.org/2000/svg">
<path d="M36.0699 4.50004H3.93049C2.81405 4.55673 1.95272 5.49993 2.00202 6.61164V28.6259C1.9527 29.7378 2.81399 30.6808 3.93049 30.7375H7.14443V28.1777C7.14443 27.8244 7.43228 27.5378 7.78716 27.5378C8.14227 27.5378 8.42989 27.8244 8.42989 28.1777V36.4237C8.42989 36.475 8.44693 36.4962 8.45343 36.5L13.381 31.0106C13.4111 30.9671 13.4465 30.9276 13.4866 30.893L16.3082 27.7496C16.5456 27.4869 16.9521 27.4655 17.2162 27.7018C17.4803 27.9382 17.5015 28.3431 17.2641 28.6057L15.339 30.7374H36.0695C37.1859 30.6807 38.0473 29.7378 37.998 28.6258V6.6116C38.0473 5.49989 37.186 4.55668 36.0695 4.5L36.0699 4.50004ZM13.407 16.4251L11.596 18.4266L11.8505 21.0776C11.8718 21.3017 11.7731 21.5205 11.5909 21.6539C11.4086 21.7872 11.1694 21.8153 10.9609 21.728L8.42961 20.667L5.89835 21.728C5.68986 21.8153 5.45065 21.7872 5.26836 21.6539C5.0861 21.5207 4.98768 21.3017 5.00898 21.0776L5.26343 18.4266L3.45244 16.4251C3.29932 16.2557 3.2482 16.018 3.31815 15.8012C3.38833 15.5843 3.56879 15.4207 3.79231 15.372L6.47852 14.7846L7.88037 12.4866C8.00547 12.3074 8.2106 12.2007 8.42963 12.2007C8.64888 12.2007 8.85401 12.3074 8.97889 12.4866L10.381 14.7846L13.067 15.372C13.2907 15.4207 13.4712 15.5843 13.5413 15.8012C13.6113 16.018 13.5602 16.2557 13.407 16.4251H13.407ZM24.9772 16.4251L23.1662 18.4266L23.4209 21.0776C23.4419 21.3017 23.3435 21.5205 23.1613 21.6539C22.979 21.7872 22.7398 21.8153 22.5313 21.728L20 20.667L17.4687 21.728C17.2603 21.8153 17.021 21.7872 16.8388 21.6539C16.6565 21.5207 16.5579 21.3017 16.5792 21.0776L16.8338 18.4266L15.0228 16.4251C14.8697 16.2557 14.8184 16.018 14.8885 15.8012C14.9585 15.5843 15.1392 15.4207 15.3627 15.372L18.0487 14.7846L19.4508 12.4866C19.5759 12.3074 19.781 12.2007 20 12.2007C20.2191 12.2007 20.4242 12.3074 20.5493 12.4866L21.9514 14.7846L24.6374 15.372C24.8609 15.4207 25.0416 15.5843 25.1115 15.8012C25.1817 16.018 25.1303 16.2557 24.9772 16.4251H24.9772ZM36.5474 16.4251L34.7364 18.4266L34.9908 21.0776C35.0121 21.3017 34.9137 21.5205 34.7314 21.6539C34.5492 21.7872 34.31 21.8153 34.1014 21.728L31.5702 20.667L29.0389 21.728C28.8304 21.8153 28.591 21.7872 28.4088 21.6539C28.2265 21.5207 28.1281 21.3017 28.1494 21.0776L28.4038 18.4266L26.5928 16.4251C26.4397 16.2557 26.3886 16.018 26.4585 15.8012C26.5287 15.5843 26.7092 15.4207 26.9329 15.372L29.6189 14.7846L31.021 12.4866C31.1459 12.3074 31.351 12.2007 31.5702 12.2007C31.7893 12.2007 31.9944 12.3074 32.1195 12.4866L33.5214 14.7846L36.2076 15.372C36.4311 15.4207 36.6116 15.5843 36.6817 15.8012C36.7517 16.018 36.7006 16.2557 36.5474 16.4251H36.5474Z" fill="#9986F0"/>
</svg>
