<svg width="165" height="36" viewBox="0 0 165 36" fill="none" xmlns="http://www.w3.org/2000/svg">
<g filter="url(#filter0_d_2632_29606)">
<g filter="url(#filter1_d_2632_29606)">
<rect x="4" y="4" width="157" height="26" rx="4" fill="white"/>
</g>
<path d="M35.5371 18.8438C35.5371 18.6445 35.5059 18.4688 35.4434 18.3164C35.3848 18.1602 35.2793 18.0195 35.127 17.8945C34.9785 17.7695 34.7715 17.6504 34.5059 17.5371C34.2441 17.4238 33.9121 17.3086 33.5098 17.1914C33.0879 17.0664 32.707 16.9277 32.3672 16.7754C32.0273 16.6191 31.7363 16.4414 31.4941 16.2422C31.252 16.043 31.0664 15.8145 30.9375 15.5566C30.8086 15.2988 30.7441 15.0039 30.7441 14.6719C30.7441 14.3398 30.8125 14.0332 30.9492 13.752C31.0859 13.4707 31.2812 13.2266 31.5352 13.0195C31.793 12.8086 32.0996 12.6445 32.4551 12.5273C32.8105 12.4102 33.207 12.3516 33.6445 12.3516C34.2852 12.3516 34.8281 12.4746 35.2734 12.7207C35.7227 12.9629 36.0645 13.2812 36.2988 13.6758C36.5332 14.0664 36.6504 14.4844 36.6504 14.9297H35.5254C35.5254 14.6094 35.457 14.3262 35.3203 14.0801C35.1836 13.8301 34.9766 13.6348 34.6992 13.4941C34.4219 13.3496 34.0703 13.2773 33.6445 13.2773C33.2422 13.2773 32.9102 13.3379 32.6484 13.459C32.3867 13.5801 32.1914 13.7441 32.0625 13.9512C31.9375 14.1582 31.875 14.3945 31.875 14.6602C31.875 14.8398 31.9121 15.0039 31.9863 15.1523C32.0645 15.2969 32.1836 15.4316 32.3438 15.5566C32.5078 15.6816 32.7148 15.7969 32.9648 15.9023C33.2188 16.0078 33.5215 16.1094 33.873 16.207C34.3574 16.3438 34.7754 16.4961 35.127 16.6641C35.4785 16.832 35.7676 17.0215 35.9941 17.2324C36.2246 17.4395 36.3945 17.6758 36.5039 17.9414C36.6172 18.2031 36.6738 18.5 36.6738 18.832C36.6738 19.1797 36.6035 19.4941 36.4629 19.7754C36.3223 20.0566 36.1211 20.2969 35.8594 20.4961C35.5977 20.6953 35.2832 20.8496 34.916 20.959C34.5527 21.0645 34.1465 21.1172 33.6973 21.1172C33.3027 21.1172 32.9141 21.0625 32.5312 20.9531C32.1523 20.8438 31.8066 20.6797 31.4941 20.4609C31.1855 20.2422 30.9375 19.9727 30.75 19.6523C30.5664 19.3281 30.4746 18.9531 30.4746 18.5273H31.5996C31.5996 18.8203 31.6562 19.0723 31.7695 19.2832C31.8828 19.4902 32.0371 19.6621 32.2324 19.7988C32.4316 19.9355 32.6562 20.0371 32.9062 20.1035C33.1602 20.166 33.4238 20.1973 33.6973 20.1973C34.0918 20.1973 34.4258 20.1426 34.6992 20.0332C34.9727 19.9238 35.1797 19.7676 35.3203 19.5645C35.4648 19.3613 35.5371 19.1211 35.5371 18.8438ZM40.582 21.1172C40.1406 21.1172 39.7402 21.043 39.3809 20.8945C39.0254 20.7422 38.7188 20.5293 38.4609 20.2559C38.207 19.9824 38.0117 19.6582 37.875 19.2832C37.7383 18.9082 37.6699 18.498 37.6699 18.0527V17.8066C37.6699 17.291 37.7461 16.832 37.8984 16.4297C38.0508 16.0234 38.2578 15.6797 38.5195 15.3984C38.7812 15.1172 39.0781 14.9043 39.4102 14.7598C39.7422 14.6152 40.0859 14.543 40.4414 14.543C40.8945 14.543 41.2852 14.6211 41.6133 14.7773C41.9453 14.9336 42.2168 15.1523 42.4277 15.4336C42.6387 15.7109 42.7949 16.0391 42.8965 16.418C42.998 16.793 43.0488 17.2031 43.0488 17.6484V18.1348H38.3145V17.25H41.9648V17.168C41.9492 16.8867 41.8906 16.6133 41.7891 16.3477C41.6914 16.082 41.5352 15.8633 41.3203 15.6914C41.1055 15.5195 40.8125 15.4336 40.4414 15.4336C40.1953 15.4336 39.9688 15.4863 39.7617 15.5918C39.5547 15.6934 39.377 15.8457 39.2285 16.0488C39.0801 16.252 38.9648 16.5 38.8828 16.793C38.8008 17.0859 38.7598 17.4238 38.7598 17.8066V18.0527C38.7598 18.3535 38.8008 18.6367 38.8828 18.9023C38.9688 19.1641 39.0918 19.3945 39.252 19.5938C39.416 19.793 39.6133 19.9492 39.8438 20.0625C40.0781 20.1758 40.3438 20.2324 40.6406 20.2324C41.0234 20.2324 41.3477 20.1543 41.6133 19.998C41.8789 19.8418 42.1113 19.6328 42.3105 19.3711L42.9668 19.8926C42.8301 20.0996 42.6562 20.2969 42.4453 20.4844C42.2344 20.6719 41.9746 20.8242 41.666 20.9414C41.3613 21.0586 41 21.1172 40.582 21.1172ZM48.0527 19.916V16.6523C48.0527 16.4023 48.002 16.1855 47.9004 16.002C47.8027 15.8145 47.6543 15.6699 47.4551 15.5684C47.2559 15.4668 47.0098 15.416 46.7168 15.416C46.4434 15.416 46.2031 15.4629 45.9961 15.5566C45.793 15.6504 45.6328 15.7734 45.5156 15.9258C45.4023 16.0781 45.3457 16.2422 45.3457 16.418H44.2617C44.2617 16.1914 44.3203 15.9668 44.4375 15.7441C44.5547 15.5215 44.7227 15.3203 44.9414 15.1406C45.1641 14.957 45.4297 14.8125 45.7383 14.707C46.0508 14.5977 46.3984 14.543 46.7812 14.543C47.2422 14.543 47.6484 14.6211 48 14.7773C48.3555 14.9336 48.6328 15.1699 48.832 15.4863C49.0352 15.7988 49.1367 16.1914 49.1367 16.6641V19.6172C49.1367 19.8281 49.1543 20.0527 49.1895 20.291C49.2285 20.5293 49.2852 20.7344 49.3594 20.9062V21H48.2285C48.1738 20.875 48.1309 20.709 48.0996 20.502C48.0684 20.291 48.0527 20.0957 48.0527 19.916ZM48.2402 17.1562L48.252 17.918H47.1562C46.8477 17.918 46.5723 17.9434 46.3301 17.9941C46.0879 18.041 45.8848 18.1133 45.7207 18.2109C45.5566 18.3086 45.4316 18.4316 45.3457 18.5801C45.2598 18.7246 45.2168 18.8945 45.2168 19.0898C45.2168 19.2891 45.2617 19.4707 45.3516 19.6348C45.4414 19.7988 45.5762 19.9297 45.7559 20.0273C45.9395 20.1211 46.1641 20.168 46.4297 20.168C46.7617 20.168 47.0547 20.0977 47.3086 19.957C47.5625 19.8164 47.7637 19.6445 47.9121 19.4414C48.0645 19.2383 48.1465 19.041 48.1582 18.8496L48.6211 19.3711C48.5938 19.5352 48.5195 19.7168 48.3984 19.916C48.2773 20.1152 48.1152 20.3066 47.9121 20.4902C47.7129 20.6699 47.4746 20.8203 47.1973 20.9414C46.9238 21.0586 46.6152 21.1172 46.2715 21.1172C45.8418 21.1172 45.4648 21.0332 45.1406 20.8652C44.8203 20.6973 44.5703 20.4727 44.3906 20.1914C44.2148 19.9062 44.127 19.5879 44.127 19.2363C44.127 18.8965 44.1934 18.5977 44.3262 18.3398C44.459 18.0781 44.6504 17.8613 44.9004 17.6895C45.1504 17.5137 45.4512 17.3809 45.8027 17.291C46.1543 17.2012 46.5469 17.1562 46.9805 17.1562H48.2402ZM51.9258 15.6562V21H50.8418V14.6602H51.8965L51.9258 15.6562ZM53.9062 14.625L53.9004 15.6328C53.8105 15.6133 53.7246 15.6016 53.6426 15.5977C53.5645 15.5898 53.4746 15.5859 53.373 15.5859C53.123 15.5859 52.9023 15.625 52.7109 15.7031C52.5195 15.7812 52.3574 15.8906 52.2246 16.0312C52.0918 16.1719 51.9863 16.3398 51.9082 16.5352C51.834 16.7266 51.7852 16.9375 51.7617 17.168L51.457 17.3438C51.457 16.9609 51.4941 16.6016 51.5684 16.2656C51.6465 15.9297 51.7656 15.6328 51.9258 15.375C52.0859 15.1133 52.2891 14.9102 52.5352 14.7656C52.7852 14.6172 53.082 14.543 53.4258 14.543C53.5039 14.543 53.5938 14.5527 53.6953 14.5723C53.7969 14.5879 53.8672 14.6055 53.9062 14.625ZM57.3281 20.2266C57.5859 20.2266 57.8242 20.1738 58.043 20.0684C58.2617 19.9629 58.4414 19.8184 58.582 19.6348C58.7227 19.4473 58.8027 19.2344 58.8223 18.9961H59.8535C59.834 19.3711 59.707 19.7207 59.4727 20.0449C59.2422 20.3652 58.9395 20.625 58.5645 20.8242C58.1895 21.0195 57.7773 21.1172 57.3281 21.1172C56.8516 21.1172 56.4355 21.0332 56.0801 20.8652C55.7285 20.6973 55.4355 20.4668 55.2012 20.1738C54.9707 19.8809 54.7969 19.5449 54.6797 19.166C54.5664 18.7832 54.5098 18.3789 54.5098 17.9531V17.707C54.5098 17.2812 54.5664 16.8789 54.6797 16.5C54.7969 16.1172 54.9707 15.7793 55.2012 15.4863C55.4355 15.1934 55.7285 14.9629 56.0801 14.7949C56.4355 14.627 56.8516 14.543 57.3281 14.543C57.8242 14.543 58.2578 14.6445 58.6289 14.8477C59 15.0469 59.291 15.3203 59.502 15.668C59.7168 16.0117 59.834 16.4023 59.8535 16.8398H58.8223C58.8027 16.5781 58.7285 16.3418 58.5996 16.1309C58.4746 15.9199 58.3027 15.752 58.084 15.627C57.8691 15.498 57.6172 15.4336 57.3281 15.4336C56.9961 15.4336 56.7168 15.5 56.4902 15.6328C56.2676 15.7617 56.0898 15.9375 55.957 16.1602C55.8281 16.3789 55.7344 16.623 55.6758 16.8926C55.6211 17.1582 55.5938 17.4297 55.5938 17.707V17.9531C55.5938 18.2305 55.6211 18.5039 55.6758 18.7734C55.7305 19.043 55.8223 19.2871 55.9512 19.5059C56.084 19.7246 56.2617 19.9004 56.4844 20.0332C56.7109 20.1621 56.9922 20.2266 57.3281 20.2266ZM62.1562 12V21H61.0723V12H62.1562ZM61.8984 17.5898L61.4473 17.5723C61.4512 17.1387 61.5156 16.7383 61.6406 16.3711C61.7656 16 61.9414 15.6777 62.168 15.4043C62.3945 15.1309 62.6641 14.9199 62.9766 14.7715C63.293 14.6191 63.6426 14.543 64.0254 14.543C64.3379 14.543 64.6191 14.5859 64.8691 14.6719C65.1191 14.7539 65.332 14.8867 65.5078 15.0703C65.6875 15.2539 65.8242 15.4922 65.918 15.7852C66.0117 16.0742 66.0586 16.4277 66.0586 16.8457V21H64.9688V16.834C64.9688 16.502 64.9199 16.2363 64.8223 16.0371C64.7246 15.834 64.582 15.6875 64.3945 15.5977C64.207 15.5039 63.9766 15.457 63.7031 15.457C63.4336 15.457 63.1875 15.5137 62.9648 15.627C62.7461 15.7402 62.5566 15.8965 62.3965 16.0957C62.2402 16.2949 62.1172 16.5234 62.0273 16.7812C61.9414 17.0352 61.8984 17.3047 61.8984 17.5898ZM71.7422 12V21H70.6582V12H71.7422ZM71.4844 17.5898L71.0332 17.5723C71.0371 17.1387 71.1016 16.7383 71.2266 16.3711C71.3516 16 71.5273 15.6777 71.7539 15.4043C71.9805 15.1309 72.25 14.9199 72.5625 14.7715C72.8789 14.6191 73.2285 14.543 73.6113 14.543C73.9238 14.543 74.2051 14.5859 74.4551 14.6719C74.7051 14.7539 74.918 14.8867 75.0938 15.0703C75.2734 15.2539 75.4102 15.4922 75.5039 15.7852C75.5977 16.0742 75.6445 16.4277 75.6445 16.8457V21H74.5547V16.834C74.5547 16.502 74.5059 16.2363 74.4082 16.0371C74.3105 15.834 74.168 15.6875 73.9805 15.5977C73.793 15.5039 73.5625 15.457 73.2891 15.457C73.0195 15.457 72.7734 15.5137 72.5508 15.627C72.332 15.7402 72.1426 15.8965 71.9824 16.0957C71.8262 16.2949 71.7031 16.5234 71.6133 16.7812C71.5273 17.0352 71.4844 17.3047 71.4844 17.5898ZM79.8984 21.1172C79.457 21.1172 79.0566 21.043 78.6973 20.8945C78.3418 20.7422 78.0352 20.5293 77.7773 20.2559C77.5234 19.9824 77.3281 19.6582 77.1914 19.2832C77.0547 18.9082 76.9863 18.498 76.9863 18.0527V17.8066C76.9863 17.291 77.0625 16.832 77.2148 16.4297C77.3672 16.0234 77.5742 15.6797 77.8359 15.3984C78.0977 15.1172 78.3945 14.9043 78.7266 14.7598C79.0586 14.6152 79.4023 14.543 79.7578 14.543C80.2109 14.543 80.6016 14.6211 80.9297 14.7773C81.2617 14.9336 81.5332 15.1523 81.7441 15.4336C81.9551 15.7109 82.1113 16.0391 82.2129 16.418C82.3145 16.793 82.3652 17.2031 82.3652 17.6484V18.1348H77.6309V17.25H81.2812V17.168C81.2656 16.8867 81.207 16.6133 81.1055 16.3477C81.0078 16.082 80.8516 15.8633 80.6367 15.6914C80.4219 15.5195 80.1289 15.4336 79.7578 15.4336C79.5117 15.4336 79.2852 15.4863 79.0781 15.5918C78.8711 15.6934 78.6934 15.8457 78.5449 16.0488C78.3965 16.252 78.2812 16.5 78.1992 16.793C78.1172 17.0859 78.0762 17.4238 78.0762 17.8066V18.0527C78.0762 18.3535 78.1172 18.6367 78.1992 18.9023C78.2852 19.1641 78.4082 19.3945 78.5684 19.5938C78.7324 19.793 78.9297 19.9492 79.1602 20.0625C79.3945 20.1758 79.6602 20.2324 79.957 20.2324C80.3398 20.2324 80.6641 20.1543 80.9297 19.998C81.1953 19.8418 81.4277 19.6328 81.627 19.3711L82.2832 19.8926C82.1465 20.0996 81.9727 20.2969 81.7617 20.4844C81.5508 20.6719 81.291 20.8242 80.9824 20.9414C80.6777 21.0586 80.3164 21.1172 79.8984 21.1172ZM84.7148 15.6562V21H83.6309V14.6602H84.6855L84.7148 15.6562ZM86.6953 14.625L86.6895 15.6328C86.5996 15.6133 86.5137 15.6016 86.4316 15.5977C86.3535 15.5898 86.2637 15.5859 86.1621 15.5859C85.9121 15.5859 85.6914 15.625 85.5 15.7031C85.3086 15.7812 85.1465 15.8906 85.0137 16.0312C84.8809 16.1719 84.7754 16.3398 84.6973 16.5352C84.623 16.7266 84.5742 16.9375 84.5508 17.168L84.2461 17.3438C84.2461 16.9609 84.2832 16.6016 84.3574 16.2656C84.4355 15.9297 84.5547 15.6328 84.7148 15.375C84.875 15.1133 85.0781 14.9102 85.3242 14.7656C85.5742 14.6172 85.8711 14.543 86.2148 14.543C86.293 14.543 86.3828 14.5527 86.4844 14.5723C86.5859 14.5879 86.6562 14.6055 86.6953 14.625ZM90.2109 21.1172C89.7695 21.1172 89.3691 21.043 89.0098 20.8945C88.6543 20.7422 88.3477 20.5293 88.0898 20.2559C87.8359 19.9824 87.6406 19.6582 87.5039 19.2832C87.3672 18.9082 87.2988 18.498 87.2988 18.0527V17.8066C87.2988 17.291 87.375 16.832 87.5273 16.4297C87.6797 16.0234 87.8867 15.6797 88.1484 15.3984C88.4102 15.1172 88.707 14.9043 89.0391 14.7598C89.3711 14.6152 89.7148 14.543 90.0703 14.543C90.5234 14.543 90.9141 14.6211 91.2422 14.7773C91.5742 14.9336 91.8457 15.1523 92.0566 15.4336C92.2676 15.7109 92.4238 16.0391 92.5254 16.418C92.627 16.793 92.6777 17.2031 92.6777 17.6484V18.1348H87.9434V17.25H91.5938V17.168C91.5781 16.8867 91.5195 16.6133 91.418 16.3477C91.3203 16.082 91.1641 15.8633 90.9492 15.6914C90.7344 15.5195 90.4414 15.4336 90.0703 15.4336C89.8242 15.4336 89.5977 15.4863 89.3906 15.5918C89.1836 15.6934 89.0059 15.8457 88.8574 16.0488C88.709 16.252 88.5938 16.5 88.5117 16.793C88.4297 17.0859 88.3887 17.4238 88.3887 17.8066V18.0527C88.3887 18.3535 88.4297 18.6367 88.5117 18.9023C88.5977 19.1641 88.7207 19.3945 88.8809 19.5938C89.0449 19.793 89.2422 19.9492 89.4727 20.0625C89.707 20.1758 89.9727 20.2324 90.2695 20.2324C90.6523 20.2324 90.9766 20.1543 91.2422 19.998C91.5078 19.8418 91.7402 19.6328 91.9395 19.3711L92.5957 19.8926C92.459 20.0996 92.2852 20.2969 92.0742 20.4844C91.8633 20.6719 91.6035 20.8242 91.2949 20.9414C90.9902 21.0586 90.6289 21.1172 90.2109 21.1172Z" fill="#817E8C"/>
<path d="M17.3333 21.6667C20.2789 21.6667 22.6667 19.2789 22.6667 16.3333C22.6667 13.3878 20.2789 11 17.3333 11C14.3878 11 12 13.3878 12 16.3333C12 19.2789 14.3878 21.6667 17.3333 21.6667Z" stroke="#9F9DA6" stroke-width="2" stroke-linecap="round" stroke-linejoin="round"/>
<path d="M23.9996 23.0001L21.0996 20.1001" stroke="#9F9DA6" stroke-width="2" stroke-linecap="round" stroke-linejoin="round"/>
</g>
<defs>
<filter id="filter0_d_2632_29606" x="0" y="2" width="165" height="34" filterUnits="userSpaceOnUse" color-interpolation-filters="sRGB">
<feFlood flood-opacity="0" result="BackgroundImageFix"/>
<feColorMatrix in="SourceAlpha" type="matrix" values="0 0 0 0 0 0 0 0 0 0 0 0 0 0 0 0 0 0 127 0" result="hardAlpha"/>
<feOffset dy="2"/>
<feGaussianBlur stdDeviation="2"/>
<feComposite in2="hardAlpha" operator="out"/>
<feColorMatrix type="matrix" values="0 0 0 0 0 0 0 0 0 0 0 0 0 0 0 0 0 0 0.04 0"/>
<feBlend mode="normal" in2="BackgroundImageFix" result="effect1_dropShadow_2632_29606"/>
<feBlend mode="normal" in="SourceGraphic" in2="effect1_dropShadow_2632_29606" result="shape"/>
</filter>
<filter id="filter1_d_2632_29606" x="0" y="0" width="165" height="34" filterUnits="userSpaceOnUse" color-interpolation-filters="sRGB">
<feFlood flood-opacity="0" result="BackgroundImageFix"/>
<feColorMatrix in="SourceAlpha" type="matrix" values="0 0 0 0 0 0 0 0 0 0 0 0 0 0 0 0 0 0 127 0" result="hardAlpha"/>
<feOffset/>
<feGaussianBlur stdDeviation="2"/>
<feComposite in2="hardAlpha" operator="out"/>
<feColorMatrix type="matrix" values="0 0 0 0 0 0 0 0 0 0 0 0 0 0 0 0 0 0 0.04 0"/>
<feBlend mode="normal" in2="BackgroundImageFix" result="effect1_dropShadow_2632_29606"/>
<feBlend mode="normal" in="SourceGraphic" in2="effect1_dropShadow_2632_29606" result="shape"/>
</filter>
</defs>
</svg>
