<svg width="14" height="14" viewBox="0 0 14 14" fill="none" xmlns="http://www.w3.org/2000/svg">
<path d="M7 8.75C7.9665 8.75 8.75 7.9665 8.75 7C8.75 6.0335 7.9665 5.25 7 5.25C6.0335 5.25 5.25 6.0335 5.25 7C5.25 7.9665 6.0335 8.75 7 8.75Z" stroke="#6D6C73" stroke-linecap="round" stroke-linejoin="round"/>
<path d="M11.3173 8.75016C11.2397 8.92611 11.2165 9.12128 11.2508 9.31051C11.2851 9.49974 11.3753 9.67435 11.5098 9.81183L11.5448 9.84683C11.6533 9.95518 11.7393 10.0839 11.7981 10.2255C11.8568 10.3671 11.887 10.5189 11.887 10.6722C11.887 10.8256 11.8568 10.9774 11.7981 11.119C11.7393 11.2606 11.6533 11.3893 11.5448 11.4977C11.4365 11.6061 11.3078 11.6922 11.1662 11.7509C11.0245 11.8096 10.8727 11.8398 10.7194 11.8398C10.5661 11.8398 10.4143 11.8096 10.2726 11.7509C10.131 11.6922 10.0023 11.6061 9.89398 11.4977L9.85898 11.4627C9.7215 11.3282 9.54689 11.238 9.35766 11.2037C9.16843 11.1693 8.97326 11.1925 8.79732 11.2702C8.62479 11.3441 8.47764 11.4669 8.374 11.6234C8.27035 11.7799 8.21473 11.9633 8.21398 12.151V12.2502C8.21398 12.5596 8.09107 12.8563 7.87228 13.0751C7.65348 13.2939 7.35674 13.4168 7.04732 13.4168C6.7379 13.4168 6.44115 13.2939 6.22236 13.0751C6.00357 12.8563 5.88065 12.5596 5.88065 12.2502V12.1977C5.87613 12.0046 5.81364 11.8173 5.70128 11.6602C5.58893 11.5031 5.43191 11.3835 5.25065 11.3168C5.07471 11.2392 4.87954 11.216 4.69031 11.2503C4.50108 11.2846 4.32646 11.3748 4.18898 11.5093L4.15398 11.5443C4.04563 11.6528 3.91696 11.7389 3.77533 11.7976C3.6337 11.8563 3.48189 11.8865 3.32857 11.8865C3.17525 11.8865 3.02343 11.8563 2.8818 11.7976C2.74017 11.7389 2.6115 11.6528 2.50315 11.5443C2.39468 11.436 2.30863 11.3073 2.24991 11.1657C2.1912 11.024 2.16098 10.8722 2.16098 10.7189C2.16098 10.5656 2.1912 10.4138 2.24991 10.2721C2.30863 10.1305 2.39468 10.0018 2.50315 9.8935L2.53815 9.8585C2.67263 9.72102 2.76284 9.5464 2.79715 9.35717C2.83146 9.16794 2.8083 8.97277 2.73065 8.79683C2.65671 8.6243 2.53392 8.47715 2.37742 8.37351C2.22092 8.26986 2.03753 8.21424 1.84982 8.2135H1.75065C1.44123 8.2135 1.14449 8.09058 0.925693 7.87179C0.706901 7.65299 0.583984 7.35625 0.583984 7.04683C0.583984 6.73741 0.706901 6.44066 0.925693 6.22187C1.14449 6.00308 1.44123 5.88016 1.75065 5.88016H1.80315C1.99623 5.87565 2.18349 5.81315 2.34058 5.70079C2.49766 5.58844 2.61732 5.43142 2.68398 5.25016C2.76163 5.07422 2.7848 4.87905 2.75049 4.68982C2.71618 4.50059 2.62596 4.32598 2.49148 4.1885L2.45648 4.1535C2.34801 4.04514 2.26196 3.91647 2.20325 3.77484C2.14454 3.63321 2.11432 3.4814 2.11432 3.32808C2.11432 3.17476 2.14454 3.02295 2.20325 2.88132C2.26196 2.73968 2.34801 2.61101 2.45648 2.50266C2.56484 2.39419 2.69351 2.30814 2.83514 2.24943C2.97677 2.19071 3.12858 2.16049 3.2819 2.16049C3.43522 2.16049 3.58703 2.19071 3.72866 2.24943C3.8703 2.30814 3.99897 2.39419 4.10732 2.50266L4.14232 2.53766C4.2798 2.67214 4.45441 2.76235 4.64364 2.79667C4.83287 2.83098 5.02804 2.80781 5.20398 2.73016H5.25065C5.42318 2.65622 5.57033 2.53344 5.67397 2.37693C5.77762 2.22043 5.83324 2.03704 5.83398 1.84933V1.75016C5.83398 1.44074 5.9569 1.144 6.17569 0.925205C6.39449 0.706412 6.69123 0.583496 7.00065 0.583496C7.31007 0.583496 7.60682 0.706412 7.82561 0.925205C8.0444 1.144 8.16732 1.44074 8.16732 1.75016V1.80266C8.16807 1.99037 8.22369 2.17377 8.32733 2.33027C8.43097 2.48677 8.57812 2.60955 8.75065 2.6835C8.92659 2.76115 9.12176 2.78431 9.31099 2.75C9.50022 2.71569 9.67484 2.62548 9.81232 2.491L9.84732 2.456C9.95567 2.34752 10.0843 2.26147 10.226 2.20276C10.3676 2.14405 10.5194 2.11383 10.6727 2.11383C10.8261 2.11383 10.9779 2.14405 11.1195 2.20276C11.2611 2.26147 11.3898 2.34752 11.4982 2.456C11.6066 2.56435 11.6927 2.69302 11.7514 2.83465C11.8101 2.97628 11.8403 3.12809 11.8403 3.28141C11.8403 3.43473 11.8101 3.58655 11.7514 3.72818C11.6927 3.86981 11.6066 3.99848 11.4982 4.10683L11.4632 4.14183C11.3287 4.27931 11.2385 4.45392 11.2041 4.64315C11.1698 4.83238 11.193 5.02755 11.2707 5.2035V5.25016C11.3446 5.42269 11.4674 5.56984 11.6239 5.67348C11.7804 5.77713 11.9638 5.83275 12.1515 5.8335H12.2507C12.5601 5.8335 12.8568 5.95641 13.0756 6.1752C13.2944 6.394 13.4173 6.69074 13.4173 7.00016C13.4173 7.30958 13.2944 7.60633 13.0756 7.82512C12.8568 8.04391 12.5601 8.16683 12.2507 8.16683H12.1982C12.0104 8.16758 11.827 8.2232 11.6705 8.32684C11.514 8.43049 11.3913 8.57763 11.3173 8.75016V8.75016Z" stroke="#6D6C73" stroke-linecap="round" stroke-linejoin="round"/>
</svg>
