<svg width="20" height="20" viewBox="0 0 20 20" fill="none" xmlns="http://www.w3.org/2000/svg">
<path d="M17.8572 11.4286H14.5286L17.1429 8.90008C17.5442 8.49829 17.7696 7.95363 17.7696 7.38571C17.7696 6.81796 17.5442 6.27331 17.1429 5.87151L14.1285 2.85714C13.7267 2.45584 13.1821 2.23041 12.6143 2.23041C12.0464 2.23041 11.5018 2.45585 11.1 2.85714L8.57143 5.36433V2.14286C8.57143 1.57445 8.34566 1.02951 7.94388 0.627551C7.54193 0.225763 6.99698 0 6.42857 0H2.14286C1.57445 0 1.02951 0.225763 0.627551 0.627551C0.225763 1.0295 0 1.57445 0 2.14286V15.7143C0 16.8509 0.45151 17.941 1.25527 18.7447C2.05902 19.5484 3.14906 20 4.28571 20H17.8571C18.4256 20 18.9705 19.7742 19.3724 19.3724C19.7742 18.9705 20 18.4256 20 17.8571V13.5714C20 13.003 19.7742 12.4581 19.3724 12.0561C18.9705 11.6543 18.4256 11.4286 17.8571 11.4286L17.8572 11.4286ZM12.1429 3.84984C12.2767 3.71687 12.4578 3.64209 12.6464 3.64209C12.8352 3.64209 13.0161 3.71687 13.1501 3.84984L16.1858 6.88555C16.3167 7.01916 16.3899 7.19869 16.3899 7.38555C16.3899 7.57257 16.3167 7.7521 16.1858 7.88555L8.57151 15.1786V7.38555L12.1429 3.84984ZM1.42861 15.7143V2.1429C1.42861 1.95349 1.50387 1.77172 1.6378 1.6378C1.77172 1.50387 1.95349 1.42861 2.1429 1.42861H6.42861C6.61802 1.42861 6.79979 1.50387 6.93371 1.6378C7.06764 1.77172 7.1429 1.95349 7.1429 2.1429V15.7143C7.1429 16.7351 6.59825 17.6783 5.71433 18.1887C4.83041 18.699 3.7411 18.699 2.85718 18.1887C1.97327 17.6783 1.42861 16.7351 1.42861 15.7143ZM18.5715 17.8572C18.5715 18.0466 18.4962 18.2284 18.3623 18.3623C18.2284 18.4962 18.0466 18.5715 17.8572 18.5715H7.47147C7.73853 18.272 7.96445 17.938 8.14286 17.5787L13.0502 12.857H17.8571C18.0466 12.857 18.2283 12.9323 18.3622 13.0662C18.4962 13.2001 18.5714 13.3819 18.5714 13.5713L18.5715 17.8572Z" fill="#4C2CD9"/>
<path d="M5.71456 15.7143C5.71456 16.5032 5.07489 17.1429 4.28599 17.1429C3.4971 17.1429 2.85742 16.5032 2.85742 15.7143C2.85742 14.9254 3.4971 14.2858 4.28599 14.2858C5.07489 14.2858 5.71456 14.9254 5.71456 15.7143Z" fill="#4C2CD9"/>
<path d="M3.57171 7.1429C3.76112 7.1429 3.94288 7.06764 4.07681 6.93371C4.21074 6.79979 4.28599 6.61802 4.28599 6.42861V3.57147C4.28599 3.31621 4.14983 3.08041 3.92885 2.95286C3.70787 2.82531 3.43554 2.82531 3.21456 2.95286C2.99359 3.08041 2.85742 3.31622 2.85742 3.57147V6.42861C2.85742 6.61802 2.93268 6.79979 3.06661 6.93371C3.20053 7.06764 3.3823 7.1429 3.57171 7.1429Z" fill="#4C2CD9"/>
</svg>
