<svg width="40" height="41" viewBox="0 0 40 41" fill="none" xmlns="http://www.w3.org/2000/svg">
<path d="M30.2732 7.8987C30.2732 7.63855 30.046 7.42749 29.7658 7.42749H24.5678V9.69391C24.5678 9.92824 24.3772 10.1188 24.1429 10.1188H21.3241C21.0898 10.1188 20.8993 9.92824 20.8993 9.69391L20.8995 7.42749H12.6737V9.69391C12.6737 9.92824 12.4831 10.1188 12.2488 10.1188H9.43008C9.19574 10.1188 9.00519 9.92824 9.00519 9.69391L9.00565 7.42749H4.50739C4.2272 7.42749 4 7.63855 4 7.8987V11.7331H30.273L30.2732 7.8987Z" fill="#9986F0"/>
<path d="M15.3069 23.8147H18.9673V27.4602H15.3069V23.8147Z" fill="#9986F0"/>
<path d="M15.3069 15.949H18.9673V19.5945H15.3069V15.949Z" fill="#9986F0"/>
<path d="M7.41382 15.949H11.0743V19.5945H7.41382V15.949Z" fill="#9986F0"/>
<path d="M23.1987 15.949H26.8592V19.5945H23.1987V15.949Z" fill="#9986F0"/>
<path d="M7.41382 23.8147H11.0743V27.4602H7.41382V23.8147Z" fill="#9986F0"/>
<path d="M23.7184 9.26925V4.5H21.7493V9.26925H23.7184Z" fill="#9986F0"/>
<path d="M11.8242 9.26925V4.5H9.85522V9.26925H11.8242Z" fill="#9986F0"/>
<path d="M30.788 26.1135C30.7601 26.1135 30.7334 26.1172 30.706 26.1177C30.7055 26.1177 30.705 26.1181 30.705 26.1181C30.5285 26.1207 30.3546 26.1327 30.1827 26.1518C30.1698 26.1534 30.1573 26.1559 30.1444 26.1575C29.9912 26.1762 29.8398 26.2004 29.6912 26.2313C29.5993 26.2509 29.5101 26.2762 29.4207 26.3009C29.3552 26.3184 29.2887 26.3333 29.2241 26.3529C28.6018 26.5486 28.0308 26.8592 27.5333 27.2571C27.2195 27.508 26.9326 27.799 26.6792 28.1226C26.1997 28.7353 25.8518 29.4546 25.6865 30.2417C25.6582 30.38 25.637 30.5215 25.62 30.6634C25.617 30.6871 25.6117 30.7099 25.6091 30.7337C25.5905 30.9051 25.5803 31.0791 25.5787 31.2549V31.2553C25.5787 31.2724 25.5762 31.289 25.5762 31.306C25.5762 34.1697 27.9147 36.4999 30.7892 36.4999C33.6621 36.5009 36.0006 34.1711 36.0006 31.307C36.0006 28.4428 33.662 26.1136 30.7881 26.1136L30.788 26.1135ZM31.2129 31.4722L29.1529 33.7211L28.5269 33.1476L30.3633 31.1417V28.1703H31.2129V31.4722Z" fill="#9986F0"/>
<path d="M24.7525 30.7801C24.7612 30.6794 24.7753 30.5808 24.7891 30.4817C24.803 30.3794 24.817 30.2778 24.8357 30.1778C24.849 30.1075 24.8652 30.0379 24.8806 29.9683C24.911 29.8322 24.9456 29.6978 24.9848 29.5653C24.9951 29.5312 25.0055 29.4971 25.0163 29.4637C25.1444 29.0591 25.3094 28.672 25.5149 28.3107H22.7743C22.54 28.3107 22.3494 28.1201 22.3494 27.8858V23.3908C22.3494 23.1564 22.54 22.9659 22.7743 22.9659H27.2843C27.5187 22.9659 27.7092 23.1565 27.7092 23.3908V26.0927C27.9369 25.96 28.1767 25.8466 28.4231 25.7438C28.4293 25.7413 28.4355 25.7388 28.4418 25.736C28.5957 25.6724 28.7524 25.6153 28.9125 25.5641C28.9595 25.5487 29.007 25.5337 29.0544 25.5192C29.1701 25.4851 29.2872 25.4563 29.4058 25.4289C29.4899 25.4093 29.574 25.3892 29.6597 25.3731C29.7376 25.3586 29.8171 25.3482 29.8962 25.3369C30.0164 25.3194 30.1367 25.3012 30.2595 25.2904C30.2641 25.2899 30.2687 25.2888 30.274 25.2883L30.2736 12.583H4V30.3559C4 30.6156 4.2272 30.8267 4.50739 30.8267H24.7466C24.7477 30.8108 24.7507 30.7958 24.7523 30.7799L24.7525 30.7801ZM22.3492 15.5248C22.3492 15.2904 22.5398 15.0999 22.7741 15.0999H27.2841C27.5185 15.0999 27.709 15.2905 27.709 15.5248V20.0198C27.709 20.2541 27.5184 20.4447 27.2841 20.4447H22.7741C22.5398 20.4447 22.3492 20.2541 22.3492 20.0198V15.5248ZM11.9238 27.8856C11.9238 28.1199 11.7332 28.3105 11.4989 28.3105L6.98913 28.3103C6.75479 28.3103 6.56424 28.1197 6.56424 27.8854V23.3904C6.56424 23.156 6.75479 22.9655 6.98913 22.9655H11.4991C11.7335 22.9655 11.924 23.156 11.924 23.3904L11.9238 27.8856ZM11.9238 20.0196C11.9238 20.254 11.7332 20.4445 11.4989 20.4445H6.98913C6.75479 20.4445 6.56424 20.254 6.56424 20.0196V15.5246C6.56424 15.2903 6.75479 15.0997 6.98913 15.0997H11.4991C11.7335 15.0997 11.924 15.2903 11.924 15.5246L11.9238 20.0196ZM19.8169 27.8856C19.8169 28.1199 19.6263 28.3105 19.392 28.3105H14.882C14.6477 28.3105 14.4571 28.1199 14.4571 27.8856V23.3906C14.4571 23.1562 14.6477 22.9657 14.882 22.9657H19.392C19.6263 22.9657 19.8169 23.1562 19.8169 23.3906V27.8856ZM19.8169 20.0196C19.8169 20.254 19.6263 20.4445 19.392 20.4445H14.882C14.6477 20.4445 14.4571 20.254 14.4571 20.0196V15.5246C14.4571 15.2903 14.6477 15.0997 14.882 15.0997H19.392C19.6263 15.0997 19.8169 15.2903 19.8169 15.5246V20.0196Z" fill="#9986F0"/>
<path d="M23.1988 27.4602H26.1004C26.3302 27.1821 26.5829 26.9233 26.8592 26.6906V23.8147H23.1987L23.1988 27.4602Z" fill="#9986F0"/>
</svg>
