<svg width="40" height="41" viewBox="0 0 40 41" fill="none" xmlns="http://www.w3.org/2000/svg">
<path d="M33.2836 29.4436C32.7511 28.7594 31.6859 28.124 30.1772 27.6354C26.9819 26.5603 23.5204 25.2406 23.5204 22.8461V21.8687V21.82C23.5204 20.647 23.8312 19.8653 24.0085 19.5717C24.0974 19.4251 24.1416 19.3764 24.1416 19.3273C25.1623 18.985 25.6061 17.4701 25.4731 16.5414C25.4288 16.1016 25.2511 15.8572 25.0737 15.7594C25.0737 15.4662 25.1626 15.0264 25.1626 14.6842C25.2069 14.2444 25.2957 13.7555 25.2957 13.3158V12.9248C25.2514 12.0453 25.0737 11.2632 24.6744 10.6278C23.7423 8.6731 21.9673 7.5 19.9704 7.5C17.9734 7.5 16.198 8.7218 15.2663 10.6278C14.9112 11.312 14.6893 12.094 14.645 12.9248V13.3645C14.645 13.8043 14.7339 14.2441 14.7781 14.733C14.8224 15.0752 14.867 15.515 14.867 15.8081C14.6896 15.9547 14.5119 16.1991 14.4676 16.5902C14.3345 17.5188 14.7784 19.0337 15.7991 19.376C15.7991 19.376 15.8433 19.4739 15.9322 19.5714C16.1096 19.9136 16.4204 20.6465 16.4204 21.8196V21.9175V22.8948C16.4204 25.2896 13.0031 26.609 9.76358 27.6842C8.21016 28.173 7.18961 28.8081 6.65715 29.4924C6.25781 30.03 6.25781 30.4697 6.25781 30.6654V33.2556C6.25781 33.3534 6.30208 33.5 6.52404 33.5H33.3731C33.5951 33.5 33.5951 33.2556 33.5951 33.2556V30.6654C33.683 30.4209 33.683 29.9324 33.2837 29.4436L33.2836 29.4436Z" fill="#9986F0"/>
<path d="M37.8985 27.93C35.5464 27.148 33.1498 26.2193 33.1498 24.3134V23.6292C33.061 22.5053 33.2829 22.1143 33.5492 21.8699C33.6823 21.7233 33.7265 21.5767 33.8154 21.5767C34.5255 21.3322 34.6587 19.8173 34.3036 19.8173C34.0816 19.8173 34.3478 18.6443 34.3924 17.8626V17.6182C34.3924 17.325 34.3036 16.7386 34.0373 16.2498C33.5049 15.1258 32.4397 14.3438 31.1529 14.3438C29.8661 14.3438 28.8451 15.1258 28.2684 16.2498C27.9576 16.7874 27.9134 17.3249 27.9134 17.6182V17.8626C27.9576 18.6446 28.2242 19.8173 28.0022 19.8173C27.6029 19.8173 27.7803 21.3322 28.4904 21.5767C28.5792 21.6254 28.6678 21.6745 28.7566 21.8699C28.9786 22.2609 29.156 22.8472 29.156 23.6292V24.3134C29.156 24.7044 29.0671 24.9976 28.8897 25.3399C28.8009 25.5352 28.934 25.5843 28.934 25.5843L32.0404 26.7573L32.2624 26.8552C32.6175 27.0018 33.3275 27.344 33.9488 27.9304L34.3036 28.321C34.7029 28.8099 35.058 29.4941 35.058 30.3737V31.0091C35.058 31.0578 35.058 31.1557 35.1911 31.1557H39.851C39.9841 31.1557 39.9841 31.0579 39.9841 31.0091V29.592C40.0286 29.5429 40.1175 28.7121 37.8986 27.9301L37.8985 27.93Z" fill="#9986F0"/>
<path d="M2.13059 27.93C4.48266 27.148 6.87927 26.2193 6.87927 24.3134V23.6292C6.96811 22.5053 6.74615 22.1143 6.47993 21.8699C6.34682 21.7233 6.30255 21.5767 6.21371 21.5767C5.50358 21.3322 5.37043 19.8173 5.72552 19.8173C5.94748 19.8173 5.68126 18.6443 5.63668 17.8626V17.6182C5.63668 17.325 5.72552 16.7386 5.99175 16.2498C6.5242 15.1258 7.58938 14.3438 8.8762 14.3438C10.163 14.3438 11.184 15.1258 11.7607 16.2498C12.0715 16.7874 12.1157 17.3249 12.1157 17.6182V17.8626C12.0715 18.6446 11.8049 19.8173 12.0269 19.8173C12.4262 19.8173 12.2488 21.3322 11.5387 21.5767C11.4499 21.6254 11.3613 21.6745 11.2725 21.8699C11.0505 22.2609 10.8731 22.8472 10.8731 23.6292V24.3134C10.8731 24.7044 10.962 24.9976 11.1394 25.3399C11.2282 25.5352 11.0951 25.5843 11.0951 25.5843L7.98867 26.7573L7.76671 26.8061C7.41164 26.9527 6.70155 27.295 6.08024 27.8813L5.72549 28.272C5.32615 28.7608 4.97109 29.445 4.97109 30.3246V30.96C4.97109 31.0088 4.97109 31.1066 4.83798 31.1066H0.133601C0.000488592 31.1066 0.000488372 31.0088 0.000488372 30.96V29.5429C0.000488372 29.5429 -0.0883562 28.7121 2.13058 27.9301L2.13059 27.93Z" fill="#9986F0"/>
</svg>
