<svg width="40" height="41" viewBox="0 0 40 41" fill="none" xmlns="http://www.w3.org/2000/svg">
<path d="M20 4.5C11.1774 4.5 4 11.6774 4 20.5C4 29.3226 11.1774 36.5 20 36.5C28.8226 36.5 36 29.3226 36 20.5C36 11.6774 28.8226 4.5 20 4.5ZM29.3281 31.1606C29.3281 31.6587 28.923 32.0638 28.4249 32.0638H11.5749C11.0767 32.0638 10.6717 31.6587 10.6717 31.1606V9.84002C10.6717 9.34186 11.0768 8.93682 11.5749 8.93682H28.4249C28.923 8.93682 29.3281 9.34189 29.3281 9.84002L29.3283 31.1606H29.3281Z" fill="#9986F0"/>
<path d="M14.0854 15.1854H17.9783V11.5105H14.0854V15.1854ZM14.8389 13.5623C14.9594 13.3851 15.1997 13.3402 15.3767 13.46L15.8373 13.7734L17.0661 12.5088C17.2158 12.3554 17.4605 12.3522 17.6135 12.5008C17.767 12.6499 17.7704 12.8948 17.6216 13.0482L16.1661 14.546C16.0907 14.6234 15.9898 14.6635 15.8882 14.6635C15.8128 14.6635 15.737 14.6416 15.6707 14.5964L14.9412 14.1001C14.7647 13.9798 14.7186 13.7393 14.8389 13.5623L14.8389 13.5623Z" fill="#9986F0"/>
<path d="M14.0854 29.4896H17.9783V25.8147H14.0854V29.4896ZM14.8389 27.8672C14.9594 27.6896 15.2004 27.6444 15.3764 27.7647L15.8373 28.0778L17.0661 26.8133C17.2158 26.6598 17.4605 26.6566 17.6135 26.8052C17.767 26.9543 17.7704 27.1992 17.6216 27.3527L16.1661 28.8504C16.0907 28.9278 15.9898 28.9679 15.8882 28.9679C15.8128 28.9679 15.737 28.946 15.6709 28.9009L14.9414 28.405C14.7647 28.2847 14.7186 28.0437 14.8389 27.8672L14.8389 27.8672Z" fill="#9986F0"/>
<path d="M14.0854 22.3375H17.9783V18.6628H14.0854V22.3375ZM14.8389 20.7147C14.9594 20.5375 15.1997 20.4926 15.3767 20.6124L15.8373 20.9257L17.0661 19.6612C17.2158 19.508 17.4605 19.5045 17.6135 19.6531C17.767 19.8022 17.7704 20.0471 17.6216 20.2006L16.1661 21.6983C16.0907 21.7757 15.9898 21.8158 15.8882 21.8158C15.8128 21.8158 15.737 21.7939 15.6707 21.7488L14.9412 21.2527C14.7647 21.1322 14.7186 20.8916 14.8389 20.7147L14.8389 20.7147Z" fill="#9986F0"/>
<path d="M28.4251 9.71069H11.5751C11.5041 9.71069 11.446 9.76876 11.446 9.83973V31.1603C11.446 31.2312 11.5041 31.2893 11.5751 31.2893H28.4251C28.496 31.2893 28.5541 31.2312 28.5541 31.1603L28.5543 9.83973C28.5541 9.76876 28.4963 9.71069 28.4251 9.71069H28.4251ZM18.7531 29.8769C18.7531 30.0905 18.5796 30.264 18.366 30.264H13.699C13.4854 30.264 13.3119 30.0905 13.3119 29.8769V25.4278C13.3119 25.2142 13.4854 25.0407 13.699 25.0407H18.366C18.5796 25.0407 18.7531 25.2142 18.7531 25.4278V29.8769ZM18.7531 22.7248C18.7531 22.9384 18.5796 23.1119 18.366 23.1119H13.699C13.4854 23.1119 13.3119 22.9384 13.3119 22.7248V18.276C13.3119 18.0624 13.4854 17.8889 13.699 17.8889H18.366C18.5796 17.8889 18.7531 18.0624 18.7531 18.276V22.7248ZM18.7531 15.5727C18.7531 15.7863 18.5796 15.9598 18.366 15.9598H13.699C13.4854 15.9598 13.3119 15.7863 13.3119 15.5727V11.1236C13.3119 10.9101 13.4854 10.7366 13.699 10.7366H18.366C18.5796 10.7366 18.7531 10.9101 18.7531 11.1236V15.5727ZM26.3016 29.0924H20.6935C20.4799 29.0924 20.3064 28.9189 20.3064 28.7053C20.3064 28.4917 20.4799 28.3182 20.6935 28.3182H26.3016C26.5152 28.3182 26.6887 28.4917 26.6887 28.7053C26.6887 28.9191 26.5154 29.0924 26.3016 29.0924ZM26.3016 27.2009H20.6935C20.4799 27.2009 20.3064 27.0274 20.3064 26.8138C20.3064 26.6002 20.4799 26.4267 20.6935 26.4267H26.3016C26.5152 26.4267 26.6887 26.6002 26.6887 26.8138C26.6887 27.0274 26.5154 27.2009 26.3016 27.2009ZM26.3016 21.9403H20.6935C20.4799 21.9403 20.3064 21.7668 20.3064 21.5532C20.3064 21.3396 20.4799 21.1661 20.6935 21.1661H26.3016C26.5152 21.1661 26.6887 21.3396 26.6887 21.5532C26.6887 21.7668 26.5154 21.9403 26.3016 21.9403ZM26.3016 20.0486H20.6935C20.4799 20.0486 20.3064 19.8751 20.3064 19.6615C20.3064 19.4479 20.4799 19.2744 20.6935 19.2744H26.3016C26.5152 19.2744 26.6887 19.4479 26.6887 19.6615C26.6887 19.8751 26.5154 20.0486 26.3016 20.0486ZM26.3016 14.788H20.6935C20.4799 14.788 20.3064 14.6145 20.3064 14.4009C20.3064 14.1873 20.4799 14.0138 20.6935 14.0138H26.3016C26.5152 14.0138 26.6887 14.1873 26.6887 14.4009C26.6887 14.6145 26.5154 14.788 26.3016 14.788ZM26.3016 12.8963H20.6935C20.4799 12.8963 20.3064 12.7228 20.3064 12.5092C20.3064 12.2956 20.4799 12.1221 20.6935 12.1221H26.3016C26.5152 12.1221 26.6887 12.2956 26.6887 12.5092C26.6887 12.723 26.5154 12.8963 26.3016 12.8963Z" fill="#9986F0"/>
</svg>
