<svg width="16" height="16" viewBox="0 0 16 16" fill="none" xmlns="http://www.w3.org/2000/svg">
<path d="M12.6667 8.66659C13.0349 8.66659 13.3333 8.36811 13.3333 7.99992C13.3333 7.63173 13.0349 7.33325 12.6667 7.33325C12.2985 7.33325 12 7.63173 12 7.99992C12 8.36811 12.2985 8.66659 12.6667 8.66659Z" stroke="#6D6C73" stroke-width="2" stroke-linecap="round" stroke-linejoin="round"/>
<path d="M7.99967 8.66659C8.36786 8.66659 8.66634 8.36811 8.66634 7.99992C8.66634 7.63173 8.36786 7.33325 7.99967 7.33325C7.63148 7.33325 7.33301 7.63173 7.33301 7.99992C7.33301 8.36811 7.63148 8.66659 7.99967 8.66659Z" stroke="#6D6C73" stroke-width="2" stroke-linecap="round" stroke-linejoin="round"/>
<path d="M3.33366 8.66659C3.70185 8.66659 4.00033 8.36811 4.00033 7.99992C4.00033 7.63173 3.70185 7.33325 3.33366 7.33325C2.96547 7.33325 2.66699 7.63173 2.66699 7.99992C2.66699 8.36811 2.96547 8.66659 3.33366 8.66659Z" stroke="#6D6C73" stroke-width="2" stroke-linecap="round" stroke-linejoin="round"/>
</svg>
