<svg width="20" height="20" viewBox="0 0 20 20" fill="none" xmlns="http://www.w3.org/2000/svg">
<path d="M2.5 5H4.16667H17.5" stroke="#6D6C73" stroke-width="2" stroke-linecap="round" stroke-linejoin="round"/>
<path d="M6.66602 5.00008V3.33341C6.66602 2.89139 6.84161 2.46746 7.15417 2.1549C7.46673 1.84234 7.89066 1.66675 8.33268 1.66675H11.666C12.108 1.66675 12.532 1.84234 12.8445 2.1549C13.1571 2.46746 13.3327 2.89139 13.3327 3.33341V5.00008M15.8327 5.00008V16.6667C15.8327 17.1088 15.6571 17.5327 15.3445 17.8453C15.032 18.1578 14.608 18.3334 14.166 18.3334H5.83268C5.39065 18.3334 4.96673 18.1578 4.65417 17.8453C4.34161 17.5327 4.16602 17.1088 4.16602 16.6667V5.00008H15.8327Z" stroke="#6D6C73" stroke-width="2" stroke-linecap="round" stroke-linejoin="round"/>
</svg>
