<svg width="16" height="16" viewBox="0 0 16 16" fill="none" xmlns="http://www.w3.org/2000/svg">
<path fill-rule="evenodd" clip-rule="evenodd" d="M14 15.5H2.00003C1.175 15.5 0.5 14.825 0.5 14V2.00003C0.5 1.175 1.175 0.5 2.00003 0.5H14C14.825 0.5 15.5 1.175 15.5 2.00003V14C15.5 14.825 14.825 15.5 14 15.5ZM12.6125 4.8688C12.2563 4.55007 11.6938 4.55007 11.3563 4.8688L6.53757 9.36878L4.64387 7.60625C4.28758 7.28752 3.72509 7.28752 3.38762 7.60625C3.03134 7.92498 3.03134 8.44996 3.38762 8.78753L5.90008 11.1313C6.25636 11.45 6.81886 11.45 7.15632 11.1313L12.6125 6.03129C12.9687 5.71256 12.9687 5.18758 12.6125 4.86883V4.8688Z" fill="#4C2CD9"/>
</svg>
