<svg width="32" height="32" viewBox="0 0 32 32" fill="none" xmlns="http://www.w3.org/2000/svg">
<path fill-rule="evenodd" clip-rule="evenodd" d="M0 0H32V32H0V0Z" fill="white"/>
<path fill-rule="evenodd" clip-rule="evenodd" d="M0.941406 8.94714H19.9971V23.0531H0.941406V8.94714Z" fill="#006699"/>
<path fill-rule="evenodd" clip-rule="evenodd" d="M19.9967 8.94714H31.0587V23.0531H19.9967V8.94714ZM7.87046 14.4657C7.44978 14.1935 6.95473 14.0202 6.45984 14.0202C5.42044 14.0202 4.67803 14.7873 4.67803 15.9009C4.67803 17.0145 5.44534 18.0045 6.60826 18.0045C7.17752 18.0045 7.74661 17.8064 8.21676 17.5343H8.24149L7.87029 18.4004C7.49908 18.5736 7.10314 18.6232 6.7072 18.6232C4.92538 18.6232 3.81177 17.6333 3.81177 15.9999C3.81177 14.4408 4.92538 13.4014 6.48458 13.4014C6.95473 13.4014 7.42488 13.4756 7.87046 13.5746V14.4657ZM10.6175 13.5253C11.6074 13.5253 12.3498 13.9956 12.3498 14.837C12.3498 15.7279 11.5332 16.2723 10.6918 16.2723C10.4938 16.2723 10.2959 16.2477 10.1226 16.1734C10.7908 16.1237 11.4837 15.7279 11.4837 14.9854C11.4837 14.3173 11.0136 14.0698 10.4196 14.0698C10.2217 14.0698 10.0484 14.0698 9.87523 14.1193V17.5345C9.87523 17.955 9.87523 18.252 10.2712 18.4994H8.76161C9.15755 18.3508 9.10792 17.7819 9.10792 17.4601V14.5894C9.10792 14.243 9.15739 13.6984 8.78618 13.55V13.5253H10.6175ZM13.3891 16.6435L12.9931 17.7077C12.8445 18.1282 12.7952 18.3509 13.1417 18.4995H11.7558C12.2012 18.2767 12.3251 17.8317 12.4982 17.4107L13.7604 14.243C13.8594 13.9707 14.008 13.649 13.6367 13.55V13.5253H14.8493L16.4331 17.4107C16.6062 17.8315 16.7301 18.2767 17.1756 18.4995H15.6165C15.9877 18.3264 15.9135 18.2274 15.7154 17.7077L15.3195 16.6435H13.3891ZM14.3543 14.1688L13.5871 16.0744H15.0967L14.3543 14.1688ZM2.4508 20.0338H2.54974L2.89621 20.8259H2.77253L2.69832 20.6278H2.30238L2.22817 20.8259H2.10449L2.4508 20.0338ZM2.50027 20.1577L2.32695 20.5289H2.64868L2.50027 20.1577ZM3.63862 20.5043C3.63862 20.7268 3.51477 20.826 3.31688 20.826C3.14373 20.826 3.01989 20.7268 3.01989 20.5043V20.0338H3.14373V20.4794C3.14373 20.628 3.16847 20.7268 3.31688 20.7268C3.4653 20.7268 3.51477 20.6278 3.51477 20.4794V20.0338H3.63862V20.5043ZM4.20788 20.1577C4.13367 20.1331 4.10893 20.1331 4.0593 20.1331C3.98509 20.1331 3.91071 20.1577 3.91071 20.232C3.91071 20.3806 4.25718 20.3559 4.25718 20.6032C4.25718 20.7764 4.1335 20.826 3.96019 20.826C3.91071 20.826 3.86108 20.826 3.8116 20.8011V20.7022C3.86108 20.7268 3.93528 20.7268 3.98476 20.7268C4.05896 20.7268 4.13334 20.7022 4.13334 20.6032C4.13334 20.4301 3.8116 20.4794 3.8116 20.232C3.8116 20.1082 3.91055 20.034 4.05913 20.034C4.1086 20.034 4.15807 20.034 4.20771 20.0589V20.1577H4.20788ZM4.57908 20.1329H4.33156V20.0338H4.92538V20.1329H4.70276V20.8259H4.57908V20.1329ZM5.07397 20.0338H5.24712C5.3957 20.0338 5.56885 20.0587 5.56885 20.2566C5.56885 20.3559 5.49464 20.4052 5.3957 20.4301C5.42044 20.4547 5.44517 20.4547 5.46991 20.5043L5.61832 20.826H5.49464L5.37096 20.5536C5.34623 20.4794 5.29659 20.4794 5.24712 20.4794H5.17291V20.826H5.07397V20.0338ZM5.17291 20.3805H5.27185C5.37096 20.3805 5.44517 20.3308 5.44517 20.2566C5.44517 20.1824 5.3957 20.1331 5.27185 20.1331H5.17291V20.3805ZM6.01443 20.0338H6.13811L6.45984 20.8259H6.33616L6.26196 20.6278H5.86601L5.79181 20.8259H5.66796L6.01443 20.0338ZM6.0639 20.1577L5.91532 20.5289H6.21232L6.0639 20.1577ZM6.60826 20.0338H6.70737V20.7268H7.02894V20.8259H6.60826V20.0338ZM7.17752 20.0338H7.27646V20.8259H7.17752V20.0338ZM7.74678 20.0338H7.87046L8.19219 20.8259H8.09308L7.99413 20.6278H7.62293L7.54872 20.8259H7.42488L7.74678 20.0338ZM7.82098 20.1577L7.64767 20.5289H7.9694L7.82098 20.1577ZM8.3406 20.0338H8.48902L8.83565 20.6775V20.0338H8.9346V20.8259H8.78602L8.43955 20.1822V20.8259H8.3406V20.0338ZM9.8749 20.1577C9.82542 20.1331 9.80069 20.1331 9.72648 20.1331C9.67701 20.1331 9.60263 20.1577 9.60263 20.232C9.60263 20.3806 9.92437 20.3559 9.92437 20.6032C9.92437 20.7764 9.80052 20.826 9.65211 20.826C9.5779 20.826 9.52843 20.826 9.47895 20.8011L9.50369 20.7022C9.52843 20.7268 9.60263 20.7268 9.65211 20.7268C9.72648 20.7268 9.80069 20.7022 9.80069 20.6032C9.80069 20.4301 9.47895 20.4794 9.47895 20.232C9.47895 20.1082 9.5779 20.034 9.72648 20.034C9.77595 20.034 9.85016 20.034 9.89963 20.0589L9.8749 20.1577ZM10.4442 20.0338C10.6669 20.0338 10.8154 20.2073 10.8154 20.4301C10.8154 20.6775 10.6668 20.826 10.4442 20.826C10.1968 20.826 10.0729 20.6775 10.0729 20.4301C10.0729 20.2073 10.1966 20.0338 10.4442 20.0338ZM10.4442 20.7268C10.6175 20.7268 10.6917 20.5785 10.6917 20.4301C10.6917 20.2817 10.6175 20.1331 10.4442 20.1331C10.271 20.1331 10.1719 20.2817 10.1719 20.4301C10.1719 20.5785 10.2461 20.7268 10.4442 20.7268ZM11.533 20.1822C11.4836 20.1329 11.4341 20.1329 11.3599 20.1329C11.1867 20.1329 11.0629 20.2564 11.0629 20.4299C11.0629 20.6277 11.1867 20.7266 11.3599 20.7266C11.4094 20.7266 11.4836 20.7266 11.533 20.702V20.801C11.4836 20.8259 11.4094 20.8259 11.3599 20.8259C11.1124 20.8259 10.9392 20.6773 10.9392 20.4299C10.9392 20.1822 11.1124 20.0337 11.3599 20.0337C11.4094 20.0337 11.4836 20.0337 11.533 20.0586V20.1822ZM11.6814 20.0338H11.8053V20.8259H11.6814V20.0338ZM12.0281 20.0338H12.4735V20.1329H12.1269V20.3805H12.4239V20.4547H12.1269V20.7268H12.4735V20.8259H12.0281V20.0338ZM12.82 20.1329H12.5724V20.0338H13.1664V20.1329H12.9189V20.8259H12.82V20.1329ZM13.5127 20.5043L13.2159 20.0338H13.3396L13.5871 20.3805L13.8097 20.0338H13.9336L13.6366 20.5043V20.8259H13.5127V20.5043ZM14.7749 20.0338C14.9977 20.0338 15.1461 20.2073 15.1461 20.4301C15.1461 20.6775 14.9977 20.826 14.7749 20.826C14.5274 20.826 14.379 20.6775 14.379 20.4301C14.379 20.2073 14.5274 20.0338 14.7749 20.0338ZM14.7749 20.7268C14.9481 20.7268 15.0225 20.5785 15.0225 20.4301C15.0225 20.2817 14.9483 20.1331 14.7749 20.1331C14.6016 20.1331 14.5027 20.2817 14.5027 20.4301C14.5027 20.5785 14.577 20.7268 14.7749 20.7268ZM15.3195 20.0338H15.7154V20.1329H15.4184V20.3805H15.7154V20.4547H15.4184V20.8259H15.3195V20.0338ZM16.8043 20.1822C16.7546 20.1329 16.7053 20.1329 16.6311 20.1329C16.458 20.1329 16.3341 20.2564 16.3341 20.4299C16.3341 20.6277 16.4827 20.7266 16.6311 20.7266C16.6808 20.7266 16.7546 20.7266 16.8043 20.702V20.801C16.7546 20.8259 16.6808 20.8259 16.6311 20.8259C16.3838 20.8259 16.2103 20.6773 16.2103 20.4299C16.2103 20.1822 16.3838 20.0337 16.6311 20.0337C16.7053 20.0337 16.7546 20.0337 16.8043 20.0586V20.1822ZM16.9527 20.0338H17.1507C17.3239 20.0338 17.4474 20.108 17.4474 20.2815C17.4474 20.4547 17.3239 20.5043 17.1753 20.5043H17.0764V20.826H16.9525V20.0338H16.9527ZM17.0765 20.405H17.1755C17.2497 20.405 17.3486 20.3805 17.3486 20.2815C17.3486 20.1822 17.2251 20.1329 17.1755 20.1329H17.0765V20.405ZM17.8437 20.0338H17.9672L18.2889 20.8259H18.19L18.091 20.6278H17.7198L17.6456 20.8259H17.5221L17.8437 20.0338ZM17.9181 20.1577L17.7446 20.5289H18.0665L17.9181 20.1577ZM18.3635 20.702C18.4128 20.7266 18.487 20.7517 18.5117 20.7517C18.5614 20.7517 18.611 20.7268 18.611 20.6775C18.611 20.5536 18.3636 20.5785 18.3636 20.405C18.3636 20.3061 18.4626 20.2319 18.5614 20.2319C18.611 20.2319 18.6603 20.2564 18.7099 20.2564L18.6854 20.3557C18.6605 20.3308 18.6112 20.3308 18.5861 20.3308C18.5368 20.3308 18.4872 20.3557 18.4872 20.405C18.4872 20.5043 18.7345 20.4792 18.7345 20.6524C18.7345 20.7762 18.6356 20.8259 18.5368 20.8259C18.4626 20.8259 18.4129 20.8259 18.3636 20.801V20.702H18.3635Z" fill="#FFC803"/>
<path fill-rule="evenodd" clip-rule="evenodd" d="M25.5157 13.352H25.6643V13.6243C25.6643 13.6243 25.6888 13.6738 25.7139 13.6738C25.7632 13.6738 25.7632 13.649 25.7632 13.649V13.4262H25.986V13.649L26.085 13.6243V13.4757H26.283V13.6489C26.283 13.6489 26.382 13.6736 26.4069 13.7725C26.4562 13.9211 26.3076 13.9706 26.3076 13.9706C26.3076 13.9706 26.3325 13.9953 26.3818 14.0201C26.4067 14.0448 26.456 14.119 26.5304 14.3418C26.6046 14.5397 26.7284 14.5644 26.7284 14.5644C26.7284 14.5644 26.9261 14.416 26.7777 14.1437C26.6542 13.8964 26.4811 13.822 26.5553 13.525C26.5553 13.525 26.6542 13.2775 26.8026 13.1291C26.9758 12.9805 27.0996 12.931 27.0996 12.931C27.0996 12.931 27.0254 13.0549 27.0747 13.1786C27.1244 13.2775 27.2975 13.3764 27.3965 13.5003C27.471 13.5992 27.5699 13.7973 27.4461 14.0695C27.3472 14.3171 27.174 14.4902 27.0502 14.5397C26.9263 14.5892 26.8028 14.5892 26.8028 14.5892C26.8028 14.5892 26.9263 14.7377 27.1987 14.7623C27.5454 14.8118 27.7927 14.5892 27.7927 14.5892C27.7927 14.5892 27.5947 14.6634 27.4957 14.6634C27.3719 14.6634 27.2729 14.5643 27.2729 14.5643C27.2729 14.5643 27.2975 14.292 27.4957 14.1683C27.6689 14.0694 27.9163 14.1188 28.0155 14.2673C28.0155 14.2673 28.2629 14.5395 28.0155 14.9602C28.0155 14.9602 27.9906 15.084 27.8917 15.1581C27.8175 15.2324 27.7185 15.3067 27.7185 15.3067C27.7185 15.3067 27.9413 15.5787 27.9413 15.8263C27.9413 16.1727 27.7927 16.3459 27.7927 16.3459C27.7927 16.3459 28.0648 16.5687 28.0401 16.8657C27.9905 17.1874 27.842 17.3112 27.8173 17.4348C27.8173 17.534 27.8419 17.6082 27.8669 17.6082C27.8669 17.6328 27.4957 17.5586 27.3226 17.3358C27.174 17.113 27.174 17.1381 27.174 17.1381C27.174 17.1381 27.1244 17.1627 27.0998 17.2616C27.0998 17.3605 27.0998 17.4102 27.1244 17.4348V17.4597C27.1244 17.4597 27.1986 17.3358 27.2729 17.3604C27.3472 17.41 27.4215 17.6081 27.3472 17.707C27.273 17.8309 27.1986 17.8556 27.1491 17.8802C27.1245 17.8802 27.0998 17.9051 27.0998 17.9051L27.6193 18.4245C27.6193 18.4245 26.8274 19.7856 25.5901 19.7856H25.4911C24.2535 19.7856 23.437 18.4245 23.437 18.4245L23.9814 17.9051C23.9814 17.9051 23.9568 17.8802 23.9318 17.8802C23.8824 17.8556 23.8082 17.8309 23.734 17.707C23.6598 17.6081 23.734 17.41 23.8082 17.3604C23.8824 17.3358 23.9568 17.4597 23.9568 17.4597L23.9814 17.4348V17.2616C23.9568 17.1627 23.9072 17.1381 23.9072 17.1381C23.9072 17.1381 23.9072 17.1132 23.7586 17.3358C23.61 17.5584 23.2142 17.6328 23.2142 17.6082C23.2388 17.6082 23.2639 17.534 23.2639 17.4348C23.239 17.3112 23.0904 17.1874 23.0658 16.8657C23.0162 16.5687 23.2886 16.3459 23.2886 16.3459C23.2886 16.3459 23.14 16.1727 23.14 15.8263C23.14 15.5787 23.3874 15.3067 23.3874 15.3067C23.3874 15.3067 23.2639 15.2324 23.1897 15.1581C23.0904 15.0839 23.0658 14.9602 23.0658 14.9602C22.8185 14.5395 23.0904 14.2673 23.0904 14.2673C23.1897 14.1187 23.4121 14.0694 23.5854 14.1683C23.7832 14.292 23.8082 14.5643 23.8082 14.5643C23.8082 14.5643 23.709 14.6634 23.5854 14.6634C23.4862 14.6634 23.313 14.5892 23.313 14.5892C23.313 14.5892 23.5358 14.8119 23.8824 14.7623C24.1791 14.7376 24.2784 14.5892 24.2784 14.5892C24.2784 14.5892 24.1545 14.5892 24.0556 14.5397C23.9318 14.4902 23.7339 14.3171 23.6348 14.0695C23.5358 13.7973 23.6102 13.5992 23.6844 13.5003C23.7833 13.3764 23.9568 13.2775 24.0061 13.1786C24.0558 13.0549 23.9816 12.931 23.9816 12.931C23.9816 12.931 24.1054 12.9805 24.2786 13.1291C24.4517 13.2775 24.5259 13.525 24.5259 13.525C24.6001 13.822 24.427 13.8962 24.3031 14.1437C24.1545 14.416 24.3528 14.5644 24.3528 14.5644C24.3528 14.5644 24.5013 14.5397 24.5505 14.3418C24.6247 14.119 24.6743 14.0448 24.6991 14.0201C24.7487 13.9953 24.7733 13.9706 24.7733 13.9706C24.7733 13.9706 24.6247 13.9211 24.6743 13.7725C24.6989 13.6736 24.7982 13.6489 24.7982 13.6489V13.4757H24.9959V13.6243L25.1197 13.649V13.4262H25.3175V13.649C25.3175 13.649 25.3424 13.6738 25.3671 13.6738C25.3918 13.6738 25.4167 13.6243 25.4167 13.6243V13.352H25.5653H25.5157Z" fill="#006699"/>
<path fill-rule="evenodd" clip-rule="evenodd" d="M25.6138 18.9202C26.4552 18.8213 26.9504 17.8807 26.9504 17.8807C26.9504 17.8807 26.9008 17.8561 26.8512 17.8065C26.8019 17.7572 26.7522 17.6088 26.7522 17.6088C26.7522 17.6088 26.5791 18.0047 26.3563 18.3017C26.1335 18.5987 25.8365 18.6976 25.8365 18.6976V16.792H26.9503C26.9503 16.792 26.9748 16.6434 26.9996 16.4208C27.0492 16.198 27.2473 16.0745 27.2473 16.0745L27.3708 16.1734C27.3708 16.1734 27.4204 16.1238 27.445 16.0745C27.4699 16.0496 27.4946 15.9259 27.4946 15.9259L27.3708 15.9752C27.3708 15.9752 27.4204 15.901 27.445 15.7526C27.4946 15.5793 27.3708 15.4803 27.3708 15.4803C27.3708 15.4803 27.3462 15.6289 27.2718 15.8021C27.1729 15.9752 26.9748 16.0494 26.9748 16.0494V16.2475H24.0794V16.0494C24.0794 16.0494 23.8566 15.9752 23.7824 15.8021C23.7379 15.6987 23.7047 15.5908 23.6834 15.4803C23.6834 15.4803 23.5596 15.5793 23.5845 15.7526C23.6338 15.901 23.6834 15.9752 23.6834 15.9752L23.5596 15.9259C23.5596 15.9259 23.5845 16.0496 23.6092 16.0745C23.6338 16.1238 23.6834 16.1734 23.6834 16.1734L23.7824 16.0745C23.7824 16.0745 23.9804 16.198 24.0301 16.4208C24.0794 16.6436 24.1043 16.792 24.1043 16.792H25.1932V18.6976C25.1932 18.6976 24.8962 18.5987 24.6734 18.3017C24.4506 18.0047 24.3022 17.6088 24.3022 17.6088L24.2032 17.8065C24.1536 17.8561 24.1043 17.8807 24.1043 17.8807C24.1043 17.8807 24.599 18.8213 25.4405 18.9202C25.4405 18.9202 25.5147 18.9448 25.5395 18.9448C25.5645 18.9448 25.6138 18.9202 25.6138 18.9202Z" fill="white"/>
<path fill-rule="evenodd" clip-rule="evenodd" d="M26.0846 12.6097H26.2826V12.7582H26.0846V12.6097ZM26.0846 12.8571H26.2826V13.3522H26.0846V12.8571ZM24.7979 12.6097H24.9956V12.7582H24.7979V12.6097ZM24.7979 12.8571H24.9956V13.3522H24.7979V12.8571Z" fill="#006699"/>
<path fill-rule="evenodd" clip-rule="evenodd" d="M25.2186 13.7727C25.3671 13.8469 25.3917 13.9459 25.4166 13.9459C25.4166 13.9459 25.2928 13.9706 25.1689 13.8717C25.1444 13.8469 25.1196 13.7975 25.0947 13.7727L25.0205 13.7233C25.1198 13.7233 25.194 13.748 25.2186 13.7727ZM25.8373 13.8966C25.8373 13.9213 25.8619 13.9461 25.8869 13.9708C25.8869 13.9708 25.788 13.9708 25.7138 13.9461C25.5899 13.8966 25.5403 13.7729 25.491 13.7233C25.6394 13.748 25.7383 13.7975 25.8373 13.8966Z" fill="white"/>
<path fill-rule="evenodd" clip-rule="evenodd" d="M25.0454 15.8764C25.0947 15.7775 25.1196 15.7527 25.1196 15.728C25.1689 15.6289 25.2185 15.431 25.2185 15.431C25.2927 15.134 25.194 14.8866 25.194 14.8866C25.194 14.8866 25.2433 14.8619 25.2682 14.8372C25.3424 14.811 25.4099 14.7687 25.4659 14.7133C25.5155 14.6886 25.5401 14.6144 25.5897 14.5896C25.6394 14.4907 25.6394 14.3917 25.6394 14.3917C25.6145 14.3917 25.0203 14.5401 24.9464 14.5649C24.9215 14.4907 24.8722 14.4659 24.7979 14.4165C24.8224 14.3423 24.8472 14.2679 24.8968 14.1689C24.971 14.07 24.9957 13.9958 25.0945 13.971C25.1441 13.971 25.1687 13.9958 25.1938 14.0453C25.2184 14.1195 25.0203 14.3917 25.0203 14.3917C25.0203 14.3917 25.1938 14.2679 25.2184 14.2679C25.268 14.2431 25.3173 14.1937 25.3915 14.1689C25.7134 14.07 25.7381 14.1442 25.7627 14.1442C25.8123 14.2433 25.8123 14.3423 25.7876 14.4412C25.7627 14.4907 25.7627 14.5154 25.7134 14.5898C25.5896 14.7629 25.3915 14.8621 25.3915 14.8621L25.4411 14.961C25.4908 15.0848 25.3915 15.4559 25.3915 15.4559L25.5401 15.4064C25.6639 15.3569 25.7878 15.3075 25.936 15.3075C26.1341 15.3075 26.2826 15.3569 26.4558 15.3817C26.4312 15.3569 26.2826 15.0352 26.2826 14.8373V14.7384C26.2581 14.6642 26.1588 14.565 26.1588 14.565L26.1095 14.6145C26.0353 14.664 25.9609 14.7135 25.8867 14.7384L25.8125 14.7631C25.8618 14.7136 25.936 14.6393 25.9856 14.59C26.0599 14.491 26.0599 14.4414 26.0846 14.3921C26.1095 14.2929 26.1095 14.0951 26.0353 13.9961C26.0846 14.0208 26.1839 14.0208 26.233 13.9714V13.9466C26.2084 13.9219 26.1837 13.9219 26.1588 13.9219C26.1095 13.8724 26.0846 13.823 26.0599 13.7733C26.1341 13.7981 26.233 13.8228 26.2826 13.8972C26.2826 13.9219 26.3072 13.9466 26.3072 13.9714C26.3568 13.9961 26.4065 13.9219 26.4558 13.8972C26.5054 13.9714 26.6044 14.0703 26.6538 14.1694C26.728 14.2684 26.7773 14.3673 26.7528 14.4912C26.7282 14.5654 26.7528 14.5901 26.7035 14.6643C26.6786 14.7633 26.6538 14.8129 26.6042 14.8622C26.5549 14.8622 26.5053 14.8127 26.4556 14.8127C26.4556 14.8127 26.4805 15.3076 26.8023 15.3819C26.8516 15.4066 26.8765 15.4066 26.9012 15.3571C26.9259 15.3076 26.9258 15.2085 26.827 15.0848L26.7774 15.0354C26.9508 15.0601 26.9754 15.2334 26.9754 15.2829C26.9754 15.3571 26.9754 15.4066 26.9508 15.4561H26.2579L26.1588 15.4061H26.0846L26.0104 15.3814H25.9362C25.8127 15.4061 25.6641 15.4308 25.466 15.5299C25.3918 15.5794 25.3175 15.6289 25.2929 15.6785H25.2683L25.0454 15.8764Z" fill="white"/>
<path fill-rule="evenodd" clip-rule="evenodd" d="M26.6041 14.2676C26.6538 14.3915 26.629 14.5152 26.6041 14.6389C26.5796 14.6636 26.5796 14.7131 26.5299 14.6883C26.431 14.6389 26.3322 14.6141 26.2825 14.5152C26.1836 14.3915 26.258 14.2429 26.2329 14.0945C26.2329 14.0697 26.1836 14.0203 26.1836 14.0203C26.1836 14.0203 26.3071 14.0203 26.431 14.0697C26.5052 14.1192 26.5548 14.1934 26.6041 14.2676Z" fill="#006699"/>
<path fill-rule="evenodd" clip-rule="evenodd" d="M24.8974 14.9111C24.947 15.0348 24.947 15.109 24.947 15.1834C24.947 15.2578 24.9221 15.4309 24.9221 15.4556H24.1549C24.0807 15.3814 24.0559 15.2578 24.0807 15.1834C24.1549 15.0844 24.2293 15.0102 24.3281 14.9606C24.1549 15.1092 24.1795 15.3318 24.2291 15.3565C24.353 15.3565 24.6003 15.2823 24.6251 15.0595C24.65 14.8122 24.5016 14.6388 24.4023 14.5894C24.6003 14.6388 24.7984 14.713 24.8974 14.9111ZM23.4121 14.9606C23.4618 15.0348 23.536 15.1092 23.6349 15.1834C23.6598 15.2081 23.7835 15.2823 23.7835 15.2823L23.8577 15.1337C23.8577 15.1337 23.5856 15.0595 23.4618 14.9851C23.4372 14.9606 23.4121 14.9606 23.4121 14.9606ZM23.8577 15.4556C23.9319 15.5051 24.0312 15.5299 24.0805 15.5793L24.1302 15.6288C24.1547 15.6535 24.1547 15.6783 24.1795 15.703C24.2044 15.7525 24.2044 15.802 24.2044 15.8762C24.1795 15.8762 24.1302 15.8514 24.1054 15.8267C23.9568 15.802 23.9074 15.703 23.833 15.6041C23.833 15.5299 23.8084 15.4802 23.8084 15.406L23.8577 15.4556Z" fill="white"/>
<path fill-rule="evenodd" clip-rule="evenodd" d="M25.1191 12.6838H25.3169V12.4858H25.1191V12.6838ZM25.1191 13.3024H25.3169V12.7829H25.1191V13.3024ZM25.7624 12.6838H25.9851V12.4858H25.7624V12.6838ZM25.7624 13.3024H25.9851V12.7829H25.7624V13.3024ZM25.4161 13.2531H25.6635V12.7086H25.4161V13.2531ZM25.4161 12.5849H25.6635V12.3868H25.4161V12.5849ZM25.6635 18.3263L25.8119 18.425L25.6388 18.4501V18.6233L25.5149 18.4994L25.3911 18.6233V18.4501L25.2427 18.4005L25.3665 18.3263L25.2923 18.1777L25.4653 18.2024L25.5396 18.0542L25.5893 18.2273L25.7624 18.1777L25.6635 18.3263Z" fill="#006699"/>
<path fill-rule="evenodd" clip-rule="evenodd" d="M25.7133 15.8763L25.8864 16L25.6636 16.0247L25.6882 16.2229L25.515 16.0991L25.3666 16.2229V16.0247L25.1684 15.9752L25.3419 15.8516L25.2428 15.6782L25.4408 15.7279L25.5398 15.5298L25.614 15.7279L25.812 15.6782L25.7133 15.8763ZM23.7579 13.7233C23.7579 13.7233 23.7333 14.0203 23.9065 14.1936C24.1046 14.3667 24.0303 14.2925 24.0303 14.2925C24.0303 14.2925 24.0054 14.144 24.1293 13.9955C24.2528 13.8717 24.3521 13.7233 24.3767 13.6491C24.4012 13.5749 24.3767 13.5005 24.3767 13.5005C24.3767 13.5005 24.2777 13.5747 24.2528 13.5994C24.2282 13.5994 24.2777 13.4509 24.2282 13.3767C24.1786 13.2777 24.154 13.2777 24.154 13.2777C24.154 13.2777 24.154 13.4016 24.0798 13.4758L24.0552 13.5252C24.0552 13.5252 24.0307 13.451 24.0307 13.4016C24.0307 13.3768 23.9565 13.4758 23.9068 13.5747C23.8572 13.6736 23.8326 13.7726 23.8326 13.7726L23.7579 13.7233ZM27.3218 13.7233C27.3218 13.7233 27.3464 14.0203 27.1732 14.1936C26.9751 14.3667 27.0494 14.2925 27.0494 14.2925C27.0494 14.2925 27.0739 14.144 26.9504 13.9955C26.8266 13.8717 26.7276 13.7233 26.703 13.6491C26.6781 13.5749 26.703 13.5005 26.703 13.5005C26.703 13.5005 26.802 13.5747 26.8266 13.5994C26.8511 13.5994 26.802 13.4509 26.8511 13.3767C26.876 13.3024 26.9253 13.2777 26.9253 13.2777C26.9253 13.2777 26.9253 13.4016 26.9995 13.4758L27.0244 13.5252C27.0244 13.5252 27.0738 13.4758 27.0738 13.4263C27.0738 13.4016 27.1234 13.4758 27.173 13.5749C27.2223 13.6738 27.2472 13.7728 27.2472 13.7728L27.3218 13.7233ZM23.8076 15.406C23.8076 15.406 23.7826 15.6288 23.9311 15.7277C24.0549 15.8266 24.1046 15.8514 24.1784 15.8761C24.2526 15.9009 24.2777 15.9009 24.2777 15.9009C24.2777 15.9009 24.2035 15.6535 24.1046 15.5791C24.0303 15.5297 23.9807 15.5297 23.9311 15.4802C23.8569 15.4556 23.8076 15.406 23.8076 15.406ZM27.6185 14.9606C27.5691 15.0348 27.4702 15.1091 27.3957 15.1834C27.3464 15.2081 27.2474 15.2823 27.2474 15.2823L27.1481 15.1337C27.1481 15.1337 27.4451 15.0595 27.569 14.9851C27.5939 14.9606 27.5939 14.9606 27.6185 14.9606ZM27.2225 15.406C27.2225 15.406 27.2225 15.6288 27.099 15.7277C26.9751 15.8266 26.9255 15.8514 26.8513 15.8761C26.7771 15.9009 26.7523 15.9009 26.7523 15.9009C26.7523 15.9009 26.8266 15.6535 26.9009 15.5791C26.9999 15.5297 27.0495 15.5297 27.099 15.4802C27.1483 15.4556 27.2225 15.406 27.2225 15.406ZM23.7826 16.3961C23.7826 16.3961 23.7333 16.4454 23.7084 16.495C23.6591 16.5692 23.6342 16.6436 23.6342 16.6436C23.6342 16.6436 23.5849 16.6436 23.5353 16.5694C23.5107 16.5197 23.5107 16.4952 23.5107 16.4952C23.5107 16.4952 23.3869 16.5694 23.3621 16.6932V16.7178C23.3621 16.7178 23.2879 16.7178 23.2632 16.6682C23.2632 16.6436 23.2383 16.7178 23.2383 16.8167C23.2383 16.916 23.2879 16.9902 23.3125 17.0892C23.3621 17.1634 23.4114 17.312 23.4114 17.312C23.4114 17.312 23.6342 17.213 23.7084 17.0892C23.8077 16.9653 23.8819 16.8664 23.8819 16.8167C23.9065 16.7674 23.8819 16.6932 23.8819 16.6932L23.8077 16.7425C23.8077 16.7425 23.8323 16.5448 23.8323 16.4952C23.8323 16.4206 23.7826 16.3961 23.7826 16.3961ZM27.2721 16.3961C27.2721 16.3961 27.3218 16.4454 27.3711 16.495C27.3957 16.5692 27.4453 16.6436 27.4453 16.6436C27.4453 16.6436 27.4702 16.6436 27.5195 16.5694C27.5444 16.5197 27.5444 16.4952 27.5444 16.4952C27.5444 16.4952 27.6679 16.5694 27.6927 16.6932C27.6927 16.7178 27.7176 16.7178 27.7176 16.7178C27.7176 16.7178 27.7669 16.7178 27.7918 16.6682C27.8163 16.6436 27.8411 16.7178 27.8163 16.8167C27.8163 16.916 27.7918 16.9902 27.7421 17.0892C27.6925 17.1634 27.6432 17.312 27.6432 17.312C27.6432 17.312 27.4204 17.213 27.3462 17.0892C27.2784 17.0052 27.2203 16.9138 27.173 16.8167V16.6932L27.2472 16.7425C27.2472 16.7425 27.2223 16.5448 27.2223 16.4952C27.2476 16.4206 27.2721 16.3961 27.2721 16.3961ZM26.3069 17.262L26.4804 17.2867L26.3566 17.4351L26.3811 17.6334L26.208 17.5344L26.0348 17.6334L26.0596 17.4351L25.9357 17.3116L26.109 17.262L26.208 17.089L26.3069 17.262ZM23.9561 18.6233C23.9432 18.6241 23.9311 18.6296 23.9219 18.6387C23.9128 18.6479 23.9073 18.66 23.9065 18.6729L23.8323 18.5736C23.8569 18.5736 23.8819 18.5736 23.9065 18.5491L24.0797 18.4005C24.1046 18.3759 24.1293 18.3759 24.1293 18.3263L24.2282 18.4501C24.1786 18.4252 24.154 18.4501 24.1293 18.4747L23.9561 18.6233ZM24.2528 19.0687C24.2528 19.0687 24.2282 19.0438 24.2282 19.019C24.2282 18.9694 24.2282 18.9694 24.2528 18.9201L24.2777 18.747L24.1784 18.8459C24.1539 18.8705 24.1291 18.8955 24.1291 18.9201L24.0549 18.8705C24.0795 18.8705 24.1046 18.8459 24.1291 18.8212L24.2777 18.6726C24.3023 18.6229 24.327 18.6229 24.327 18.5733L24.4012 18.6475L24.327 18.9199L24.4509 18.821C24.4754 18.7961 24.5005 18.7714 24.5005 18.7468L24.5498 18.7961C24.5252 18.7961 24.5005 18.821 24.4756 18.8457L24.2528 19.0687ZM24.6491 19.2418C24.6491 19.2664 24.6242 19.2915 24.6242 19.3408L24.5252 19.2666C24.5498 19.2666 24.5749 19.2173 24.5749 19.1924L24.7235 18.9946C24.6986 18.9946 24.6986 18.9946 24.6986 18.9697H24.6244L24.6986 18.8959V18.9204L24.8966 19.0439L24.8224 19.0936V19.0439H24.7978L24.6491 19.2418ZM25.02 19.4401C25.02 19.4646 25.0449 19.4646 25.0696 19.4646C25.0942 19.4892 25.1192 19.4892 25.1438 19.4646L25.0942 19.5388L24.8965 19.4646C24.921 19.4646 24.921 19.4401 24.9461 19.3904L25.02 19.1924C25.02 19.1431 25.0449 19.1182 25.02 19.0934L25.1935 19.1431C25.1935 19.1431 25.1935 19.1676 25.1935 19.1431L25.1686 19.242C25.1686 19.2174 25.144 19.1924 25.1192 19.1924H25.0943L25.0698 19.2916H25.144L25.1194 19.3906V19.366C25.1194 19.3411 25.0945 19.3411 25.0698 19.3411H25.0452L25.02 19.4401ZM25.6636 19.5885C25.639 19.5885 25.614 19.613 25.5647 19.613C25.4654 19.613 25.3912 19.5388 25.3912 19.3902C25.3912 19.2664 25.4654 19.1922 25.5647 19.1922H25.6389V19.2915C25.614 19.2666 25.5892 19.2418 25.5647 19.2418C25.4905 19.2418 25.4654 19.316 25.4654 19.3904C25.4654 19.4648 25.4903 19.539 25.5647 19.539H25.5892V19.4401C25.5892 19.4152 25.5892 19.4152 25.5647 19.3904H25.6636V19.5885ZM26.0099 19.415C26.0348 19.4399 26.0348 19.4892 26.0596 19.4892L25.9357 19.5388C25.9606 19.5143 25.9357 19.4646 25.9357 19.4399L25.8615 19.2418C25.8369 19.2173 25.8369 19.1676 25.8122 19.1676L25.9357 19.118C25.9606 19.0934 25.9854 19.0934 26.0099 19.0934C26.0348 19.118 26.0596 19.1431 26.0841 19.1676C26.0841 19.2173 26.0841 19.2666 26.0596 19.2915L26.1585 19.3657C26.1834 19.3902 26.2081 19.415 26.2327 19.415L26.1585 19.4646C26.1339 19.4646 26.1092 19.4646 26.0843 19.4401L25.9854 19.3408L26.0099 19.415ZM25.9357 19.1676L25.9854 19.3162C26.0099 19.2916 26.0099 19.242 26.0099 19.2173L25.9606 19.1676H25.9357ZM26.4804 19.1922C26.4804 19.2171 26.505 19.2418 26.5297 19.2418L26.4308 19.316C26.4308 19.2915 26.4062 19.2664 26.4062 19.2418L26.2824 19.0438C26.2578 19.0192 26.2327 18.9945 26.2081 18.9696L26.332 18.9203C26.3071 18.9448 26.332 18.9696 26.3566 18.9945L26.4804 19.1922ZM26.7771 18.9448C26.802 18.9694 26.8267 18.9945 26.8513 18.9945L26.7523 19.0934C26.7523 19.0438 26.7278 19.0192 26.703 18.9945L26.5545 18.8213H26.5296C26.505 18.8459 26.505 18.8706 26.505 18.8955L26.4553 18.7963H26.4802L26.6288 18.6477L26.6781 18.747C26.6781 18.7221 26.6536 18.7221 26.6288 18.747V18.7715L26.7771 18.9448ZM27.099 18.6233C27.1236 18.6478 27.1483 18.6729 27.1732 18.6729L27.099 18.7719C27.099 18.7222 27.0741 18.7222 27.0494 18.6976L26.9751 18.6234L26.802 18.5738C26.7771 18.5492 26.7771 18.5492 26.7523 18.5492L26.8266 18.475L26.9751 18.5247L26.9255 18.475C26.9255 18.4505 26.9255 18.4254 26.9009 18.4254H26.8764L26.9257 18.3512L27.0495 18.5492L27.099 18.6233Z" fill="white"/>
<path fill-rule="evenodd" clip-rule="evenodd" d="M26.307 13.9708C26.307 13.9708 26.5298 13.9708 26.6536 14.0945C26.7278 14.2182 26.7771 14.3173 26.7526 14.4657C26.7526 14.5894 26.7033 14.6636 26.7033 14.6636C26.7033 14.6636 26.9257 14.4904 26.8515 14.2429C26.8022 14.0201 26.728 13.9954 26.7033 13.9459C26.6536 13.8964 26.6291 13.8222 26.5298 13.847C26.4556 13.847 26.4063 13.8964 26.4063 13.8964L26.307 13.9708ZM24.7976 16.7919L24.8966 16.6434H24.7234L24.6492 16.4949L24.5499 16.6434H24.4014L24.4757 16.7919H24.7976Z" fill="#006699"/>
<path fill-rule="evenodd" clip-rule="evenodd" d="M24.7976 16.7918L24.8966 16.9404H24.7234L24.6492 17.089L24.55 16.9404H24.4014L24.4757 16.7918H24.7976ZM26.6041 16.2475L26.7034 16.0991H26.5299L26.4555 15.9752L26.3567 16.0991H26.2081L26.2823 16.2475H26.6041Z" fill="white"/>
<path fill-rule="evenodd" clip-rule="evenodd" d="M26.6039 16.2476L26.7032 16.3961H26.5297L26.4554 16.5445L26.3566 16.3961H26.208L26.2822 16.2476H26.6039Z" fill="#006699"/>
</svg>
