<svg width="20" height="20" viewBox="0 0 20 20" fill="none" xmlns="http://www.w3.org/2000/svg">
<path d="M5.79093 6.91045H11.1276C11.3558 6.91045 11.5789 6.8429 11.7688 6.7163C12.0904 6.50191 12.2836 6.14098 12.2836 5.75448V2.8345C12.2836 2.34796 12.4769 1.88135 12.8209 1.53731C13.1649 1.19328 13.6315 1 14.1181 1H17.1655C17.652 1 18.1187 1.19328 18.4627 1.53731C18.8067 1.88135 19 2.34796 19 2.8345V6.10448C19 6.61185 18.7611 7.08961 18.3552 7.39403C18.0762 7.6033 17.7368 7.71642 17.3881 7.71642H14.5142C14.286 7.71642 14.0629 7.78397 13.873 7.91056C13.5514 8.12496 13.3582 8.48589 13.3582 8.87239V16C13.3582 17.6569 12.0151 19 10.3582 19H6.13522C5.58338 19 5.03526 18.8909 4.56756 18.598C3.34069 17.8298 0.999982 15.9225 1 12.5522C1.00002 8.91807 3.72168 7.49525 4.83365 7.0656C5.13872 6.94772 5.46388 6.91045 5.79093 6.91045Z" fill="#4C2CD9"/>
<path d="M4.83365 7.0656L4.65344 6.5992L4.83365 7.0656ZM1 12.5522L0.5 12.5522L1 12.5522ZM4.56756 18.598L4.83291 18.1742H4.83291L4.56756 18.598ZM11.7688 6.7163L12.0462 7.13233L12.0462 7.13233L11.7688 6.7163ZM12.8209 1.53731L12.4673 1.18376V1.18376L12.8209 1.53731ZM18.4627 1.53731L18.1091 1.89087V1.89087L18.4627 1.53731ZM18.3552 7.39403L18.6552 7.79403L18.3552 7.39403ZM13.873 7.91056L13.5956 7.49454L13.5956 7.49454L13.873 7.91056ZM11.1276 6.41045H5.79093V7.41045H11.1276V6.41045ZM4.65344 6.5992C3.48114 7.05217 0.500022 8.59892 0.5 12.5522L1.5 12.5522C1.50002 9.23721 3.96222 7.93834 5.01386 7.53199L4.65344 6.5992ZM0.5 12.5522C0.49998 16.1838 3.0255 18.2223 4.3022 19.0218L4.83291 18.1742C3.65587 17.4372 1.49998 15.6612 1.5 12.5522L0.5 12.5522ZM6.13522 19.5H10.3582V18.5H6.13522V19.5ZM13.8582 16V8.87239H12.8582V16H13.8582ZM14.5142 8.21642H17.3881V7.21642H14.5142V8.21642ZM19.5 6.10448V2.8345H18.5V6.10448H19.5ZM17.1655 0.5H14.1181V1.5H17.1655V0.5ZM11.7836 2.8345V5.75448H12.7836V2.8345H11.7836ZM11.7836 5.75448C11.7836 5.9738 11.674 6.17862 11.4915 6.30028L12.0462 7.13233C12.5069 6.8252 12.7836 6.30816 12.7836 5.75448H11.7836ZM12.4673 1.18376C12.0295 1.62156 11.7836 2.21535 11.7836 2.8345H12.7836C12.7836 2.48057 12.9242 2.14114 13.1745 1.89087L12.4673 1.18376ZM18.8162 1.18376C18.3784 0.745957 17.7847 0.5 17.1655 0.5V1.5C17.5194 1.5 17.8589 1.6406 18.1091 1.89087L18.8162 1.18376ZM19.5 2.8345C19.5 2.21536 19.254 1.62157 18.8162 1.18376L18.1091 1.89087C18.3594 2.14113 18.5 2.48057 18.5 2.8345H19.5ZM18.6552 7.79403C19.187 7.39518 19.5 6.76923 19.5 6.10448H18.5C18.5 6.45447 18.3352 6.78404 18.0552 6.99403L18.6552 7.79403ZM17.3881 8.21642C17.845 8.21642 18.2897 8.06821 18.6552 7.79403L18.0552 6.99403C17.8628 7.13838 17.6287 7.21642 17.3881 7.21642V8.21642ZM14.1503 8.32659C14.2581 8.25475 14.3847 8.21642 14.5142 8.21642V7.21642C14.1873 7.21642 13.8676 7.31319 13.5956 7.49454L14.1503 8.32659ZM10.3582 19.5C12.2912 19.5 13.8582 17.933 13.8582 16H12.8582C12.8582 17.3807 11.7389 18.5 10.3582 18.5V19.5ZM4.3022 19.0218C4.87268 19.379 5.52133 19.5 6.13522 19.5V18.5C5.64544 18.5 5.19785 18.4027 4.83291 18.1742L4.3022 19.0218ZM5.79093 6.41045C5.42856 6.41045 5.03627 6.45128 4.65344 6.5992L5.01386 7.53199C5.24117 7.44416 5.49921 7.41045 5.79093 7.41045V6.41045ZM13.8582 8.87239C13.8582 8.65306 13.9678 8.44825 14.1503 8.32659L13.5956 7.49454C13.1349 7.80166 12.8582 8.31871 12.8582 8.87239H13.8582ZM14.1181 0.5C13.4989 0.5 12.9052 0.745956 12.4673 1.18376L13.1745 1.89087C13.4247 1.6406 13.7642 1.5 14.1181 1.5V0.5ZM11.1276 7.41045C11.4545 7.41045 11.7742 7.31368 12.0462 7.13233L11.4915 6.30028C11.3837 6.37211 11.2571 6.41045 11.1276 6.41045V7.41045Z" fill="#4C2CD9"/>
</svg>
