<svg width="32" height="32" viewBox="0 0 32 32" fill="none" xmlns="http://www.w3.org/2000/svg">
<path d="M25.8058 14.0416H25.0003V14.0001H16.0001V18.0002H21.6517C20.8272 20.3287 18.6117 22.0002 16.0001 22.0002C12.6866 22.0002 10.0001 19.3137 10.0001 16.0001C10.0001 12.6866 12.6866 10.0001 16.0001 10.0001C17.5297 10.0001 18.9212 10.5771 19.9807 11.5196L22.8092 8.69104C21.0232 7.02651 18.6342 6 16.0001 6C10.4776 6 6 10.4776 6 16.0001C6 21.5227 10.4776 26.0003 16.0001 26.0003C21.5227 26.0003 26.0003 21.5227 26.0003 16.0001C26.0003 15.3296 25.9313 14.6751 25.8058 14.0416Z" fill="#FFC803"/>
<path d="M7.15234 11.3454L10.4378 13.7549C11.3268 11.5539 13.4798 9.99995 15.9993 9.99995C17.5288 9.99995 18.9203 10.5769 19.9798 11.5194L22.8083 8.69097C21.0223 7.02649 18.6333 6 15.9993 6C12.1583 6 8.82733 8.16847 7.15234 11.3454Z" fill="#FC5C5C"/>
<path d="M16.0002 26.0003C18.5832 26.0003 20.9302 25.0118 22.7048 23.4043L19.6097 20.7853C18.6057 21.5458 17.3577 22.0003 16.0002 22.0003C13.3992 22.0003 11.1907 20.3418 10.3587 18.0273L7.09766 20.5398C8.75267 23.7783 12.1137 26.0003 16.0002 26.0003Z" fill="#1D8651"/>
<path d="M25.8055 14.0415H25V14H16V18H21.6515C21.2555 19.1185 20.536 20.083 19.608 20.7855C19.6085 20.785 19.609 20.785 19.6095 20.7845L22.7045 23.4035C22.4855 23.6025 26 21 26 16C26 15.3295 25.931 14.675 25.8055 14.0415Z" fill="#429DDF"/>
</svg>
