<svg width="33" height="32" viewBox="0 0 33 32" fill="none" xmlns="http://www.w3.org/2000/svg">
<g clip-path="url(#clip0_4864_7410)">
<path d="M4.5 5.76016C4.5 4.81502 5.29444 4.04785 6.27375 4.04785H26.7262C27.7059 4.04785 28.5 4.81502 28.5 5.76016V26.2398C28.5 27.1852 27.7059 27.9519 26.7262 27.9519H6.27375C5.29453 27.9519 4.5 27.1853 4.5 26.2401V5.75988V5.76016Z" fill="#006699"/>
<path d="M11.7933 24.0519V13.2903H8.20192V24.0519H11.7937H11.7933ZM9.99836 11.8212C11.2505 11.8212 12.03 10.9948 12.03 9.9621C12.0066 8.90584 11.2505 8.10254 10.0222 8.10254C8.79302 8.10254 7.99023 8.90584 7.99023 9.96201C7.99023 10.9947 8.76949 11.8211 9.97483 11.8211H9.99808L9.99836 11.8212ZM13.7812 24.0519H17.3723V18.0428C17.3723 17.7216 17.3957 17.3995 17.4906 17.1701C17.7501 16.5272 18.341 15.8617 19.3334 15.8617C20.6325 15.8617 21.1526 16.8485 21.1526 18.2954V24.0519H24.7436V17.8815C24.7436 14.5761 22.9721 13.038 20.6093 13.038C18.6721 13.038 17.8213 14.1164 17.3487 14.8508H17.3726V13.2906H13.7814C13.8282 14.3002 13.7811 24.0523 13.7811 24.0523L13.7812 24.0519Z" fill="white"/>
</g>
<defs>
<clipPath id="clip0_4864_7410">
<rect width="24" height="24" fill="white" transform="translate(4.5 4)"/>
</clipPath>
</defs>
</svg>
