<svg width="32" height="32" viewBox="0 0 32 32" fill="none" xmlns="http://www.w3.org/2000/svg">
<path d="M4 5.76041C4 4.81526 4.79444 4.0481 5.77375 4.0481H26.2262C27.2059 4.0481 28 4.81526 28 5.76041V26.2401C28 27.1855 27.2059 27.9521 26.2262 27.9521H5.77375C4.79453 27.9521 4 27.1856 4 26.2403V5.76013V5.76041Z" fill="#006699"/>
<path d="M11.2933 24.0527V13.291H7.70192V24.0527H11.2937H11.2933ZM9.49836 11.8219C10.7505 11.8219 11.53 10.9956 11.53 9.96283C11.5066 8.90658 10.7505 8.10327 9.52218 8.10327C8.29302 8.10327 7.49023 8.90658 7.49023 9.96274C7.49023 10.9955 8.26949 11.8218 9.47483 11.8218H9.49808L9.49836 11.8219ZM13.2812 24.0527H16.8723V18.0435C16.8723 17.7223 16.8957 17.4002 16.9906 17.1708C17.2501 16.5279 17.841 15.8625 18.8334 15.8625C20.1325 15.8625 20.6526 16.8492 20.6526 18.2961V24.0527H24.2436V17.8822C24.2436 14.5769 22.4721 13.0387 20.1093 13.0387C18.1721 13.0387 17.3213 14.1171 16.8487 14.8516H16.8726V13.2914H13.2814C13.3282 14.3009 13.2811 24.053 13.2811 24.053L13.2812 24.0527Z" fill="white"/>
</svg>
