<svg width="32" height="32" viewBox="0 0 32 32" fill="none" xmlns="http://www.w3.org/2000/svg">
<path fill-rule="evenodd" clip-rule="evenodd" d="M0 0H32V32H0V0Z" fill="white"/>
<path fill-rule="evenodd" clip-rule="evenodd" d="M31.0446 28.7294V3.26929H1.10156V28.7294H31.0446Z" fill="#5A5766"/>
<path fill-rule="evenodd" clip-rule="evenodd" d="M19.7885 19.9746H19.6997C19.2853 19.9746 19.0482 19.7377 19.0482 19.3235V8.685C19.0482 7.7394 18.606 7.32553 17.8978 7.32553C17.1899 7.32553 16.6884 7.7394 16.6884 8.685V17.373C16.6884 17.7867 16.4219 18.0231 16.0075 18.0231C15.593 18.0231 15.3265 17.7867 15.3265 17.373V8.685C15.3265 7.7394 14.8519 7.32553 14.1105 7.32553C13.3986 7.32553 12.9539 7.7394 12.9539 8.685V19.3235C12.9539 19.7377 12.717 19.9746 12.3026 19.9746H12.2138C11.7992 19.9746 11.5625 19.7377 11.5625 19.3235V8.685C11.5625 7.08846 12.3914 6.02234 14.0512 6.02234C14.585 6.02234 15.0891 6.17059 15.5042 6.43704C15.9483 6.70365 16.0666 6.70365 16.5106 6.43704C16.9243 6.17059 17.426 6.02234 17.9567 6.02234C19.6107 6.02234 20.4394 7.08846 20.4394 8.685V19.3235C20.4396 19.7379 20.2029 19.9746 19.7885 19.9746Z" fill="white"/>
<path fill-rule="evenodd" clip-rule="evenodd" d="M5.79885 7.62545H6.7023C8.46469 7.62545 9.35336 8.47063 9.35336 10.4128C9.35336 12.4145 7.91668 12.9332 6.9392 12.9332C6.45045 12.9332 6.02098 12.7702 5.79885 12.622V7.62545ZM4.29743 17.5853H2.83203V17.8179H7.30941V17.5853H5.79869V12.9183C6.09485 13.0639 6.68736 13.1657 7.19087 13.1657C8.98282 13.1657 10.9564 12.3696 10.9564 10.2792C10.9564 8.14441 9.2496 7.3927 7.04279 7.3927H2.83203V7.62529H4.29743V17.5853ZM24.185 7.62545H25.0883C26.8508 7.62545 27.7397 8.47063 27.7397 10.4128C27.7397 12.4145 26.303 12.9332 25.3253 12.9332C24.8367 12.9332 24.4071 12.7702 24.185 12.622V7.62545ZM22.6837 17.5853H21.2182V17.8179H25.6957V17.5853H24.185V12.9183C24.4813 13.0639 25.0738 13.1657 25.5773 13.1657C27.3694 13.1657 29.3428 12.3696 29.3428 10.2792C29.3428 8.14441 27.6361 7.3927 25.4292 7.3927H21.2183V7.62529H22.6839V17.5853H22.6837Z" fill="#A27821"/>
<path fill-rule="evenodd" clip-rule="evenodd" d="M1.74219 21.659H2.17034C3.06415 21.659 3.23415 22.166 3.23415 22.6664C3.23415 23.3922 2.79969 23.6487 2.05712 23.6487H1.74236V21.659H1.74219ZM1.09923 25.8692H0.470703V25.9729H2.38416V25.8692H1.74203V23.7525H2.15108C2.86245 23.7525 2.97567 24.1094 3.01966 24.504L3.06382 24.8797C3.15197 25.6039 3.19597 26.0153 3.96079 26.0153C4.1932 26.0153 4.35042 25.9762 4.47609 25.9308L4.4384 25.8486C4.37565 25.8736 4.29381 25.9113 4.18075 25.9113C4.07384 25.9113 3.89803 25.8864 3.85404 25.516L3.76639 24.7504C3.67242 23.9221 3.2901 23.7651 2.56645 23.7007V23.6877C3.02597 23.6299 3.91032 23.4299 3.91032 22.6666C3.91032 21.7219 3.12657 21.5554 2.40276 21.5554H0.470703V21.6592H1.09923V25.8692ZM6.12841 24.2606C6.12841 24.2855 6.1158 24.3045 6.08442 24.3045H5.03937V24.1295C5.03937 23.7299 5.17085 23.3613 5.60896 23.3613C6.022 23.3613 6.12841 23.7299 6.12841 24.1295V24.2606ZM5.03937 24.4081H6.67459C6.71228 24.4081 6.73104 24.3886 6.73104 24.3495C6.73104 24.0855 6.34805 23.2574 5.60896 23.2574C4.92648 23.2574 4.43674 24.042 4.43674 24.6523C4.43674 25.4792 4.95155 26.0466 5.68416 26.0466C6.26039 26.0466 6.68721 25.6547 6.78765 25.0783H6.68721C6.59939 25.5921 6.21009 25.9429 5.68416 25.9429C5.09581 25.9429 5.03323 25.4415 5.03954 24.9969V24.4081H5.03937Z" fill="white"/>
<path fill-rule="evenodd" clip-rule="evenodd" d="M7.69397 24.3347C7.69397 23.8752 8.05123 23.3614 8.57134 23.3614C9.12284 23.3614 9.21697 23.7937 9.21697 24.6523C9.21697 25.586 9.14176 25.9431 8.52768 25.9431C8.07015 25.9431 7.69413 25.5546 7.69413 25.0659V24.3347H7.69397ZM7.16605 28.627H6.73242V28.7308H8.17657V28.627H7.69397V25.5108H7.70658C7.80055 25.7238 8.09505 26.0468 8.52752 26.0468C9.3111 26.0468 9.81959 25.3854 9.81959 24.652C9.81959 24.0401 9.32355 23.2576 8.57134 23.2576C8.12012 23.2576 7.81931 23.6066 7.70658 23.9019H7.69397V23.2576C7.5683 23.3827 7.36725 23.3951 7.16605 23.3951H6.73242V23.4989H7.16605V28.627ZM10.4624 23.4989H9.93447V23.3951H10.4624C10.6634 23.3951 10.8646 23.3827 10.9903 23.2576V24.0024H11.0028C11.0775 23.7197 11.2956 23.2576 11.8061 23.2576C12.0365 23.2576 12.2171 23.4117 12.2171 23.6308C12.2171 23.7942 12.1175 23.9262 11.9308 23.9262C11.7253 23.9262 11.6569 23.8193 11.6569 23.6498C11.6569 23.5115 11.7253 23.4145 11.7938 23.3802C11.7689 23.3614 11.7377 23.3614 11.7067 23.3614C11.4512 23.3614 10.9903 23.77 10.9903 24.5838V25.8692H11.5622V25.973H9.93447V25.8692H10.4624V23.4989ZM14.2227 24.8967C14.2227 25.4419 14.1977 25.9433 13.4931 25.9433C12.7887 25.9433 12.7635 25.4419 12.7635 24.8967V24.408C12.7635 23.8629 12.7887 23.3614 13.4931 23.3614C14.1975 23.3614 14.2227 23.8629 14.2227 24.408V24.8967ZM12.161 24.6523C12.161 25.373 12.6821 26.0468 13.4931 26.0468C14.3043 26.0468 14.8252 25.3728 14.8252 24.6523C14.8252 23.9318 14.3043 23.2576 13.4931 23.2576C12.6821 23.2576 12.161 23.9317 12.161 24.6523ZM14.8818 25.8586H14.9069C15.3281 25.8586 15.3908 25.589 15.3908 25.3194V21.6697H14.9132V21.5555H16.5194L17.5631 24.5859H17.5757L18.6382 21.5555H20.1537V21.6697H19.6822V25.8586H20.1537V25.973H18.1606V25.8586H18.7011V21.7765H18.6885L17.2229 25.973H17.0534L15.5513 21.7023H15.5387V25.2628C15.5387 25.7708 15.6707 25.8584 16.0102 25.8584H16.0982V25.9728H14.8816V25.8586H14.8818ZM21.2132 24.3361V23.7969C21.2132 23.3768 21.3958 23.2452 21.6098 23.2452C21.9119 23.2452 22.0064 23.452 22.0064 23.7969V24.3361H21.2132ZM22.9474 24.4503C22.9412 23.7718 22.3139 23.1182 21.654 23.1308C20.9124 23.1308 20.2724 23.7718 20.2724 24.6206C20.2724 25.4401 20.8684 26.048 21.6729 26.048C22.4455 26.048 22.8285 25.5724 22.9663 24.9485H22.8534C22.7153 25.5345 22.3516 25.8999 21.8618 25.8999C21.2766 25.8999 21.2134 25.4084 21.2134 24.9799V24.4505H22.9474V24.4503ZM25.2257 25.1437C25.2257 25.5091 24.9873 25.8999 24.574 25.8999C24.1981 25.8999 24.0416 25.6101 24.0416 24.9671V24.0595C24.0416 23.6308 24.148 23.2779 24.5491 23.2779C24.975 23.2779 25.2257 23.6876 25.2257 24.0406V25.1437ZM24.7056 21.6695H25.2257V23.6114H25.2131C25.0688 23.303 24.8308 23.1296 24.4362 23.1296C23.596 23.1296 23.1003 23.8317 23.1003 24.6374C23.1003 25.5166 23.7967 26.0478 24.4236 26.0478C24.8373 26.0478 25.0627 25.8747 25.2131 25.592H25.2257V26.0478C25.4455 25.973 25.8664 25.973 26.0925 25.973H26.5263V25.8586H26.0925V21.3606C25.9796 21.5553 25.634 21.5553 25.1879 21.5553H24.7041L24.7056 21.6695ZM26.5518 25.8586H26.9853V23.3191H26.5518V23.2048H26.9981C27.2559 23.2048 27.7206 23.2048 27.8524 23.0415V25.8588H28.2862V25.9731H26.5518V25.8586ZM27.4189 21.5756C27.701 21.5756 27.9264 21.801 27.9264 22.0831C27.9264 22.3651 27.7011 22.5908 27.4189 22.5908C27.1372 22.5908 26.9114 22.3651 26.9114 22.0831C26.9114 21.801 27.1372 21.5756 27.4189 21.5756ZM30.2187 25.2244C30.2064 25.5579 30.018 25.8584 29.7233 25.8584C29.2967 25.8584 29.2778 25.4701 29.2778 25.1444C29.2778 24.8124 29.3154 24.5932 29.7233 24.5494L30.2187 24.4988V25.2244ZM31.0436 24.0221C31.0436 23.3076 30.3751 23.1308 29.7295 23.1308C29.1028 23.1308 28.6439 23.4393 28.6439 23.7904C28.6439 24.0097 28.7698 24.1976 29.0525 24.1976C29.2914 24.1976 29.4361 24.0411 29.4361 23.8216C29.4361 23.5208 29.1215 23.5397 29.1154 23.4331C29.1093 23.2952 29.4733 23.245 29.6863 23.245C30.1561 23.245 30.2187 23.4768 30.2187 23.8528V24.3842L29.605 24.4355C29.0327 24.48 28.4108 24.6309 28.4108 25.2824C28.4108 25.8272 28.9011 26.047 29.3848 26.047C29.63 26.047 30.0635 25.9527 30.2269 25.6517C30.3401 25.915 30.5725 26.047 30.8552 26.047C31.2638 26.047 31.5291 25.802 31.5291 25.4326L31.4147 25.4318C31.4147 25.5951 31.3443 25.7837 31.1906 25.7837C31.0755 25.7837 31.0436 25.6642 31.0436 25.4695V24.0221Z" fill="white"/>
</svg>
