<svg width="32" height="32" viewBox="0 0 32 32" fill="none" xmlns="http://www.w3.org/2000/svg">
<path fill-rule="evenodd" clip-rule="evenodd" d="M0 0H32V32H0V0Z" fill="white"/>
<path fill-rule="evenodd" clip-rule="evenodd" d="M2.99164 22.0625C2.99164 22.223 2.98101 22.2444 2.82031 22.2444V22.3193H3.40883V22.2444C3.23767 22.2444 3.22704 22.223 3.22704 22.0733V21.6239H3.35537C3.59078 21.6239 3.71927 21.581 3.81556 21.5062C3.91185 21.4313 3.95468 21.3136 3.95468 21.1745C3.95468 21.0244 3.90106 20.9173 3.80477 20.8424C3.71911 20.7782 3.6014 20.7354 3.38741 20.7354H2.82031V20.821C2.98085 20.821 2.99164 20.8424 2.99164 20.9922V22.0625ZM3.35537 20.8424C3.48387 20.8424 3.56936 20.8642 3.62299 20.9173C3.68723 20.9708 3.71927 21.0568 3.71927 21.1745C3.71927 21.3028 3.67644 21.3885 3.62299 21.4419C3.55874 21.5062 3.45183 21.5276 3.35537 21.5276H3.21625V20.9601C3.21625 20.8642 3.22704 20.8424 3.26988 20.8424H3.35537ZM4.40424 21.5382L4.39362 21.3991L4.3722 21.3777C4.27592 21.4311 4.17963 21.4633 4.08334 21.4739V21.5274C4.17963 21.5274 4.19042 21.5488 4.19042 21.6665V22.1159C4.19042 22.2443 4.17979 22.255 4.08334 22.255V22.3193H4.53274V22.255C4.41503 22.255 4.40441 22.2336 4.40441 22.1159V21.6451C4.46866 21.5488 4.52211 21.4846 4.56494 21.4846C4.59698 21.4846 4.60778 21.506 4.62919 21.5594C4.65061 21.6129 4.67202 21.6343 4.71485 21.6343C4.76848 21.6343 4.78973 21.5915 4.78973 21.538C4.78911 21.4983 4.77393 21.4602 4.74706 21.4309C4.71485 21.3989 4.68281 21.3881 4.62936 21.3881C4.54336 21.3885 4.47912 21.4313 4.40424 21.5382ZM5.41028 22.3407C5.57082 22.3407 5.69915 22.3087 5.79543 22.223C5.8811 22.1481 5.93455 22.0304 5.93455 21.8593C5.93455 21.6987 5.88093 21.581 5.78481 21.4952C5.68835 21.4207 5.57065 21.3885 5.41028 21.3885C5.24975 21.3885 5.13204 21.4205 5.04638 21.4952C4.95009 21.5812 4.89647 21.6989 4.89647 21.8593C4.89647 22.0304 4.95009 22.1481 5.04638 22.223C5.13204 22.3087 5.26037 22.3407 5.41028 22.3407ZM5.41028 21.4524C5.49578 21.4524 5.57082 21.4847 5.61365 21.5384C5.66711 21.6132 5.69915 21.7095 5.69915 21.8594C5.69915 22.02 5.66711 22.1163 5.61365 22.1805C5.57082 22.234 5.49595 22.2662 5.41028 22.2662C5.32462 22.2662 5.24975 22.2341 5.20692 22.1805C5.15346 22.1163 5.12125 22.02 5.12125 21.8594C5.12125 21.7097 5.15329 21.6134 5.20692 21.5384C5.24975 21.4847 5.32462 21.4524 5.41028 21.4524ZM6.31987 21.0033C6.245 21.0033 6.19154 21.0568 6.19154 21.1424C6.19154 21.2281 6.245 21.2815 6.31987 21.2815C6.38412 21.2815 6.4482 21.2281 6.4482 21.1424C6.4482 21.0568 6.38412 21.0033 6.31987 21.0033ZM6.22358 22.2766C6.22358 22.4478 6.20216 22.5549 6.18075 22.6297C6.14871 22.7046 6.10588 22.726 6.06305 22.726C6.02021 22.726 5.98817 22.7046 5.95597 22.6512C5.92393 22.5869 5.90251 22.5549 5.83843 22.5549C5.80622 22.5549 5.77402 22.5869 5.77402 22.6297C5.77402 22.6726 5.80606 22.7154 5.84906 22.7474C5.90251 22.7795 5.96659 22.8009 6.06321 22.8009C6.18092 22.8009 6.2772 22.7581 6.34128 22.6726C6.40553 22.5763 6.43774 22.4372 6.43774 22.2446V21.3991L6.40553 21.3777C6.29845 21.4311 6.20217 21.4633 6.08446 21.4739V21.5274C6.21279 21.5274 6.21279 21.538 6.21279 21.6665L6.22358 22.2766ZM7.55052 21.8593C7.55052 21.7095 7.50769 21.5918 7.43282 21.5062C7.35795 21.4205 7.25087 21.3778 7.12238 21.3778C6.99405 21.3778 6.88714 21.4207 6.80147 21.4952C6.71581 21.5812 6.66235 21.6989 6.66235 21.8486C6.66235 22.0092 6.70502 22.1269 6.78006 22.2018C6.87634 22.298 6.99421 22.3409 7.14396 22.3409C7.25104 22.3409 7.33653 22.3088 7.4114 22.266C7.47565 22.2232 7.51848 22.1803 7.55052 22.1163L7.48628 22.0842C7.45424 22.127 7.4222 22.1699 7.3792 22.2019C7.31495 22.234 7.25087 22.2554 7.18646 22.2554C7.09017 22.2554 7.0153 22.2125 6.96168 22.1377C6.90822 22.0628 6.89743 21.9665 6.89743 21.8488L7.55052 21.8593ZM6.89776 21.7736C6.89776 21.6665 6.9298 21.581 6.96201 21.5382C7.00484 21.4847 7.06909 21.4522 7.12254 21.4522C7.19758 21.4522 7.24024 21.4846 7.27245 21.5274C7.31528 21.5917 7.32591 21.6879 7.32591 21.7734H6.89776V21.7736ZM8.50294 22.0947C8.46927 22.1391 8.42967 22.1787 8.38524 22.2124C8.33162 22.2444 8.27816 22.2552 8.21391 22.2552C8.12841 22.2552 8.05338 22.2124 7.99992 22.1375C7.95726 22.0733 7.93567 21.977 7.93567 21.8593C7.93567 21.7095 7.96771 21.6239 8.01071 21.5596C8.02888 21.5273 8.05526 21.5004 8.08718 21.4815C8.1191 21.4627 8.15543 21.4526 8.1925 21.4524C8.27833 21.4524 8.32099 21.4952 8.34241 21.5596C8.36366 21.5917 8.37461 21.6131 8.40665 21.6453C8.42129 21.6587 8.44028 21.6663 8.46011 21.6667C8.50294 21.6667 8.53498 21.6346 8.53498 21.581C8.53498 21.5382 8.50294 21.495 8.44932 21.4633C8.39586 21.4099 8.29957 21.3885 8.18187 21.3885C8.04275 21.3885 7.91426 21.4205 7.8286 21.5168C7.7431 21.5917 7.70027 21.7094 7.70027 21.8591C7.70027 22.0088 7.7431 22.1373 7.83939 22.2336C7.91409 22.2979 8.02117 22.3407 8.17108 22.3407C8.26753 22.3407 8.34241 22.3193 8.40649 22.2765C8.46827 22.2448 8.52009 22.1966 8.55623 22.1373L8.50294 22.0947ZM8.66348 21.4847H8.79197V22.0839C8.79197 22.2872 8.9203 22.3407 9.05942 22.3407C9.17712 22.3407 9.26295 22.3087 9.33782 22.255L9.29499 22.1908C9.24153 22.2228 9.19853 22.2443 9.13445 22.2443C9.05942 22.2443 9.00613 22.2014 9.00613 22.0837V21.4846H9.2842V21.4097H9.00596V21.1315H8.94171C8.88809 21.324 8.82401 21.4097 8.65285 21.4203L8.66348 21.4847ZM11.4781 20.7354L10.975 22.009H10.9644L10.44 20.7354H10.044V20.821C10.1938 20.821 10.2152 20.832 10.2152 20.9819V22.0626C10.2152 22.2232 10.1938 22.2338 10.044 22.2338V22.3195H10.4828V22.2338C10.3329 22.2338 10.3221 22.2232 10.3221 22.0626V20.9923L10.868 22.3302H10.9536L11.4781 21.0035H11.4887V22.0734C11.4887 22.2232 11.4781 22.2446 11.3282 22.2446V22.3195H11.8954V22.2446C11.735 22.2446 11.7243 22.2232 11.7243 22.0734V20.9923C11.7243 20.8426 11.735 20.8212 11.8954 20.8212V20.7463L11.4781 20.7354ZM12.805 21.6881C12.805 21.6024 12.7836 21.5276 12.7301 21.4741C12.6767 21.4099 12.6016 21.3885 12.4413 21.3885C12.3128 21.3885 12.2379 21.4099 12.1843 21.4313C12.1094 21.4741 12.0666 21.5276 12.0666 21.581C12.0666 21.6239 12.088 21.6667 12.1416 21.6667C12.2059 21.6667 12.2273 21.6453 12.2487 21.6024C12.2592 21.5596 12.2807 21.5276 12.3022 21.5062C12.3342 21.4847 12.3664 21.4633 12.4305 21.4633C12.4841 21.4633 12.5269 21.4847 12.5482 21.5168C12.5696 21.5488 12.5804 21.6024 12.5804 21.6559V21.7416L12.4521 21.763C12.3471 21.7881 12.2462 21.8277 12.1522 21.8807C12.056 21.9341 12.0239 22.009 12.0239 22.1055C12.0239 22.1803 12.056 22.2446 12.1096 22.2874C12.163 22.3302 12.2273 22.3409 12.2914 22.3409C12.4413 22.3409 12.5161 22.298 12.5804 22.2338H12.591C12.6123 22.298 12.6659 22.3301 12.7622 22.3301C12.8264 22.3301 12.8797 22.3195 12.9227 22.3087L12.9121 22.2444C12.8907 22.255 12.8693 22.255 12.8586 22.255C12.8158 22.255 12.7944 22.223 12.7944 22.1267L12.805 21.6881ZM12.5696 22.1481C12.5269 22.191 12.4733 22.2338 12.3876 22.2338C12.345 22.2338 12.302 22.2232 12.2807 22.191C12.2592 22.1589 12.2379 22.1267 12.2379 22.0733C12.2379 21.9876 12.2914 21.9341 12.3554 21.9021C12.4091 21.8593 12.4946 21.8272 12.5696 21.8058V22.1481ZM13.9716 21.6881C13.9716 21.5704 13.9394 21.4952 13.8859 21.4524C13.8431 21.4099 13.7682 21.3885 13.6718 21.3885C13.5434 21.3885 13.4365 21.4524 13.3507 21.549H13.3401V21.3991L13.3079 21.3777C13.2224 21.4311 13.1153 21.4522 13.0082 21.4739V21.5274C13.1259 21.5274 13.1365 21.5488 13.1365 21.6665V22.1053C13.1365 22.2336 13.1259 22.255 13.0082 22.255V22.3193H13.447V22.255C13.3507 22.255 13.3507 22.2444 13.3507 22.1159V21.6559C13.4256 21.5488 13.5218 21.4847 13.5967 21.4847C13.6503 21.4847 13.6824 21.495 13.7038 21.5276C13.7466 21.5596 13.7573 21.6239 13.7573 21.6987V22.1161C13.7573 22.2444 13.7466 22.2552 13.661 22.2552V22.3195H14.0675V22.2552C13.9819 22.2552 13.9712 22.2338 13.9712 22.1161V21.6881H13.9716ZM14.9454 21.6881C14.9454 21.6024 14.9348 21.5276 14.8812 21.4741C14.8169 21.4099 14.742 21.3885 14.5923 21.3885C14.4638 21.3885 14.3781 21.4099 14.3247 21.4313C14.2604 21.4741 14.2176 21.5276 14.2176 21.581C14.2176 21.6239 14.2389 21.6667 14.2925 21.6667C14.3459 21.6667 14.3781 21.6453 14.3889 21.6024C14.4102 21.5596 14.421 21.5276 14.453 21.5062C14.4851 21.4847 14.5171 21.4633 14.5707 21.4633C14.635 21.4633 14.6778 21.4847 14.6992 21.5168C14.7206 21.5488 14.7313 21.6024 14.7313 21.6559V21.7416L14.6028 21.763C14.4743 21.795 14.3674 21.8378 14.3031 21.8807C14.2068 21.9341 14.1642 22.009 14.1642 22.1055C14.1642 22.1803 14.2068 22.2446 14.2498 22.2874C14.3031 22.3302 14.3781 22.3409 14.4424 22.3409C14.5813 22.3409 14.6672 22.298 14.7313 22.2338H14.7419C14.7633 22.298 14.8061 22.3301 14.9024 22.3301C14.9773 22.3301 15.0201 22.3195 15.0736 22.3087L15.0522 22.2444C15.0415 22.255 15.0201 22.255 14.9987 22.255C14.9559 22.255 14.9345 22.223 14.9345 22.1267L14.9454 21.6881ZM14.7206 22.1481C14.6778 22.191 14.6242 22.2338 14.5387 22.2338C14.4852 22.2338 14.453 22.2232 14.4316 22.191C14.3996 22.1589 14.3889 22.1267 14.3889 22.0733C14.3889 21.9876 14.4316 21.9341 14.4958 21.9021C14.5601 21.8593 14.6458 21.8272 14.7206 21.8058V22.1481ZM15.5341 22.2016C15.4162 22.2016 15.3628 22.1802 15.3628 22.1267C15.3628 22.0839 15.3948 22.0518 15.4376 22.0196C15.5021 22.0517 15.5768 22.0625 15.6518 22.0625C15.8872 22.0625 16.0692 21.9448 16.0692 21.7201C16.0692 21.6345 16.0369 21.5596 15.9729 21.5062L16.1761 21.5168V21.4097L15.8978 21.4417C15.8336 21.4097 15.7481 21.3883 15.641 21.3883C15.395 21.3883 15.2129 21.506 15.2129 21.72C15.2129 21.8377 15.2771 21.934 15.3734 21.9982C15.2985 22.0411 15.2236 22.0945 15.2236 22.1802C15.2236 22.2658 15.2985 22.3193 15.3734 22.3299C15.2663 22.3727 15.1486 22.4582 15.1486 22.5759C15.1486 22.7365 15.3412 22.8114 15.6302 22.8114C15.9511 22.8114 16.1759 22.6616 16.1759 22.469C16.1759 22.3299 16.069 22.2122 15.7585 22.2122L15.5341 22.2016ZM15.6516 21.9876C15.5125 21.9876 15.4375 21.8805 15.4375 21.7201C15.4375 21.581 15.5125 21.4633 15.6408 21.4633C15.78 21.4633 15.8548 21.581 15.8548 21.7201C15.855 21.8807 15.7801 21.9876 15.6516 21.9876ZM15.7267 22.3729C15.9407 22.3729 15.9941 22.4478 15.9941 22.5227C15.9941 22.6297 15.855 22.7366 15.6304 22.7366C15.4484 22.7366 15.3306 22.6618 15.3306 22.5547C15.3306 22.4798 15.3734 22.4156 15.4697 22.3621L15.7267 22.3729ZM17.1715 21.8593C17.1715 21.7095 17.1286 21.5918 17.0538 21.5062C16.9789 21.4205 16.8718 21.3778 16.7435 21.3778C16.6044 21.3778 16.5078 21.4207 16.4221 21.4952C16.3364 21.5812 16.283 21.6989 16.283 21.8486C16.283 22.0092 16.3258 22.1269 16.4007 22.2018C16.4867 22.298 16.6147 22.3409 16.7647 22.3409C16.8718 22.3409 16.9573 22.3088 17.0322 22.266C17.0964 22.2232 17.1393 22.1803 17.1713 22.1163L17.1071 22.0842C17.075 22.127 17.0428 22.1699 17 22.2019C16.9357 22.234 16.8717 22.2554 16.8071 22.2554C16.7111 22.2554 16.6363 22.2125 16.5826 22.1377C16.529 22.0628 16.5184 21.9665 16.5184 21.8488L17.1715 21.8593ZM16.5187 21.7736C16.5187 21.6665 16.5508 21.581 16.583 21.5382C16.6258 21.4847 16.69 21.4522 16.7435 21.4522C16.8074 21.4522 16.8612 21.4846 16.8932 21.5274C16.9361 21.5917 16.9467 21.6879 16.9467 21.7734H16.5187V21.7736ZM18.7554 21.6987C18.7554 21.581 18.7337 21.5168 18.6908 21.4633C18.6377 21.4099 18.5731 21.3885 18.4875 21.3885C18.3483 21.3885 18.2627 21.4633 18.1878 21.549H18.1772C18.1666 21.4952 18.1344 21.4633 18.1023 21.4313C18.0462 21.402 17.9836 21.3872 17.9204 21.3885C17.8027 21.3885 17.7064 21.4633 17.6315 21.5382H17.6209V21.3991L17.5888 21.3885C17.498 21.433 17.4004 21.4619 17.3 21.4741V21.5384C17.4071 21.5384 17.4177 21.549 17.4177 21.6775V22.1163C17.4177 22.2446 17.4071 22.2554 17.3 22.2554V22.3196H17.728V22.2554C17.6423 22.2554 17.6317 22.2448 17.6317 22.127V21.6456C17.7065 21.5385 17.7708 21.4851 17.8457 21.4851C17.8885 21.4851 17.9205 21.5065 17.9419 21.5385C17.9634 21.5814 17.974 21.6348 17.974 21.7205V22.127C17.974 22.2448 17.9634 22.2554 17.8777 22.2554V22.3196H18.2843V22.2554C18.1989 22.2554 18.188 22.2448 18.188 22.127V21.6348C18.2522 21.5385 18.3163 21.4851 18.402 21.4851C18.4554 21.4851 18.4876 21.5065 18.509 21.5493C18.5305 21.5921 18.5411 21.6456 18.5411 21.7205V22.127C18.5411 22.2448 18.5197 22.2554 18.4448 22.2554V22.3196H18.8517V22.2554C18.766 22.2554 18.7554 22.2448 18.7554 22.127V21.6987ZM19.8574 21.8593C19.8574 21.7095 19.8146 21.5918 19.7397 21.5062C19.6648 21.4205 19.5578 21.3778 19.4294 21.3778C19.2903 21.3778 19.1834 21.4207 19.1084 21.4952C19.0227 21.5812 18.9692 21.6989 18.9692 21.8486C18.9692 22.0092 19.0121 22.1269 19.0869 22.2018C19.1726 22.298 19.3009 22.3409 19.4507 22.3409C19.5578 22.3409 19.6432 22.3088 19.7075 22.266C19.7717 22.2232 19.8252 22.1803 19.8572 22.1163L19.793 22.0842C19.7593 22.1287 19.7197 22.1683 19.6753 22.2019C19.6205 22.2356 19.5577 22.2541 19.4933 22.2554C19.3971 22.2554 19.3218 22.2125 19.2686 22.1377C19.2151 22.0628 19.204 21.9665 19.204 21.8488L19.8574 21.8593ZM19.2045 21.7736C19.2045 21.6665 19.2262 21.581 19.2691 21.5382C19.3119 21.4847 19.3653 21.4522 19.4296 21.4522C19.4938 21.4522 19.5473 21.4846 19.5793 21.5274C19.6114 21.5917 19.6328 21.6879 19.6328 21.7734H19.2045V21.7736ZM20.9488 21.6881C20.9488 21.5704 20.9171 21.4952 20.8631 21.4524C20.8206 21.4099 20.7454 21.3885 20.6491 21.3885C20.5314 21.3885 20.4137 21.4524 20.3281 21.549L20.3174 21.3992L20.2854 21.3778C20.1997 21.4313 20.0928 21.4524 19.9965 21.4741V21.5276C20.1036 21.5276 20.1142 21.549 20.1142 21.6667V22.1055C20.1142 22.2338 20.1036 22.2552 19.9965 22.2552V22.3195H20.4245V22.2552C20.3282 22.2552 20.3282 22.2446 20.3282 22.1161V21.6561C20.4031 21.549 20.4994 21.4849 20.5743 21.4849C20.6277 21.4849 20.6599 21.4952 20.6813 21.5277C20.7242 21.5598 20.7348 21.624 20.7348 21.6989V22.1163C20.7348 22.2446 20.7242 22.2554 20.6385 22.2554V22.3196H21.0454V22.2554C20.9594 22.2554 20.9488 22.234 20.9488 22.1163V21.6881ZM21.1311 21.4847H21.2594V22.0839C21.2594 22.2872 21.3985 22.3407 21.5376 22.3407C21.6553 22.3407 21.7302 22.3087 21.8051 22.255L21.773 22.1908C21.7196 22.2228 21.666 22.2443 21.6019 22.2443C21.527 22.2443 21.4842 22.2014 21.4842 22.0837V21.4846H21.7516V21.4097H21.4842V21.1315H21.4093C21.3558 21.324 21.2916 21.4097 21.1311 21.4203V21.4847ZM22.6612 22.0625C22.6612 22.223 22.6506 22.2336 22.5007 22.2336V22.3193H23.0571V22.2336C22.9074 22.2336 22.8966 22.223 22.8966 22.0625V20.9922C22.8966 20.832 22.9072 20.821 23.0571 20.821V20.7354H22.5115V20.821C22.6506 20.821 22.6612 20.832 22.6612 20.9922V22.0625ZM24.1274 21.6881C24.1274 21.5704 24.0954 21.4952 24.0526 21.4524C23.9991 21.4099 23.9242 21.3885 23.8278 21.3885C23.7101 21.3885 23.603 21.4524 23.5067 21.549L23.4961 21.3992L23.4747 21.3778C23.378 21.4313 23.2713 21.4524 23.1747 21.4741V21.5276C23.2819 21.5276 23.2927 21.549 23.2927 21.6667V22.1055C23.2927 22.2338 23.2821 22.2552 23.1747 22.2552V22.3195H23.603V22.2552C23.5173 22.2552 23.5067 22.2446 23.5067 22.1161V21.6561C23.5924 21.549 23.6779 21.4849 23.7527 21.4849C23.8062 21.4849 23.8384 21.4952 23.8704 21.5277C23.9025 21.5598 23.9133 21.624 23.9133 21.6989V22.1163C23.9133 22.2446 23.9133 22.2554 23.817 22.2554V22.3196H24.2343V22.2554C24.1381 22.2554 24.1273 22.234 24.1273 22.1163V21.6881H24.1274ZM24.9834 21.6345C24.962 21.5382 24.9513 21.4847 24.9513 21.4311C24.8871 21.3991 24.8016 21.3883 24.6945 21.3883C24.5768 21.3883 24.4912 21.4097 24.4377 21.4522C24.3628 21.495 24.3414 21.5594 24.3414 21.6237C24.3414 21.6879 24.3628 21.7308 24.3949 21.7734C24.4483 21.8269 24.5126 21.8591 24.5875 21.9126C24.6837 21.966 24.7372 21.9874 24.7694 22.0196C24.8016 22.0518 24.8122 22.0839 24.8122 22.1159C24.8122 22.1588 24.7908 22.2016 24.7588 22.223C24.7267 22.255 24.6839 22.2658 24.6197 22.2658C24.502 22.2658 24.4271 22.223 24.3842 22.0518L24.3094 22.0625C24.3308 22.1481 24.3414 22.2122 24.3522 22.2979C24.4271 22.3299 24.5234 22.3513 24.6519 22.3513C24.7804 22.3513 24.8766 22.3193 24.9407 22.2657C25.005 22.2228 25.037 22.148 25.037 22.0731C25.037 22.0088 25.005 21.9554 24.9621 21.9126C24.9301 21.8697 24.8765 21.8269 24.8124 21.7949C24.7589 21.7628 24.6841 21.7306 24.6198 21.6986C24.577 21.6665 24.545 21.6237 24.545 21.5809C24.545 21.5488 24.5664 21.5166 24.5984 21.4949C24.6304 21.4738 24.6733 21.4632 24.7161 21.4632C24.8232 21.4632 24.8873 21.506 24.9198 21.6557L24.9834 21.6345ZM25.1333 21.4847H25.2724V22.0839C25.2724 22.2872 25.4011 22.3407 25.5399 22.3407C25.6579 22.3407 25.7436 22.3087 25.8184 22.255L25.7756 22.1908C25.7222 22.2228 25.6685 22.2443 25.6147 22.2443C25.5291 22.2443 25.4864 22.2014 25.4864 22.0837V21.4846H25.765V21.4097H25.4864V21.1315H25.4222C25.3687 21.324 25.3048 21.4097 25.1333 21.4203V21.4847ZM26.1287 21.0033C26.0538 21.0033 26.0004 21.0568 26.0004 21.1424C26.0004 21.2281 26.0538 21.2815 26.1287 21.2815C26.193 21.2815 26.257 21.2281 26.257 21.1424C26.257 21.0568 26.1928 21.0033 26.1287 21.0033ZM26.2464 21.3991L26.2144 21.3885C26.1073 21.4313 26.011 21.4633 25.8933 21.4741V21.5276C26.0216 21.5276 26.0216 21.5382 26.0216 21.6667V22.1055C26.0216 22.2338 26.0216 22.2552 25.8933 22.2552V22.3195H26.3641V22.2552C26.257 22.2552 26.2464 22.2338 26.2464 22.1055V21.3991ZM26.4604 21.4847H26.5887V22.0839C26.5887 22.2872 26.7171 22.3407 26.867 22.3407C26.9847 22.3407 27.0596 22.3087 27.1344 22.255L27.0919 22.1908C27.0381 22.2228 26.9956 22.2443 26.9311 22.2443C26.8562 22.2443 26.8027 22.2014 26.8027 22.0837V21.4846H27.081V21.4097H26.8027V21.1315H26.7385C26.685 21.324 26.6208 21.4097 26.4602 21.4203V21.4847H26.4604ZM28.3012 22.2552C28.1941 22.2552 28.1835 22.2338 28.1835 22.1055V21.3991L28.1514 21.3777C28.0551 21.4311 27.9481 21.4522 27.8626 21.4633V21.5276C27.9588 21.5276 27.9588 21.549 27.9588 21.6667L27.9695 22.0947C27.8946 22.1803 27.8089 22.2338 27.7123 22.2338C27.6592 22.2338 27.6056 22.2124 27.5735 22.1695C27.5415 22.1267 27.5307 22.0625 27.5307 21.9662V21.3991L27.4983 21.3777C27.4056 21.4289 27.3039 21.4616 27.1987 21.4739L27.2093 21.5274C27.3056 21.5274 27.3165 21.5488 27.3165 21.6665V21.9982C27.3165 22.1265 27.3482 22.223 27.4019 22.2765C27.4555 22.3299 27.5413 22.3407 27.6268 22.3407C27.7766 22.3407 27.8836 22.2765 27.9585 22.2016H27.9691L27.9798 22.3407L28.0012 22.3513C28.044 22.3407 28.0975 22.3299 28.1509 22.3299C28.1938 22.3193 28.2472 22.3193 28.29 22.3193L28.3012 22.2552ZM28.3975 21.4847H28.5258V22.0839C28.5258 22.2872 28.6649 22.3407 28.804 22.3407C28.9217 22.3407 28.9966 22.3087 29.0715 22.255L29.0286 22.1908C28.9858 22.2228 28.9323 22.2443 28.8681 22.2443C28.7932 22.2443 28.7504 22.2014 28.7504 22.0837V21.4846H29.0178V21.4097H28.7504V21.1315H28.6755C28.6221 21.324 28.5578 21.4097 28.3973 21.4203V21.4847H28.3975ZM30.0563 21.8593C30.0563 21.7095 30.0134 21.5918 29.9385 21.5062C29.8633 21.4205 29.7563 21.3778 29.6283 21.3778C29.4888 21.3778 29.3819 21.4207 29.3069 21.4952C29.2212 21.5812 29.1678 21.6989 29.1678 21.8486C29.1678 22.0092 29.2106 22.1269 29.2855 22.2018C29.3711 22.298 29.4994 22.3409 29.6492 22.3409C29.7563 22.3409 29.8421 22.3088 29.906 22.266C29.9706 22.2232 30.024 22.1803 30.0561 22.1163L29.9918 22.0842C29.9582 22.1287 29.9186 22.1683 29.8741 22.2019C29.8192 22.2356 29.7563 22.2541 29.6919 22.2554C29.5956 22.2554 29.5207 22.2125 29.4671 22.1377C29.4135 22.0628 29.4028 21.9665 29.4028 21.8488L30.0563 21.8593ZM29.4032 21.7736C29.4032 21.6665 29.4246 21.581 29.4674 21.5382C29.5106 21.4847 29.5637 21.4522 29.6175 21.4522C29.692 21.4522 29.7352 21.4846 29.7777 21.5274C29.8101 21.5917 29.8315 21.6879 29.8315 21.7734H29.4032V21.7736Z" fill="#5A5766"/>
<path fill-rule="evenodd" clip-rule="evenodd" d="M7.07985 13.8437L6.6195 13.833V16.3692L8.52449 16.3586H8.55653C8.55653 16.3586 8.56716 16.3586 8.59936 16.348C8.88823 16.2837 10.9323 15.7594 11.0286 12.9771C11.0286 12.9771 11.2642 10.3873 8.55653 9.41342L8.06431 9.2851L7.49704 9.18864H2.63867V19.3981H5.95611V12.0565L7.18676 12.0671C7.18676 12.0671 7.25101 12.0778 7.29384 12.0992C7.56129 12.2277 8.35317 13.2121 7.20818 13.8007L7.14393 13.8329L7.07985 13.8437ZM11.6279 9.18848H13.8646L11.6387 12.581L11.6279 9.18848ZM14.5388 15.3525V19.398H11.9598L14.5388 15.3525ZM20.4675 15.3525V19.398H17.8456L20.4675 15.3525ZM18.2736 9.18848V11.9923L20.1572 9.18848H18.2736ZM24.3736 19.398H27.9908V9.18848H24.3736V19.398ZM28.4082 18.5417V18.6486H28.6971V19.398H28.8148V18.6486H29.1038V18.5417H28.4082ZM29.2107 18.5417V19.398H29.3178V18.6806L29.5532 19.398H29.6712L29.9172 18.6806V19.398H30.0242V18.5417H29.8635L29.6176 19.2695L29.3712 18.5417H29.2107Z" fill="#1879BF"/>
</svg>
