<svg width="156" height="16" viewBox="0 0 156 16" fill="none" xmlns="http://www.w3.org/2000/svg">
<g clip-path="url(#clip0_2632_29570)">
<path d="M43 0.666748V15.3334" stroke="#6D6C73" stroke-width="2" stroke-linecap="round" stroke-linejoin="round"/>
<path d="M46.3333 3.33325H41.3333C40.7145 3.33325 40.121 3.57908 39.6834 4.01667C39.2458 4.45425 39 5.04775 39 5.66659C39 6.28542 39.2458 6.87892 39.6834 7.3165C40.121 7.75409 40.7145 7.99992 41.3333 7.99992H44.6667C45.2855 7.99992 45.879 8.24575 46.3166 8.68334C46.7542 9.12092 47 9.71441 47 10.3333C47 10.9521 46.7542 11.5456 46.3166 11.9832C45.879 12.4208 45.2855 12.6666 44.6667 12.6666H39" stroke="#6D6C73" stroke-width="2" stroke-linecap="round" stroke-linejoin="round"/>
</g>
<path d="M5.23967 1.33325H10.7597L14.6663 5.23992V10.7599L10.7597 14.6666H5.23967L1.33301 10.7599V5.23992L5.23967 1.33325Z" stroke="#6D6C73" stroke-width="2" stroke-linecap="round" stroke-linejoin="round"/>
<path d="M10 6L6 10" stroke="#6D6C73" stroke-width="2" stroke-linecap="round" stroke-linejoin="round"/>
<path d="M6 6L10 10" stroke="#6D6C73" stroke-width="2" stroke-linecap="round" stroke-linejoin="round"/>
<g clip-path="url(#clip1_2632_29570)">
<path d="M84 6.66675C84 11.3334 78 15.3334 78 15.3334C78 15.3334 72 11.3334 72 6.66675C72 5.07545 72.6321 3.54933 73.7574 2.42411C74.8826 1.29889 76.4087 0.666748 78 0.666748C79.5913 0.666748 81.1174 1.29889 82.2426 2.42411C83.3679 3.54933 84 5.07545 84 6.66675Z" stroke="#6D6C73" stroke-width="2" stroke-linecap="round" stroke-linejoin="round"/>
<path d="M78 8.66675C79.1046 8.66675 80 7.77132 80 6.66675C80 5.56218 79.1046 4.66675 78 4.66675C76.8954 4.66675 76 5.56218 76 6.66675C76 7.77132 76.8954 8.66675 78 8.66675Z" stroke="#6D6C73" stroke-width="2" stroke-linecap="round" stroke-linejoin="round"/>
</g>
<path d="M117.667 7.33325H108.333C107.597 7.33325 107 7.93021 107 8.66659V13.3333C107 14.0696 107.597 14.6666 108.333 14.6666H117.667C118.403 14.6666 119 14.0696 119 13.3333V8.66659C119 7.93021 118.403 7.33325 117.667 7.33325Z" fill="#6D6C73" stroke="#6D6C73" stroke-width="2" stroke-linecap="round" stroke-linejoin="round"/>
<path d="M109.667 7.33325V4.66659C109.667 3.78253 110.018 2.93468 110.643 2.30956C111.268 1.68444 112.116 1.33325 113 1.33325C113.884 1.33325 114.732 1.68444 115.357 2.30956C115.982 2.93468 116.334 3.78253 116.334 4.66659V7.33325" stroke="#6D6C73" stroke-width="2" stroke-linecap="round" stroke-linejoin="round"/>
<path d="M145.333 12H154" stroke="#6D6C73" stroke-width="2" stroke-linecap="round" stroke-linejoin="round"/>
<path d="M142 12H142.007" stroke="#6D6C73" stroke-width="2" stroke-linecap="round" stroke-linejoin="round"/>
<path d="M145.333 8H154" stroke="#6D6C73" stroke-width="2" stroke-linecap="round" stroke-linejoin="round"/>
<path d="M142 8H142.007" stroke="#6D6C73" stroke-width="2" stroke-linecap="round" stroke-linejoin="round"/>
<path d="M145.333 4H154" stroke="#6D6C73" stroke-width="2" stroke-linecap="round" stroke-linejoin="round"/>
<path d="M142 4H142.007" stroke="#6D6C73" stroke-width="2" stroke-linecap="round" stroke-linejoin="round"/>
<defs>
<clipPath id="clip0_2632_29570">
<rect width="16" height="16" fill="white" transform="translate(35)"/>
</clipPath>
<clipPath id="clip1_2632_29570">
<rect width="16" height="16" fill="white" transform="translate(70)"/>
</clipPath>
</defs>
</svg>
