<svg width="156" height="16" viewBox="0 0 156 16" fill="none" xmlns="http://www.w3.org/2000/svg">
<path d="M46.333 2.00004C46.5081 1.82494 46.716 1.68605 46.9447 1.59129C47.1735 1.49653 47.4187 1.44775 47.6663 1.44775C47.914 1.44775 48.1592 1.49653 48.3879 1.59129C48.6167 1.68605 48.8246 1.82494 48.9997 2.00004C49.1748 2.17513 49.3137 2.383 49.4084 2.61178C49.5032 2.84055 49.552 3.08575 49.552 3.33337C49.552 3.58099 49.5032 3.82619 49.4084 4.05497C49.3137 4.28374 49.1748 4.49161 48.9997 4.66671L39.9997 13.6667L36.333 14.6667L37.333 11L46.333 2.00004Z" stroke="#6D6C73" stroke-width="2" stroke-linecap="round" stroke-linejoin="round"/>
<path d="M8.66699 1.33325H4.00033C3.6467 1.33325 3.30756 1.47373 3.05752 1.72378C2.80747 1.97382 2.66699 2.31296 2.66699 2.66659V13.3333C2.66699 13.6869 2.80747 14.026 3.05752 14.2761C3.30756 14.5261 3.6467 14.6666 4.00033 14.6666H12.0003C12.3539 14.6666 12.6931 14.5261 12.9431 14.2761C13.1932 14.026 13.3337 13.6869 13.3337 13.3333V5.99992L8.66699 1.33325Z" stroke="#6D6C73" stroke-width="2" stroke-linecap="round" stroke-linejoin="round"/>
<path d="M8.66699 1.33325V5.99992H13.3337" stroke="#6D6C73" stroke-width="2" stroke-linecap="round" stroke-linejoin="round"/>
<path d="M83.8931 3.07333C83.5526 2.73267 83.1483 2.46243 82.7033 2.27805C82.2584 2.09368 81.7814 1.99878 81.2998 1.99878C80.8181 1.99878 80.3412 2.09368 79.8962 2.27805C79.4512 2.46243 79.0469 2.73267 78.7064 3.07333L77.9998 3.78L77.2931 3.07333C76.6053 2.38553 75.6724 1.99914 74.6998 1.99914C73.7271 1.99914 72.7942 2.38553 72.1064 3.07333C71.4186 3.76112 71.0322 4.69397 71.0322 5.66666C71.0322 6.63935 71.4186 7.5722 72.1064 8.26L72.8131 8.96666L77.9998 14.1533L83.1864 8.96666L83.8931 8.26C84.2337 7.91949 84.504 7.51521 84.6884 7.07023C84.8727 6.62526 84.9676 6.14832 84.9676 5.66666C84.9676 5.185 84.8727 4.70807 84.6884 4.26309C84.504 3.81812 84.2337 3.41383 83.8931 3.07333Z" fill="#6D6C73" stroke="#6D6C73" stroke-width="2" stroke-linecap="round" stroke-linejoin="round"/>
<path d="M108.333 8H117.666" stroke="#6D6C73" stroke-width="2" stroke-linecap="round" stroke-linejoin="round"/>
<path d="M154 9.33325H149.333V13.9999H154V9.33325Z" stroke="#6D6C73" stroke-width="2" stroke-linecap="round" stroke-linejoin="round"/>
<path d="M146.667 9.33325H142V13.9999H146.667V9.33325Z" stroke="#6D6C73" stroke-width="2" stroke-linecap="round" stroke-linejoin="round"/>
<path d="M154 2H149.333V6.66667H154V2Z" stroke="#6D6C73" stroke-width="2" stroke-linecap="round" stroke-linejoin="round"/>
<path d="M146.667 2H142V6.66667H146.667V2Z" stroke="#6D6C73" stroke-width="2" stroke-linecap="round" stroke-linejoin="round"/>
</svg>
